<svg xmlns="http://www.w3.org/2000/svg" viewBox="0 0 311.2 211.92"><defs><style>.cls-1{fill:#1d84fe;}</style></defs><title>bg-brush</title><g id="Слой_2" data-name="Слой 2"><g id="OBJECTS"><g id="_Группа_" data-name="&lt;Группа&gt;"><path id="_Составной_контур_" data-name="&lt;Составной контур&gt;" class="cls-1" d="M310.3,100.37c.19-1.14-.76-1.8-1.12-2.71l-.24-.34a1.45,1.45,0,0,1-.52-.13,1.45,1.45,0,0,0,.52.13l.24.34c.61-.4.5-1,.31-1.52s0-.82.51-1c.23-.08.26-.35.29-.57l.13-1c1.15-1.31,1-2.23-.39-3.13a1.42,1.42,0,0,0-1.71-1,.68.68,0,0,0-.75-.31.43.43,0,0,0-.24-.07c-1.28-.18-2.57-.27-3.82-.56s-2.76,0-3.84-1.05c0-1.75,0-3.5.07-5.25,0-.81-.26-1.27-1.19-1.21s-2.18.13-2.84-1a.53.53,0,0,0-.45-.13c-1.15.21-2.22-.34-3.35-.29h-.35l0,0c-.29-.73-.89-.59-1.44-.47a13.43,13.43,0,0,1-2.13.55c-3.91.17-7.65,1.29-11.47,2-1.93.36-3.87.63-5.79,1.06s-4,.49-5.85.93a49,49,0,0,1-8.2.73c-3.21.22-6.41.53-9.63.68-.89,0-1.77.1-2.66.17-.28-.33-.5-.71-.75-1.07l-.39-.13a.51.51,0,0,1-.54-.39l-1.58-.64c-.78.47-1.24-.1-1.72-.56l-.09.14c.15.52-.12.76-.57.89l.47,1.08a3.78,3.78,0,0,1,1.14-.26,3.77,3.77,0,0,0-1.14.26l-.47-1.08-.41-.67-.3-.39-.36.52c-.52.35-.68,1-1.19,1.38a4.15,4.15,0,0,0,.8.2.82.82,0,0,1-.23.38,1.41,1.41,0,0,0-.06.86h0a1.42,1.42,0,0,1,.06-.86c-.56.05-1,0-1.09-.73,0-.38-.14-.76-.21-1.13l-1.78.28a1.41,1.41,0,0,0,.66,1.68,1.32,1.32,0,0,1,.61.84h-.7a1.2,1.2,0,0,0-.14-.53l-1,.36c0,.06,0,.12.06.19-2,0-4.07,0-6.11.05-1.7,0-3.39-.08-5.07-.23a3.78,3.78,0,0,1,1-2.24l0,0c0-.56,0-1.11.6-1.38.23-.33.42-.73.08-1a.54.54,0,0,0-.89.33c-.26.82-1,1.32-1.3,2.11a5.08,5.08,0,0,1-1.26,2c-1.11-.13-2.22-.28-3.32-.46h-.06c.72-.84,1.12-2,2.13-2.62,1.26-.76.6-1.44.2-2.32a4.6,4.6,0,0,0-1.66,2,18.18,18.18,0,0,1-1.48,2.44l-.3.38c-1.92-.27-3.85-.42-5.78-.51a.55.55,0,0,0-.42-.64c-.32-.07-.71,0-.8.31a2.07,2.07,0,0,1-.12.27l-3.24-.12c-3.37-.12-6.75-.14-10.12-.1a3.59,3.59,0,0,0-1.53-.59c-.15-.7-.79-.47-1.22-.64l-1.26.15a.93.93,0,0,1-1.15-.37l-1.17.07c-.7.61-1.31.18-1.77-.28-1.08-1.06-1.65-.44-2.15.55-.18.34-.31.71-.46,1.06.28,0,.56.07.85.1h0c-.28,0-.57-.05-.85-.1h0a2.34,2.34,0,0,0-2.23.62l-.17.05-.44-.12a4.79,4.79,0,0,0-2.12-.15l-.47-.81c-.34.24-.74.47-.81.83-1.41,0-2.81,0-4.21.12-1.39-.54-2.7-1.3-4.12-1.75a3.3,3.3,0,0,1-.26-.46s-.08.1-.13.1a1.72,1.72,0,0,1-.3,0l-.41.11a6.56,6.56,0,0,0-.81-.1l0,0a1,1,0,0,0-.16-1c.83.08,1.61-.4,2.49-.13.61.19,1.44.3,1.74-.54s-.93-.83-1.1-1.47v-.18l0-.17h-.08a.31.31,0,0,1-.46.26c-.5.26-1,.34-1.36-.17a1.86,1.86,0,0,1-1.59-1.3l-1.22-.21a.45.45,0,0,1-.39.23,3.61,3.61,0,0,0,1.54,2.41c.59.34.44.77.34,1.23l-5.34-1.22-1.21,0c-.6,1.08-1.49.92-2.43.56a1,1,0,0,1-.92.66.86.86,0,0,1-1,.34,2.87,2.87,0,0,1-1.74-.06c.89,1.31,1.17,2.42-.82,3-.48.14-.61.68-.42,1.2h0a11,11,0,0,1-.42,1.06l-.89.08a4.22,4.22,0,0,0-.53-.76,9.3,9.3,0,0,0,.41-1.48c0-1.56-1.32-2.18-2.37-2.84a.87.87,0,0,0-.75-.14h0a1.19,1.19,0,0,0-.29-1.68c-.58.53-.23,1.37-.67,1.95a.47.47,0,0,1-.38.58,2.45,2.45,0,0,0-1,1s0,0,0,.07a2.86,2.86,0,0,0-.5.23l0,.32a1.28,1.28,0,0,1-1,0l-.89.16-1-.07c-.42-.89-1.08-1.68-1.7-.34s-1.51.71-2.29.94a2.16,2.16,0,0,0-2.89-1.55c-.54-.27-.92-.11-.84.5s.51.65,1,.38a1.74,1.74,0,0,1,1.84.41l-.72.49c-1.55,0-2.53,1.07-3.63,1.9a7,7,0,0,1-.79.54h-1.29a2,2,0,0,1-.47-.44l-.52.13-.56-.29L130,87l.54-.58v0c-1.32-1.49-1.13-3.54-2-5.21a1.28,1.28,0,0,0-2-.1,3.54,3.54,0,0,0,1.23,2.48c-.2,0-.43,0-.61-.07l-.22,0c-.33.34-.11.64.06.94.4,0,1,.37,1.13-.3a.71.71,0,0,0,0-.11c.66.75,1.66,1.65.56,2.81a2.14,2.14,0,0,0-1.51-1.08,7.57,7.57,0,0,0-3.64-2l-.82.52c-.14.17-.33.52-.42.49-2.27-.56-4.15.67-6.16,1.3-.72-1.62.51-2.89.8-4.33-1.45-1.62-1.53-1.6-2.5.57.07.84,1.22,1.79-.23,2.49l-.73.94.24.45c-.06.4-.11.8-.16,1.2-2.08-.09-4.16-.21-6.24-.3a28.76,28.76,0,0,1-3.38-.23c-1.28-.21-2.59-.24-3.88-.35-2.37-.2-4.75-.1-7.13-.29a17.28,17.28,0,0,0-4.22.08,11.25,11.25,0,0,1-1.63-1.73l.37.24c1.1-.63.81-1.13-.15-1.56-.5.25-.71.46-.73.66-.29-.38-.58-.77-.88-1.14h0c-1.79,1.35.87,2,.4,3.3a4.49,4.49,0,0,1-4-2.37c0-.57,0-1.14,0-1.72l-2.61-3.15-.28.27.69,2.15a1.93,1.93,0,0,1,.66,1.54c.39.8.06,1.27-.71,1.53,0,0,.08.29.08.29a3.91,3.91,0,0,1-2.67-.1c-1.12-.51-2.25-1.26-3,.59-.21.54-.9.58-1.51.43-.83-.21-1.68-1-2.53-.2s-.14,1.73-.22,2.6a3.81,3.81,0,0,1-.54,1.59,2.41,2.41,0,0,1-.44.52c-.62.11-1.23.26-1.83.43a1.86,1.86,0,0,1-1.08-1.16c-.39-1.07-1.36-1.5-1.76-2.43l-1.7-1.16c-1-.2-1.57-1.09-2.38-1.6a1.45,1.45,0,0,1,.15,1.59l-.19.13a3.05,3.05,0,0,1,1.46,1.22,4.08,4.08,0,0,1,2.83,3.4l0,0a3,3,0,0,1,.33.73l-.24.08a3.63,3.63,0,0,0-1.54,1l-.5-.08c0,.66-.57,1-.88,1.46l.24.41-.17.37c-.45,1,.68,1.42.86,2.19,0,.17-.06.34-.09.51A2.26,2.26,0,0,1,62,98a2.91,2.91,0,0,1-3.73.33l-.78.22c-1.22,1-.83,1.89.46,2.06,2.11.28,2.64,1.34,2.28,3.24-.27,1.4,1.31,3.12-.76,4.21a.82.82,0,0,1,.29.41c1.1-.09,2.29-.46,2.09,1.49-.07.65.57,1.38.88,2.07l.24,0,.11.22c.79.69.71,1.69.82,2.58a2.58,2.58,0,0,0,.39,3,2.09,2.09,0,0,0,.75,1.33.37.37,0,0,0,.37.26l.06,0c.59,0,1.17.18,1.75.28-.58-.1-1.16-.23-1.75-.28.22,1.47,1.58,1.66,2.57,2.14a43.84,43.84,0,0,0,6,2.34,2.24,2.24,0,0,0-1.62,1l.88.92,2.5-1.44c1,.26,1.95.47,2.92.66a7.35,7.35,0,0,1,.25,1.6c.57.24,1-.1,1.37-.41-.05-.1-.1-.21-.14-.31a.36.36,0,0,0,.12-.14.22.22,0,0,0-.23-.3h0a1.54,1.54,0,0,1,0-.2c1.7.27,3.41.46,5.14.59a.85.85,0,0,0,1.36.07l.65.07a3,3,0,0,0,3.16.3l.85,0,.46.17h1.71c.52.59,1.13.36,1.73.2l.65.07.25.05a4.67,4.67,0,0,0,1.37,3.2c-.89.17-.29,1.17-.75,1.58.26.38.58.78,1.06.55.19-.09.28-.61.24-.91a3.91,3.91,0,0,0-.29-.94c.2.2.41.39.63.58a.68.68,0,0,1,.65.33l.49-.13c0-.12.06-.28.05-.38,0,.1,0,.26-.05.38a1.35,1.35,0,0,0,.19.27.36.36,0,0,1,.38-.06c.62-.26,1.08.32,1.65.31l.83-.25c0-.39.21-1.06.49-.95,1.39.56,1.69-1.12,2.74-1.21.48,0,.51-.55.43-.94s-.1-.54-.13-.82a1.41,1.41,0,0,0,.67-.27,4.89,4.89,0,0,0,1.71,0h1a.57.57,0,0,0,.22.09,2,2,0,0,0,2.19,0h.1s0,0,0,.07c.26.61.69.44,1.12.21l0-.12a5.65,5.65,0,0,0,3.25.07l1.1.12,0,0-1.61,1.57a13.59,13.59,0,0,0-3.48.88c-1.43.79-.41,1.28.48,1.62a3.14,3.14,0,0,0,.56-.39l1-.09c1.55-1,3.55-1.17,4.7-2.8a8.47,8.47,0,0,0,1.21-.25c.28.06.56.09.84.13a1.29,1.29,0,0,1,.41.38l.41,0a1.48,1.48,0,0,0,1.5.58c.89-.13,1.79-.25,2.68-.4a1,1,0,0,0,.48.17c1.24.1,2.47.31,3.72.4s2.46.22,3.68.35a3.25,3.25,0,0,1-2.28,1.37,5.11,5.11,0,0,0-1.94.47v0c.73,0,1.41.61,2.16.28.94-.42,1.33-.06,1.57.5-.73.15-1.52-.24-2.22.22-.53.39-1,1-1.76.81l.1.16h0c-1.12.16-1.43.76-1,1.78l.74-.1c.45.42.81.57,1.38,0,1.17-1.07,1.18-.08,1.21.78a1,1,0,0,0,1.1,0c0-.55-.85-1-.13-1.64l.87-.82a2.2,2.2,0,0,1-.3,1.44c2.63.54,3.06,1.49,2.24,4.56.39-.13,1-.33.84-1.17a.58.58,0,0,1,.83-.69c1.23.49,2.55.94,3.1,2.27.27.66.45.71,1.13.54a3.1,3.1,0,0,0,1.56-1.15c1.83-2,2.84-1.83,4,.75.19.41.39.62.92.32-.45-1.08-1.28-2-1.54-3.17s0-1.66,1.3-1.71c.37,0,.82.25,1.08-.05a1.72,1.72,0,0,1,2.3-.43c-.48-.37-.82-1-1.56-.81l-.55-1.22a14.39,14.39,0,0,1,.77-2.08c.11-.21,0-.43-.13-.65l4.57,0a3,3,0,0,1,.05.79c.23.38.44.78,1,.83l1.11-.76,0-.06a1.44,1.44,0,0,0-.19-.81,131.08,131.08,0,0,1,15.47.68c2.3.27,4.63.39,6.91.81,2.07.38,4.16.69,6.25.92a1.75,1.75,0,0,0,.75.82,3.65,3.65,0,0,0,.06-.73q1.18.11,2.35.18c3.22.18,6.43.48,9.64.68,1.19.07,2.39.12,3.59.16,0,.33,0,.74.45.69s.49-.35.39-.66c1.75,0,3.5.08,5.26.1.71.58,1.12,1.59,2.24,1.7.84.08,1.56.75,2.57.64s1.08.5.54,1.36c-.15.24-.51.33-.57.66a.92.92,0,0,0,.73,1c.35.07-.1-.46.13-.69a7.7,7.7,0,0,0,.94-1.73,4.74,4.74,0,0,1,2.17-2c1.1-.48,1.42.6,2.1,1,1.57.82,2.84,2.3,4.84,2.15a.68.68,0,0,1,.77.15c.45.57.79.32,1.13-.09v-.06L225,137l.05-.07h0l1.76-2.13-.8-.71c.69,0,1.38-.05,2.07-.08a2.61,2.61,0,0,0,1.22,1.45l-.16.45c-.33.17-.68.33-1,.53s-.58.52-.37.94a.78.78,0,0,0,1.09.48,8.26,8.26,0,0,0,.77-.44l.55-.31h0a7.8,7.8,0,0,0,5.18,2l1.29-.19c.05-.4.58-.69.26-1.17l.45-.76c.1,1.06.1,1.06,1.08,1.56l.92-.14.33-.33.53-.08a1,1,0,0,1,.11.27l.85-.19.25-1.35h0c.51-1.59.13-2.23-1.22-2.07-.49-.17-1-.26-.73-1v-.05l1.09-.07a.57.57,0,0,0,.71.29c.22,0,.35-.18.3-.38l1.14-.13a.93.93,0,0,0-.35.62c.69-.25,1.45.18,2.12-.21l-.11-.6a26.21,26.21,0,0,0,4-.44,39.47,39.47,0,0,1,8.9-1.15c3-.21,6.05-.51,9.1-.56,2.83,0,5.64-.39,8.46.15a2.48,2.48,0,0,0,1.18,0,14.67,14.67,0,0,1,3.38-.32,12.17,12.17,0,0,0,5.49-1.53c1.94-1.19,4-2.18,6.41-1.88a2.38,2.38,0,0,0,1.49-.27,3.85,3.85,0,0,1,2.15-.39c.39,0,.77,0,1.15,0a3.07,3.07,0,0,1-.08,1.51c-.49,1.14.11,1.55,1,1.76a4,4,0,0,1,2.46,1.3,6.18,6.18,0,0,1,1.53-1,7.93,7.93,0,0,1,1-.54c.55-.21.69-.44.64-1.13-.11-1.56.13-1.67,2.19-1.87l-.26-.87a1.15,1.15,0,0,0,.48-1.19,1.94,1.94,0,0,0-.91.24,1.94,1.94,0,0,1,.91-.24l-.14-.33a1.18,1.18,0,0,0-.62-1.15l0-.76c.83-.56,2.11-.7,2-2.13a6.13,6.13,0,0,0-.11-2.74,8.49,8.49,0,0,1,1.11-3.1c.27-.51,1.16-.59,1-1.4,1.21-1.1,1.2-1.48.07-2.4a3.21,3.21,0,0,0-2-.71c-.62-.9-1.64-.57-2.47-.82a6.34,6.34,0,0,0-2.36-.2h0c-.17-.49-.86-.42-1.18-1h7.48a2,2,0,0,0,2-.92l-.82-.06c-.78-1.12-2-.77-3.08-.93-.34-.77-1.25-.1-1.84-.8h2c.42,0,.79-.07.9-.56a7.33,7.33,0,0,0,2.6.17c.6.09.92-.14.67-.73a7.48,7.48,0,0,0-.84-1.24l0-.64C310.17,101.8,310.68,101.32,310.3,100.37ZM307.23,96a5.42,5.42,0,0,1-1.49-.24,5.42,5.42,0,0,0,1.49.24ZM185.3,130.38a2.78,2.78,0,0,0,.15-1h0A2.78,2.78,0,0,1,185.3,130.38ZM128.62,87h0c-.05.15-.12.33-.2.49h0C128.5,87.31,128.57,87.14,128.62,87Zm117.53,43.62c0-.2,0-.41,0-.61C246.19,130.2,246.16,130.41,246.15,130.61Zm-45.48-2.18c0-.1-.05-.24-.12-.27s.08.18.12.27Zm91.72-23.87a9.91,9.91,0,0,0,.17-2.12,2.22,2.22,0,0,1,1.1-.82,2.22,2.22,0,0,0-1.1.82A9.93,9.93,0,0,1,292.4,104.56Zm-10.24,16.15a.36.36,0,0,0-.1-.1A.36.36,0,0,1,282.16,120.71Zm-.1.64a.56.56,0,0,1-.53-.17A.56.56,0,0,0,282.06,121.35Zm11.46-33.67a1.65,1.65,0,0,0,.06-.28h0A1.64,1.64,0,0,1,293.52,87.68Zm-21,2.34.07-.13-.07.13Zm-40.89,26.47.12-.28h0Zm7.59,6.76h0l-.41,1.14Zm-56.79-.53h0a.25.25,0,0,1-.3-.27A.25.25,0,0,0,182.42,122.72Zm98.1-3.08a2,2,0,0,0,.32.73A2,2,0,0,1,280.53,119.64Zm11-1.19a.44.44,0,0,0-.25-.25,5.47,5.47,0,0,0-.55-.13,5.45,5.45,0,0,1,.55.13.44.44,0,0,1,.25.25c.37,0,.53.17.6.37a1.55,1.55,0,0,1,.07.44,1.55,1.55,0,0,0-.07-.44C292.06,118.62,291.9,118.47,291.53,118.44Zm3.26-31.72a6.86,6.86,0,0,1,1.48-.55A6.85,6.85,0,0,0,294.79,86.72ZM288.88,83l.35,0Zm-6,6.6-.12.28.12-.28ZM149.68,129l.31-.62h0l-.31.62Zm2-.5a1.38,1.38,0,0,0,.21-.35A1.39,1.39,0,0,1,151.69,128.48Zm17.05-.44a2.38,2.38,0,0,0-.24.41h0A2.38,2.38,0,0,1,168.75,128Zm10.57,0,.55,1.56-.55-1.56Zm7.65,1.16a.7.7,0,0,1-.23.15A.7.7,0,0,0,187,129.16Zm15.89,2.59h0a2.6,2.6,0,0,1-.75.69A2.6,2.6,0,0,0,202.85,131.75Zm42.27-1.7.34-.33-.34.33a1.14,1.14,0,0,0-.53.11A1.14,1.14,0,0,1,245.13,130Zm27.59-3.21a.73.73,0,0,0,0-.17.74.74,0,0,1,0,.17.44.44,0,0,1-.43.42A.44.44,0,0,0,272.71,126.84Zm27-33.62h0l.33-.35Zm2.86,7.56a.45.45,0,0,0-.43.42.73.73,0,0,0,0,.17.73.73,0,0,1,0-.17A.45.45,0,0,1,302.58,100.77Zm2.26-.07h0l0,.09Zm-.06.24a1.24,1.24,0,0,1-.06.16A1.24,1.24,0,0,0,304.78,100.94ZM300.3,89.6h0l-.12.28ZM297,86.71a26.62,26.62,0,0,1-.66,2.64,6.45,6.45,0,0,0-.2,1.34,6.44,6.44,0,0,1,.2-1.34,26.58,26.58,0,0,0,.66-2.64Zm-4.14-3.39a1.75,1.75,0,0,0-.63.06A1.74,1.74,0,0,1,292.88,83.32Zm-1,.32h-.68c0-.21,0-.41,0-.62,0,.21,0,.41,0,.62ZM273,85a2.61,2.61,0,0,0,.81.36q0,.34,0,.67,0-.34,0-.67A2.61,2.61,0,0,1,273,85a.36.36,0,0,1-.14-.29A.36.36,0,0,0,273,85Zm.13,1.36a.62.62,0,0,1,.48-.31.62.62,0,0,0-.48.31h0Zm-32-1.91a1.34,1.34,0,0,0-.49-.23A1.34,1.34,0,0,1,241.09,84.46Zm-83.23-.63c-.33.31-.65.64-1,.94C157.21,84.47,157.53,84.14,157.86,83.83Zm-17.82,1h0a.83.83,0,0,1-.47-.07A.83.83,0,0,0,140,84.88Zm-11.37,1.94s-.06.08-.1.12l-.05,0Zm-12.55-.77h0a2.35,2.35,0,0,0-.32-.41A2.35,2.35,0,0,1,116.13,86.06ZM63.32,105.51c-1.1-2.34-1.1-4.36,0-6.24h0c-1.12,1.89-1.12,3.9,0,6.24-.69.8-.38,1.44.08,2.12C62.94,107,62.63,106.31,63.32,105.51Zm79.52,33.75c-.06,0-.18-.06-.18-.1a1.41,1.41,0,0,1,0-.33l.2.11Zm6.33-4.75c-.31-.1-.62-.38-.91-.14a3.48,3.48,0,0,1-1.49.92,3.48,3.48,0,0,0,1.49-.92C148.55,134.13,148.87,134.41,149.17,134.51Zm8.28-5.94a.92.92,0,0,0,.37.11c0-.27-.17-.61-.13-.88,0,.27.16.61.13.88A.92.92,0,0,1,157.45,128.56Zm3.66.46h0a2.29,2.29,0,0,0,1.14.33l.32-1h0l-.32,1A2.29,2.29,0,0,1,161.11,129Zm4.55,0a1.06,1.06,0,0,1,.15-.47,1.06,1.06,0,0,0-.15.47Zm2.4-.36h.34l.09-.19h0l-.09.19Zm22.85,2.73a.52.52,0,0,1-.34.23.52.52,0,0,0,.34-.23h0Zm52.2-1h0a1.42,1.42,0,0,1-.59,1.07A1.42,1.42,0,0,0,243.11,130.4ZM288.8,126h-.35a.58.58,0,0,1-.29.26,1.06,1.06,0,0,1-.38.07,1.52,1.52,0,0,1-.08.43,1.51,1.51,0,0,0,.08-.43,1.06,1.06,0,0,0,.39-.07.58.58,0,0,0,.29-.26h.35c.23,0,.45,0,.68,0C289.26,126,289,126,288.8,126Zm15.72-.19a.64.64,0,0,1-.67.34A3.18,3.18,0,0,0,304.53,125.77Zm0-4.73a3.35,3.35,0,0,1,.36-.35A3.34,3.34,0,0,0,304.55,121Zm1-10.75a.2.2,0,0,0,.13.12A.2.2,0,0,1,305.59,110.28Zm0-.31c-.36-.15-.8-.18-1.16-.33.36.16.79.18,1.16.33Zm-1.11-6.26.23-.29Zm1.06-.27c-.24-.23-.42-.27-.57-.22.15-.05.33,0,.57.22h0Zm1,0c.5-1.26.49-2-.14-2.37.63.39.64,1.1.14,2.37Z"/><path id="_Контур_" data-name="&lt;Контур&gt;" class="cls-1" d="M299.72,133a2.16,2.16,0,0,0-.28-1.81C299.1,131.59,299.27,132,299.72,133Z"/><path id="_Контур_2" data-name="&lt;Контур&gt;" class="cls-1" d="M151.27,135.14a1.28,1.28,0,0,0,.51.25Z"/><polygon id="_Контур_3" data-name="&lt;Контур&gt;" class="cls-1" points="294.72 140.6 294.72 140.6 294.72 140.6 294.72 140.6"/><path id="_Контур_4" data-name="&lt;Контур&gt;" class="cls-1" d="M302.69,139.65c.06-1.14-.83-1.72-1.49-2.39-.24-.25-.69.07-1,.2a1.44,1.44,0,0,0-1.43-.86.7.7,0,0,1-.53.64c-1.66.25-2.36,1.57-3.16,2.79a.5.5,0,0,1-.32.57l-.06.82a1.48,1.48,0,0,1,.47,1.4l1.21,1.33a.31.31,0,0,1,.38,0,1,1,0,0,1,1.1.1v0c2,.5,3.33-.62,4.7-1.69,1.13-.88.65-1.92.17-2.93Z"/><path id="_Контур_5" data-name="&lt;Контур&gt;" class="cls-1" d="M292.81,140.86c-.49-.34-1.08-.65-1-1.38s1,0,1.43-.77a1.67,1.67,0,0,1-2.31-.92,2,2,0,0,0-2.35-1.2c-.19-.41-.55-.36-.9-.33-1-.17-1.58.67-2.29,1.08-1,.57-1,2.8-.42,3.83.84,1.5,2.35.63,3.44,1.16.91.44.92-.55,1.25-.86a1.54,1.54,0,0,1,2-.34c.48.25.92.93,1.58.31C293.42,141,293,141,292.81,140.86Z"/><path id="_Контур_6" data-name="&lt;Контур&gt;" class="cls-1" d="M270.6,135.11c-1.8.85-2.65,2-2.29,3.09a1.83,1.83,0,0,0,2.52,1.12c1.28-.41,2-1.49,1.7-2.46S271.06,134.89,270.6,135.11Z"/><path id="_Контур_7" data-name="&lt;Контур&gt;" class="cls-1" d="M239.27,62.74c-.72-.43-1.21-.06-1.34.24-.59,1.38-2,2.29-2.22,3.88A11.82,11.82,0,0,0,239.27,62.74Z"/><path id="_Контур_8" data-name="&lt;Контур&gt;" class="cls-1" d="M225.73,79.11c.3-.83.59-1.67.86-2.51,0-.05-.21-.26-.31-.25s-.53.07-.6.21c-.52,1.05-1.36,2-1.37,3.44A1.29,1.29,0,0,0,225.73,79.11Z"/><path id="_Контур_9" data-name="&lt;Контур&gt;" class="cls-1" d="M230.09,151a2.45,2.45,0,0,0-.7-2.39A2.87,2.87,0,0,0,230.09,151Z"/><path id="_Контур_10" data-name="&lt;Контур&gt;" class="cls-1" d="M230.85,139.95a1,1,0,0,0,1,1.16c0-.53.42-1.16-.12-1.57C231.44,139.3,231.13,139.73,230.85,139.95Z"/><path id="_Контур_11" data-name="&lt;Контур&gt;" class="cls-1" d="M216,76.57a.43.43,0,0,0-.39.43c0,.46-.41,1,.37,1.43a1.43,1.43,0,0,0,.5-1.27C216.41,76.88,216.35,76.56,216,76.57Z"/><path id="_Контур_12" data-name="&lt;Контур&gt;" class="cls-1" d="M180.15,147.62c-.33.23-.75.47-.5,1a.54.54,0,0,0,.75.24c.39-.2.76-.49.53-1C180.78,147.53,180.47,147.52,180.15,147.62Z"/><path id="_Контур_13" data-name="&lt;Контур&gt;" class="cls-1" d="M220.27,77.73A.54.54,0,0,0,221,78a.79.79,0,0,0,.57-1c-.1-.35-.42-.37-.71-.22S220.1,77.2,220.27,77.73Z"/><path id="_Контур_14" data-name="&lt;Контур&gt;" class="cls-1" d="M225.64,69.4a.2.2,0,0,0-.11-.15c-1-.11-.93,1-1.09,1.05C224.55,70.15,225.48,70.31,225.64,69.4Z"/><path id="_Контур_15" data-name="&lt;Контур&gt;" class="cls-1" d="M247.64,11.42a.76.76,0,0,0,.57-.83c0-.23-.23-.34-.6-.37a.77.77,0,0,0-.4.81C247.24,11.26,247.39,11.47,247.64,11.42Z"/><path id="_Контур_16" data-name="&lt;Контур&gt;" class="cls-1" d="M192.54,55.88c.33-.1.35-.43.32-.74a.38.38,0,0,0-.49-.33.58.58,0,0,0-.49.64A.51.51,0,0,0,192.54,55.88Z"/><path id="_Контур_17" data-name="&lt;Контур&gt;" class="cls-1" d="M201,166.82a.62.62,0,0,0-.28.53c.11.33.44.33.73.21a.44.44,0,0,0,.31-.51A.6.6,0,0,0,201,166.82Z"/><path id="_Контур_18" data-name="&lt;Контур&gt;" class="cls-1" d="M241.91,63.12a.59.59,0,0,0-.18-1.17.57.57,0,0,0-.42.69C241.37,63,241.53,63.22,241.91,63.12Z"/><path id="_Контур_19" data-name="&lt;Контур&gt;" class="cls-1" d="M304.33,141.74c-.13,0-.35.1-.37.19-.13.48.36.57.58.84l.56-.17C305.13,142.05,304.9,141.73,304.33,141.74Z"/><path id="_Контур_20" data-name="&lt;Контур&gt;" class="cls-1" d="M228.73,169.73a.59.59,0,0,0-.4.72.51.51,0,0,0,.7.37.55.55,0,0,0,.38-.71C229.34,169.76,229.07,169.65,228.73,169.73Z"/><path id="_Контур_21" data-name="&lt;Контур&gt;" class="cls-1" d="M188.24,165.66c-.27.05-.56.18-.48.53s.29.26.51.24a.44.44,0,0,0,.37-.43C188.66,165.71,188.47,165.62,188.24,165.66Z"/><path id="_Контур_22" data-name="&lt;Контур&gt;" class="cls-1" d="M94,165.33c.21-.1.22-.32.14-.54s-.27-.36-.5-.28a.45.45,0,1,0,.36.82Z"/><path id="_Контур_23" data-name="&lt;Контур&gt;" class="cls-1" d="M247.35,79.63c.09-.13.27-.28.3-.46s-.19-.38-.42-.34-.54.25-.46.59S247.07,79.65,247.35,79.63Z"/><path id="_Контур_24" data-name="&lt;Контур&gt;" class="cls-1" d="M266.15,23.06a.89.89,0,0,0,.26-.58c0-.27-.25-.28-.45-.21s-.49.46-.38.75S266,23.23,266.15,23.06Z"/><path id="_Контур_25" data-name="&lt;Контур&gt;" class="cls-1" d="M133.39,72a1.49,1.49,0,0,0,.3-.45c.08-.32-.18-.34-.4-.3s-.42.17-.41.41S133.05,72.07,133.39,72Z"/><path id="_Контур_26" data-name="&lt;Контур&gt;" class="cls-1" d="M147.23,31.93a.34.34,0,0,0,.28-.44c-.13-.23-.31-.34-.53-.19a.47.47,0,0,0-.18.35C146.8,31.9,147,32,147.23,31.93Z"/><path id="_Контур_27" data-name="&lt;Контур&gt;" class="cls-1" d="M221.92,142.42c-.23,0-.3.25-.3.6,0,.14.15.26.38.27a.4.4,0,0,0,.43-.38C222.44,142.6,222.27,142.36,221.92,142.42Z"/><path id="_Контур_28" data-name="&lt;Контур&gt;" class="cls-1" d="M226.1,145.82c-.16.08-.37.31-.35.45a.46.46,0,0,0,.63.39c.25-.07.25-.32.21-.55S226.33,145.71,226.1,145.82Z"/><path id="_Контур_29" data-name="&lt;Контур&gt;" class="cls-1" d="M101,134.63c-.37,0-.48.28-.44.61a.33.33,0,0,0,.43.32.48.48,0,0,0,.44-.6A.34.34,0,0,0,101,134.63Z"/><path id="_Контур_30" data-name="&lt;Контур&gt;" class="cls-1" d="M125.95,158a.43.43,0,0,0-.29.49c.1.21.25.35.49.25a.45.45,0,0,0,.28-.52A.31.31,0,0,0,125.95,158Z"/><path id="_Контур_31" data-name="&lt;Контур&gt;" class="cls-1" d="M127.21,143.68c0-.21-.12-.43-.38-.35-.08,0-.12.22-.18.35s.16.2.27.24A.2.2,0,0,0,127.21,143.68Z"/><path id="_Контур_32" data-name="&lt;Контур&gt;" class="cls-1" d="M234.44,140.12c.17.4.43.33.72.14C235,139.82,234.71,140,234.44,140.12Z"/><path id="_Контур_33" data-name="&lt;Контур&gt;" class="cls-1" d="M186.19,38.73c0-.08-.18-.16-.28-.24l-.36.23c.08.11.13.28.23.31A.29.29,0,0,0,186.19,38.73Z"/><path id="_Контур_34" data-name="&lt;Контур&gt;" class="cls-1" d="M240.09,140.83c-.31,0-.29.22-.31.42s.22.33.43.32a.33.33,0,0,0,.33-.41C240.51,140.91,240.31,140.84,240.09,140.83Z"/><path id="_Контур_35" data-name="&lt;Контур&gt;" class="cls-1" d="M175.68,151.41c-.19.1-.35.24.07.84-.11-.16.06,0,.29-.14a.31.31,0,0,0,.16-.49C176.08,151.43,175.92,151.28,175.68,151.41Z"/><path id="_Контур_36" data-name="&lt;Контур&gt;" class="cls-1" d="M162.85,134.86c-.1.08-.26.15-.29.25a.36.36,0,0,0,.18.31c.23.08.38-.05.36-.29S162.93,134.95,162.85,134.86Z"/><path id="_Контур_37" data-name="&lt;Контур&gt;" class="cls-1" d="M204.34,63.6l.2,2a2.42,2.42,0,0,1,.46,1.37,20.8,20.8,0,0,0,2.16,3.22l0,0c.11-.39.31-.6.72-.32h0l1.41.48.11-.08.12.06c.57-.65.87-1.68,2.05-1.47a.17.17,0,0,1,.26,0,.67.67,0,0,1,.48-.55l.66-.88a.64.64,0,0,1,.13-.83.23.23,0,0,1,.08-.3.35.35,0,0,1,.19-.54c.4-.85-1-1.16-.58-2-.17-.73.45-.88.86-1.2s.07-.64-.17-.91a1.68,1.68,0,0,1-1.55.58c-.36.22-.51,0-.64-.29l0,0a5.62,5.62,0,0,1-3.48-.6l-.8.2a5.16,5.16,0,0,0-.89,1.34c-.28,1-1,.78-1.66.7Z"/><path id="_Контур_38" data-name="&lt;Контур&gt;" class="cls-1" d="M58.36,110l-.1-.07c-.35-.28-.4-.55,0-.83l-.56-.76c-.55,0-.67-.35-.74-.78l-.11-.18a5,5,0,0,1-.93,0,4.14,4.14,0,0,0-3,.41c-.38-.55-.84-.82-1.51-.23-.17.15-.45.45-.42.49a1.28,1.28,0,0,0,1.14.41c-.06.71,0,1.48-.73,1.95l.54.73.09.47c1.07,1,1.85,2.83,3.83,1.45,2.23,1,1.74-1.28,2.49-2.07a.37.37,0,0,1,0-.39C58.32,110.43,58.18,110.25,58.36,110Z"/><path id="_Контур_39" data-name="&lt;Контур&gt;" class="cls-1" d="M138.47,142c-.29,1.09-1.36,1.74-1.43,2.9l.69,1.26.54,0c.61-.33,1-1,1.72-1.16.76-1.1.25-2.12-.29-3.06C139.33,141.31,138.64,141.4,138.47,142Z"/><path id="_Контур_40" data-name="&lt;Контур&gt;" class="cls-1" d="M109.83,182.11a3.6,3.6,0,0,1-2.19,2c-.92.34-1,.88-1,1.64,1.11.92,1.34-.3,1.87-.77a.45.45,0,0,1,.44-.45l1.63-1a1.41,1.41,0,0,1,.76-.75l1.13-1c.31-.45.7-.88.31-1.48C111.82,180.9,111,181.87,109.83,182.11Z"/><path id="_Контур_41" data-name="&lt;Контур&gt;" class="cls-1" d="M104.13,131c.56,2-.56,3.41-.39,5,0,.63-.48,1.66.45,1.73s.42-1.05.65-1.61c0-.07.07-.14.1-.21-.07-.24-.11-.47.13-.64l-.05-.1C105.68,133.85,105.9,132.5,104.13,131Z"/><path id="_Контур_42" data-name="&lt;Контур&gt;" class="cls-1" d="M160.64,74c-.06.46-.13.93-.17,1.4-.09,1,.41,1,1.12.61a2.69,2.69,0,0,1,.56-1.82l.34-1.15c0-1.24-1.07-1.82-1.57-2.76a.89.89,0,0,0-.47,1.12A3.13,3.13,0,0,1,160.64,74Z"/><path id="_Контур_43" data-name="&lt;Контур&gt;" class="cls-1" d="M120.07,162.78a.41.41,0,0,1-.41.49,1.9,1.9,0,0,0-.47,2.16c.34.67,1.12.23,1.71,0a3.66,3.66,0,0,1,.49-2.65.94.94,0,0,0,0-1.06Z"/><path id="_Контур_44" data-name="&lt;Контур&gt;" class="cls-1" d="M118.5,82.9a.78.78,0,0,1,.73.41l.06,0c.54.3,1.08.66,1.69.13-1.4-1.79-2.29-2.15-4-1.61A1.81,1.81,0,0,0,118.5,82.9Z"/><path id="_Контур_45" data-name="&lt;Контур&gt;" class="cls-1" d="M145.38,79.9l.9-.1c-.1-.89-1.34-.59-1.5-1.43L144,78c-1.41.19-1.53.39-1.17,2C143.65,79.17,144.5,78.62,145.38,79.9Z"/><path id="_Контур_46" data-name="&lt;Контур&gt;" class="cls-1" d="M142.81,80v0l0,0Z"/><path id="_Контур_47" data-name="&lt;Контур&gt;" class="cls-1" d="M137.72,80.64c1,.29.9-.36.89-1-1.29-.8-1.08-2.64-2.64-3.35Z"/><path id="_Контур_48" data-name="&lt;Контур&gt;" class="cls-1" d="M201.67,56.07c.48-.79,1.92-1.27.83-2.57l-1.64,1.17L200.2,56C200.62,56.82,201.15,56.35,201.67,56.07Z"/><path id="_Контур_49" data-name="&lt;Контур&gt;" class="cls-1" d="M149.72,155.06a5.18,5.18,0,0,0-.53,3c0,.58.38.58.8.47l.75-1.64a5.88,5.88,0,0,1-.24-2Z"/><path id="_Контур_50" data-name="&lt;Контур&gt;" class="cls-1" d="M81,133.4l-.84.45a.3.3,0,0,1-.26.19,2.82,2.82,0,0,0-.81,1.54c1.45.7,2-.42,2.56-1.36C81.89,133.79,81.34,133.58,81,133.4Z"/><path id="_Контур_51" data-name="&lt;Контур&gt;" class="cls-1" d="M120.47,149.53l-.83-1.69h0a1.33,1.33,0,0,1-1.44.27c-.54.4-1.17,1-.1,1.25a5.49,5.49,0,0,1,1.34.76C120,150.45,120.22,149.9,120.47,149.53Z"/><path id="_Контур_52" data-name="&lt;Контур&gt;" class="cls-1" d="M163.91,140.2c-.72.46-.1,1,.17,1.4,1.16-.07.31,1.08.85,1.4s.86.36.94-.41-.63-1.08-.8-1.68S164.57,139.77,163.91,140.2Z"/><path id="_Контур_53" data-name="&lt;Контур&gt;" class="cls-1" d="M110.3,39.74a1.62,1.62,0,0,1,.36-.25c-.23-.77-.79-1.44-.69-2.31-.26-.37-.6-.6-1-.21s-.58.92-.16,1.26S109.51,39.53,110.3,39.74Z"/><path id="_Контур_54" data-name="&lt;Контур&gt;" class="cls-1" d="M110.67,39.47h0Z"/><path id="_Контур_55" data-name="&lt;Контур&gt;" class="cls-1" d="M147.74,174.76l-.46.37a2.8,2.8,0,0,0,.61,2.31l.75-.33.3-2.49-.78,0A.57.57,0,0,1,147.74,174.76Z"/><path id="_Контур_56" data-name="&lt;Контур&gt;" class="cls-1" d="M118.48,132.07a.62.62,0,0,1-.44-.17c-.62.43-.45,1.16-.64,1.75l.86,1.69a3,3,0,0,0,1-1.48l-.76-1.73Z"/><path id="_Контур_57" data-name="&lt;Контур&gt;" class="cls-1" d="M118.12,143.14a2.25,2.25,0,0,1,1.35-.86l1.26-1.14c-1.17-.62-2.07.13-3,.61A1,1,0,0,0,118.12,143.14Z"/><path id="_Контур_58" data-name="&lt;Контур&gt;" class="cls-1" d="M107.24,132.3c1,.43.89-.35,1-.92-.5-.16-.58-.6-.7-1l-.67-.59c-.64.27-.47.71-.19,1.11S107.39,131.68,107.24,132.3Z"/><path id="_Контур_59" data-name="&lt;Контур&gt;" class="cls-1" d="M165.23,56.63c.34-.32.63-.68.94-1l-.28-.92a1,1,0,0,0-1,0l-.22,1.62C164.78,56.51,164.59,57.23,165.23,56.63Z"/><path id="_Контур_60" data-name="&lt;Контур&gt;" class="cls-1" d="M142.06,154.42c-1.5,0-1.09,1.47-1.65,2.19.29,1.11.9.65,1.49.31a3.65,3.65,0,0,1,.25-2.12A1.28,1.28,0,0,1,142.06,154.42Z"/><path id="_Контур_61" data-name="&lt;Контур&gt;" class="cls-1" d="M102.14,133.79c.24.35-.51,1,.34,1.17a10.22,10.22,0,0,0,0-3.55l-.83.25C101.88,132.35,102.51,132.95,102.14,133.79Z"/><path id="_Контур_62" data-name="&lt;Контур&gt;" class="cls-1" d="M134.35,79.69l.91-.11a.38.38,0,0,1,.27-.23c-1.18-1.91-1.18-1.91-2.11-.6C133.51,79.29,134,79.47,134.35,79.69Z"/><path id="_Контур_63" data-name="&lt;Контур&gt;" class="cls-1" d="M162,149.67l-.77.63,0,.53.1.72.67.44.64-.36C162.65,150.91,163.3,150,162,149.67Z"/><path id="_Контур_64" data-name="&lt;Контур&gt;" class="cls-1" d="M122.4,82.82c.6.13,1.21.21,1.81.32l.7-.51c-.29-.49-.88-.41-1.29-.69l-1.52-.12C121.74,82.3,121.75,82.68,122.4,82.82Z"/><path id="_Контур_65" data-name="&lt;Контур&gt;" class="cls-1" d="M134.84,163.49a1.36,1.36,0,0,0-1.4,1.1c-.11-.11-.35-.1-.59-.05a.87.87,0,0,0-.64,1.17c.1.32.37.51.69.32a1.18,1.18,0,0,0,.52-.58l.3.59.91-.39.13-.81a1.58,1.58,0,0,0,.09-1.34Z"/><path id="_Контур_66" data-name="&lt;Контур&gt;" class="cls-1" d="M113.08,58.33a3.78,3.78,0,0,1,.06.47A4.38,4.38,0,0,0,115.31,60a4.29,4.29,0,0,0-.84-1.61C114,58.32,113.56,58,113.08,58.33Z"/><path id="_Контур_67" data-name="&lt;Контур&gt;" class="cls-1" d="M81.49,72.09a1.48,1.48,0,0,0-1-1.58c-.55.15-.36.64-.45,1l1.21.51A.18.18,0,0,1,81.49,72.09Z"/><path id="_Контур_68" data-name="&lt;Контур&gt;" class="cls-1" d="M93.12,173.46c-.18.34-.26.75.19,1s.67-.18,1-.4l.49-1.27C93.93,172.33,93.46,172.8,93.12,173.46Z"/><path id="_Контур_69" data-name="&lt;Контур&gt;" class="cls-1" d="M150.13,43.27l.45-.45.06-.17c0-.23.08-.46.09-.7,0-.48,0-1-.52-1.18-.8-.25-.86.44-1.07.93C149.51,42.2,149.42,43,150.13,43.27Z"/><path id="_Контур_70" data-name="&lt;Контур&gt;" class="cls-1" d="M176.48,12.11c.4.14.62-.37.87-.65l-.08-1c-.65-.53-1-.15-1.17.46S176,11.94,176.48,12.11Z"/><path id="_Контур_71" data-name="&lt;Контур&gt;" class="cls-1" d="M132.26,87v.05h0Z"/><path id="_Контур_72" data-name="&lt;Контур&gt;" class="cls-1" d="M132.43,84.5l-.9,0a3.22,3.22,0,0,0,.73,2.48A5.22,5.22,0,0,0,132.43,84.5Z"/><path id="_Контур_73" data-name="&lt;Контур&gt;" class="cls-1" d="M155,151c0,.25.25.7.42.73.74.09.72-.59.89-1.06a1.61,1.61,0,0,1-.2-.43C155.5,150.14,155,150.31,155,151Z"/><path id="_Контур_74" data-name="&lt;Контур&gt;" class="cls-1" d="M59.34,104.58l-.59.46-.09.85c.3.88.79.92,1.42.32A2.75,2.75,0,0,0,59.34,104.58Z"/><path id="_Контур_75" data-name="&lt;Контур&gt;" class="cls-1" d="M90,82.18h0Z"/><path id="_Контур_76" data-name="&lt;Контур&gt;" class="cls-1" d="M91,82l.36-.35,0-.22c-.44-1.37-1-.71-1.64-.13l.31.83Z"/><path id="_Контур_77" data-name="&lt;Контур&gt;" class="cls-1" d="M102.16,173.08c.21.42.45.9,1,.59s.63-1,.19-1.54A1.58,1.58,0,0,0,102.16,173.08Z"/><path id="_Контур_78" data-name="&lt;Контур&gt;" class="cls-1" d="M135.53,50.83a1.09,1.09,0,0,0,.91-.41,2.25,2.25,0,0,1-.49-1.33.93.93,0,0,1-.29-.33l-.86-.2.31,1.38Z"/><path id="_Контур_79" data-name="&lt;Контур&gt;" class="cls-1" d="M195.16,135c.29.93,1,.9,1.65.31l-.61-1.23C195.75,134.27,194.9,134.16,195.16,135Z"/><path id="_Контур_80" data-name="&lt;Контур&gt;" class="cls-1" d="M181.73,1.67l.63-.63c0-.46.09-1.07-.63-1-.56,0-.46.55-.47.93A.64.64,0,0,0,181.73,1.67Z"/><path id="_Контур_81" data-name="&lt;Контур&gt;" class="cls-1" d="M102.28,151.35c0,.67.56.54,1,.38l0-.93C102.74,150.65,102.26,150.78,102.28,151.35Z"/><path id="_Контур_82" data-name="&lt;Контур&gt;" class="cls-1" d="M165.47,131.72a1.39,1.39,0,0,0,.16-.42c-.66-1.63-1.07,0-1.59.12C164.56,132.8,164.56,132.8,165.47,131.72Z"/><path id="_Контур_83" data-name="&lt;Контур&gt;" class="cls-1" d="M141.46,82.51c.19-.72-.27-1.1-.55-1.55a.46.46,0,0,1-.43-.07c-.33.19-.89.32-.8.73C139.91,82.58,140.67,82.61,141.46,82.51Z"/><path id="_Контур_84" data-name="&lt;Контур&gt;" class="cls-1" d="M107.84,68.54c.38-.15.37-.51.25-.8-.19-.47-.56-.48-1-.27s-.5.45-.31.76A.8.8,0,0,0,107.84,68.54Z"/><path id="_Контур_85" data-name="&lt;Контур&gt;" class="cls-1" d="M204.4,32c.3,0,.26-.3.25-.51,0-.38-.07-.76-.6-.75a.36.36,0,0,0-.32.49C203.82,31.61,204,32,204.4,32Z"/><path id="_Контур_86" data-name="&lt;Контур&gt;" class="cls-1" d="M126.36,73.55a.81.81,0,0,0,.32-1,.57.57,0,0,0-.71-.44c-.42.22-.34.59-.15.94S126,73.73,126.36,73.55Z"/><path id="_Контур_87" data-name="&lt;Контур&gt;" class="cls-1" d="M178.25,131.93l-.43.13a1.25,1.25,0,0,0,.08,1.56l.86-.41.05-.55,0-.15.14-.07Z"/><path id="_Контур_88" data-name="&lt;Контур&gt;" class="cls-1" d="M153.6,83.31c.49,0,.53-.44.56-.8a2.69,2.69,0,0,0-.12-.67l-.77.09a2.45,2.45,0,0,0-.12.67C153.17,82.9,153.27,83.3,153.6,83.31Z"/><path id="_Контур_89" data-name="&lt;Контур&gt;" class="cls-1" d="M127.66,171.33c-.53,0-.48.53-.58.88a.45.45,0,0,0,.52.38c.43-.07.39-.45.42-.75S127.92,171.31,127.66,171.33Z"/><path id="_Контур_90" data-name="&lt;Контур&gt;" class="cls-1" d="M180.1,6.59a.79.79,0,0,0,.36-.53c.09-.54-.41-.54-.72-.64s-.4.11-.61.18a3.44,3.44,0,0,1,.12.44C179.58,6.17,179.6,6.8,180.1,6.59Z"/><path id="_Контур_91" data-name="&lt;Контур&gt;" class="cls-1" d="M104.11,193.39a.68.68,0,0,0,0,.84.38.38,0,0,0,.59.1.53.53,0,0,0,0-.81A.44.44,0,0,0,104.11,193.39Z"/><path id="_Контур_92" data-name="&lt;Контур&gt;" class="cls-1" d="M52.53,60.43l-.48-1.36c-.49.06-.93.2-.75.83A.78.78,0,0,0,52.53,60.43Z"/><path id="_Контур_93" data-name="&lt;Контур&gt;" class="cls-1" d="M115.92,210.79a.38.38,0,0,0-.16.57c.15.26.24.62.61.54s.21-.47.21-.74S116.3,210.57,115.92,210.79Z"/><path id="_Контур_94" data-name="&lt;Контур&gt;" class="cls-1" d="M111.11,130.38c.42-.31.23-.66,0-1s-.28-.39-.74,0c-.17.15-.07.51.14.83A.39.39,0,0,0,111.11,130.38Z"/><path id="_Контур_95" data-name="&lt;Контур&gt;" class="cls-1" d="M142.54,141.42a.57.57,0,0,1-.39.24.84.84,0,0,1-.34.32c.1.41.08,1,.75.82s.87-.73.59-1.41Z"/><path id="_Контур_96" data-name="&lt;Контур&gt;" class="cls-1" d="M164.13,163.7a.47.47,0,0,0,.18.39c.44.26.72,0,.91-.37q-.11-.21-.19-.44C164.63,163.22,164.23,163.17,164.13,163.7Z"/><path id="_Контур_97" data-name="&lt;Контур&gt;" class="cls-1" d="M202.94,143.8c-.39.11-.41.4-.31.72s.31.81.83.56c.36-.17.26-.52.15-.81S203.32,143.7,202.94,143.8Z"/><path id="_Контур_98" data-name="&lt;Контур&gt;" class="cls-1" d="M198.48,32.92a.66.66,0,0,0,.2-.61.73.73,0,0,0-.93-.4c-.17.17-.41.34-.15.57S198,33.2,198.48,32.92Z"/><path id="_Контур_99" data-name="&lt;Контур&gt;" class="cls-1" d="M36.75,68.8a.43.43,0,0,0-.25.56c.07.23.24.4.49.34a.36.36,0,0,0,.25-.54A.46.46,0,0,0,36.75,68.8Z"/><path id="_Контур_100" data-name="&lt;Контур&gt;" class="cls-1" d="M89.84,165a.4.4,0,0,0,.56.21,2.58,2.58,0,0,0,.48-.38c-.24-.16-.45-.4-.78-.33S89.73,164.77,89.84,165Z"/><path id="_Контур_101" data-name="&lt;Контур&gt;" class="cls-1" d="M98.7,188.72c-.5.1-.25.46-.22.73s.2.52.46.35a.64.64,0,0,0,.12-.85A.45.45,0,0,0,98.7,188.72Z"/><path id="_Контур_102" data-name="&lt;Контур&gt;" class="cls-1" d="M107.74,52.79l.39.26a.35.35,0,0,1,.3.14c.89-.62.17-1.22,0-1.82h-.67c-.72.42-.18.89,0,1.34Z"/><path id="_Контур_103" data-name="&lt;Контур&gt;" class="cls-1" d="M108.71,142.48c-.2.2-.44.54-.15.79s.6,0,.82-.24a2.79,2.79,0,0,0,.39-.59l-.28-.46A4,4,0,0,0,108.71,142.48Z"/><path id="_Контур_104" data-name="&lt;Контур&gt;" class="cls-1" d="M145.68,66.7a.22.22,0,0,1,.12-.24l.14-.45v-.14l-.45-.87-.9.37C144.8,65.94,144.72,66.75,145.68,66.7Z"/><path id="_Контур_105" data-name="&lt;Контур&gt;" class="cls-1" d="M110.36,31.62c.37-.17.18-.54.2-.83s-.1-.31-.29-.29c-.44.06-.38.37-.28.77C110.08,31.36,110.3,31.65,110.36,31.62Z"/><path id="_Контур_106" data-name="&lt;Контур&gt;" class="cls-1" d="M114.43,170.22a.34.34,0,0,0,.53.21,2.36,2.36,0,0,0,.47-.4l-.67-.41A.46.46,0,0,0,114.43,170.22Z"/><path id="_Контур_107" data-name="&lt;Контур&gt;" class="cls-1" d="M161.4,141.05a1.23,1.23,0,0,0-.08,1.23C161.72,141.9,162.26,141.52,161.4,141.05Z"/><path id="_Контур_108" data-name="&lt;Контур&gt;" class="cls-1" d="M91.77,79.49c.34-.31.14-.73,0-1.1-.6,0-.85.42-1,.93C91,79.7,91.43,79.81,91.77,79.49Z"/><path id="_Контур_109" data-name="&lt;Контур&gt;" class="cls-1" d="M160.55,132a.22.22,0,0,0-.14.35c.11.16.25.2.39.07a.29.29,0,0,0,.08-.21C160.86,132,160.74,131.9,160.55,132Z"/><path id="_Контур_110" data-name="&lt;Контур&gt;" class="cls-1" d="M32.84,73.62q0,.23.11.45c.56.19.15,1.36,1.13,1.13l-.72-1.79Z"/><path id="_Контур_111" data-name="&lt;Контур&gt;" class="cls-1" d="M203.57,45.66c.31-.09.58-.31.35-.69a.42.42,0,0,0-.6-.17c-.26.11-.3.32-.27.56S203.37,45.72,203.57,45.66Z"/><path id="_Контур_112" data-name="&lt;Контур&gt;" class="cls-1" d="M201.63,22.36c.15-.14.16-.31,0-.41a1.24,1.24,0,0,0-.43-.08l0,.46A.24.24,0,0,0,201.63,22.36Z"/><path id="_Контур_113" data-name="&lt;Контур&gt;" class="cls-1" d="M109.46,175.9c-.08.05-.06.26-.08.4s.26.23.36.21a.38.38,0,0,0,.3-.54C109.93,175.72,109.65,175.78,109.46,175.9Z"/><path id="_Контур_114" data-name="&lt;Контур&gt;" class="cls-1" d="M102.19,140c.38.32.59-.21.75-.53l-.36-.58C102,139.07,101.61,139.47,102.19,140Z"/><path id="_Контур_115" data-name="&lt;Контур&gt;" class="cls-1" d="M87.38,49.55l1,.45c.31-1-.58-1-1.05-1.41-.29-.09-.62-.2-.82.07s0,.7.26,1Z"/><path id="_Контур_116" data-name="&lt;Контур&gt;" class="cls-1" d="M133.72,83.26c-.06,0-.07.13-.16.3.66.26,1.27.48,1.79-.23.07-.1.07-.39,0-.42C134.72,82.56,134.24,83,133.72,83.26Z"/><path id="_Контур_117" data-name="&lt;Контур&gt;" class="cls-1" d="M52.87,79.89l-2.43-2.79c-2.61-1.59-5.47-2.78-7.64-5-1.32.31-1.53,1.05-.84,2.15a4.24,4.24,0,0,1,3.77,2v0a.75.75,0,0,1,.9.31,5.22,5.22,0,0,1,2.09,1.74l1.62,1.13.15.06C51.3,79.5,52,80.21,52.87,79.89Z"/><path id="_Контур_118" data-name="&lt;Контур&gt;" class="cls-1" d="M101.17,77.91l.53.44c1.19.4,1.38,1.77,2.52,2.33a9.09,9.09,0,0,1-1.76-3.87.88.88,0,0,1-.4-.53c-1-.28-1.32-2.46-3-1.13l.24.65Z"/><path id="_Контур_119" data-name="&lt;Контур&gt;" class="cls-1" d="M64.44,130.1c-1-.15-1.16.74-1.45,1.42a2.28,2.28,0,0,0,1.18,1.56l1.14-.56a.37.37,0,0,1,.22-.38C65.41,131.33,65.6,130.28,64.44,130.1Z"/><path id="_Контур_120" data-name="&lt;Контур&gt;" class="cls-1" d="M124.78,132.61c-.17-.09-.53.18-.81.29-.16.93-1.21,1-1.65,1.6l.73,1.71.93-.49.34-1v-.09a1,1,0,0,1,.34-1.36C124.93,133.11,125.12,132.78,124.78,132.61Z"/><path id="_Контур_121" data-name="&lt;Контур&gt;" class="cls-1" d="M16.09,125.93l-1.1,1,.63,1.32,1.86.43.89-1v-.07C18,126.52,17.07,126.2,16.09,125.93Z"/><path id="_Контур_122" data-name="&lt;Контур&gt;" class="cls-1" d="M60.3,84.12c-.79-.94-2.15-1.15-2.82-2.24l-.18-.08-.61.44L58,84.18l2.5,1.54A1.45,1.45,0,0,0,60.3,84.12Z"/><path id="_Контур_123" data-name="&lt;Контур&gt;" class="cls-1" d="M71.66,72.66a.93.93,0,0,0,.18-1.24.87.87,0,0,0-1.44-.07c-.42.41-.2.82.08,1.2A.77.77,0,0,0,71.66,72.66Z"/><path id="_Контур_124" data-name="&lt;Контур&gt;" class="cls-1" d="M53.22,99.47l1,.28h.06c.73-.7.75-1.45-.13-1.94s-1.19.23-1.43.91Z"/><path id="_Контур_125" data-name="&lt;Контур&gt;" class="cls-1" d="M64.42,74c.55-.34.35-.95,0-1.37s-.78-.16-1.16.06-.47.8-.05,1.08A1.45,1.45,0,0,0,64.42,74Z"/><path id="_Контур_126" data-name="&lt;Контур&gt;" class="cls-1" d="M45.09,88.65l.63,1.26a1.34,1.34,0,0,1,.47.45c1.16-.05,1-.82.87-1.58A1.69,1.69,0,0,0,45.09,88.65Z"/><path id="_Контур_127" data-name="&lt;Контур&gt;" class="cls-1" d="M.16,102.63a.55.55,0,0,0,.09.85c.45.28,1,.56,1.44.06a1,1,0,0,0-.12-1.27C1,101.9.54,102.2.16,102.63Z"/><path id="_Контур_128" data-name="&lt;Контур&gt;" class="cls-1" d="M112.54,47.14l1-.93c-.63-.86-1.32-.77-1.79.07S111.93,47.17,112.54,47.14Z"/><path id="_Контур_129" data-name="&lt;Контур&gt;" class="cls-1" d="M109.94,143.45c-.5-.22-.82.12-1.1.43s-.64.49-.1.74a1,1,0,0,0,1.17-.3C110.13,144.06,110.25,143.75,109.94,143.45Z"/><path id="_Контур_130" data-name="&lt;Контур&gt;" class="cls-1" d="M91.19,132c-.38.18-.42.72-.23,1.17a.75.75,0,0,0,1,.49.69.69,0,0,0,.19-1.07C92,132.21,91.59,131.79,91.19,132Z"/><path id="_Контур_131" data-name="&lt;Контур&gt;" class="cls-1" d="M127.56,160a1.12,1.12,0,0,0,0,.89c.1.27.42.55.69.16a2.26,2.26,0,0,0,.19-.84C128.11,159.93,127.8,159.68,127.56,160Z"/><path id="_Контур_132" data-name="&lt;Контур&gt;" class="cls-1" d="M27.76,106.42a.51.51,0,0,0-.15.81,1.82,1.82,0,0,0,.51.35,4.89,4.89,0,0,0,.14-.94C28.26,106.56,27.94,106.49,27.76,106.42Z"/><path id="_Контур_133" data-name="&lt;Контур&gt;" class="cls-1" d="M45.29,85.67l1-.89c-.36-.39-.66-1.08-1.32-.48S45,85.27,45.29,85.67Z"/><path id="_Контур_134" data-name="&lt;Контур&gt;" class="cls-1" d="M39.25,103.24c0,.6.41.89.9,1.09a1.47,1.47,0,0,0,1.09-.9C40.72,101.87,40,102.56,39.25,103.24Z"/><path id="_Контур_135" data-name="&lt;Контур&gt;" class="cls-1" d="M200.46,81.39a1.57,1.57,0,0,0,.19-2.53,2.75,2.75,0,0,0-.76-.42c-.72.41-1.45.81-1.51,1.77C198.77,81.18,199.26,82.22,200.46,81.39Z"/><path id="_Контур_136" data-name="&lt;Контур&gt;" class="cls-1" d="M176.88,56c-.12.85.2,1.52,1.28,1.38.06-.29.18-.49.52-.39l1.15-.25c.63-1.12.34-1.77-1-1.9C178,54.87,177,54.86,176.88,56Z"/><path id="_Контур_137" data-name="&lt;Контур&gt;" class="cls-1" d="M150.24,65.26a.91.91,0,0,1,.48.34l1.26-.12.6-.72,0-.71-.54-.94C150.2,62.79,150.12,63.94,150.24,65.26Z"/><path id="_Контур_138" data-name="&lt;Контур&gt;" class="cls-1" d="M151.87,59.46l1.26-.53.07-1.18v0a2.08,2.08,0,0,0-2.33.65l.5,1A.73.73,0,0,1,151.87,59.46Z"/><path id="_Контур_139" data-name="&lt;Контур&gt;" class="cls-1" d="M149.57,78.2l-.12.06-.16.51c.37.1.77.17.86-.14.21.19.42.34.66.06s-.31-.59-.53-.87-.45-.61-.67-.91l-.73.4h0Z"/><path id="_Контур_140" data-name="&lt;Контур&gt;" class="cls-1" d="M167.71,49.63c.36-1-.2-1.39-1-1.7l-.89.58v.27l-.05.26C166.24,49.89,166.92,49.92,167.71,49.63Z"/><path id="_Контур_141" data-name="&lt;Контур&gt;" class="cls-1" d="M184.11,54.57c0-1.08-1-.58-1.63-.48l.05,1.07C183.13,55.09,184.16,55.71,184.11,54.57Z"/><path id="_Контур_142" data-name="&lt;Контур&gt;" class="cls-1" d="M186.28,68.93l0-1.12-1.13,0-.59.43C184.79,69.79,184.83,69.8,186.28,68.93Z"/><path id="_Контур_143" data-name="&lt;Контур&gt;" class="cls-1" d="M201.68,71.39A1.27,1.27,0,0,0,201.2,70c-.7.13-1.41.41-1.13,1.23C200.4,72.22,201.11,71.62,201.68,71.39Z"/><path id="_Контур_144" data-name="&lt;Контур&gt;" class="cls-1" d="M153.83,81.12c.62.25.85-.26,1-.78l-1-.3C153.18,80.42,153.26,80.88,153.83,81.12Z"/><path id="_Контур_145" data-name="&lt;Контур&gt;" class="cls-1" d="M166,56.71c-.53.19-.88.57-.63,1.1.33.69,1,.44,1.57.35A1.48,1.48,0,0,0,166,56.71Z"/><path id="_Контур_146" data-name="&lt;Контур&gt;" class="cls-1" d="M203.8,82.69l.61-.14.18-1.81-1.16.13C203.35,81.52,203.1,82.2,203.8,82.69Z"/><path id="_Контур_147" data-name="&lt;Контур&gt;" class="cls-1" d="M215.74,73.81a.54.54,0,0,0,.64-.44.53.53,0,0,0-.31-.63.58.58,0,0,0-.74.44A.46.46,0,0,0,215.74,73.81Z"/><path id="_Контур_148" data-name="&lt;Контур&gt;" class="cls-1" d="M159.14,79.66a1.44,1.44,0,0,0,0-1.35c-.37.13-.88.18-.88.66S158.75,79.56,159.14,79.66Z"/><path id="_Контур_149" data-name="&lt;Контур&gt;" class="cls-1" d="M169.47,73.13a1.5,1.5,0,0,0,1.34-1.82,1.21,1.21,0,0,0-1.58.55l.09,1.14Z"/><path id="_Контур_150" data-name="&lt;Контур&gt;" class="cls-1" d="M180,79.77c.85.24,1.06-.26,1.1-1a5.43,5.43,0,0,1-.53-.27A1.19,1.19,0,0,0,180,79.77Z"/><path id="_Контур_151" data-name="&lt;Контур&gt;" class="cls-1" d="M220.35,71.11c.13-.22.09-.43-.16-.48a1.45,1.45,0,0,0-.55.13l.2.5A.34.34,0,0,0,220.35,71.11Z"/><path id="_Контур_152" data-name="&lt;Контур&gt;" class="cls-1" d="M147.62,81.39c.3,0,.64,0,.54-.43a1,1,0,0,0-.94-.77c-.54,0-.77.11-.72.48C146.59,81.32,147.12,81.35,147.62,81.39Z"/><path id="_Контур_153" data-name="&lt;Контур&gt;" class="cls-1" d="M200.84,82.84c-.28.07-.52.17-.59.49a.44.44,0,0,0,.4.58c.46.07.65-.27.77-.65C201.31,83,201.2,82.75,200.84,82.84Z"/><path id="_Контур_154" data-name="&lt;Контур&gt;" class="cls-1" d="M184.83,79.21c.07.46.06,1,.74,1,.1,0,.25-.28.26-.43C185.85,78.92,185.24,79.25,184.83,79.21Z"/><polygon id="_Контур_155" data-name="&lt;Контур&gt;" class="cls-1" points="184.83 79.21 184.83 79.21 184.83 79.2 184.83 79.21"/><path id="_Контур_156" data-name="&lt;Контур&gt;" class="cls-1" d="M247.72,82.38l-.16-.74A.76.76,0,0,1,247,81l-.45-.72a11.49,11.49,0,0,0-2.4,1.43,7.89,7.89,0,0,0,.77,2.1C246.83,84.11,246.85,84.1,247.72,82.38Z"/><path id="_Контур_157" data-name="&lt;Контур&gt;" class="cls-1" d="M263.59,73.31a.35.35,0,0,0-.12-.51c-.45-.22-.73.15-1,.4,0,0,0,.09-.06.18C262.81,73.64,263.22,73.79,263.59,73.31Z"/><path id="_Контур_158" data-name="&lt;Контур&gt;" class="cls-1" d="M261.88,65.88c.26-.06.51-.14.43-.49a.58.58,0,0,0-.74-.44c-.33.07-.17.4-.19.88C261.36,66,261.63,65.94,261.88,65.88Z"/><path id="_Контур_159" data-name="&lt;Контур&gt;" class="cls-1" d="M257.4,74.79a.37.37,0,0,1,.13-.25l-.38-.69-.11,0-.38.11a1,1,0,0,0,0,1Z"/><path id="_Контур_160" data-name="&lt;Контур&gt;" class="cls-1" d="M257.5,80.13l.53.49.74-.35a.84.84,0,0,0-.79-.81,1.66,1.66,0,0,1-.35.17l-.08.12A.46.46,0,0,1,257.5,80.13Z"/></g></g></g></svg>