<svg xmlns="http://www.w3.org/2000/svg" viewBox="0 0 169.17 75.8"><defs><style>.cls-1,.cls-2{fill:#0fc3e8;}.cls-1{fill-rule:evenodd;}</style></defs><title>bgbr</title><g id="Слой_2" data-name="Слой 2"><g id="OBJECTS"><g id="_Группа_" data-name="&lt;Группа&gt;"><path id="_Контур_" data-name="&lt;Контур&gt;" class="cls-1" d="M2.06,19.58c0,.38.17.45.4.27C2.31,19.8,2.31,19.32,2.06,19.58Z"/><path id="_Контур_2" data-name="&lt;Контур&gt;" class="cls-1" d="M2.76,18.82c.18,0,.15.51.4.27C3.05,18.92,3.06,18.43,2.76,18.82Z"/><path id="_Контур_3" data-name="&lt;Контур&gt;" class="cls-1" d="M3.34,20.95c.08.28.19,0,.45,0,0-.27-.1-.25-.14-.37C3.5,20.66,3.49,20.84,3.34,20.95Z"/><path id="_Контур_4" data-name="&lt;Контур&gt;" class="cls-1" d="M5,30.65l.06.45c.21-.29.23,0,.41-.24Q5.42,30.23,5,30.65Z"/><path id="_Контур_5" data-name="&lt;Контур&gt;" class="cls-1" d="M3.54,19.25c-.16.24.06.67.24.42s-.08-.16-.08-.56C3.64,19.24,3.58,19.37,3.54,19.25Z"/><path id="_Контур_6" data-name="&lt;Контур&gt;" class="cls-1" d="M5.6,31.12c.19.07.08.39.09.67a1.5,1.5,0,0,0,.22-1Z"/><path id="_Контур_7" data-name="&lt;Контур&gt;" class="cls-1" d="M5.59,22.83c-.17.3.13.57.38.16C6,22.51,5.61,23.21,5.59,22.83Z"/><path id="_Контур_8" data-name="&lt;Контур&gt;" class="cls-1" d="M7.15,32.62c.06.06.25,0,.11.15,0,.25.29-.2.41-.24a1.14,1.14,0,0,0,.2.82c.25-.74.56-.54.89-.67-.13-.08-.32,0-.33-.46-.17.51-.19.26-.48.43a1,1,0,0,0,0-.41c-.2.17-.33.11-.38-.16A1.35,1.35,0,0,0,7.15,32.62Z"/><path id="_Контур_9" data-name="&lt;Контур&gt;" class="cls-1" d="M6.12,23.36l.06.45c.05-.13.19-.37.24-.21C6.59,23.36,6.34,23,6.12,23.36Z"/><path id="_Контур_10" data-name="&lt;Контур&gt;" class="cls-1" d="M7.59,21c.11.17.29.13.53-.09C8,20.81,7.76,20.58,7.59,21Z"/><path id="_Контур_11" data-name="&lt;Контур&gt;" class="cls-1" d="M10.44,36.33c0,.34.31.36.45,0C10.75,36.28,10.64,36.16,10.44,36.33Z"/><path id="_Контур_12" data-name="&lt;Контур&gt;" class="cls-1" d="M9,21.83c.14.12.14.65.48.2C9.32,21.84,9.21,21.65,9,21.83Z"/><path id="_Контур_13" data-name="&lt;Контур&gt;" class="cls-1" d="M11.89,29.9c.15.25.27-.18.59-.27a.36.36,0,0,1-.13-.27C12.07,29.94,12,29.35,11.89,29.9Z"/><path id="_Контур_14" data-name="&lt;Контур&gt;" class="cls-1" d="M11,21.24c.16-.27-.18-.42-.13-.9C10.63,20.69,11,21,11,21.24Z"/><path id="_Контур_15" data-name="&lt;Контур&gt;" class="cls-1" d="M12.49,22.59c.17,0,.28.26.54,0-.14-.22-.34-.29-.45-.61C12.36,22.11,12.72,22.48,12.49,22.59Z"/><path id="_Контур_16" data-name="&lt;Контур&gt;" class="cls-1" d="M14.31,35.14c-.26.54.25.22.32.35C14.85,35.05,14.39,35.25,14.31,35.14Z"/><path id="_Контур_17" data-name="&lt;Контур&gt;" class="cls-1" d="M15.33,33.37c0-.4-.29.11-.24-.42a1.11,1.11,0,0,0-.26.73C15.13,33.28,15.17,33.82,15.33,33.37Z"/><path id="_Контур_18" data-name="&lt;Контур&gt;" class="cls-1" d="M16.2,39.85c.1.29.21.53.49.31C16.54,40,16.43,39.79,16.2,39.85Z"/><path id="_Контур_19" data-name="&lt;Контур&gt;" class="cls-1" d="M13.13,16.87c0,.37.15.19.16.49.26-.17.22-.47.16-.77Z"/><path id="_Контур_20" data-name="&lt;Контур&gt;" class="cls-1" d="M13.62,19.71c0,.44.16.39.26.53C14,20,13.87,19.32,13.62,19.71Z"/><path id="_Контур_21" data-name="&lt;Контур&gt;" class="cls-1" d="M14,17.57c0,.11,0,.08.1,0,.22.63.77.33,1,.85.32-.22.29-.58.51-.83-.12-.36-.28.24-.43.13-.1-.31.1-.48-.08-.56-.18.5-.41.25-.66.46,0-.39-.14-.33-.18-.6C14.05,17.16,14.32,17.48,14,17.57Z"/><path id="_Контур_22" data-name="&lt;Контур&gt;" class="cls-1" d="M17.36,35.08c-.06-.15.3-.25.34-.17.27-.43-.21,0-.14-.37-.27.13-.22.39-.37.58a1.81,1.81,0,0,0,.25.53A.34.34,0,0,0,17.36,35.08Z"/><path id="_Контур_23" data-name="&lt;Контур&gt;" class="cls-1" d="M13.57,7.91c.09.27.1.76.42.39C13.86,8.13,13.8,7.77,13.57,7.91Z"/><path id="_Контур_24" data-name="&lt;Контур&gt;" class="cls-1" d="M13.74,7.25c-.19.29.14.44.31.24C14.11,6.94,13.81,7.44,13.74,7.25Z"/><path id="_Контур_25" data-name="&lt;Контур&gt;" class="cls-1" d="M14.16,8.27c.2-.16.22-.39.37-.58-.05-.12-.17-.05-.21-.19A1.26,1.26,0,0,0,14.16,8.27Z"/><path id="_Контур_26" data-name="&lt;Контур&gt;" class="cls-1" d="M18,35.15c-.22.56.32.34.36.68C18.7,35.28,18.18,35.16,18,35.15Z"/><path id="_Контур_27" data-name="&lt;Контур&gt;" class="cls-1" d="M14.46,1.57c.11.17.42,0,.85-.37C15,1.3,14.84,1.16,14.46,1.57Z"/><path id="_Контур_28" data-name="&lt;Контур&gt;" class="cls-1" d="M19.61,36.48c.11-.3,0-.79-.25-.53C19.26,36.23,19.32,36.84,19.61,36.48Z"/><path id="_Контур_29" data-name="&lt;Контур&gt;" class="cls-1" d="M16.17,12.17c0,.42.68.36.6-.27C16.45,12.33,16.39,12,16.17,12.17Z"/><path id="_Контур_30" data-name="&lt;Контур&gt;" class="cls-1" d="M17.47,19.45c-.14.51.3.7.67.29a.34.34,0,0,1,.13-.37C18.2,18.84,17.59,19.82,17.47,19.45Z"/><path id="_Контур_31" data-name="&lt;Контур&gt;" class="cls-1" d="M16,5.6c0,.53.24.59.52.43C16.33,6.05,16.36,5.34,16,5.6Z"/><path id="_Контур_32" data-name="&lt;Контур&gt;" class="cls-1" d="M20.42,37.14c.06.06.12.11,0,.22.45-.28.55.42,1,.12C21,37.35,21.14,36.19,20.42,37.14Z"/><path id="_Контур_33" data-name="&lt;Контур&gt;" class="cls-1" d="M18.16,13.43c0,.45.27,0,.43-.13a.36.36,0,0,1-.13-.27A1,1,0,0,1,18.16,13.43Z"/><path id="_Контур_34" data-name="&lt;Контур&gt;" class="cls-1" d="M21.55,37.52c-.23.28.11.17.06.45.11-.6.18,0,.5-.31.06-.53-.36.29-.3-.24C21.69,37.53,21.58,37.64,21.55,37.52Z"/><path id="_Контур_35" data-name="&lt;Контур&gt;" class="cls-1" d="M22.05,38c.25.28.07,1,.46.72-.19-.43.3-.57.14-1C22.41,38.32,22.32,37.68,22.05,38Z"/><path id="_Контур_36" data-name="&lt;Контур&gt;" class="cls-1" d="M19.7,9.57c.19.2.6.05.56-.5C20,9.28,19.93,9.17,19.7,9.57Z"/><path id="_Контур_37" data-name="&lt;Контур&gt;" class="cls-1" d="M23.67,38.65c0,.5.36.23.51.43s-.17.42-.37.58c.25.39.55-.53,1-.22,0-.43,0-.26-.09-.67-.33.25,0,.14,0,.52C24.29,39.17,24.15,38.44,23.67,38.65Z"/><path id="_Контур_38" data-name="&lt;Контур&gt;" class="cls-1" d="M23.32,24c.11.35.5.06.69-.23C23.82,23.59,23.58,23.5,23.32,24Z"/><path id="_Контур_39" data-name="&lt;Контур&gt;" class="cls-1" d="M22.52,16.14c.16.11,0,.15.06.45a2.12,2.12,0,0,0,.28-.62C22.81,15.84,22.64,16,22.52,16.14Z"/><path id="_Контур_40" data-name="&lt;Контур&gt;" class="cls-1" d="M26.54,19.13c.18.17.37.31.72,0C27,19.21,26.76,18.68,26.54,19.13Z"/><path id="_Контур_41" data-name="&lt;Контур&gt;" class="cls-1" d="M27.34,7.15c0,.29.18.24.24.42.23-.11-.13-.48.1-.59C27.63,6.85,27.46,7.07,27.34,7.15Z"/><path id="_Контур_42" data-name="&lt;Контур&gt;" class="cls-1" d="M26.59,1.15c.11.31.38.18.71-.12C27.08,1,26.77.77,26.59,1.15Z"/><path id="_Контур_43" data-name="&lt;Контур&gt;" class="cls-1" d="M30.54,24l.06.45c.06-.13.13-.26.16-.14C30.95,24.08,30.73,23.72,30.54,24Z"/><path id="_Контур_44" data-name="&lt;Контур&gt;" class="cls-1" d="M29.21,5.64c.1.39.44.13.46.73.16-.18.12-.44.18-.66s.28.31.44-.13c-.06-.19-.33.19-.31-.24C29.67,6,29.58,5.32,29.21,5.64Z"/><path id="_Контур_45" data-name="&lt;Контур&gt;" class="cls-1" d="M32.2,22.32c.08,0,.09.27.21.2s.23-.65.09-.7S32.48,22.23,32.2,22.32Z"/><path id="_Контур_46" data-name="&lt;Контур&gt;" class="cls-1" d="M32.13,6.48c-.15.47.44.86.67.29C32.56,6.74,32.24,6.91,32.13,6.48Z"/><path id="_Контур_47" data-name="&lt;Контур&gt;" class="cls-1" d="M32.85,3.1c.06.35.25.33.55,0C33.2,3.14,33.1,2.91,32.85,3.1Z"/><path id="_Контур_48" data-name="&lt;Контур&gt;" class="cls-1" d="M34,9c.14.14.21.46.48.21C34.38,9,34.26,8.8,34,9Z"/><path id="_Контур_49" data-name="&lt;Контур&gt;" class="cls-1" d="M35.48,10.45c.05.21.25,0,.3.24.1-.13,0-.34,0-.52Z"/><path id="_Контур_50" data-name="&lt;Контур&gt;" class="cls-1" d="M36.3,10.49c0,.38.26.11.32.35C36.75,10.66,36.56,10.09,36.3,10.49Z"/><path id="_Контур_51" data-name="&lt;Контур&gt;" class="cls-1" d="M38.74,26.11c.07,0,.07-.11.07-.18s.09.15.13.27c.15-.06.29-.62.4-.35.28-.26-.22-.22,0-.41C39.21,25.42,38.64,25.58,38.74,26.11Z"/><path id="_Контур_52" data-name="&lt;Контур&gt;" class="cls-1" d="M39.5,25.71c0,.22.09.16.19.08,0,.15.05.3,0,.41s.21-.08.34-.17l-.07-.56C39.7,25.76,39.69,25.49,39.5,25.71Z"/><path id="_Контур_53" data-name="&lt;Контур&gt;" class="cls-1" d="M40,27.92c.09.17.25.11.45,0C40.41,27.52,40.2,27.69,40,27.92Z"/><path id="_Контур_54" data-name="&lt;Контур&gt;" class="cls-1" d="M38.51,12.82c.17.2.38-.46.36-.69C38.63,12,38.64,12.57,38.51,12.82Z"/><path id="_Контур_55" data-name="&lt;Контур&gt;" class="cls-1" d="M38.52,11.56c.2.26.46.68.82,0C39,11.69,39,11,38.52,11.56Z"/><path id="_Контур_56" data-name="&lt;Контур&gt;" class="cls-1" d="M38.88,12.88c.19,0,.29.22.55,0-.13-.17-.32-.14-.41-.39C38.93,12.62,39,12.78,38.88,12.88Z"/><path id="_Контур_57" data-name="&lt;Контур&gt;" class="cls-1" d="M39.13,14.78c.48,0,.48.35.54-.72C39.37,14.25,39.29,14.54,39.13,14.78Z"/><path id="_Контур_58" data-name="&lt;Контур&gt;" class="cls-1" d="M41.47,28.36q.09.51.48.21C41.82,28.43,41.75,28.11,41.47,28.36Z"/><path id="_Контур_59" data-name="&lt;Контур&gt;" class="cls-1" d="M43.52,30.2c.64-.32.88.27,1.4-.34a1.83,1.83,0,0,0-1.18-.1c0-.14.13-.22.23-.32C43.75,29,43.48,29.71,43.52,30.2Z"/><path id="_Контур_60" data-name="&lt;Контур&gt;" class="cls-1" d="M42.34,15.12c.16.36.34-.67.4-.35C43,14.18,42.33,14.88,42.34,15.12Z"/><path id="_Контур_61" data-name="&lt;Контур&gt;" class="cls-1" d="M42.68,15c.1.18.25.22.53-.09C43.1,14.7,42.92,14.73,42.68,15Z"/><path id="_Контур_62" data-name="&lt;Контур&gt;" class="cls-1" d="M46,30.44l.06.45c.15-.11.15-.28.31-.39C46.21,30.52,46.18,30.24,46,30.44Z"/><path id="_Контур_63" data-name="&lt;Контур&gt;" class="cls-1" d="M45.06,18.63c.15-.18.1-.45.38-.58C45.25,17.85,44.73,18.42,45.06,18.63Z"/><path id="_Контур_64" data-name="&lt;Контур&gt;" class="cls-1" d="M54.65,13.32c0,.65.45.08.6-.27C55.1,13,54.86,13.18,54.65,13.32Z"/><path id="_Контур_65" data-name="&lt;Контур&gt;" class="cls-1" d="M59.38,15.72c.08.43.35-.39.46.1s-.27.16-.41.35c.12.3.38.1.6-.26-.11-.09-.13-.2-.06-.45.38-.37.33.42.72,0-.11-.06-.26,0-.24-.42-.44.34-.62,0-.67-.29C59.67,15.07,59.77,15.5,59.38,15.72Z"/><path id="_Контур_66" data-name="&lt;Контур&gt;" class="cls-1" d="M61.27,16.33l.06.45c.3-.25.25-.07.49-.42-.06-.39-.61.29-.22-.31C61.54,15.78,61.31,16.26,61.27,16.33Z"/><path id="_Контур_67" data-name="&lt;Контур&gt;" class="cls-1" d="M61.82,17.1c.08-.24.34-.41.55-.6l0-.33c-.09.1-.15.1-.18,0-.13.34,0,.26-.31.39C61.87,16.78,61.77,16.91,61.82,17.1Z"/><path id="_Контур_68" data-name="&lt;Контур&gt;" class="cls-1" d="M62.45,17.8c.29-.28.34.08.61-.15-.13-.3-.49,0-.52-.55C62.3,17.47,62.53,17.37,62.45,17.8Z"/><path id="_Контур_69" data-name="&lt;Контур&gt;" class="cls-1" d="M63.55,17.23a.56.56,0,0,0-.28.62.31.31,0,0,0,.26-.1A1.1,1.1,0,0,0,63.55,17.23Z"/><path id="_Контур_70" data-name="&lt;Контур&gt;" class="cls-1" d="M63.59,17.57c0,.19-.07.32,0,.52.14-.1.19-.37.24-.21.11-.13,0-.34,0-.52Z"/><path id="_Контур_71" data-name="&lt;Контур&gt;" class="cls-1" d="M64.14,17c-.1.18.07.91.34.57C64.39,17.3,64.34,16.94,64.14,17Z"/><path id="_Контур_72" data-name="&lt;Контур&gt;" class="cls-1" d="M66.58,19.1c.24-.3.31-.14.5-.31,0-.4-.25,0-.24-.42C66.66,18.57,66.48,18.77,66.58,19.1Z"/><path id="_Контур_73" data-name="&lt;Контур&gt;" class="cls-1" d="M68.16,19.48c0,.28.18.33.38.17l-.06-.45Z"/><path id="_Контур_74" data-name="&lt;Контур&gt;" class="cls-1" d="M69,20a3.79,3.79,0,0,0,.51.44c.23-.15-.14-.56.09-.7-.08-.15-.15.11-.24.21S69.27,19.62,69,20Z"/><path id="_Контур_75" data-name="&lt;Контур&gt;" class="cls-1" d="M70,19.24c.05.21.32-.16.37.06a.48.48,0,0,0-.17-.6C70.07,18.84,70.22,19.11,70,19.24Z"/><path id="_Контур_76" data-name="&lt;Контур&gt;" class="cls-1" d="M70.62,21.09c.48-.4.58.24.86.38.39-.48-.12-.78-.08-1.3-.23.5-.17.57-.55.6-.06-.48.07-.76-.2-.83A1.33,1.33,0,0,0,70.62,21.09Z"/><path id="_Контур_77" data-name="&lt;Контур&gt;" class="cls-1" d="M71.1,19.93c.16.22.45.08.59.36C71.77,20,71.48,19.47,71.1,19.93Z"/><path id="_Контур_78" data-name="&lt;Контур&gt;" class="cls-1" d="M72.28,19.92c0,.21.13.15.14.38.23-.22.08-.6.35-.8-.07-.1-.2-.06-.35.06C72.5,19.93,72.58,19.71,72.28,19.92Z"/><path id="_Контур_79" data-name="&lt;Контур&gt;" class="cls-1" d="M73.69,20.43c0,.26.09.25.14.38,0-.23.24-.39.19-.66C73.88,20.48,73.91,20.23,73.69,20.43Z"/><path id="_Контур_80" data-name="&lt;Контур&gt;" class="cls-1" d="M89.54,29.57c.13.4.46.27.82,0-.15-.24-.26-.59-.45-.73A6.06,6.06,0,0,0,89.54,29.57Z"/><path id="_Контур_81" data-name="&lt;Контур&gt;" class="cls-1" d="M94.8,29.9c0,.42.24.05.3.24C95.27,29.91,95,29.54,94.8,29.9Z"/><path id="_Контур_82" data-name="&lt;Контур&gt;" class="cls-1" d="M99.53,32.42c-.13.36.28.54.57.25C100,32.46,99.72,32.51,99.53,32.42Z"/><path id="_Контур_83" data-name="&lt;Контур&gt;" class="cls-1" d="M101.84,33.55c.32-.16.75,0,1-.32A.68.68,0,0,0,101.84,33.55Z"/><path id="_Контур_84" data-name="&lt;Контур&gt;" class="cls-1" d="M106.84,34.72c.1.29.35.15.49.32C107.45,34.77,107.14,34.38,106.84,34.72Z"/><path id="_Контур_85" data-name="&lt;Контур&gt;" class="cls-1" d="M111.4,38c.09-.21.29-.36.38-.57-.07-.1-.2-.06-.35.05C111.46,37.7,111.35,37.83,111.4,38Z"/><path id="_Контур_86" data-name="&lt;Контур&gt;" class="cls-1" d="M117.1,75.32c.29.41,1-.26,1.28.15C118.44,74.7,117.56,75.17,117.1,75.32Z"/><path id="_Контур_87" data-name="&lt;Контур&gt;" class="cls-1" d="M118.53,75.21c.05.35.24.34.54,0A.42.42,0,0,0,118.53,75.21Z"/><path id="_Контур_88" data-name="&lt;Контур&gt;" class="cls-1" d="M121.08,39.91a.63.63,0,0,0,.12-.48,1.12,1.12,0,0,0,.83.16.84.84,0,0,0-1-.43C121.18,39.46,121,39.65,121.08,39.91Z"/><path id="_Контур_89" data-name="&lt;Контур&gt;" class="cls-1" d="M122.13,41.86c.09-.28.41-.45.35-.8C122.29,41,122.09,41.51,122.13,41.86Z"/><path id="_Контур_90" data-name="&lt;Контур&gt;" class="cls-1" d="M122.34,39.94c-.11.13,0,.34,0,.52a1.07,1.07,0,0,0,.39-.46C122.66,39.79,122.35,40.29,122.34,39.94Z"/><path id="_Контур_91" data-name="&lt;Контур&gt;" class="cls-1" d="M134.56,42.65c.12.24.35-.14.5-.31-.07-.11-.2-.06-.35.05C134.72,42.51,134.62,42.57,134.56,42.65Z"/><path id="_Контур_92" data-name="&lt;Контур&gt;" class="cls-1" d="M135.71,41.79c.07.22.44-.28.49-.42C136,41.27,135.83,41.45,135.71,41.79Z"/><path id="_Контур_93" data-name="&lt;Контур&gt;" class="cls-1" d="M136.36,42.72c.33.41.85.3,1.31.37.07-.47.3-.27.57-.49C137.65,42.4,137.07,42.79,136.36,42.72Z"/><path id="_Контур_94" data-name="&lt;Контур&gt;" class="cls-1" d="M137.93,43c.09.32.41,0,.63,0C138.45,42.7,138.26,42.65,137.93,43Z"/><path id="_Контур_95" data-name="&lt;Контур&gt;" class="cls-1" d="M138.74,43c.19.09.31.37.57.26C139.4,43,139.1,42.66,138.74,43Z"/><path id="_Контур_96" data-name="&lt;Контур&gt;" class="cls-1" d="M139,43.91c.23.12.26.35.34.58.27-.33.38-.31.43-.87C139.54,44.22,139.34,43.67,139,43.91Z"/><path id="_Контур_97" data-name="&lt;Контур&gt;" class="cls-1" d="M141.21,39c-.21.39.21.33.38.17,0-.27-.09-.25-.14-.38C141.31,38.84,141.27,39.12,141.21,39Z"/><path id="_Контур_98" data-name="&lt;Контур&gt;" class="cls-1" d="M142.2,43.32c-.07,0-.07.11-.07.18l0,.22c.29-.37.65.21,1.14-.23a.33.33,0,0,1,.05-.3c-.31.14-.52,0-.87.25-.08-.55.23-.28.37-.68s-.43.47-.43.12C142.3,43,142.39,43.63,142.2,43.32Z"/><path id="_Контур_99" data-name="&lt;Контур&gt;" class="cls-1" d="M142.13,39.16a1,1,0,0,0,1.07,0A1.58,1.58,0,0,0,142.13,39.16Z"/><path id="_Контур_100" data-name="&lt;Контур&gt;" class="cls-1" d="M143.57,43.51c.17,0-.06.65.18.72,0-.4.17-.6.46-.64C144.1,43.29,143.82,43.43,143.57,43.51Z"/><path id="_Контур_101" data-name="&lt;Контур&gt;" class="cls-1" d="M144.14,43c.15.3.49.07.8-.06C144.67,42.67,144.5,43,144.14,43Z"/><path id="_Контур_102" data-name="&lt;Контур&gt;" class="cls-1" d="M146.32,43.9c.11-.13,0-.36.12-.48-.31-.17-1,.6-1.09-.06C145,44.36,146.13,43.43,146.32,43.9Z"/><path id="_Контур_103" data-name="&lt;Контур&gt;" class="cls-1" d="M145.39,42.95c.23.42.79,0,1.24-.19C146.41,42.3,145.82,42.83,145.39,42.95Z"/><path id="_Контур_104" data-name="&lt;Контур&gt;" class="cls-1" d="M146.69,41.84c-.21.48.36.11.54,0C147.17,41.55,146.79,42.08,146.69,41.84Z"/><path id="_Контур_105" data-name="&lt;Контур&gt;" class="cls-1" d="M146.68,42.47c.23.24.39.64.91.09C147.16,42.86,147.12,42.14,146.68,42.47Z"/><path id="_Контур_106" data-name="&lt;Контур&gt;" class="cls-1" d="M147.82,43.72c-.13-.55.36-.81.47-.53s-.29.42-.47.53c0,.49.33-.08.31.35a4.65,4.65,0,0,1,1.78-1.64c.22-.65-.84.23-1,.61.16-.55-.32-.26,0-.74-.57.42-1.12,1-2,1.67C147.08,44.34,147.43,44.08,147.82,43.72Z"/><path id="_Контур_107" data-name="&lt;Контур&gt;" class="cls-1" d="M149.48,43.3c-.11.13,0,.34,0,.52.15,0,.41-.31.52-.19.07-.15.05-.33.22-.44-.06-.13-.16-.18-.22-.31C149.75,43.07,149.65,43.68,149.48,43.3Z"/><path id="_Контур_108" data-name="&lt;Контур&gt;" class="cls-1" d="M149.78,44.28a.42.42,0,0,0,.48-.53C150,43.88,150,44.12,149.78,44.28Z"/><path id="_Контур_109" data-name="&lt;Контур&gt;" class="cls-1" d="M150.48,43.32c-.25.4.2.13.15.49.17-.33.12-.37.39-.46C151,43,150.63,43.41,150.48,43.32Z"/><path id="_Контур_110" data-name="&lt;Контур&gt;" class="cls-1" d="M.38,17.42c0-.24.29-.37.17-.66-.14.14-.19,0-.33.18.37.21-.72,1.58.09.56.39.25.87.25,1.12.88.32-.33.34-.16.31.23.08-.1,0-.27.13-.37s-.06.37.08.56c.19-.42.27-.33.76-.94-.12-.24-.44.11-.69.24,0-.57-.23-.29-.4-.27,0-1-.67-.69-.71-1.13a.5.5,0,0,0,.12.78C.68,17.82.73,17,.38,17.42Z"/><path id="_Контур_111" data-name="&lt;Контур&gt;" class="cls-1" d="M3.39,22.54a.66.66,0,0,0,.77.32c-.11-.26.07-.39,0-.63C3.81,23,3.71,22.33,3.39,22.54Z"/><path id="_Составной_контур_" data-name="&lt;Составной контур&gt;" class="cls-2" d="M169.12,54.46c-.27-.58-1-.7-.68-1.9-.38.43-.66.09-.91.65,0,.12.16,0,.26-.1,0,.39-.11.23-.31.39,0-.4-.09-.54-.24-.53a.56.56,0,0,1,.28-.61c-.1-.11-.25-.07-.34.16-.07-.77-1-.45-1.56-.28-.24-1-1.23-.08-2,.36l0-.23c.58-.89,1.14-.73,1.64-1.27,0-.3-.18-.12-.15-.49-1.2.7-1.58.14-2.64.51,0-.1.07-.18.05-.29a1.94,1.94,0,0,0,1.26-.7c0-.33-.28-.05-.31-.35-.08.41-.24.45-.34.16a2.1,2.1,0,0,1-.27.73c-.21-.32-1-.22-1.1.56-.22.24.15-.59-.14-.38,0-.2.26-.11.3-.5-.17-.14-.6.5-.62.78-.18.08.07-.52,0-.74-.35.16-.29.51-.54.71s-.06-.35,0-.41c-.14-.25-.3.35-.39.46a1,1,0,0,1-.08-.67c.24-.29.31-.14.5-.31-.17-.44-.54.17-.65.56a1,1,0,0,0-1.2.52c-.16-.35.2-.47.18-.77.25-.07.47-.06.71-.11a1.18,1.18,0,0,1,.41-1.09c-.05-.24-.25-.07-.34.16.13-.45-.22-.12-.08-.67a.87.87,0,0,1-1.06.16c0-.29.43-.37.37.06.07,0,.07-.11.07-.18l.16-.14c-.07-.41-.39-.15-.64-.08,0-.41.28-.73.31-1.13-.24.34-.18.17-.49.42-.1-.29,0-.48,0-.74-.18.1-.21.26-.31.39-.07-.24.12-.37,0-.63a1.32,1.32,0,0,1-.92-.2c0-.46.2-.18.47-.53-.05-.3-.4.19-.39-.28-.05.15-.21.26-.22.43-.58-.63-1.62,0-2.23-.58-.09.1,0,.26,0,.41-.2.19-.39.35-.5.31.33-1.52-1.09,0-1.4-.42.59-1.25,1-.69,1.58-1.1-.1-.37-.59.18-.42-.51l-.49.42c-.06-.2,0-.35,0-.52.12.07.41-.29.45,0,.08-.43.2-.18.38-.57,0-.8-.79.73-.73-.12-.4.42-.81.84-1.19,1.27-.1-.33.09-.53.27-.73,0-.53-.27-.26-.41-.4a.94.94,0,0,1-.46.64c.06.15.27-.12.22.31q-.36.23-.48-.21l-.73.63c.12-.57.25-.4-.07-.56-.14-.34.28-.44.18-.77-.39.86-.56.48-1.13,1.09-.24-.27-.52-.39-.72-.75a3.61,3.61,0,0,1-1.38,1.18c-.13-.34.34-.42.37-.68-.47-.1-1.36,1-1.79,1.53.38.39,1-.77,1.33-.89a.62.62,0,0,1-.12.47c.06.22.46-.27.39-.46.15.88,1.72-1,1.92.22a1.31,1.31,0,0,1-1.93.41c-.76,1.14-1.41.78-2.08.66a6.11,6.11,0,0,0,.89-1.51c-.27.33-.33.1-.58.37-.08-1.16-.79.3-.9-.72a3.15,3.15,0,0,1-.95.31c.07.21-.14.29-.12.48-.18.08-.27-.08-.52.19-.1-.43.25-.54.39-.46.1-.43-.64-.13-.77.29-.18-.11-.51.17-.5-.44-.25-.16-.88.67-1,.27,0-.6.48-1,.81-1.44-.37-.07-.79.62-1.22.3,0-.42.08-.47-.15-.49-.28.27.26.25,0,.52.13.09.25.21.46.1-.1.5-.12.43.15.49,0,.14-.14.22-.23.32s-.07-.59-.25-.53-.21.26-.22.43c-.22.08-.31-.17-.48-.21,0-.27.1-.35.23-.32s0,.17,0,.34a1.53,1.53,0,0,0,.26-.84c-1.18,1.19-1.81.89-2.71,1.33,0-.15-.05-.31,0-.41a1.55,1.55,0,0,1-1.19.53c.13-.49.74-.52.8-.81,0,.46.19.29.08-.07a2.59,2.59,0,0,1-1.7.09c.06-.68.65-.21.88-.88-.2,0-.19-.27-.43.12-.47-.73-2.12.25-2.85.21-.05-.31.55-.32.37-.68a1,1,0,0,1-.83.58c.11.15.2.36.4.28,0,.1-.07.18-.05.29-.41.21-.46-.56-1,0,0-.19.07-.32,0-.52-.38.33-.5,0-.8.06a.62.62,0,0,1,.12-.48c-.06-.19-.33.18-.3-.24-.14.08-.14.22-.13.36a6.43,6.43,0,0,0-2.5-.59.57.57,0,0,1,.3-.5c-.13-.1-.35.05-.46-.1-.32.14-.08.53-.36.68-.09-.46-.37-.4-.73-.12-.07-.24.12-.37,0-.63-.16.17-.12.44-.28.61-.08-.63-.24,0-.64-.07-.07-.24.12-.37,0-.63a.64.64,0,0,0-.12.48c-.4.15-.84-.72-.61-1.34-.58.17.17.69-.31,1.13-.16-.08,0-.3-.16-.6-.35.26-.5-.19-.84.47-.21-.08-.48-.11-.36-.69l-.41.35c0,.56.2-.36.2.2-.37.63-.91-.14-1.51.17.2-.34.27-.66.54-.71-.16-.64-.64.55-1,.5,0-.67-.43-.25-.73-.11-.08-.62-.45-.49-.78-.45.07-.42.3,0,.5-.31,0-.32.33-.49.35-.8-.46.44-.88.38-1.33.89,0-.2-.19-.09-.31-.35.09-.58.62.13.46-.64.28-.31.25.23.53-.08,0-.49-.66.1-.42-.51-.27.26-.4.05-.77.29.28-.74-.28-.12-.36-.69-.49.42-.72.15-1.13.34-.14.37,0,.74.25.53-.25.62-.55.09-.72,0a.88.88,0,0,1,.38-.57c.07-.31-.06-.38.08-.81-.31.81-.36.11-.83.58-.07.53.25,0,.23.42-.18,0-.46.24-.48-.21,0-.2.11,0,.24-.21s-.17-.17,0-.34c-.08-.35-.28.57-.27,0a1.45,1.45,0,0,1-.34.91c-.23-.09.1-.31,0-.63a.93.93,0,0,0-.28.62c-.09,0-.12-.19-.27,0-.11-.51.43-.73.39-1.2a2.18,2.18,0,0,0-.36.68c-.31.34-.17-.53-.54,0-.1-.29,0-.48,0-.74-.35.28-.47,0-.65-.19-.34.59-.64.26-.88.13-.06-.24.38-.25.2-.55-.42.48-.56.1-.9,0-.27.13-.06.47-.28.62-.32,0,.14-.56,0-.86-.14,0-.22,0-.33.28-.11-1.21-1.16.14-1.43-.64-.38.55-.46.41-.91.66-.09,0,0-.42-.23-.42.11-.48.37-.13.58-.37-.2-.41-.55-.12-.88.13-.18-.26,0-.43,0-.86-.24.05-.26-.26-.52.19l-.06-.45c-.09.53-.68.52-.65-.18-.39.61-.42.27-.63,0-.31.25,0,.12,0,.41-.2.19-.23-.08-.37-.06,0-.51.1-.46.27-.73-.21-.09-.38-.28-.38-.91.09-.1.15-.1.18,0,.09-.36-.42-.36-.6-.48.41.47.11,1,.54,1.4-.73.6-.32-.76-.72-.75-.13.4.09,1-.1,1.33,0-.4-.36-.47-.3-1-.27.34-.42.73-.68,1.08.29-.63,0-.69,0-1.08s.38-.4.27-.73a1.46,1.46,0,0,0-.36.68c-.13,0-.19-.45-.26.1-.14-.07-.19-.38-.26-.65.09-.28.45.15.57-.49-.37.22-1.82.54-1.23-.44-.13-.09-.44.28-.46-.1-.51.79-.78-.11-1.45.62.13-.64-.31-.37,0-.86-.11-.21-.29.42-.57.49-.35-.2-.63-.61-1.2-.22.14-.53-.23-.51-.38-.17,0-.54-.23-.29-.26-.64-.06.32,0,.35-.08.81-.21,0-.29-.47-.28-.76-.22-.19-.32.49-.48-.21-.07.14-.05.33-.22.43.25,0,.41.19.52.55a7.08,7.08,0,0,0-1-.46c0-.1.07-.18.05-.29.22-.1.39.4.61-.15-.15-.39-.63.25-.78-.45-.11.11-.23.21-.26.1a.63.63,0,0,0-.12.48c-.33.23-.41-.2-.72,0-.11-.26.08-.39,0-.63-.27.15-.06.5-.31.39-.1-.32.27-.4,0-.52-.19.09-.09.31-.21.43-.36-1.4-1.65-.68-2.07-1.45,0-.22.27-.3.3-.5-.21-.29-.78.42-.78-.45a.64.64,0,0,0-.12.48c-.22.29-.23,0-.42.23-.07-.21.09-.31.22-.43-.05-.3-.3-.08-.4-.28-.09.1,0,.26,0,.4-.21.27-.19-.08-.35.05,0-.16.17-.28.12-.48l-.32.28c-.07-.24.12-.37,0-.63A3.87,3.87,0,0,1,92,29.93l0,.34c-.12-.07-.4.29-.45,0s.09-.31.21-.43c-.2-.34-.88-.07-1.07.05.06-.41,0-.55-.31-.35.12.46-.1.37-.3.5.5,0,.5.61,1.06.58.11-.15,0-.09,0-.22.25-.36.11.31.35-.05a3.07,3.07,0,0,0,.11.9c-.42-.62-1.46-.16-1.65-.95-.06.08-.07.18-.15.25-.25.11.17-.33,0-.52-.56.62-.69.05-.93-.2-.26.47-.45.35-.61.15.2-.34.5-.63.5-1,.18-.05.38.19.52-.19-.21,0-.18-.1-.15-.49-.23.38-.32.23-.47.53-.21.07-.25-.34-.54,0,0-.75-.51-.56-1-.42.19-.56,0-.58-.4-.28a.61.61,0,0,1,.22-.43c-.23-.39-.77.09-1-.24-.15.14,0,.42-.2.54s0-.55-.29-.13a.62.62,0,0,1,.12-.48c-.12-.15-.17.51-.34.17a.61.61,0,0,1,.11-.59c-.34.17-.6-.51-.9,0-.07-.24.12-.37,0-.63-.2.56-.28,0-.27,0-.37-.06-.74.62-.91-.09-.26.51-.56.09-.8.07,0-.16.17-.28.12-.48-.36.53-.39-.14-.85.36-.21.35.07.59.23.42.06.11-.37.33-.42.24-.25.4.18.2.22.31s-.19.27-.31.39-.07-.69-.48-.21c0-.27-.09-.53.09-.7-.06-.4-.41,0-.42-.51-.13.22-.19.56-.39.46a2.82,2.82,0,0,1,1.38-1.19,4.12,4.12,0,0,1-.34-.57c-.14.15-.29.51-.34.17-.1.13-.1.31-.22.43-.3.15,0-.27-.17-.6-.24.78-1.12.53-.94-.31-.16.45-.2-.09-.5.31,0,.4.37,0,.41.39-.13.34-.42-.16-.57-.25a1.08,1.08,0,0,1-.39.46c-.19.16,0-.33.13-.36-.12-.21-.35.4-.28.62.16-.09.19.19.43-.13,0,.2-.08.39-.1.59-.32.17-.34-.49-.67-.3.08-.37.7-.88.4-1.09-.12.52-.16.22-.41.35.17-.55.25-.17,0-.63-.15.35-.21.46-.47.53.17-.73-.45.09-.44-.62.61.15,1.27-.23,1.77.47,0-.72.54-.09.7-.85,0-.21-.13-.15-.14-.38-.3.56-.55,0-.51-.44,0,.58-.4.38-.41,1-.12-.08-.35.16-.38-.17s.37.2.22-.43c.24-.36.11.31.35-.05,0-.19.07-.32,0-.52-.5.49-.41,0-.33-.46-.28.76-.71,0-1.07.05-.22.3-.07.25,0,.52-.54.48-.87-.32-1.24.19-.12-.3.18-.41.19-.66.26.09.57.07.76.34a1.1,1.1,0,0,0,.27-.73c-.13.16-.16,0-.19-.09a.73.73,0,0,0-.14.37c-.07-.67-1-.41-1.35,0,.45-.88-.19-.59-.08-1.31-.14.12-.22.1-.27,0-.27.46.18.19.15.49s-.42.55-.86,1c0-.6.39-.44.52-.83-.11-.45-.21,0-.53.08a2.17,2.17,0,0,1-.19.66c-.16.09-.12-.38-.37-.06.07.46.56-.22.52.55.38-.28.74-.49,1-.32,0,.26-.27.06-.35.05-.17.24,0,.38.14.21-.57,1.57-1.45-.41-2.39-.15,0,.15.05.31,0,.41,0,.32.33-.18.3.24-.07.27-.57.44-.54,0-.05.47-.67.88-.68.34,0-.12.43-.27.45,0,.13-.57.29-.49.51-.94-.13-.3,0-.4-.18-.71.42-.06.49.4,1.16-.12,0-.52.17-.43,0-.85-.1.31,0,.69-.43.87-.32-.13-.57-.46-1-.42a.61.61,0,0,1-.1.59.87.87,0,0,0,.4.28.91.91,0,0,1-.49.42.34.34,0,0,1,.13-.36c-.19-.36-.26.49-.52.2.08-.28.3-.5.35-.8-.58.54-1-.41-1.61.14,0-.24.21-.4.09-.7-.25.14-.34-.19-.69.22a1.2,1.2,0,0,1,0,.63c-.3.12-.46-.15-.8.07,0-.41.54-1,.58-.38,0-.32.27-.52.25-.84-.43.56-.56.21-1.11.46,0,.42.29-.08.3.24-.17.44-.31,0-.6.26,0-.19.07-.32,0-.52-.46.94-.55-.27-1,.1.11-.73.54-.33.72-.74,0-.11-.11,0-.18,0-.15-.28.25-.31.1-.59-.27.21-.42-.21-.5.31-.31.33-.25-.32-.48-.21,0-.26.26-.57.32-.28.19-.65-.8.25-.54-.66l-.49.42c.07.2,0,.35,0,.52-.26.14-.14-.21-.15-.49-.56.6-.6-.21-1-.76-.47.39-.83-.62-1.4-.41-.16.43.17.19.23.42-.24.45-.68.14-.9,0,.08-.49.3.13.41-.35a1.24,1.24,0,0,1-.09-.67c-.18.14-.59.6-.88.88-.27,0,0-.55-.1-.79s-.65.29-.4-.28c-.55.34-.87,0-1.2-.21-.12-.37.37-.47.25-.84-.37.15-.12.58-.44.76s-.07-.57-.12-.9c-.2.13-.23-.19-.38-.17a1,1,0,0,0,.08-.81c-.06.13-.2.37-.24.21-.21.21.14.1.06.45-.25.27-.26-.08-.38-.17a.22.22,0,0,0,.14.38,4.26,4.26,0,0,1-.28.62c-.19-.06-.08-.4-.35.06-.06-.5.17-.3.28-.62-.11-.33-.25.14-.4.35-.28.05-.42-.27-.67-.29.08-.28.34-.49.44-.76-.16-.23-.11-1-.47-.84,0-.64.07-1-.34-1.21.06.24.22.33.09.67-.24.2-.33,0-.46-.1-.16.14-.06.39-.29.5.2,0,.37.69.57.25a.92.92,0,0,1-.28.62c-.18,0,.07-.56-.37-.06-.15-.28.25-.31.1-.59-.16.57-.42.43-.53.08-.24.29-.09.46.06.45-.14.14-.19,0-.34.17,0-.24-.18-.57,0-.74-.07-.09-.59.33-.3-.24-.1-.24-.53.71-.68.34,0-.17.19-.27.31-.39-.22-.16-.48-.86-.77-.34-.1,0-.38-.26-.06-.45-.45-.11-1.2.24-1.73,1.25-.12,0-.2-.16-.37-.06-.08-.39.39-.53.24-1,.36-.26.27,0,.38.17a.81.81,0,0,0,.43-.87c-.08.07,0,.19-.05.3-.21.11-.43.26-.46-.1s.16,0,.32-.28c0-.44-.35.14-.32-.35-.4.85-.71,0-.89-.6-.27.26-.63.83-.32,1,.09-.5.23-.26.35-.06s-.14.13-.18,0c-.07.45.53.36.71.63-1,.3-2-.69-3.07-.71,0-.14.14-.22.23-.32-.08-.19-.18-.32-.45,0,.13-.62-.17-.16-.25-.53s.47-.29.28-.62c-.39.52-.36.13-.66-.18-.31.4-.6.63-.64-.07-.31.35-.36,0-.68.34-.06-1.48-1.31-.92-2-1.91-.12.41-.46.66-.35.06-.27.13-.29.36-.38.58-.08,0-.16,0-.19-.08.12-.26.16-.56.44-.76-.15-.48-.34.73-.45,0-.31.62-.31.35-.6.27,0-.26.17-.42.37-.58-.64.3-1.19-.43-1.92.54-.3.11-.19-.2-.32-.35,0-.33.32-.5.25-.84a.91.91,0,0,0-.36.69c-.2-.2-.24.12-.52.2,0-.55.56-1,.78-.93,0-.18,0-.3.07-.18-.14-.66-.4-1.43-1.26-.66-.09-.32.4-.39.26-.73-.35.44-.62-.35-1-.42-.15.11-.15.29-.31.39,0-.16.17-.28.12-.48-.19,0-.1.1-.32.28,0-.14.15-.22.13-.37-.07-.47-.4-.24-.52.2,0-.14,0-.18-.11-.15,0-.14.14-.22.23-.32-.44-.21-.9-1.19-1.44-.63-.26-.69-.38,0-.51-.43-.5.61-.61.43-1.08.69,0,.29.17.24.24.42-.26.26-.23-.29-.46-.1,0-.14.13-.22.23-.32-.29-.17-.46-.68-.75-.85,0-.14.13-.22.23-.32-.13-.1-.23-.29-.47-.1-.51.93-1-.86-1.69-.41a13.91,13.91,0,0,1,1.52,1.18c-.28.15-.4-.13-.58-.25-.23.4.21.21.24.42l-.49.42c0-.19.07-.32,0-.52-.49.06-.77.92-1.13.36.07-.34.46-.25.66-.45s0-.48.18-.66c-.14.09-.79,1.11-1,.51a.58.58,0,0,1,.29-.51c-.08-.41-.66.62-.87.26s.31-.43.17-.77c-.07,0-.07.11-.06.18-.08.25-.27-.07-.39.46-.06-.11-.34-.37-.43.13-.09-.12-.28.06-.3-.24s.56-.53.6-.9a3,3,0,0,0-.6.27c-.07-.24.11-.37,0-.63-.33,0-.58-.25-.87-.37,0-.26.22,0,.41-.35-.27-.44-.8.79-.92-.08-.13,0-.4.5-.42.24-.2.21.14.1.06.45L30.62,4c-.16-.47-.58-.23-.74-.74.15-.47.57-.36.56.14.21-.17.39-.27.52-.2-.17,0-.31-.87-.77-.33-.1-.36.25-.52.15-.88-.42.57-1,.28-1.43.12,0-.38.19,0,.32-.28-.21-.08,0-.35-.09-.67-.35.16-.52-.2-.9,0-.16-.72-.39,0-1.13.36.23,0,.51-.09.66.18.14-.08.14-.22.13-.37a.26.26,0,0,1,.38.17c.06.21-.24.18-.26.1,0,.32.14,1.36.58.88a.7.7,0,0,0,.91.71c0,.31-.12.51.21.19.28.81.73,1.16,1.33,1.1-.21.64.48.36.12.9.15-.16.3-.06.53-.09,0-.21-.13-.15-.14-.38.13,0,.23,0,.35-.06a.61.61,0,0,1-.21.44c0,.35.23.19.25.53.14-.08.12-.23.23-.32,0,.31,0,.58.3.24,0,.17,0,.46.14.38.07.24-.38.26-.2.55.44-.63,1.16,0,1.17.61.1.29.16-.26.32-.28s.1,0,.18,0c.11.29-.09.45,0,.74.52-.45,1,.32,1.36.69.24-.3.31-.14.5-.31-.1-.51-.31.25-.46-.1.22-.24.16-.17.18-.66.52-.46.68,0,.61.47-.25.28-.11-.53-.38-.17.21.1.12.67-.15.88.31.13.51.52.81.67-.27.47-.15.28,0,.63-.2.05-.31-.16-.35-.57-.15.14,0,.42-.2.55.22-.06.3.29.49.32.21-.19.11-.51.07-.81.32,0,.49.39.91.08.12-.23.11-.51.26-.73.34,0-.17.48,0,.74,0,.2-.11,0-.24.21.06.75.84.62.92,1.45.59-.42.84.14,1.22.32,0,.53-.41.29-.62.79.16.49.58-.46.33.46a1.7,1.7,0,0,0,.33-.91,1,1,0,0,1,1,.53c.36-.66.59-.25.8-.07,0,.14-.14.22-.23.32s-.11-.22-.14-.38a.31.31,0,0,0-.15.25l-.16.14c.09.31.46-.15.43.5-.2.2-.23-.08-.37-.06-.24.47.2.36.25.53-.59.63.32.3.46.73.08-.29.33-.79.54-.72-.3.41,0,.52-.22,1.06.09-.1.15-.1.18,0,.09-.54.39-.34.62-.79.1.13.32.83.78.44.08.32-.16.49-.27.73.19.35.43.49.47.84l.32-.28L44,15.09c-.36.44-.32-.23-.49-.32.37-.3.38.38.74.11-.41,1.11.35.7.55,1.4-.1-.18-.34,0-.4-.28-.18.45.28.45.43.5a6.31,6.31,0,0,1,.36-.69c.31,0,0,.53,0,.74.13-.16.16,0,.19.08.21-.57.44-.47.48.21.07-.67.14-.17.55-.6.09.62-.5.3-.33.91.32-.64.44-.38.71-.74.08.53-.43.31-.46.64.23.11.28.12.6-.27.08.48-.24.15-.29.51.19.83.59.12,1.09.05,0,.26-.1.45,0,.74.36-.33.42.16.72,0,0,.27-.21.47-.26.73s-.15,0-.26.1c-.1-.25.14-.36.2-.55-.32,0-.53.25-.82,0,.15.24.24.65.52.54.07.33-.27-.08-.23.32-.16-.27-.41-.28-.6-.48-.09.1,0,.27-.13.36s.07-.37-.07-.56c-.14.13-.22.1-.27,0-.43,1.13-.37-.46-.88.14-.09-.32.24-.54,0-.63-.27.31-.22.75-.49,1.05,0,.33.28,0,.32.35.09-.1,0-.26,0-.41.28-.25.35.07.48.21-.09.34-.21.09-.39.46-.21,0-.35-.25-.64-.07-.09-.32.24-.54,0-.63-.79,1.2-1.49-.2-2.13-.4.06-.26.36-.4.36-.69A5.42,5.42,0,0,0,44.75,19c.21-.29-.1-.42-.29-.12,0-.38-.26-.37.09-.7a1.81,1.81,0,0,1-.54,0c0-.26.31-.43.17-.77-.34.46-.33.27-.53.08s.19-.41.09-.7c-.28-.3-.83-.14-1.16.13.06-.15,0-.35.12-.48s-.15.47.19.08c-.16-.48-.56-.29-.73-.74l-.57.49a2.82,2.82,0,0,0,0-.86c-.42.54-.09.65-.14,1-.29.25-.12-.78-.49-.32-.09-.46.45-.65.3-1.14-.08.07,0,.19-.05.29-.48.16-.75-.29-1.07-.57-.34.31-.17.84,0,.86-.24.09-.73.89-.76.41s.24,0,.31-.39-.27.14-.22-.31c-.23.31-.15.48-.47.53a.5.5,0,0,1,.2-.55c-.13-.48-.5.63-.61.16,0-.3.46-.43.34-.8-.26.13-.28.37-.47.53s-.16,0-.19-.08c.1-.3.36-.19.45-.65-.26-.06-.1-.33-.2-.83-.33-.53-1-.26-1.31-.36.51-.54-.64-.71-.87-1.12.19-.48.42.26.79-.18-.23-.62-.91.19-1-.53-.09.1,0,.26,0,.41-.29.38-.27-.08-.52.2,0-1.06-.82-.41-.79-1.19-.59.23-.68-.38-1.25.09.16.1,0,.15.06.45-.74.37-.53-.73-.29-1.5a9.87,9.87,0,0,0-.49,1.05c-.17-.2-.4-.23-.53-.54s.28-.13.46-.28c-.14,0-.6-.66-.76-.59-.08-.13.09-.63.13-.37.15-.44-.19-.09-.29-.12s0,.26,0,.41c-.41-.13-.63-1.49-1.34-1.21l-.08-.56c-.16.14-.15-.22-.35.06-.07-1.15-.83-.36-.92-1.45-.6.29-.91-.25-1.14-1,.37-.18.45-.37.74-.52-.49-.18-1.2.25-1.24-.43-.26.78-.73,1-.91,1.92-.21-.2-.36-.55-.56-.77-.26.82.78.67.41,1.65-.17.17-.09-.36-.16-.49-.24.56-.41-.13-.77.3a1.22,1.22,0,0,0,.13-1c-.14.45-.32.48-.63.68,0-.42-.14-1-.34-.46-.09-.32.12-.59-.09-.67,0-.39.1-.23.31-.39-.18-.17-.36-.35-.66-.18-.06-.38.39-.53.33-.91-.14.1-.46.81-.5.31-.1.2-.3.36-.18.66-.35.09-.27,0-.57.49-.21.27,0-.58-.23-.31s0,.42,0,.63c-.16,0-.19-.29-.39-.16,0-.28.37-.4.26-.73-.2.37-.4,0-.21-.19-.54.59-.92,0-1.11-.79-.09.21-.28.37-.37.58.14.27,0,.25.1.67.18-.1.13-.3.11-.48.45,0,.66.75,1,1.15-.46.18-.53-.69-1-.52a2,2,0,0,1,.37.68c-.27.13-.29-.43-.71.12,0-.29.25-.45.16-.77-.14.14-.19,0-.34.17-.07-.2.09-.31.21-.44,0-.22-.24.05-.22-.31-.23.5-.44.05-.65.57-.16-.41.22-.61.13-1-.3.2-.62-.33-.55-.65-.42.21-.21-.37-.58-.25,0-.38.19,0,.32-.28-.14-.51-.55-.22-.73-.62a2.1,2.1,0,0,0-.44.76c-.13-.16-.5-.12-.68.34-.15-.27.25-.31.1-.59s-.37.11-.4-.28c-.27.16-.22.43-.4.36-.05-.37.44-.51.52-.83s0,.69.31.23c.1-.45-.3-.55-.6-.36-.11-.26.07-.39,0-.63-.36.22-1,.38-.92-.08-.05-.13-.14.12-.15.25-.2,0-.42,0-.44-.5-.24.3-.27,0-.5.31.32-.22.2.81.6.36,0,.52-.28.61,0,1-.49.5-.35-.2-.4-.28-.35.37.08.41-.06.81.2-.25.3-.21.29.12.25-.29.28,0,.4-.36-.09-.27-.31-.09-.08-.56.17-.12.09.48.31.23,0,.39-.3.42-.08.7.12-.67.21.11.39.16,0,.09-.16.43-.25.45.11.18.23.7.49.6-.09.86.39.47.28,1.27.31-.06.41-.47.68-.34,0,.17-.19.27-.31.4,0,.67.34.41.47.72.16-.21.15-.33,0-.41.29-.4.34.14.5-.31,0,.09-.14.61.06.45,0,.39-.1.23-.31.4.14.44.56.1.58.88.43-.93.2.59.71-.12-.25.55.13.31,0,.74-.2,0-.42,0-.43-.5-.43.7-.67-.11-.82-.67a1.37,1.37,0,0,1-.53.72c.77-.68.93,1.88,2,.41.27.22.63.22.82.66.16-.21.15-.33,0-.41l.48-.43c.12,0,.18.11.22.31-.25.23-.28-.15-.6.27.06.3.21.34.27.64l.32-.28c.09,0,.15.1.21.19,0,.25-.17.42-.37.58.3.32.5-.81.77-.3A.63.63,0,0,0,22,9.18c.15-.12.28-.16.36-.06-.47.72.2,1.26.33,1.72-.36.1-.88-.75-1.09,0-.29-.11-.47-.55-.8-.55-.21.51.3.3.35.57-.32.15-.25-.05-.58.38.16-.85-.25-.21-.06-1.08-.36.23-.37.61-.4,1-.24.09,0-.49-.1-.67-.19.17-.26,0-.5.31-.11-.26.07-.39,0-.63-.37.36-.13,0-.31-.24-.33.19-.47-.14-.81.08-.12-.3.18-.42.18-.66.29-.05.57.56.79-.19-.11-.11-.36.18-.52.2a1,1,0,0,0,0-.41c-.35.31-.41.33-.47-.09-.39.22-.2.68-.6.9-.07,0-.1,0-.18,0-.09-.32.16-.49.26-.73,0-.49-.25-.14-.26-.53-.14.08-.14.22-.13.37-.37.1-.36-.88-.93-.19-.42-.54-1-.3-1.16-1.12-.32.39-.36,0-.55,0-.21.42-.18.54-.43.76a3.07,3.07,0,0,1,.13.9c.26-.4.13-.32.45-.65.25,0,.35.38.73,0,0,.39-.44.58-.6.9,0,.29.51.12.27.64.27.28.83-.25.9.59-.29.2-.43,0-.71.12.1.14.27.09.26.53.19-.36.23-.35.19.08.6-.5.62.65,1.08.56.13.27-.15.36-.29.51,0,.38.26.1.32.35a2.76,2.76,0,0,0,0-1.15,1.66,1.66,0,0,1,.21-.44c.13,0,.2.16.3.24s-.24.32-.1.59c.17-.1.2-.26.31-.39s.09.17.19.08c0,.44-.18.17-.29.51-.23.18-.18-.44-.47-.09,1.35,1,2.86,1.63,4.12,2.91.36-.71.71-.12.61.47.24-.35.23-.81.47-1.17.34-.07.06.66.43.5,0,.14-.13.22-.23.32.2.21.59-.11.75.22-.64.87.38.79.5,1.69.26-.1.11-.38.1-.59.37.2.17.23.45.61.11-.13,0-.36.12-.48s.18.11.22.31a1.07,1.07,0,0,1,.39-.47c.31-.2,0,.54.38.16a.58.58,0,0,1-.29.51c.48.52.29.75,1.1.79a.61.61,0,0,1-.21.44c.64-.34.9.37,1.47.21a.72.72,0,0,1-.13.37c.17.1.45-.13.76-.41a.4.4,0,0,1-.2.55c.65,0,.86,1.3,1.79.56.11.29-.19.41-.09.7-.16.14-.14-.22-.35.06.5,0,1.26-.26,1.68.41.22-.37-.28-.44.17-.77.12.49.21.89.47.84.35-.52-.18-.13-.24-.42.32-.33.41,0,.63,0a4.52,4.52,0,0,1-.43.87c.53.07,1.12-.45,1.55.15,0,.14-.15.22-.13.37s.13.15.14.38c.3-.27.21-.33.49-.42a1.21,1.21,0,0,0,0,.63c.31-.09.51.13.75.22,0,.28-.26.26-.26.1,0,.64.62.16.95-.33.16.35-.15.5-.36.69.34.14.94-.47,1.17,0,.05.16-.24.4-.27.22a.57.57,0,0,0,.29.64c-.08,0-.33,0-.23.32-.13.06-.12-.29-.35.06,0,.4.32.13.41.39,0-.27.32-.68.4-.35.11-.15-.05-.11,0-.34a1.29,1.29,0,0,0,.84-.48c.14.34-.28.44-.17.77.25-.23.49-.13.65-.56.37.29.74.74,1.08.68.08-.21.1-.45.37-.58,0,.59-.41.75,0,1-.26.31-.3,0-.45,0-.15.48.47.12.59.36.07-.15,0-.33.21-.44.08.26.24.17.18.71.26-.14.21-.4.47-.53s0,.93.49.32c.07.24-.12.37,0,.63-.2.19-.28,0-.37-.05.39,1.22,1.84.83,2.63,1.46a1.56,1.56,0,0,1-.46.65c.13.19.42,0,.49.32a.92.92,0,0,0,.28-.62c.43.17.89,1.38,1.76.35,0,.48-.28.25-.37.57a1.71,1.71,0,0,1,.59.36c.1-.13.1-.31.21-.43.38,0,.53,1.24,1,.53,0,.26-.1.45,0,.74.18,0,.48-.41.46.1.56-.86.74.57,1.36.07-.1.17,0,.44-.1.59.31-.1.67-.33.68.4.18-.2.31-.25.42-.24a1,1,0,0,0,0,.41c.15-.27.41-.16.19.08.24-.2.47,0,.67.29.08-.42.22-.4.4-.35,0,.14-.14.22-.23.32.19.25.49.16.68.41-.35.36-.22-.2-.5.31.11.15.2.36.4.28,0,.17-.19.27-.31.39-.17-.08-.13-.75-.49-.32.25,0-.1.67.17.6-.09.44-.29.4-.49.42,0-.25.19-.41.28-.62-.1-.33-.33.11-.5.31-.16-.07-.38,0-.41-.39.32.24.47-.47.69-.22.21-.29-.25-.29.2-.55.29-.22-.25.55,0,.34s.11-.2.1-.59c.08,0,.16,0,.19.08-.09-.43-.9-.16-1.16-.62-.09.57-.22,0-.39.46a.91.91,0,0,0,.8-.07c-.32,1.26-1,.54-1.34.79-.19-.61.31-.92.26-1.47-.23.59-.26-.3-.61.16.18,0,.53.36.2.82-.05-.72-.36.21-.59-.36-.1-.36.25-.52.16-.88l-.41.35c0,.15.06.31,0,.41-.61.26-1-.11-1.54,0,0,.49.25.23.33.46-.38.19-.95.23-.79-.56.1.12.26.1.51-.2s-.19-.21,0-.52c-.33,0-.85.58-.76-.34-.25.32-.28,0-.37-.06-.05.15-.21.26-.21.43-.24-.46-1.08-.08-1-.87a6,6,0,0,0-.72,0,1.69,1.69,0,0,1,.21-.43c-.11-.27-.25.29-.4.35a1.11,1.11,0,0,1,.33-.91c-.16-.25-.5-.17-.37-.8-.19.34-.14.78-.49,1.05.2.4.4-.75.61-.16-.07.39-.22.57-.46.65-.43,0-.47-1-.93-.93,0-.56.27-.23.49-.42-.06-.33-.33-.1-.54,0a1,1,0,0,0,0,.41c-.16,0-.1-.29-.26.1-.14-.49-.76.35-.71-.63-.18.4-.61.29-.48-.21-.44.72-.88.49-1.07.06-.13.08-.13.23-.23.32-.14-.41-.52-.26-.29-.87l-.57.49c-.22-.45.32-.57.24-1-.34.29-.52.12-.65-.18-.14.29-.45.51-.62.79,0-.42.49-.63.4-1.09-.32.89-.92.58-1.07.06-.31.07-.48.64-.68.34.13-.32.44-.62.1-.59a1.24,1.24,0,0,1,.53-.72c0-.11,0-.08-.1,0l0-.22c-.24.18-.21.47-.45.65s0-.56-.21-.94c-.3.28-.29-.31-.56-.14,0,.6.24.55.51.43a1.52,1.52,0,0,0,0,.74c-.17-.18-.3.24-.4-.28-.28.09,0,.42-.29.5,0-.54-.53-.62-.84-.89-.14.21.18.41.32.35-.19.74-.63.44-.79.19,0-.5.35.11.32-.28-.07-.58-.31.24-.46-.1.59-.76-.78-.19-.79-1.19-.25.33-.68.39-1.08.69.31-.79-.72-.42-.93-.19,0-.15-.06-.3,0-.41-.18.25-.26-.16-.61.16.09-.73-.33-.15-.74-.11,0-.24.2-.4.09-.7-.77.23-.94-.34-1.66-.3,0-.27.21-.43,0-.52-.27.73-.44.16-.41-.39-.1.6-.55.86-.74.52.08-.49.3.13.4-.35,0-.21-.13-.15-.14-.38-.16.21-.11.48-.31.39,0-.18.23-.25.21-.44-.22-.37-.42-.14-.51.2-.29.06.21-.58-.08-.56a.67.67,0,0,1-.64.56c.11-.58-.14-.08-.17-.6-.14.39-.37.25-.45,0s.14-.07.21-.43c-.28.54-.8-.41-1,.51-.08-.33-.55.41-.62,0s.26-.21.55-.6c-.12-.22-.37-.1-.49-.32-.49,1.12-.95.29-1.2.43.14-.34.42-.38.56-.49a.33.33,0,0,1-.13.36c.14.3.24-.21.51-.2-.28-.25-.4-.16-.41-1-.27.13-.13.44-.28.62-.05-.79-1.42-.56-1.76-1-.08,0-.52.19-.47.53-.39.3-.34-.59-.61.16-.06-.31.19-.48.26-.73.11-.06.1.22.14.38.28-.3.09-.63.45-.65-.24-.12-.37.13-.77.3a1,1,0,0,0,0-.41c-.27.25,0,.27-.18.66-.21.11-.23-.28-.53.09a5.56,5.56,0,0,0,2,1.49c.15.27-.25.31-.1.59.18.08.2-.16.4-.35.06.45-.38.68-.68,1-.4-.2-.56-1.22-1.29-.87-.15,0-.16-.48-.33-.46,0,.47,0,.39-.26.1-.23.11-.13.37-.29.51-.11-.85-.39-.35-.7-.51-.07-.24.11-.37,0-.63-.12.41-.37.61-.5.31s.37-.26.19-.55c-.13.16-.16,0-.19-.08a1,1,0,0,1-.31.39,2.48,2.48,0,0,1-.7-1.14c-.36.75-.25-.32-.62.05,0-.39.22,0,.4-.36-.19-.05-.39,0-.5-.32-.13,0-.4.5-.42.24-.11.51-.15.43-.53.72.4.05.35.7.78.44,0,.49-.23.28-.18.66a1,1,0,0,0,.43-.76c.16-.09.24.06.43-.13-.2.61.21.44.42.38,0,.45-.33.26-.53.72.16.15.22,0,.42-.24,0,.17,0,.59.29.75a1.68,1.68,0,0,1,.55-.61c0,.33-.23.61-.13,1,.22-.22.25.14.38.16-.13.19-.09.46-.18.66a2.49,2.49,0,0,1,1.47.84c.5-.46.49.47.93.19.17,1.17,1.43,0,1.35,1.32.22-.29.23,0,.42-.24a1.81,1.81,0,0,0,.19.71c-.27.14-.3-.3-.59.27.26-.46,0-.28-.16-.49-.26.34,0,.31.06.45-.38.34-.51,0-.73-.1,0-.22.32-.21.35-.06.09-.51-.58-.22-.78-.44,0,.4.25,0,.24.42-.4-.3-.73.08-1.17,0-.07-.27.47-.29.28-.62l-.32.28a.89.89,0,0,0-1.29-.24c.46-.39-.05-.44-.27-.64-.11.22-.31.39-.11.48-.58.55-.25-.53-.73-.1a1.53,1.53,0,0,1,.24-.84c-.08-.19-.51.33-.56.5-.28.14-.36-.84-.65-.17-.08,0-.32-.43-.17-.6-.34.36-.9.25-1.21-.31.32-.1.27,0,.66-.46-.09-.28-.2-.48-.29-.75-.18,0-.08.71-.21.44-.25.44.22.08.29.12-.17.62-.87.79-.9,0-.31-.17-1,.89-1.15.14l-.32.28c-.1-.25.14-.36.19-.55-.14-.23-.58.41-.64-.06s.27-.16.4-.36c-.62,0-1.26.17-1.36-.68-.17,0-.3-.18-.61.16a.4.4,0,0,1-.11.48c0-.53-.76-.15-.93-.81.19-.19.38-.37.43-.13,0-.35-.49-.58-.73-.73-.38.36.16.07.08.56-.27.24-.33-.12-.61.16a.61.61,0,0,1-.21.44c0,.31.16.11.06.45a.3.3,0,0,0-.26.1c0-.8-.14-.64-.34-1.08.32-.38.23.4.54,0,0-.39-.18-.2-.18-.6,0,.41-.57.52-.75.42,0-.14.13-.22.22-.33,0-.49-.24-.14-.26-.53-.14.15,0,.42-.1.59-.45.19-.62-.42-1-.33-.17.48.27,0,.32.34,0,.1-.06.18,0,.3-.18-.28-.37,0-.7.13-.17.53.12.45.37,0,.14.33-.4.47-.09.59-.24.22-.61.18-.52.72.14.06.26-.14.21-.44.1-.07.1.14.13.26.25-.14.27-.38.46-.54.28.13.51.41.92.18,0,1.07.67.4.93.8-.28.72-.63,0-.89.68.63-.07.73.71,1.56.24,0,.46,0,.85.41.39,0,.45-.23.88-.5.94,0,.29.18,0,.21.19,0-.35.43-.52.32-.91.17.62.74.08,1,.34-.57.2-1,.48-1.1.48-.09.73.8,0,1.16,0-.14.48.23.49.43.5s0-.27.13-.37.1,0,.18,0c0,.16-.17.28-.11.48.39.18.93,0,1.35.05,0,.1-.06.18,0,.29-.49,0-.75.28-1.21.33.19.56.65.33.91.7.23-.29-.11-.17-.06-.45s.22-.11.34-.17c.13.36-.19.76,0,.85.15-.11.15-.29.3-.4,0-.11-.11,0-.17,0,0-.26.24-1-.06-.45-.11-.62.3-.69.46-.54-.34.18.16.44-.16.77.07.22.42-.37.51-.2,0,.41-.41.51-.56.5-.2.19-.05.54-.26.73.09.31.42,0,.49.32-.15.4-.29.2-.54.61,0,.6.41,0,.43.5.2-.3-.16-.25-.09-.67.14.07.31.06.4.28-.08-.46.11-.63.31-1,.07,0,.1,0,.18,0,.15.27-.25.31-.1.59.42-.51,1.38.4,1,1.08.25-.28.35,0,.48-.43.15.38-.11.58-.05.92-.21-.19-.58.08-.75-.21a.82.82,0,0,0,.9.7c0,.22-.2.34-.1.59.3-.2.62-.42.75.21.19-.46.37-.31.42-.87,0,.45.39-.06.51.43.1-.73.49-.11.64-.57.25.42-.39.46-.25.84.28-.31.43-.27.53-.09a4,4,0,0,1-.27.62c-.58,0-.93-.52-1.47-.21,0,.4.29-.11.24.42,1-.78,1,1.11,2,.53.28,1.18,1.74.68,1.68,1.78a3.83,3.83,0,0,1,.51.43c.35-.65.5,0,.8-.08,0,.16-.17.28-.12.48.19-.47.53-.34.37.05.72-.33,1,.7,1.61.59-.06-.32.27-.37.39-.47,0,.25-.35.34-.37.58.28.64.94.24,1.4.39-.26.68.27.95.52.54,0,.37.15.19.15.49.6-.9,1.07.94,1.93.31.06,1.2,1.43-.14,1.39,1-.11-.16-.3-.08-.46-.1-.07.55.66,0,1,.42.12.15.47.94.68.4.17-.17.09.36.15.49.46-.22.68.25,1.17,0,.27.52,1.15.78,1.76,1.08C46.89,50.29,63.67,55.4,80.48,60.47c.06.27-.13.43-.28.62-1-1.09-2.65-.43-3.68-1.43-.22.34-.27.27-.5.31,0-.2.11,0,.24-.21-.11-.3-.56.31-.57-.25-.23.18-.15.5-.36.69-.21-1.09-1.14-1.11-2-.89-.5-.35-.95-.84-1.68-.54a.33.33,0,0,1,.05-.29c-1.05.21-2-.92-2.84-.41,0-.3.11-.34-.06-.45-.09.1,0,.26,0,.41-.89-1-2.17-.18-3-1.35-.31.56-.67-.21-.94-.31-.45-.17-1,.32-1-.24a.74.74,0,0,1-1.14-.5c-.28.09,0,.41-.3.5-.12.19-.2-.41-.06-.45-.43.38-.53-.15-.9,0a.34.34,0,0,1,.13-.36c-.52.35-.73-.11-1.17,0,.21-.7,0-.08-.15-.49-.09.24-.28.4-.4.35a1.11,1.11,0,0,0,0-.52c-.47.6-.61-.52-1.34,0a.62.62,0,0,1,.12-.47c-.64,0-1.9-.72-2.2-.34-.33,0-.39-.73-.92-.2-.11-.54-.5-1-.79-.56-1.7-1-3.55-1.18-5.32-2.24-.13.08-.12.23-.23.32-.05-.33-.14-.25-.26-.64-1.21.19-2.24-1.43-3.72-1,0-.19.07-.32,0-.52-.48-.09-1,0-1.4-.4-.07.27-.24,1.1-.75,1.15,0-.42.19-.59,0-.85,0-.31.49-.54.43-.13.33-.37-.1-.77-.22-.31-.36-.94-1.33-.19-1.68-1.16-.36.58-.7.21-.78-.45-.14.08-.14.22-.13.36-.43-.53-1.06-.52-1.49-1.07-.1.13-.1.31-.21.43-.67-.63-2-.43-2.26-1.52-.08.07,0,.19-.05.29-.8-.52-1.78-.57-2.44-1.48-.76.16-1.64-.65-2.38-1-.26.13-.11.44-.37.58-.08,0-.16,0-.19-.08.54-.93-.42-.72-.59-1.1-.27.46.18.18.15.49s-.32.19-.42.24c.1-1.32-.8-.85-1.1-1.53-.26.13-.11.44-.37.58-.09,0-.08-.17-.19-.08,0-.17.19-.27.31-.39-.06-.3-.2-.35-.46-.09-.07.18,0,.43-.2.55,0,.22.24,0,.22.31-.29.3-.27-.27-.61.16,0-.6-.22-.42-.34-.57.12-.47.28.23.53-.09-.09-.74.22-.18.4-.35-.23-.85-.45-.09-.73-.74-.15.15,0,.42-.1.59s-.08-.08-.11-.15c-.16.21-.15.32,0,.41-.42.41-.59.11-1,.51-.08-.25-.16-.3,0-.63-.21-.08-.69.58-.78.18,0-.23.28-.3.39-.46-.07-.32-.37.09-.4.35-.24.22-.15-.5-.4-.28,0-.21.24-.32.1-.59-.47.61-1.26.46-1-.23-.23,0-.32-.44-.72,0,0-.85-.69-.14-.57-.88-.64,1-.68-1-1.38-.28-.31-.41-.81-.29-1.09-.79,0-.31.25.08.13-.36-.94.58-1.15-.87-2-.64,0,.21.13.15.14.38s-.15.22-.13.37c-.26-.21-.38-.77-.66-.92-.13.21,0,.21,0,.34,0,.37-.19-.17-.42.24.07-.25.06-.36-.06-.45-.62.94-.63-.68-1.27-.13a.61.61,0,0,1,.26-.73c0-.38-.26-.1-.32-.35-.1.13,0,.34,0,.52-.27.33-.36.17-.51.2a.58.58,0,0,1,.29-.51c-.46.21-.68-.25-1-.34,0-.21.24-.32.1-.59-.52.87-1.31-.22-1.79.08.05-.5-.37-.54.07-.81-.17-.18-.28.06-.4.36-.22,0,.06-1-.36-.68,0,.35.19.08.22.3a.31.31,0,0,0-.14.26c-.46-.23-.75-1-1.49-.43a1.79,1.79,0,0,0,.13-1c-.24.21-.15.57-.15.88-.52.64-.35-.66-.83-.14-.17-.46.36-.62.31-1-.29.26-.31.63-.5.94s-.06-.43-.22-.3c0-.17.19-.27.3-.4-.12-.2-.48,0-.49.32-.12-.76-.31-.2-.31-1-.44.23-.42.08-.67-.28-.13.23,0,.54-.35.69l.08.56c.17.09.25-.44.29.12.14-.08.14-.22.13-.37.28.15,1.28.33.79,1.18,0,.25.29-.2.41-.24a.69.69,0,0,1-.43.76c.06.16.56.31.51-.2.26-.06.32.44.71,0,0,.25-.35.34-.37.58,0,.44.77-.07.36.68,0,.27.27-.21.22-.33a.58.58,0,0,1,.43.5c.1-.13.1-.31.21-.44s.2.16.37.05a1.69,1.69,0,0,1-.21.44,1.18,1.18,0,0,1,1.3.34c0,.31-.16,0-.32.29.05.32.34,0,.33.46.49-.38,0,.92.52.54-.06-.13-.16-.18-.22-.3.3-.43.21.22.51-.2.07.21-.09.32-.21.44.07.07.2,0,.21.19.3-.59,1,.12,1.32.46a.44.44,0,0,1,0,.13,3.27,3.27,0,0,1,1.6.86c0,.17-.19.27-.3.39,0,.55.42,0,.5-.31.32,0-.19.54,0,.85.34-.1,0-.51.18-.66.39.2,1-.19,1.16.61.37-.58.44-.21.77-.3.11.26-.07.39,0,.63.44-.26.71,0,1,.12-.05.38-.33.12-.43.13.07.46.52.35.91.08.11.29-.19.41-.09.7-.24.25-.36-.08-.5.31a2,2,0,0,0,1.78-.07c.17.39-.36.47-.25.84a1.77,1.77,0,0,1,1.39,1c.47-.49.47.08.57.25.16-.14.06-.4.29-.51.15.77,1.37.15,1.12,1,.63.15,1.27,1.06,1.89.72.12.65.62.22.67,1,.39-.43.43.12.85-.37.11.26-.08.39,0,.63,1.11.5,2.3.75,3.2,1.81.09-.18.23-.32.19-.42a4.1,4.1,0,0,0,2.63,1.32c.31-.13.29.63.53.65.08-.1,0-.27.13-.36.22.31.5.69,1,.46l.09.67c1.15-.07,2,.69,2.87,1.36.06-.08.07-.18.15-.25,1.54,1.12,3.38,1.44,5,2.4.46-.46,1.44.55,2.17.85.4.16.84-.06,1,.53l.32-.28c0,.75.71,0,.82.78,1-.31,1.92,1,3.07.83l.06.45c1.46-.13,2.41,1.16,3.9,1,.34.79,1.21.12,1.55.9.52-.4.6.38,1.09.05a4.19,4.19,0,0,0,2.73,1c1.92,1,4.17,1.09,6.1,2.07l.32-.28c.12-.06,0,.19-.05.29,1.17.11,1.93.46,3.12.54l.06.45c.22,0,.32-.64.51-.19,0,.2-.11,0-.24.21.09.17.33.16.43-.12,7.92,2.91,16.25,3.88,24.39,6.08l.24-.21c1,.65,2.39.13,3.27,1,.23,0,.61-.6.45,0a.58.58,0,0,1,.92.2l.32-.28c.36.17.69.44,1.2.21,1.65,1.09,3.9.53,5.38,2.09l.32-.28a.57.57,0,0,0,1,.24c0,.19-.07.32,0,.52.37-.64.39-.15.46.1.67-.4,1.19,0,1.82.18A.63.63,0,0,1,111,74c.12.14.4-.59.53-.08.08-.07,0-.19.05-.29.21-.11.23.29.53-.08.05.16,0,.27-.14.36a1.1,1.1,0,0,1,1-.2c0,.52-.25.18-.49.42a16.22,16.22,0,0,1,2.12-.33l.07.56c-.2.4.22-.17,0-.41.43-.36.64-.16,1.13-.34-.07.42.33.4,0,.63.11.2.35-.48.48.21.36-.29,0-.34-.06-.45.52-.35.69.22,1.23-.19,0,.14-.14.22-.23.32s.27-.12.22.31c.09-.54.24-.14.57-.49.6,1,2.23-.56,2.61.74.45-.77.92-.43,1.29-.48-.22.58-.48,0-.77.29,0,.21.13.15.14.38a11.33,11.33,0,0,1-1.18.64c.36-.94-.73-.27-.92-.2a1.53,1.53,0,0,0,2.25.06c0,.17-.19.27-.31.39.34,0,1,.22,1.27-.6.25-.11,0,.4.07.56.77-.38,1.12-.25,2-.7a2.6,2.6,0,0,0,2.59-.11,1.56,1.56,0,0,0,1.75-.38c.82.72,3.27-1,4,.76.11-1.27,1-.39,1.26-1.45.23.18.89-.79.9,0a2.16,2.16,0,0,1,3.16.89,1.53,1.53,0,0,0,.53-.82c.2,0,.31.16.34.58.3-.37.37-.11.53-.08.24-.48.36-.36.62-.78,0-.28-.25.08-.29-.13a1.75,1.75,0,0,1,2.39,1.18c.33-.64.67-.68.94-.43a5.79,5.79,0,0,1,3.11-1.79l.08.68c.13-.62.59-.29.92-.54a.71.71,0,0,1-.14.36,3.39,3.39,0,0,0,2.36-.53,3.55,3.55,0,0,0,2.88-.72c.47.28,1.78-.47,2.33-.75a10,10,0,0,0,2.59-1.59c-.18-.07-.07-.39-.08-.67.24-.23.28,0,.52-.19-.18-.27-.4,0-.41-.4-.46.55-.56-.5-.88.13-.18.14-.09-.45-.16-.6a2.73,2.73,0,0,1-1-.14,9.11,9.11,0,0,0,1.24-.93,8.2,8.2,0,0,0-4.66.13c-.17.06-.25-.11-.31-.35a1.73,1.73,0,0,0-.12.47c-.15-.05-.35,0-.53.08.08-.91-1,.23-1.44.73,0-.36.28-.58.53-.82-.18.06-.29-.28-.16-.6.38-.31.3.06.66-.44,0-.32-.44.49-.37-.06-.24.1-.19.34-.39.46s-.16,0-.19-.09c.11-.3.43-.52.53-.82.07,0,.09,0,.18,0-.31.52.26.24.48.21,0,.19-.07.32,0,.52.53-.12.94-1,1.4-1.07-.08.35-.56.53-.8.81a.49.49,0,0,0,.66-.44c.35.49,1.12-.11,1.75-.38-.18-.4-.74.21-1.13.34.49-.81,1.17-.86,1.32-.26.55-.34,1.08-.62,1.33-.14,1.61-.8,2.63,0,4.16-.57-.09-.54-.47-.32-.49-1.07-.34.07-.61-.06-.71-.64-.14.08-.13.22-.23.32,0-.69-.41-.2-.52-.55s.17-.42.38-.57c-.12-.47-.54-.13-.76-.34s.25-.38.19-.66c-.28-.42-.74.2-1.24.18.06-.55.7-.74,1-.94-.08,0-.12-.18-.14-.38-.08.07,0,.19-.05.29-.28.15-.25-.28-.52.19,0-.19.07-.32,0-.52a.94.94,0,0,1-1-.25A.84.84,0,0,0,155,60c-.18.2-.32.25-.42.24a7.91,7.91,0,0,1,.22-1.18,2.2,2.2,0,0,0,1.66-1.16,2.37,2.37,0,0,1,1.86.52c.11-.79.47-.38.69-.22-.07.41-.25-.12-.43.12.11.5.66-.19,1-.2.09.32-.27.4,0,.52.28-.6,1-.36,1.25-.07.49-.46.74-.07,1.24-.19.26-.61-.3-.27-.41-.4.47-.24,1.54-.62,1.92.23.68-.6,1.82.67,2.5-.89.28.35.71-.41.9,0-.11.32-.27.14-.38.57a4.06,4.06,0,0,0,2.61-2.22C169.09,55.3,168.86,54.89,169.12,54.46ZM28.65,2.24c-.18-.19-.23.09-.48-.21.17-.26.34-.45.49-.42-.23.36.14.26.18,0A1,1,0,0,1,28.65,2.24ZM31.3,3.7c.17.11.67.08.53.54A.65.65,0,0,1,31.3,3.7ZM32.38,5c0-.19-.38-.37-.19-.71C32.35,4.18,32.56,4.71,32.38,5ZM34.9,7.46c.29-.24.64-.65.69-.23C35.3,7.47,35,7.66,34.9,7.46Zm1.19-.54c.09-.49-.1-.34-.19-.71.36,0,1-.84.9,0C36.47,6.2,36.36,6.59,36.09,6.92ZM37,6c.12.33-.06.53,0,.85-.21.17-.31,0-.45,0C36.74,6.64,36.73,6.28,37,6Zm-.71,2.12c.14-.16.45,0,.49-.42s-.49-.06-.25-.53c.18.07.4,0,.43.5a.41.41,0,0,0-.12.48C36.56,8.34,36.38,8.33,36.26,8.15ZM37,7c.29-.44.43.32.33.46Q37.1,7.43,37,7Zm1.73,2.12c-.17-.17,0-.71-.41-.39-.13.31.2.35-.09.7C38,9.36,38,9.15,38,8.72c.44-.4,1-.41.93.19C38.92,8.75,38.88,9,38.74,9.12Zm2.08-1.31c-.3.06-.46-.26-.69-.4C40.44,7.32,40.72,7.32,40.82,7.81ZM39.44,9.64c-.09-.07-.15-.21-.16-.49q.31-.25.38.17A.9.9,0,0,0,39.44,9.64Zm.19.71c.24-.25.22.22.32.35C39.64,11.12,39.67,10.65,39.62,10.35Zm1.24,1.17c0-.11.35-.59.4-.35C41.17,11.41,41,11.87,40.87,11.53Zm.1-2c.21-.37.41-.09.73-.63.19.33-.34.34-.28.62s.39-.27.38.17C41.39,10,41.2,9.74,41,9.57Zm1.24,1.8c-.11-.42.22-1,.41-1A1.38,1.38,0,0,1,42.2,11.37Zm.19,2.09c0-.14-.12-.06-.13-.27l.41-.35C42.73,13.11,42.54,13.28,42.39,13.46ZM43,11.3c.13-.61-.2-.21-.27-.64.33-.25.38.28.72,0,0,.2.06.33.14.38C43.29,11.15,43.37,10.75,43,11.3Zm.89,1.23c0-.13-.14-.11-.14-.38.26,0,.28-.39.43-.13C44,12.16,44.12,12.42,43.89,12.53Zm.58-.38c-.08-.76-.94-.17-.84-.89C43.89,11.42,44.86,11.18,44.47,12.15Zm1.28.77c.11-.13.11-.3.21-.43,0,.4.25,0,.24.42C46,13,45.83,13.09,45.75,12.91Zm1.91,1.47.48-.42c0,.59.35,0,.33.46A.78.78,0,0,1,47.66,14.38Zm-30.39-11c.1-.13.13-.29.31-.4,0,.23.13.17.15.38C17.49,3.6,17.28,3.77,17.27,3.39Zm1.19.72c.14-.67-.21,0-.32-.35C18.32,3.15,19,3.71,18.46,4.1Zm.94,1.45c-.07-.32.24-.64,0-.74.56-.51.22.63.48.83C19.58,6,19.73,5.1,19.4,5.55Zm1.13,2.16c.16-.48-.13-.25-.36.06,0-.59.72-1,.82-.6C20.87,7.52,20.65,7.71,20.53,7.71ZM17.35,9c-.1.56.11.18.24.42-.13.12,0,.35-.11.48-.22-.15,0-.46-.39-.16l0-.34C17.15,9.26,17.17,9.09,17.35,9Zm-.6-.36c.1.14.49,0,.16.49C16.94,8.82,16.49,9.09,16.75,8.63Zm-.42,2.13c.3.2.72,0,1,.41A.59.59,0,0,1,16.33,10.77Zm1-.4c.32-.38.44-.19.48.2C17.67,10.55,17.39,10.82,17.36,10.36Zm1.75.85,0-.33c.24-.32.28-.05.37.05Zm9.13-3.35c.1,0,.15.51-.08.7C28.11,8.3,28.07,8,28.25,7.86Zm-.87-2.38c-.15.14,0,.42-.2.55S27.2,5.24,27.38,5.49ZM24.56,12c-.24.43-.41.65-.6.27C24.28,12.39,24.27,11.75,24.56,12Zm1-4.3c.24.09-.14.39,0,.74l-.4.35c0-.24-.3-.26-.08-.56.15-.05.18.22.3.24C25.58,8.22,25.29,7.82,25.6,7.67Zm-3.94.94c0-.14-.06-.3,0-.41.05.17.26-.39.29.12Zm1,0c-.1-.35-.76.06-.55-.65l0,.22a2.33,2.33,0,0,0,.34-.8c0,.22.24-.05.22.31C22.09,8.17,22.94,8.15,22.65,8.61Zm.21.2c.09-.1.06-.25,0-.41.32-.12.36.56.69.4C23.24,9.11,23.14,9,22.86,8.81Zm1-.85c.07.18.21.13.24.42C23.82,8.65,23.54,8.3,23.83,8Zm-3.49,4.19c.16,0,.51-.49.53-.09C20.63,12.28,20.35,12.59,20.34,12.15Zm.77.33,0-.34.24-.21c.15-.15,0-.42.2-.55,0,.45.27-.14.22.31C21.47,11.93,21.4,12.25,21.11,12.48Zm1.46-.53a3.21,3.21,0,0,1-.27-.64c.23,0,.53-.15.79-.19a.41.41,0,0,0-.11.48Zm1.12-2.36c-.07-.26-.29-.13-.34-.46C23.59,8.85,23.88,9.2,23.69,9.58Zm.6-2.16a.63.63,0,0,1-.11.48c-.29-.12-.32-.32-.08-.56-.26,0-1.06,0-.94-.93.15.35.2,0,.39.17A1.66,1.66,0,0,1,23.92,6a.38.38,0,0,1,.39.17A3,3,0,0,1,24,7c.46-.56.61-.26.87-.26,0,.73.2.71.43,1.13C24.95,8.25,24.56,7.66,24.3,7.42Zm.47,1.47c-.21.22-.29.08-.3-.24l.32-.28C24.84,8.57,24.73,8.7,24.77,8.89ZM23.5,12.77c.15-.69-.31-.17-.43-.5C23.48,11.49,23.89,12.12,23.5,12.77Zm.83-3.11c.08-.24.36-.49.48-.42.15.28-.25.31-.1.59C24.51,10,24.38,9.93,24.33,9.65ZM24,13.83c-.2.19-.39.36-.43.13s.19-.2.13-.36c-.24.11-.19.34-.39.47-.1-.43.34-.63.5-.94.15.16-.15.6.06.45s.12-.44.28-.62l.06.45C24.09,13.52,23.94,13.62,24,13.83Zm1.18-3.92c.11-.1,0-.26.13-.37.13.46.57.07.7.52C25.79,9.87,25.29,10.43,25.18,9.91Zm-1.46,5.79c.31-.19.48,0,.59.36C24,16.36,23.77,16.25,23.72,15.71ZM26,12.47c0-.4-.25,0-.24-.42l.32-.28A1.79,1.79,0,0,1,26,12.47Zm1.66-4.34c-.39.46-.35-.25-.64-.07,0-.5,0-.65-.29-.75-.13.12,0,.35-.11.48-.25-.68.13-1,.59-1.64.05.2-.08.32-.12.48.13-.12.09.27.21.19a1.08,1.08,0,0,1,0-.52c.28-.22.29.16.4-.35.11.05.26,0,.24.42-.13.17-.23,0-.24.21a.94.94,0,0,1,.42.39c-.31.25,0,.12,0,.41-.25.32-.16-.27-.37-.05,0,.57.21.44.29.76s-.06.87-.28.62C28,8.39,27.59,8.5,27.65,8.13Zm-1.26,4.62c.33-.37.42,0,.56.14C26.75,12.87,26.52,13,26.39,12.75ZM26,17.22c.31-.35.29.22.61-.16a1.1,1.1,0,0,1,0,.52C26.35,17.59,26.06,17.73,26,17.22Zm1.3-2.39c.27-.29.55.2.43.5C27.6,15.13,27.36,15.24,27.31,14.83Zm1-2c0-.14-.12-.06-.13-.27.1-.42.64-.65.77-.3Zm.52-1.46c-.56.37-.84,1.47-1.13,1,.39-.21,1.11-1.17.77-1.67.11-.33.24-.16.42-.24-.11.58.3.31.45.61-.41.45.21.09.09.67C29.13,11.84,29.07,11.35,28.82,11.37Zm.7,7.78c.24-.3.26,0,.5-.31C30.13,19.38,29.58,19.46,29.52,19.15Zm3.64-7.81c.08.56.56,0,.62.59C33.62,12.33,32.81,11.87,33.16,11.35Zm1,1.49c0-.3-.18-.12-.16-.49a1.8,1.8,0,0,0,.57-.49c0,.53.23.39.28.76C34.57,12.87,34.59,12.27,34.18,12.84Zm-1.56,7.24c.21-.22.29-.08.3.24C32.72,20.53,32.64,20.39,32.62,20.07Zm3.32-6.89c.27-.19.4,0,.56.14C36.22,13.53,36,13.62,35.94,13.18Zm-2.4,8.34c.17-.22-.12-.09,0-.41.35-.29.76,0,.62.59C34.17,21.1,33.75,21.61,33.54,21.53Zm4.65-7c-.06-.24-.31,0-.32-.35C38.08,13.88,38.35,14.23,38.19,14.48Zm-.3-.87c.15.25-.14.84-.28.62C37.83,14.08,37.62,13.74,37.89,13.61Zm-1.51,3.56c.21-.22.29-.07.3.24C36.48,17.63,36.4,17.49,36.38,17.17Zm.56-1.24c-.1.11-.14.32-.18,0a1.05,1.05,0,0,1,.39-.46c.12.47.56.08.77.33C37.52,16.43,37.32,16,36.94,15.94Zm1.43,1.26c0-.39,0-.56-.3-.24a1.1,1.1,0,0,1,0-.52c.25-.28.34-.11.51-.2,0,.44.15.4.25.53C38.58,16.87,38.67,16.92,38.37,17.2Zm1.54-1.34c.09.07.15.21.15.49C39.78,16.71,39.67,16.08,39.91,15.86Zm3.46,1.61c-.39.32-.14-.16-.25-.53C43.41,16.58,43.47,17.19,43.37,17.47ZM42,16.55c0-.12-.18-.13,0-.34.37-.08.37.33.46.73-.11.13-.13.29-.31.39-.12-.3.08-.46.09-.7-.39.28-.5.26-.71.74-.18-.07,0-.36,0-.63C41.72,16.47,41.81,16.64,42,16.55Zm-.65.56c-.26.31-.3,0-.45,0C41,16.71,41.32,16.73,41.34,17.12Zm-1.07-.57c.25-.22.43-.26.53-.09C40.65,16.43,40.29,16.95,40.27,16.54Zm-2.19,7.28c.39-.31.6-.12.82,0A.56.56,0,0,1,38.08,23.82Zm3-4.9a1.1,1.1,0,0,1,0-.52c-.35.46-.67,0-.51-.43.05.47.51-.2.51.43.29-.27.44-.21.48.21C41.28,19,41.41,18.42,41.13,18.92Zm.38-1.21c.35-.84.8-.2,1,.23A.81.81,0,0,1,41.51,17.72Zm1.08.68c0-.14-.06-.31,0-.41,0,.32.44-.5.37.06Zm-.07.81c.52-.43.55.56.23,1C42.73,19.84,42.83,19.67,42.52,19.21Zm-1.87,7a.61.61,0,0,1,.1-.59c.16.22.56-.22.59.36C41,26.26,40.91,26,40.65,26.2ZM49.51,32c.13.34-.34.79-.39.46C49.32,32.32,49.27,32.09,49.51,32Zm-29-11.34c0-.28.43-.49.42-.24S20.5,21.12,20.52,20.65ZM6.46,22.55c.06-.64-.4.19-.34-.45.33-.43.68-.08.57.24C6.64,22.18,6.59,22.46,6.46,22.55Zm5.8,4.77c.37-.39.37.12.38.16C12.5,27.46,12.26,27.71,12.25,27.32Zm6.74-.7c.23-.21.67-.25.48.21C19.32,26.74,19.05,27,19,26.63ZM17.71,33c.29-.3.37,0,.48.2C18,33.58,17.74,33.45,17.71,33Zm7.75-9.93c-.13-.12-.57-.15-.43-.5C25.18,22.64,25.63,22.64,25.45,23.09Zm-4.18-2.22.06.45c-.18.19-.31.24-.35.06C21.26,21.28,21,21,21.27,20.87ZM20.4,23c.07-.46.42-.32.36-.69.15-.12.28-.16.35-.06C20.78,22.47,20.62,23.41,20.4,23ZM22,24.12c.08-.82-.2,0-.09-.67-.29,0-.93.23-.85-.26,0,.08.31.11.26-.1-.2,0-.34-.08-.41-.39.24-.27.29,0,.32.35.25-.21.47,0,.66-.45.17.52.86-.19.73.74.22-.54.55-.38.62,0C22.72,23.21,22.57,23.9,22,24.12Zm-2.9,9.18c.1.32.43,0,.44.61C19.29,34.08,18.94,33.75,19.09,33.3ZM24,25.4c-.12-.08-.13-.2-.06-.45-.49.3-.6-.5-1.1-.16-.07-.29.3-.8-.14-.38-.07-.34.18-1.08.36-.69a.34.34,0,0,0-.13.36c.4-1,.85-.46,1.27-.61l.08.56c.21,0,.59-.42.64.07-.29.54-.77.46-1,.22,0,.15-.08.15-.16.14.15.1.17.55.35.57.43-.42.81-.71.88-.14-.38-.18-.43.28-.66.45C24.48,24.86,24.19,25.08,24,25.4Zm-2.8,10c.31-.3.35.16.49.32C21.38,35.89,21.26,35.65,21.17,35.36Zm4.38-10.23q0-.66-.38-.17l0-.33c.36-.22.53.07.75.22Zm1,.53c-.26.21-.39.06-.41-.39C26.35,25.12,26.4,25.49,26.52,25.66ZM22.68,35.9c.14-.37.45-.35.53-.09C23,36.27,22.8,36,22.68,35.9Zm4.82-9.72c-.06-.43-.33-.32-.57-.25a1.13,1.13,0,0,1-.42.87,1.43,1.43,0,0,1-.27-.64c.25-.24.31.06.59-.27.05-.4-.38-.36-.28-.75.05.11.13.14.27,0l.08.56c.48-.3.42.12.9,0C27.62,25.82,27.72,26.07,27.49,26.18Zm.65.18c-.13-.3-.32.3-.46-.09C27.94,25.94,28.37,25.87,28.15,26.36Zm-2.58,11c.11.15.38-.14.4.28C25.63,38.21,25.41,37.18,25.57,37.36ZM29.2,26.81c.25,0,.41.29.6.47C29.46,27.59,28.85,27.46,29.2,26.81Zm.62.59a1,1,0,0,1,.53-.09C30.14,27.65,29.94,27.68,29.82,27.4Zm1.33-2.16c.24-.25.67-.25.48.21C31.58,25.06,31.19,25.63,31.15,25.23Zm-.51,2.94c0-.22-.24.05-.22-.31l.24-.21C30.71,27.93,30.86,27.88,30.64,28.18Zm.17-.77c.12-.09.29-.3.34-.17a.17.17,0,0,0-.07.18c.14-.13.22-.09.27,0C31.09,27.65,30.9,27.67,30.81,27.41ZM27.39,38.89c.3-.56.6,0,.76.33C27.8,39.37,27.7,38.84,27.39,38.89Zm6.36-12.42c.45-.16.75.07,1,.53A2.62,2.62,0,0,1,33.75,26.47ZM34,30.38c.22-.18.14-.33.32-.28C34.44,30.47,34,30.86,34,30.38Zm2.71-2c-.12-.14,0-.63-.27-.64.29-.38.27.08.52-.2C37,27.9,37,28.21,36.7,28.39Zm3.72.88c.27-.14.46-.06.57.25Q40.59,29.73,40.42,29.27Zm-.06,4.3,0-.22s-.1.07-.1,0c.24-.39.57-.56.69-.23C40.65,33.42,40.5,33.16,40.36,33.57ZM56.8,24.3c-.17,0-.58.07-.24-.42C56.49,24.35,57.06,23.81,56.8,24.3Zm2.27-6.82a1.07,1.07,0,0,1-.39.46c0-.49-.24-.15-.25-.53l.16-.14C58.61,17.69,58.86,17.29,59.07,17.48Zm-.68-1.78c.22.22.62-.07.7.52-.28,0-.42.61-.65.56-.19-.31.31-.84.07-.81-.15.18-.1.45-.38.57A1.53,1.53,0,0,1,58.39,15.7Zm0,1.48c-.29.3-.44.19-.55,0C58,17.13,58.32,16.9,58.4,17.19ZM56.27,23c-.21.13-.39.17-.53.08.14-.1-.37-.23,0-.63C55.9,22.72,56.1,22.82,56.27,23Zm.52-2.94c-.24.05-.41-.09-.64-.07C56.26,19.76,56.94,19.62,56.79,20.07Zm.8-3.56c-.13.11,0,.35-.12.47-.06-.24-.31,0-.32-.35C57.35,16.45,57.55,16.28,57.59,16.52Zm-1.07-.58c.15.35.47.24.62.59-.37.09-.57-.27-.86-.38Zm-.27,0a.91.91,0,0,0-.23.32c0-.23-.44-.29-.26-.64C55.84,15.95,56.22,15.46,56.25,15.93Zm-.59,1c-.08.24-.46.62-.5.31C55.31,17.19,55.62,16.7,55.66,16.94Zm-1.19-2.21c.12.49.61-.31.77-.29,0,.56-.24.37-.52.83,0-.41-.21,0-.35.06A.61.61,0,0,1,54.47,14.72ZM51.55,20c.11.16.35,0,.4.28C51.8,20.3,51.33,20.48,51.55,20ZM52.07,17c-.21.22-.35.26-.37-.05C51.91,16.78,52.05,16.74,52.07,17Zm-1.78,2.29c.09.21.31.07.4.28C50.48,19.82,50.08,19.8,50.29,19.34Zm-.41-.39c-.06-.14-.27.13-.22-.31C49.9,18.19,50.05,18.74,49.88,18.94Zm-1.35-4.07c.21-.08.56-.52.61-.16C48.88,14.94,48.58,15.26,48.53,14.87Zm.54,0a.79.79,0,0,1,.68.41C49.47,15.39,49,15.44,49.08,14.9Zm-.27,3.47-.32.28,0-.34C48.69,18,48.72,18.27,48.81,18.37Zm-.54.72a3.41,3.41,0,0,0-.17.77c-.21.22-.24-.05-.3-.24C48,19.51,48.2,18.89,48.28,19.09Zm-.62.79c0,.45.58.12.43.5C47.9,20.35,47.26,20.55,47.66,19.87Zm.52-.2c.08-.21.1-.45.38-.57C48.7,19.46,48.25,20,48.17,19.67Zm1.6-4.26c.25-.27.35-.15.45,0C50.13,15.67,49.81,15.77,49.78,15.41ZM49.11,20c-.08-.32.13-.51.36-.69,0,.6.42.27.54.66-.26.31-.2.69-.54.71-.14-.34.12-.51.17-.77C49.46,19.95,49.36,19.76,49.11,20Zm-.1.59c.41-.35.1.4.35.57C49.14,21.23,48.9,20.93,49,20.57Zm.13,1c0,.27.28-.2.32-.28l.06.45C49.31,22,48.92,22,49.14,21.58Zm.58,2.36,0-.34c.21-.21.35-.26.37.06Zm2.55-1.84c.11,0,.18,0,.21.2-.52.33-.29-.9-.42-1.13l-.4.35a.85.85,0,0,0-1-.75,1.74,1.74,0,0,1-.62.78c.23-.72-.27.17-.32-.35a4.7,4.7,0,0,0,1.21-1.05c0,.94.89.29,1.31.36-.11.16-.44.23-.39.46.27-.18.41,0,.69-.22,0-.12-.18-.13,0-.34.07.39.71,0,.52.54-.15-.35-.76.19-.71.74.26-.65.76,0,.67.29C52.81,21.9,52.39,21.4,52.28,22.11Zm.52-.83c.07-.2.37-.36.5-.31-.19.25.19.17.15.49C53.13,21.7,53,21.44,52.8,21.28Zm2.71-5.47c-.1-.18-.57-.16-.36-.69.3-.18.69-.58.88-.14-.24.3-.26,0-.5.31C55.58,15.57,55.74,15.51,55.51,15.82Zm-2.17,6.86c.15-.14,0-.42.2-.54.11.09.27.07.38.17C53.66,22.55,53.53,22.9,53.34,22.68Zm.3-1.13c.35-.18.34.28.63,0,0,.18.08.39,0,.52C54.09,21.76,53.67,22.19,53.65,21.55Zm.6,1.85c0,.2.06.33.14.38l-.16.14c0,.07,0,.14-.07.18-.11-.53-.21.36-.39.46-.06-.18-.26,0-.24-.42C53.87,23.93,54,23.63,54.25,23.39ZM52.17,33c0,.27.2.22,0,.52-.21-.09,0-.44-.1-.78-.37.37-.33-.42-.72,0,.1.14.26.09.25.53-.19.22-.2-.05-.42.24-.12-.21.3-.7,0-.63s0,.49-.28.62c-.12,0-.18-.11-.22-.31s.4-.46.44-.76c-.13,0-.16-.26-.23-.42a3,3,0,0,1,1.94,1.06C52.37,33.7,52.54,32.63,52.17,33Zm3.62-8.87c-.29-.25-.22-.52-.54,0-.19-.07-.12-.4,0-.63-.49.29-1-.16-.93-.94a.79.79,0,0,0,1.21.32,1.28,1.28,0,0,0-.17.77c.16-.39.19-.41.41-.35.05.2-.08.32-.12.47.28-.45.16-.11.35-.06,0-.44.32-.39.35-.06S56.08,23.82,55.79,24.18Zm-3,10c-.15-.36.42-.87.47-.53C53,34,52.92,33.56,52.76,34.15Zm.38.17,0-.34c.28-.22.62-.58.69-.22C53.65,34.16,53.45,33.93,53.14,34.32Zm4-9.22c.22-.8-.13-.28-.28-.76.31-.28.45-.22.61-.9,0,1.15.82.55,1.14,1.14a2.65,2.65,0,0,1-1.28-.14C57.35,24.69,57.39,24.95,57.17,25.1Zm2.21.34a1,1,0,0,0-.31.39l0-.22a.62.62,0,0,0,0-.85C59.45,24.45,59.34,24.92,59.38,25.44Zm-.84.47c.11.51.49.27.63.7-.43.3-.87-.16-.87-.49C58.34,26.28,58.49,26,58.54,25.91Zm-.72,1.37c.11.31.73,0,.53.66C58.17,27.83,57.67,27.81,57.82,27.28Zm-2,8c.28-.31.48-.57.25-.84.23-.12.36,0,.41.39C56.18,35.09,55.92,35.78,55.79,35.27Zm4-10c.11.5.67-.21.76.34C60.36,25.53,59.42,26.13,59.81,25.31Zm3.89-5.47c0,.28.36-.18.32.35C63.82,20.42,63.51,20.19,63.7,19.84ZM61,27.75c.1-.27.42-.37.45,0C61.28,27.86,61.12,27.92,61,27.75Zm0-1.89c.13.6.89.29.84.9C61.67,26.42,60.69,26.8,61.06,25.86Zm2.38-5.29c.2,0,.46-.26.54,0C63.64,21,63.59,20.66,63.44,20.56Zm-.31,7.37c.1.61.56-.55.72,0-.37.2-.21.17-.47.53C63.22,28.43,62.8,28.38,63.12,27.93Zm.8-7c.52-.28.79-1.94,1.09-1.32a1.88,1.88,0,0,0-.44.76c.18-.14.21.13.24.42C64.48,20.89,64,21.33,63.93,20.89Zm.34,1.21c-.21.21-.35.26-.37-.06.21-.09.27-.78.47-.53C64.22,21.65,64.37,21.93,64.26,22.09ZM58.84,36.61c.42-.26.42-.3.62-.78,0,.33.08.38.29.13C59.73,36.6,59,37,58.84,36.61Zm6-15.42c.21-.21.35-.26.37.06C65,21.47,64.88,21.51,64.87,21.2Zm-2.59,8.58c.11-.29.38-.27.45,0C62.48,30,62.38,29.91,62.28,29.78Zm.22-1.06c.2-.12.15-.36.39-.46,0,.89.49.37.65.81C63.18,29.56,62.81,28.87,62.51,28.72Zm1.65.2c.13-.33.55-.61.53-.08C64.4,29.14,64.25,29.1,64.15,28.91Zm1.43,2c.06.19.33-.18.3.24C65.65,31.52,65.38,31.23,65.58,30.92Zm.81-.7c-.14-.27.09-.38.11-.59l-.41.35c0-.63.29-.8,0-1.08.26,0,.73.06.62.59.28-.23.43.41.69-.23l.06.45c-.25.29-.28,0-.41.35C66.81,29.72,66.67,29.65,66.39,30.22Zm.49.32c.11-.13.11-.3.21-.43.33.07,0,.75.46.1C67.63,30.86,66.9,31,66.88,30.54Zm.93.2c0-.17-.22.09-.21-.2.39-.53.36-.12.72-.74C68.43,30.24,68.07,30.47,67.81,30.74Zm.47,1.58c.26-.26.41-.2.46.1C68.54,32.53,68.31,32.68,68.28,32.32Zm7.82-8.6a.71.71,0,0,1-.82,0C75.62,23.51,76,23.31,76.1,23.72Zm-1.68.95q-.36.23-.48-.21C74.25,24.11,74.33,24.4,74.42,24.67Zm-3.16,7.7c.12.33.32-.31.6-.26C71.94,32.76,71,33.12,71.26,32.36Zm5.11-7.26c-.16-.43-1.78.82-1.05-.47-.19-.09-.78.13-.6-.48a.43.43,0,0,1,.76.34c.38-.66.24.08.38.17a1.76,1.76,0,0,1,.59-1c.09.5-.57.67-.48,1.16.1-.13.13-.29.31-.39S76.54,24.9,76.36,25.11Zm.7-.85c-.13-.39-.27-.34-.53.08,0-.58.32-.51.55-.6C77.1,23.91,77.17,24.12,77.07,24.25ZM78,23a.61.61,0,0,1-.11.59c0-.12,0-.33-.12-.27s-.16.14-.18,0Zm-.35,2.17c0,.4.3-.11.23.42C77.66,25.7,77.35,25.45,77.63,25.14Zm2,1.4c-.23-.19-.52-.2-.7-.52.26-.12.41-.34.5-.31-.1.17.14.29.14.38.11-.13.11-.3.22-.43C80,25.69,79.95,26.23,79.61,26.54Zm.84.27s.09-.1.07-.18c.2-.09.37-.09.4.28C80.66,27.16,80.54,27,80.46,26.81Zm2,0c0,.23.12.17.14.38-.19.1-.44.13-.57.49a7.32,7.32,0,0,1,.28-1.36c.14.27.73.12.62.59C82.81,26.75,82.58,26.91,82.44,26.84Zm1.26,0a.33.33,0,0,0-.05.29c.1-.07.2-.13.19.09-.29,0-.6,0-.76-.34C83.39,26.94,83.5,26.79,83.7,26.88Zm-.87,1.62a.36.36,0,0,0-.12-.27c.23-.29.05-.75.42-1A1.72,1.72,0,0,1,82.83,28.5Zm.3-.5c.24-.18.22-.47.46-.64.13.24.38.17.51.44-.11.13-.06.33-.12.48C83.56,28.53,83.32,28.34,83.13,28Zm1.51-.18c0-.12,0-.33-.12-.27s-.11.23-.23.32l0-.34c.4-.29.31-.19.55-.6,0,.2-.06.33,0,.52.08-.07.08-.17.15-.25C85,27.51,84.85,27.67,84.64,27.82Zm.36.69c.24-.16.31.16.48.21C85.14,29.1,84.81,29,85,28.5Zm1.33-.15c0,.1,0,.22-.05.29a1,1,0,0,1,0-.41c.17,0,.39-.16.46.1C86.49,28.72,86.48,28.33,86.33,28.35Zm.44.62c.22-.19.6,0,.41.39C87.09,29.1,86.8,29.38,86.76,29Zm.32,1.09c0-.14-.16-.08-.2-.2.11-.09,0-.26.13-.36,0,.07.08.07.18,0A.61.61,0,0,1,87.08,30.06Zm.16-.14c.4-.29.51.22.83.16C87.66,30.41,87.42,30.25,87.25,29.93Zm.55-.6c.36-.31.67-.51.79-.18C88.26,29.74,88,29.52,87.8,29.32Zm.87,1.87a.61.61,0,0,0,.68-.33c0,.17-.09.31,0,.52C89,31.62,88.71,31.71,88.67,31.19ZM20.95,41.8c.35-.41.47-.19.56.13C21.33,42.33,21,42.18,20.95,41.8Zm4.7,3c.16-.08.47-.58.43-.13S25.6,45.2,25.65,44.78Zm3.21-2.19c.25-.27.35-.15.45,0C29.1,42.75,28.89,42.92,28.86,42.6Zm2,1.28c.12-.35.38-.4.37.05C31,44,30.84,44.19,30.83,43.87Zm1.58,1.74A1.92,1.92,0,0,0,32,44.37c.32-.24.74-.51,1-.28,0,.23-.4.32-.28.62.36-.16.33-.49.53-.72,0,.23.12.17.14.38C33,45,32.77,45.06,32.4,45.61Zm1.69-.11c-.36.13-.58-.11-.78-.45.27-.32.21-.06.55-.6,0,.15,0,.44.14.38s0-.26.13-.36c.12.24.47-.17.43.5C34.27,45.32,34.06,44.83,34.09,45.51Zm1.58.37c.25-.27.37-.22.38.16C35.81,46.32,35.79,46,35.67,45.88Zm2.06,1.32c.28-.15.72-.16.59.36C38.06,47.59,37.81,47.63,37.73,47.2Zm4.69,1.53c.07.19.27,0,.14.38S42.19,49,42.42,48.73Zm15.81,7a.36.36,0,0,0-.12-.27c.08-.24.36-.48.49-.42C58.67,55.32,58.46,55.51,58.22,55.69Zm3,.38c.18-.09.66-.21.48.21C61.61,56.06,61.24,56.55,61.24,56.07ZM75,60.36c0-.28-.34,0-.42.24a1.09,1.09,0,0,1,0-.52C74.77,59.94,75.2,59.91,75,60.36Zm.67,1a2.46,2.46,0,0,1,.23-1.06c-.31.38-.65.42-.46-.1.32-.07.95-.18.79.56C76,60.37,75.9,61.19,75.66,61.39Zm1.27-.6c-.1-.13-.32.07-.38-.17C76.73,60,77.27,60.42,76.93,60.8Zm3.68-.06c.12.33.88-.29.68.41C81.08,61,80.42,61.46,80.61,60.74Zm11.88-30c0,.19.13-.18.18,0-.21.21.14.1.06.45S92.31,31,92.48,30.77ZM82.74,62c0-.42-.17-.24-.23-.42.26-.2.49-.34.54,0C82.95,61.74,82.92,61.91,82.74,62Zm.9.72-.06-.45C83.89,61.92,84,62.54,83.64,62.72Zm2.55.29c.19-.2.15-.47,0-.34a1.26,1.26,0,0,1-.2.55c0-.22-.24,0-.22-.31.34-.17.2-.55.54-.71.06.18.21.13.23.42C86.39,62.69,86.32,63.28,86.19,63Zm.65.18c0-.3.25-.94.38-.57C87.07,62.8,87,63,86.84,63.19Zm.27,0c.21-.21.35-.26.37.06C87.27,63.48,87.13,63.53,87.12,63.21Zm1.25.66c-.05-.3-.3-.08-.39-.28.49-.47,0-.41.27-.73.09.44.5,0,.67.3A1.11,1.11,0,0,0,88.37,63.87ZM98.74,33.23c.1.14.35-.14.32.35C98.85,33.82,98.54,33.58,98.74,33.23Zm11.41,4.87c0-.35-.32-.4-.1-.78C110,37.79,110.5,37.6,110.15,38.1Zm2.1.93,0-.34c.34-.09.27,0,.57-.49.08.2.24.15.25.53A.84.84,0,0,1,112.24,39Zm1.93.33c0-.53-.6.12-.26-.65C114,39,114.4,38.9,114.17,39.37Zm4.9,1.76c-.1-.25.13-.36.11-.59.24-.2.33,0,.46.1C119.53,41,119.36,40.78,119.07,41.13Zm1,.13c-.17-.28-.33.36-.45,0S120.36,40.68,120.08,41.26Zm5.28,1.19c.31-.28.46-.15.56.14C125.62,42.85,125.59,42.36,125.36,42.45Zm-2.93,32.28c0-.12,0-.33-.12-.27s-.28.85-.46.64c0-.23.24-.39.19-.66.29,0,.54-.75.81-.69A1.38,1.38,0,0,1,122.42,74.73Zm.48.21c0-.46,0-.47-.16-.6.13-.24.45-.86.57-.49C122.62,74.31,123.71,74.23,122.9,74.94Zm.91.09c-.06-.24-.39.26-.38-.17.3-.41.31-.33.62-.78A3.15,3.15,0,0,1,123.8,75Zm.31-.39c.09-.1.07-.25,0-.4.17-.17.27-.13.29.13S124.21,74.7,124.12,74.64Zm10.41-30.1c.33-.42.74-.32.56.15C135,44.32,134.62,44.83,134.52,44.54Zm.71-.11c.37-.26.62-.17.68.41C135.68,44.71,135.36,44.83,135.23,44.43Zm.86.38,0-.34c.25-.32.28,0,.37.06Zm9,1.9c.37-.4.54-.27.78-.29C145.65,46.77,145.16,47,145,46.72Zm4.69-.65c.31.15.62-.43.5-1,.14-.13.26-.19.34-.16.09.53-.47.78-.28,1.36C150.09,46.21,149.75,46.55,149.73,46.06Zm-3.54,20.25c-.31.14-.64,0-1.14.23,0-.14-.05-.31,0-.41a4.07,4.07,0,0,1,1.53-.69A1,1,0,0,1,146.19,66.31Zm1.64.21c-.35,0-.79.14-1.09-.06.42-.24.77-.29,1.19-.52A1,1,0,0,1,147.83,66.52Zm5.32.91c.05.3-.2.48-.27.73-.06-.19-.26,0-.23-.42C152.85,67.57,152.92,67.72,153.16,67.43Zm-4.94-.74-.06-.45c.36-.08,1.13-1.15,1.55-.58C149.12,66,148.69,66,148.21,66.69Zm7-17c0-.31-.33.18-.3-.24C155.15,49.09,155.42,49.37,155.22,49.69Zm.52.55c.25.07.69-.36.82,0C156.2,50.47,155.86,50.64,155.73,50.24ZM158,49c0,.35.07.37.19.09.11.39-.46.59-.42.24A.93.93,0,0,0,158,49Zm-.58,1.86c-.19.12-.39.25-.38-.17C157.26,50.56,157.39,50.62,157.43,50.9Zm-3.49,8.93c-.12,0-.09-.39,0-.63.09.17.42-.44.56-.6.14.27-.09.38-.11.59.07,0,.11,0,.11.16C154.23,59.33,154.06,59.17,153.94,59.82Zm.65.19c-.09.27-.41.47-.43.12C154.42,59.93,154.52,59.54,154.59,60Zm4-8.89c-.09-.81-.88.28-1.1-.18,0-.47.26-.13.3-.5-.23.15-.52.07-.4-.28.38-.09.45-.18.91-.65,0,.44.16.27.37.06a3.73,3.73,0,0,1-.05,1c.38-.25.34-.7.41-1.09C159.38,49.87,159,50.74,158.63,51.12Zm6.14,5.3c.09-.25.54-.7.58-.37C165.22,56.38,164.9,56.5,164.76,56.42Z"/><path id="_Контур_112" data-name="&lt;Контур&gt;" class="cls-1" d="M50.88,12.83c-.12.15.1.14-.05.3.85-.65,1.13.26,1.81.05a1.8,1.8,0,0,0-1.27-.77c-.09.1,0,.26,0,.41C51.19,12.8,51,13,50.88,12.83Z"/><path id="_Контур_113" data-name="&lt;Контур&gt;" class="cls-1" d="M6.8,32c.08.3.38-.06.54,0C7.2,32,7.1,31.73,6.8,32Z"/><path id="_Контур_114" data-name="&lt;Контур&gt;" class="cls-1" d="M16.16,33.51c-.17.1-.2.26-.31.39s.21-.08.33-.17a1,1,0,0,0,0,.41C16.39,33.84,16.22,33.75,16.16,33.51Z"/><path id="_Контур_115" data-name="&lt;Контур&gt;" class="cls-1" d="M13.69,17c-.24,0,.28.19.09.67a2.1,2.1,0,0,0,.27-.62C13.95,16.69,13.81,17.37,13.69,17Z"/><path id="_Контур_116" data-name="&lt;Контур&gt;" class="cls-1" d="M14.92,23.83a.5.5,0,0,0-.19.55c.09-.24.23-.28.34-.17C15.25,24,14.93,24,14.92,23.83Z"/><path id="_Контур_117" data-name="&lt;Контур&gt;" class="cls-1" d="M15.12,21.39c0-.16.17-.28.11-.48a1.07,1.07,0,0,0-.39.47c0,.2.28-.16.29.12C15.23,21.4,15.17,21.35,15.12,21.39Z"/><path id="_Контур_118" data-name="&lt;Контур&gt;" class="cls-1" d="M17.47,37.24c0,.49.2-.18.32-.28s-.08.29.06.45c.45-.43.66-.19.83.15.11-.16.18-.34.29-.51a.74.74,0,0,1-1-.34C17.68,37.07,17.58,36.93,17.47,37.24Z"/><path id="_Контур_119" data-name="&lt;Контур&gt;" class="cls-1" d="M15.42,19c.63.12,1,.42,1.73.1,0-.21-.18-.17,0-.34-.15-.26-.17.09-.43.13.2-.45-.69-.39-.37-.68C16.3,17.82,15.67,18.58,15.42,19Z"/><path id="_Контур_120" data-name="&lt;Контур&gt;" class="cls-1" d="M18.91,41.34c0,.42.59.6,1,.52C19.55,41.71,19.24,41.49,18.91,41.34Z"/><path id="_Контур_121" data-name="&lt;Контур&gt;" class="cls-1" d="M14.28,1c-.11.34-.22.09-.49.43.25.31.35,0,.54-.09S14.28,1.19,14.28,1Z"/><path id="_Контур_122" data-name="&lt;Контур&gt;" class="cls-1" d="M16.67,19.53c.21,0,.31.28.63-.05C17.27,19,16.87,19.51,16.67,19.53Z"/><path id="_Контур_123" data-name="&lt;Контур&gt;" class="cls-1" d="M20,36.23c-.19.1-.09.31-.21.44.05.21.24,0,.37.05C20.37,36.49,19.92,36.76,20,36.23Z"/><path id="_Контур_124" data-name="&lt;Контур&gt;" class="cls-1" d="M17.56,7.92c.08-.07,0-.19,0-.29.19-.22.2,0,.42-.24-.15-.21-.28-.47-.64-.06C17.5,7.61,17.65,7.39,17.56,7.92Z"/><path id="_Контур_125" data-name="&lt;Контур&gt;" class="cls-1" d="M21.08,15.52c.34-.15.14.29.41.39a6.74,6.74,0,0,1,.45-.65C21.65,15.41,21.26,15.2,21.08,15.52Z"/><path id="_Контур_126" data-name="&lt;Контур&gt;" class="cls-1" d="M24.92,39.93c0-.37.31,0,.39-.46s-.32.19-.3-.24c-.09.4-.42.47-.39,1.09.19-.13.36-.19.45,0C25.24,40.11,24.93,40.09,24.92,39.93Z"/><path id="_Контур_127" data-name="&lt;Контур&gt;" class="cls-1" d="M25.65,40.66c.12.39.59-.2.6.47.28-.28,0-.3.12-.48C26.12,40.68,25.93,40.53,25.65,40.66Z"/><path id="_Контур_128" data-name="&lt;Контур&gt;" class="cls-1" d="M26.81,40.65c0-.19.07-.32,0-.52-.36.12-.6-.07-.78-.44-.23.78.45.37.42,1.13.33-.4.38,0,.41.39.33,0,.41-.24.76-.41-.06-.13-.16-.18-.22-.31-.19.09-.09.31-.21.43s-.1,0-.18,0c0-.21.24-.32.1-.59C27,40.34,26.91,40.41,26.81,40.65Z"/><path id="_Контур_129" data-name="&lt;Контур&gt;" class="cls-1" d="M25.89,0c-.09.1,0,.15,0,.11,0,.15.06.3,0,.41s.21-.08.34-.17C26.13.16,26,.13,25.89,0Z"/><path id="_Контур_130" data-name="&lt;Контур&gt;" class="cls-1" d="M29.68,4.48c-.16.2.38,1,.8.56,0-.11-.47.09-.22-.31C30.15,4.43,29.7,5,29.68,4.48Z"/><path id="_Контур_131" data-name="&lt;Контур&gt;" class="cls-1" d="M31.65,6.9c.14.25,0,1,.45.61.2-.75-.49-.34-.15-1.12C31.66,6.49,31.93,6.81,31.65,6.9Z"/><path id="_Контур_132" data-name="&lt;Контур&gt;" class="cls-1" d="M36.2,24.58c-.23.33.13.22.14.38.14-.09.18-.37.24-.21.07,0,.07-.11.07-.18l0-.22c0,.16-.47.57-.24.21C36.32,24.4,36.25,24.78,36.2,24.58Z"/><path id="_Контур_133" data-name="&lt;Контур&gt;" class="cls-1" d="M36.79,10.07c-.12.34.33.42.44.62a1.66,1.66,0,0,0,.09,1.3,11.53,11.53,0,0,0,.32-1.65c-.36.91-.26-.27-.59-.36C36.94,10.2,36.86,10.26,36.79,10.07Z"/><path id="_Контур_134" data-name="&lt;Контур&gt;" class="cls-1" d="M37.74,12.49c-.07.4.47.44.64.7.26-.27-.28-.3,0-.63C38.26,12.64,37.86,12.87,37.74,12.49Z"/><path id="_Контур_135" data-name="&lt;Контур&gt;" class="cls-1" d="M37.79,10.82c-.28.15-.09.33,0,.22a.62.62,0,0,1-.12.48c0,.12.17.05.21.2,0-.19.12-.83.24-.21.11-.13,0-.34,0-.52C38,11.16,37.84,11.1,37.79,10.82Z"/><path id="_Контур_136" data-name="&lt;Контур&gt;" class="cls-1" d="M40.07,12.34c0-.12-.17-.05-.21-.2-.26.13-.11.44-.37.58C39.66,12.76,39.74,12.53,40.07,12.34Z"/><path id="_Контур_137" data-name="&lt;Контур&gt;" class="cls-1" d="M43.63,9.25c-.14.33-.11.08-.32.28.11.29-.26.38-.09.7l.24-.21c0-.28,0-.58.23-.32C43.9,9.49,43.56,9.6,43.63,9.25Z"/><path id="_Контур_138" data-name="&lt;Контур&gt;" class="cls-1" d="M44.87,17.17c-.08-.16-.11.23,0,.11a.94.94,0,0,1-.29.51c.12.18.55-.38.46-.65C45,17.24,44.9,17.24,44.87,17.17Z"/><path id="_Контур_139" data-name="&lt;Контур&gt;" class="cls-1" d="M46.31,30.9c0,.12.09,0,.08-.07.25-.24.12.59.46.1,0-.53-.28-.25-.41-.39C46.36,30.64,46.42,30.8,46.31,30.9Z"/><path id="_Контур_140" data-name="&lt;Контур&gt;" class="cls-1" d="M49,10.85c-.06-.46-.25-.52-.51-.43,0,.61.32.55.41,1,.34-.6.54-.11.87-.25C49.7,11.19,49.23,10.35,49,10.85Z"/><path id="_Контур_141" data-name="&lt;Контур&gt;" class="cls-1" d="M49.39,11.76c.23.18.65-.16.77.34.42-1,.67.56,1.2.21.06-.15,0-.35.12-.48-.24,0-.61.37-.59-.36-.43.22-.64-.17-.94-.31-.11.13,0,.34,0,.52C49.71,11.78,49.69,11.39,49.39,11.76Z"/><path id="_Контур_142" data-name="&lt;Контур&gt;" class="cls-1" d="M49.62,9.43a.87.87,0,0,0,1.22,1.07C50.42,10.24,49.61,10.38,49.62,9.43Z"/><path id="_Контур_143" data-name="&lt;Контур&gt;" class="cls-1" d="M52.85,12a1.72,1.72,0,0,0,.51.43C53.49,12.07,53,12,52.85,12Z"/><path id="_Контур_144" data-name="&lt;Контур&gt;" class="cls-1" d="M55.3,13.5a1.87,1.87,0,0,0,1.38.93c0-.6-.43-.11-.28-.76-.27.64-.35-.27-.71.11-.09-.33.37-.59.09-.7C55.7,13.6,55.53,13.65,55.3,13.5Z"/><path id="_Контур_145" data-name="&lt;Контур&gt;" class="cls-1" d="M55.54,12.55c-.18.5.38.26.51.43.23-.3-.14-.19-.07-.56C55.67,12.74,55.68,12.85,55.54,12.55Z"/><path id="_Контур_146" data-name="&lt;Контур&gt;" class="cls-1" d="M56.78,14.47a1.28,1.28,0,0,0,.91.71C57.94,14,57.16,14.42,56.78,14.47Z"/><path id="_Контур_147" data-name="&lt;Контур&gt;" class="cls-1" d="M61.68,17.47c.11.14.29.09.56.14l0-.34C61.91,17.65,61.93,17.19,61.68,17.47Z"/><path id="_Контур_148" data-name="&lt;Контур&gt;" class="cls-1" d="M64.91,17.3l-.49.42c.2.25.46-.49.63,0C65.23,17.48,64.91,17.46,64.91,17.3Z"/><path id="_Контур_149" data-name="&lt;Контур&gt;" class="cls-1" d="M67.54,18.89c-.23.9.45-.33.36.69a.92.92,0,0,1,.23-.32C68.08,18.75,67.73,19,67.54,18.89Z"/><path id="_Контур_150" data-name="&lt;Контур&gt;" class="cls-1" d="M72.19,20.62c-.08-.17-.11.23,0,.11,0,.25-.19.41-.28.62.15.11.46-.25.48.21.52-.81.57-.13.88-.14s0-.42.3-.5c-.36.13-.49-.37-.91-.08,0-.19.07-.32,0-.52A.41.41,0,0,1,72.19,20.62Z"/><path id="_Контур_151" data-name="&lt;Контур&gt;" class="cls-1" d="M79.87,24.33c.1.52.7-.28.76.34.11-.13,0-.34,0-.52C80.24,24.62,80.28,23.86,79.87,24.33Z"/><path id="_Контур_152" data-name="&lt;Контур&gt;" class="cls-1" d="M85.11,25.91c-.12.35.47.64.59.37C85.52,26.13,85.23,26.24,85.11,25.91Z"/><path id="_Контур_153" data-name="&lt;Контур&gt;" class="cls-1" d="M89.22,29.85a6.34,6.34,0,0,0,.36-.69c-.08-.17-.26-.11-.45,0,0,.35.2.07.29.13C89.44,29.53,89,29.36,89.22,29.85Z"/><path id="_Контур_154" data-name="&lt;Контур&gt;" class="cls-1" d="M108.55,35.38c-.21.48.3.28.34.57.07,0,.07-.11.07-.18l0-.22C108.7,35.76,108.68,35.4,108.55,35.38Z"/><path id="_Контур_155" data-name="&lt;Контур&gt;" class="cls-1" d="M113.8,74.8c.24.19.57.16.77.45.31-.49.57-.08.81,0,.06-.08.07-.18.15-.25a.17.17,0,0,1,.07-.18C114.94,75,114.49,74.59,113.8,74.8Z"/><path id="_Контур_156" data-name="&lt;Контур&gt;" class="cls-1" d="M138.29,42.31c.34-.13.12-.51.46-.64,0-.08-.1,0-.11-.16l-.16.14C138.66,42,138.12,42,138.29,42.31Z"/><path id="_Контур_157" data-name="&lt;Контур&gt;" class="cls-1" d="M140.27,43.73c.08.64.23-.71.41-.35.21-.29-.09-.42-.29-.13A.41.41,0,0,1,140.27,43.73Z"/></g></g></g></svg>