<svg xmlns="http://www.w3.org/2000/svg" viewBox="0 0 374.77 101.8"><defs><style>.cls-1{fill-rule:evenodd;}</style></defs><title>br</title><g id="Слой_2" data-name="Слой 2"><g id="Objects"><g id="_Группа_" data-name="&lt;Группа&gt;"><g id="_Группа_2" data-name="&lt;Группа&gt;"><g id="_Группа_3" data-name="&lt;Группа&gt;"><path id="_Контур_" data-name="&lt;Контур&gt;" class="cls-1" d="M5.63,57.64c.33.77.67.81,1,.28C6.3,57.93,6,56.95,5.63,57.64Z"/><path id="_Контур_2" data-name="&lt;Контур&gt;" class="cls-1" d="M6.54,55.6c.34-.21.67,1,1,.28C7.22,55.6,6.88,54.58,6.54,55.6Z"/><path id="_Контур_3" data-name="&lt;Контур&gt;" class="cls-1" d="M9.22,59.58c.36.52.37-.17.9-.36-.18-.55-.37-.44-.56-.67C9.35,58.88,9.46,59.24,9.22,59.58Z"/><path id="_Контур_4" data-name="&lt;Контур&gt;" class="cls-1" d="M19.35,78.41l.44.88c.23-.75.45-.21.68-.79Q19.93,77.25,19.35,78.41Z"/><path id="_Контур_5" data-name="&lt;Контур&gt;" class="cls-1" d="M8.45,55.94c-.17.61.58,1.34.79.69,0-.8-.27-.28-.56-1.1C8.65,55.85,8.61,56.16,8.45,55.94Z"/><path id="_Контур_6" data-name="&lt;Контур&gt;" class="cls-1" d="M20.92,78.95c.43,0,.44.74.66,1.31a3.27,3.27,0,0,0-.2-2.12Z"/><path id="_Контур_7" data-name="&lt;Контур&gt;" class="cls-1" d="M15.16,61.88c-.14.75.65,1.09.9.06C15.77,61,15.45,62.67,15.16,61.88Z"/><path id="_Контур_8" data-name="&lt;Контур&gt;" class="cls-1" d="M25.16,81c.17.09.49-.23.33.24.22.51.46-.62.68-.79a2.49,2.49,0,0,0,1,1.55c0-1.7.77-1.5,1.37-2-.34-.08-.68.17-1-.71,0,1.16-.2.67-.69,1.21a2.13,2.13,0,0,0-.21-.86c-.31.48-.6.46-.9-.07A2.94,2.94,0,0,0,25.16,81Z"/><path id="_Контур_9" data-name="&lt;Контур&gt;" class="cls-1" d="M16.61,62.61l.44.87c0-.31.14-.9.34-.61C17.58,62.29,16.83,61.73,16.61,62.61Z"/><path id="_Контур_10" data-name="&lt;Контур&gt;" class="cls-1" d="M18,56.81c.34.27.68.07,1-.56C18.7,56.07,18.05,55.75,18,56.81Z"/><path id="_Контур_11" data-name="&lt;Контур&gt;" class="cls-1" d="M34.5,86.33c.32.67.89.52.9-.36C35.1,86,34.81,85.84,34.5,86.33Z"/><path id="_Контур_12" data-name="&lt;Контур&gt;" class="cls-1" d="M21.41,57.49c.37.14.74,1.23,1.13.09C22.16,57.27,21.79,57,21.41,57.49Z"/><path id="_Контур_13" data-name="&lt;Контур&gt;" class="cls-1" d="M33,72.09c.48.41.43-.55,1-1a.79.79,0,0,1-.44-.46C33.43,72,32.88,70.87,33,72.09Z"/><path id="_Контур_14" data-name="&lt;Контур&gt;" class="cls-1" d="M25.28,54.84c.15-.68-.66-.75-.88-1.76C24.05,54,25,54.42,25.28,54.84Z"/><path id="_Контур_15" data-name="&lt;Контур&gt;" class="cls-1" d="M29.21,56.61c.38-.06.75.34,1.13-.33-.45-.36-.9-.36-1.34-.95C28.61,55.72,29.6,56.22,29.21,56.61Z"/><path id="_Контур_16" data-name="&lt;Контур&gt;" class="cls-1" d="M41.65,81.19c-.16,1.29.66.28.89.5C42.7,80.64,41.88,81.37,41.65,81.19Z"/><path id="_Контур_17" data-name="&lt;Контур&gt;" class="cls-1" d="M42.51,76.84c-.25-.83-.53.43-.78-.7a2.42,2.42,0,0,0,0,1.68C42,76.8,42.51,77.89,42.51,76.84Z"/><path id="_Контур_18" data-name="&lt;Контур&gt;" class="cls-1" d="M48.81,89.6c.4.53.81,1,1.23.31C49.64,89.73,49.23,89.32,48.81,89.6Z"/><path id="_Контур_19" data-name="&lt;Контур&gt;" class="cls-1" d="M26.55,44.39c.22.79.45.28.67.89.41-.53.14-1.11-.2-1.7Z"/><path id="_Контур_20" data-name="&lt;Контур&gt;" class="cls-1" d="M29.53,49.89c.29.92.59.7.89.91C30.57,50.17,29.78,48.93,29.53,49.89Z"/><path id="_Контур_21" data-name="&lt;Контур&gt;" class="cls-1" d="M28.92,45.21c.07.22.15.13.23,0,.89,1.13,1.81.15,2.7,1.05.51-.66.2-1.39.48-2.07-.5-.66-.41.69-.8.57-.42-.58-.12-1.06-.55-1.09,0,1.15-.68.79-1,1.39-.25-.82-.52-.59-.78-1.11C28.65,44.34,29.43,44.82,28.92,45.21Z"/><path id="_Контур_22" data-name="&lt;Контур&gt;" class="cls-1" d="M47.88,79c-.23-.28.44-.73.57-.59.25-1.08-.43.14-.55-.67-.47.45-.19,1-.37,1.45a3.94,3.94,0,0,0,.88.92A.75.75,0,0,0,47.88,79Z"/><path id="_Контур_23" data-name="&lt;Контур&gt;" class="cls-1" d="M21.24,25.65c.37.5.74,1.5,1.13.51C22,25.9,21.63,25.17,21.24,25.65Z"/><path id="_Контур_24" data-name="&lt;Контур&gt;" class="cls-1" d="M21.15,24.16c-.18.73.58.81.79.27C21.69,23.26,21.41,24.5,21.15,24.16Z"/><path id="_Контур_25" data-name="&lt;Контур&gt;" class="cls-1" d="M22.72,26c.31-.47.19-1,.36-1.45-.19-.22-.38,0-.57-.26A2.74,2.74,0,0,0,22.72,26Z"/><path id="_Контур_26" data-name="&lt;Контур&gt;" class="cls-1" d="M49.24,78.66c-.05,1.3.89.47,1.22,1.15C50.78,78.44,49.63,78.56,49.24,78.66Z"/><path id="_Контур_27" data-name="&lt;Контур&gt;" class="cls-1" d="M18.68,12c.34.27.86-.29,1.5-1.36C19.68,11,19.19,10.85,18.68,12Z"/><path id="_Контур_28" data-name="&lt;Контур&gt;" class="cls-1" d="M53.49,80.28c0-.69-.54-1.62-.88-.92C52.59,80,53.14,81.23,53.49,80.28Z"/><path id="_Контур_29" data-name="&lt;Контур&gt;" class="cls-1" d="M29.56,32.6c.36.85,1.65.26,1-1C30.24,32.74,29.9,32.16,29.56,32.6Z"/><path id="_Контур_30" data-name="&lt;Контур&gt;" class="cls-1" d="M37.27,46.69c.06,1.14,1.11,1.22,1.58.13a.73.73,0,0,1,0-.84C38.36,44.93,37.79,47.37,37.27,46.69Z"/><path id="_Контур_31" data-name="&lt;Контур&gt;" class="cls-1" d="M24.74,19.17c.44,1.06.9,1.05,1.36.53C25.64,19.89,25.21,18.42,24.74,19.17Z"/><path id="_Контур_32" data-name="&lt;Контур&gt;" class="cls-1" d="M55.61,81.09c.17.07.33.15.22.44.73-.9,1.42.49,2.15-.46C56.92,81.12,56.45,78.63,55.61,81.09Z"/><path id="_Контур_33" data-name="&lt;Контур&gt;" class="cls-1" d="M34.53,33.83c.25.95.53-.29.8-.57a.77.77,0,0,1-.45-.46A2.15,2.15,0,0,1,34.53,33.83Z"/><path id="_Контур_34" data-name="&lt;Контур&gt;" class="cls-1" d="M58.2,81.09c-.28.74.34.28.43.88-.19-1.31.39-.06.81-1-.24-1.13-.54.85-.78-.28C58.5,81,58.34,81.31,58.2,81.09Z"/><path id="_Контур_35" data-name="&lt;Контур&gt;" class="cls-1" d="M59.54,81.62c.72.39.85,2.06,1.44,1.17-.68-.76.22-1.39-.41-2.14C60.53,82.13,59.91,80.88,59.54,81.62Z"/><path id="_Контур_36" data-name="&lt;Контур&gt;" class="cls-1" d="M35,24.8c.53.28,1.28-.32.82-1.41C35.4,24,35.23,23.82,35,24.8Z"/><path id="_Контур_37" data-name="&lt;Контур&gt;" class="cls-1" d="M63.36,81.94c.43,1,.89.22,1.34.53.22.51-.06,1-.37,1.44.78.63.77-1.48,1.82-1.12-.21-.92-.24-.51-.65-1.32-.51.76.17.27.31,1.08C65,82.58,64.2,81.18,63.36,81.94Z"/><path id="_Контур_38" data-name="&lt;Контур&gt;" class="cls-1" d="M52.45,51.93c.48.65,1.06-.23,1.26-1C53.22,50.82,52.66,50.79,52.45,51.93Z"/><path id="_Контур_39" data-name="&lt;Контур&gt;" class="cls-1" d="M45.38,36.37c.41.1.13.3.44.88A4.61,4.61,0,0,0,46,35.79C45.77,35.55,45.57,36.11,45.38,36.37Z"/><path id="_Контур_40" data-name="&lt;Контур&gt;" class="cls-1" d="M55.73,39.76c.49.22,1,.39,1.48-.51C56.74,39.59,55.87,38.68,55.73,39.76Z"/><path id="_Контур_41" data-name="&lt;Контур&gt;" class="cls-1" d="M49.07,14.53c.26.58.52.37.78.7.4-.39-.6-.89-.2-1.28C49.46,13.71,49.27,14.27,49.07,14.53Z"/><path id="_Контур_42" data-name="&lt;Контур&gt;" class="cls-1" d="M43.37,2.68c.44.56.91.11,1.38-.73C44.31,2.12,43.47,1.78,43.37,2.68Z"/><path id="_Контур_43" data-name="&lt;Контур&gt;" class="cls-1" d="M67.36,47l.43.88c0-.31.08-.62.23-.4C68.24,46.9,67.54,46.3,67.36,47Z"/><path id="_Контур_44" data-name="&lt;Контур&gt;" class="cls-1" d="M51.88,10.12c.48.73,1,0,1.46,1.17.21-.47-.06-1-.08-1.48.32-.37.8.43.81-.57-.26-.34-.54.61-.79-.28C53,10.44,52.42,9.19,51.88,10.12Z"/><path id="_Контур_45" data-name="&lt;Контур&gt;" class="cls-1" d="M69.6,42.38c.19,0,.37.49.56.26.37-.56,0-1.5-.31-1.51C69.34,41.52,70.12,42,69.6,42.38Z"/><path id="_Контур_46" data-name="&lt;Контур&gt;" class="cls-1" d="M58.48,9.82c0,1.06,1.51,1.47,1.59.13C59.54,10.07,59,10.63,58.48,9.82Z"/><path id="_Контур_47" data-name="&lt;Контур&gt;" class="cls-1" d="M57.61,2.37c.37.68.75.51,1.15-.33C58.37,2.19,58,1.79,57.61,2.37Z"/><path id="_Контур_48" data-name="&lt;Контур&gt;" class="cls-1" d="M64.09,13.65c.38.2.74.8,1.13.09C64.85,13.44,64.48,13.13,64.09,13.65Z"/><path id="_Контур_49" data-name="&lt;Контур&gt;" class="cls-1" d="M68.13,15.68c.26.39.53-.11.79.28.13-.34-.17-.71-.32-1.08Z"/><path id="_Контур_50" data-name="&lt;Контур&gt;" class="cls-1" d="M69.84,15.19c.29.78.6,0,.9.5C70.89,15.24,70.1,14.19,69.84,15.19Z"/><path id="_Контур_51" data-name="&lt;Контур&gt;" class="cls-1" d="M85.71,45.67c.12-.13.07-.28,0-.42.16-.2.29.24.44.46.27-.23.17-1.48.59-1,.4-.73-.61-.3-.21-.86C86.19,43.93,85.12,44.64,85.71,45.67Z"/><path id="_Контур_52" data-name="&lt;Контур&gt;" class="cls-1" d="M87,44.3c.14.45.29.26.45,0,.16.3.32.59.2.86.18.24.38-.32.58-.58l-.54-1.1C87.44,44.27,87.23,43.73,87,44.3Z"/><path id="_Контур_53" data-name="&lt;Контур&gt;" class="cls-1" d="M89.49,48.53c.29.3.6.05.91-.34C90.12,47.4,89.81,47.91,89.49,48.53Z"/><path id="_Контур_54" data-name="&lt;Контур&gt;" class="cls-1" d="M76,18.47c.48.29.47-1.2.26-1.67C75.7,16.75,76.11,17.86,76,18.47Z"/><path id="_Контур_55" data-name="&lt;Контур&gt;" class="cls-1" d="M75.16,15.86c.58.4,1.42,1.07,1.71-.49C76.3,15.76,75.76,14.39,75.16,15.86Z"/><path id="_Контур_56" data-name="&lt;Контур&gt;" class="cls-1" d="M76.81,18.32c.38-.16.75.25,1.14-.32-.37-.25-.75-.06-1.12-.52C76.73,17.75,77,18.05,76.81,18.32Z"/><path id="_Контур_57" data-name="&lt;Контур&gt;" class="cls-1" d="M78.65,22.07c1-.33,1.22.39.61-1.85A4,4,0,0,0,78.65,22.07Z"/><path id="_Контур_58" data-name="&lt;Контур&gt;" class="cls-1" d="M92.89,48.4q.54,1,1.13.1C93.64,48.3,93.28,47.7,92.89,48.4Z"/><path id="_Контур_59" data-name="&lt;Контур&gt;" class="cls-1" d="M98.37,50.78c1.09-1.1,2-.05,2.64-1.67a4,4,0,0,0-2.5.62c-.11-.29.12-.55.25-.82C98,48.1,97.94,49.79,98.37,50.78Z"/><path id="_Контур_60" data-name="&lt;Контур&gt;" class="cls-1" d="M85.49,20.55c.58.63.24-1.61.59-1C86.14,18.17,85.31,20.05,85.49,20.55Z"/><path id="_Контур_61" data-name="&lt;Контур&gt;" class="cls-1" d="M86.07,20c.33.3.67.28,1-.54C86.77,19.14,86.42,19.34,86.07,20Z"/><path id="_Контур_62" data-name="&lt;Контур&gt;" class="cls-1" d="M103.6,49.56l.43.88c.23-.33.12-.69.36-1C104.13,49.56,103.88,49,103.6,49.56Z"/><path id="_Контур_63" data-name="&lt;Контур&gt;" class="cls-1" d="M93.53,25.88c.18-.48-.1-1,.37-1.45C93.37,24.15,92.7,25.68,93.53,25.88Z"/><path id="_Контур_64" data-name="&lt;Контур&gt;" class="cls-1" d="M109.59,8.3c.53,1.3,1-.14,1-1C110.29,7.32,109.94,7.87,109.59,8.3Z"/><path id="_Контур_65" data-name="&lt;Контур&gt;" class="cls-1" d="M121,10c.47.83.45-1,1-.12.22.82-.45.51-.59,1,.45.53.84-.06,1-1-.3-.1-.41-.33-.43-.88.52-1,1,.63,1.49-.5-.26,0-.54.17-.78-.7-.66,1-1.25.51-1.58-.14C121.14,8.42,121.64,9.24,121,10Z"/><path id="_Контур_66" data-name="&lt;Контур&gt;" class="cls-1" d="M125.3,9.91l.43.88c.45-.73.46-.32.71-1.2-.39-.76-1.06,1-.67-.48C125.49,8.59,125.35,9.72,125.3,9.91Z"/><path id="_Контур_67" data-name="&lt;Контур&gt;" class="cls-1" d="M127,11.12a3.62,3.62,0,0,1,.72-1.62l-.32-.66c-.12.27-.24.31-.35.18,0,.8.1.56-.36,1C126.87,10.41,126.74,10.75,127,11.12Z"/><path id="_Контур_68" data-name="&lt;Контур&gt;" class="cls-1" d="M128.76,12.12c.4-.78.76-.07,1.15-.74-.48-.53-1,.41-1.45-.77C128.23,11.53,128.62,11.18,128.76,12.12Z"/><path id="_Контур_69" data-name="&lt;Контур&gt;" class="cls-1" d="M130.62,10.18a1.21,1.21,0,0,0-.15,1.46.66.66,0,0,0,.46-.38A2.38,2.38,0,0,0,130.62,10.18Z"/><path id="_Контур_70" data-name="&lt;Контур&gt;" class="cls-1" d="M130.94,10.85c.21.37.08.71.31,1.08.23-.3.12-.89.35-.6.13-.34-.17-.72-.31-1.09Z"/><path id="_Контур_71" data-name="&lt;Контур&gt;" class="cls-1" d="M131.67,9.22c-.08.43.78,1.82,1.11.94C132.41,9.74,132,9,131.67,9.22Z"/><path id="_Контур_72" data-name="&lt;Контур&gt;" class="cls-1" d="M138.17,11.92c.28-.77.54-.5.82-1-.24-.83-.53.13-.78-.7A1.52,1.52,0,0,0,138.17,11.92Z"/><path id="_Контур_73" data-name="&lt;Контур&gt;" class="cls-1" d="M141.69,11.61c.29.54.59.56.9.08l-.43-.88Z"/><path id="_Контур_74" data-name="&lt;Контур&gt;" class="cls-1" d="M143.83,12a8.25,8.25,0,0,0,1.34.55c.38-.46-.68-1-.3-1.5-.28-.25-.23.33-.36.6S144.08,11.13,143.83,12Z"/><path id="_Контур_75" data-name="&lt;Контур&gt;" class="cls-1" d="M145.36,9.83c.25.4.54-.54.8-.14a1,1,0,0,0-.76-1.12C145.18,9,145.67,9.43,145.36,9.83Z"/><path id="_Контур_76" data-name="&lt;Контур&gt;" class="cls-1" d="M147.87,13.22c.71-1.15,1.36.09,2,.19.47-1.27-.8-1.53-1.06-2.63-.13,1.19,0,1.3-.72,1.62-.46-.95-.38-1.6-1-1.57A2.89,2.89,0,0,0,147.87,13.22Z"/><path id="_Контур_77" data-name="&lt;Контур&gt;" class="cls-1" d="M148.06,10.5c.48.33,1-.16,1.46.34C149.5,10.25,148.51,9.3,148.06,10.5Z"/><path id="_Контур_78" data-name="&lt;Контур&gt;" class="cls-1" d="M150.46,9.66c.18.42.37.22.55.69.33-.6-.25-1.29.16-1.89-.22-.16-.45,0-.69.36C150.94,9.53,151,9,150.46,9.66Z"/><path id="_Контур_79" data-name="&lt;Контур&gt;" class="cls-1" d="M153.75,9.75c.17.55.37.45.55.69-.08-.5.22-1-.07-1.49C154.16,9.71,154.06,9.18,153.75,9.75Z"/><path id="_Контур_80" data-name="&lt;Контур&gt;" class="cls-1" d="M192.71,17.57c.54.73,1.12.24,1.71-.47-.48-.38-1-1-1.44-1.19A13.21,13.21,0,0,0,192.71,17.57Z"/><path id="_Контур_81" data-name="&lt;Контур&gt;" class="cls-1" d="M203.77,14.6c.24.88.53-.06.78.28C204.75,14.29,204,13.71,203.77,14.6Z"/><path id="_Контур_82" data-name="&lt;Контур&gt;" class="cls-1" d="M215.27,16.52c0,.84.95.93,1.35.13C216.18,16.29,215.72,16.56,215.27,16.52Z"/><path id="_Контур_83" data-name="&lt;Контур&gt;" class="cls-1" d="M220.79,17.25c.55-.55,1.54-.5,1.74-1.32A1.48,1.48,0,0,0,220.79,17.25Z"/><path id="_Контур_84" data-name="&lt;Контур&gt;" class="cls-1" d="M231.92,16.19c.4.52.83.07,1.24.33C233.2,15.86,232.29,15.27,231.92,16.19Z"/><path id="_Контур_85" data-name="&lt;Контур&gt;" class="cls-1" d="M243.58,19.83c0-.49.34-.95.39-1.44-.22-.16-.45,0-.69.36C243.48,19.12,243.35,19.45,243.58,19.83Z"/><path id="_Контур_86" data-name="&lt;Контур&gt;" class="cls-1" d="M281.18,92.68c.88.63,1.85-1.22,2.73-.59C283.51,90.47,282,92.06,281.18,92.68Z"/><path id="_Контур_87" data-name="&lt;Контур&gt;" class="cls-1" d="M284,91.47c.36.68.74.52,1.14-.31A.92.92,0,0,0,284,91.47Z"/><path id="_Контур_88" data-name="&lt;Контур&gt;" class="cls-1" d="M264.83,17a1.38,1.38,0,0,0-.08-1.06,2.44,2.44,0,0,0,1.82-.25,1.83,1.83,0,0,0-2.26-.22C264.72,16,264.58,16.48,264.83,17Z"/><path id="_Контур_89" data-name="&lt;Контур&gt;" class="cls-1" d="M268.35,20.29c0-.63.54-1.22.17-1.89C268.06,18.39,268,19.6,268.35,20.29Z"/><path id="_Контур_90" data-name="&lt;Контур&gt;" class="cls-1" d="M267.46,16.19c-.13.34.17.73.31,1.09a2.34,2.34,0,0,0,.49-1.22C268,15.66,267.7,16.89,267.46,16.19Z"/><path id="_Контур_91" data-name="&lt;Контур&gt;" class="cls-1" d="M294.48,13.31c.41.42.62-.52.82-1-.22-.17-.45,0-.69.36C294.72,12.9,294.55,13.1,294.48,13.31Z"/><path id="_Контур_92" data-name="&lt;Контур&gt;" class="cls-1" d="M296.26,10.73c.29.41.72-.89.72-1.2C296.49,9.46,296.27,10,296.26,10.73Z"/><path id="_Контур_93" data-name="&lt;Контур&gt;" class="cls-1" d="M298.25,12.19c1,.61,2,0,2.95-.14-.19-1,.42-.77.84-1.4C300.67,10.64,299.75,11.84,298.25,12.19Z"/><path id="_Контур_94" data-name="&lt;Контур&gt;" class="cls-1" d="M301.67,11.67c.4.6.84-.3,1.26-.52C302.52,10.71,302.11,10.73,301.67,11.67Z"/><path id="_Контур_95" data-name="&lt;Контур&gt;" class="cls-1" d="M303.38,11.2c.45,0,.89.54,1.36.13C304.67,10.61,303.85,10.17,303.38,11.2Z"/><path id="_Контур_96" data-name="&lt;Контур&gt;" class="cls-1" d="M304.57,12.8c.56.1.77.55,1.1,1,.33-.87.56-.9.29-2.08C305.84,13.08,305,12.08,304.57,12.8Z"/><path id="_Контур_97" data-name="&lt;Контур&gt;" class="cls-1" d="M305.62,1.08c-.17.94.65.53.9.09-.17-.55-.37-.45-.55-.69C305.75.77,305.85,1.37,305.62,1.08Z"/><path id="_Контур_98" data-name="&lt;Контур&gt;" class="cls-1" d="M310.68,9.38c-.12.12-.07.27,0,.42l.21.44c.34-1,1.48,0,2.19-1.26a.73.73,0,0,1-.09-.65c-.54.51-1.07.39-1.62,1.11-.54-1.09.28-.73.28-1.66-.24-.71-.57,1.26-.81.56C310.64,8.57,311.29,9.88,310.68,9.38Z"/><path id="_Контур_99" data-name="&lt;Контур&gt;" class="cls-1" d="M307.66.85A2.08,2.08,0,0,0,309.84,0,3.43,3.43,0,0,0,307.66.85Z"/><path id="_Контур_100" data-name="&lt;Контур&gt;" class="cls-1" d="M313.64,8.82c.37-.05.33,1.39.86,1.36-.18-.86-.06-1.35.5-1.64C314.57,8,314.1,8.49,313.64,8.82Z"/><path id="_Контур_101" data-name="&lt;Контур&gt;" class="cls-1" d="M314.48,7.43c.51.52,1.06-.2,1.61-.69C315.32,6.34,315.16,7,314.48,7.43Z"/><path id="_Контур_102" data-name="&lt;Контур&gt;" class="cls-1" d="M319.56,7.71c.15-.34-.28-.73-.08-1.07-.75-.13-1.57,1.91-2.29.62C317.15,9.59,318.85,6.88,319.56,7.71Z"/><path id="_Контур_103" data-name="&lt;Контур&gt;" class="cls-1" d="M317,6.4c.77.7,1.6-.59,2.42-1.24C318.65,4.37,317.81,5.86,317,6.4Z"/><path id="_Контур_104" data-name="&lt;Контур&gt;" class="cls-1" d="M318.91,3.21c-.1,1.12.82,0,1.14-.31C319.69,2.28,319.28,3.65,318.91,3.21Z"/><path id="_Контур_105" data-name="&lt;Контур&gt;" class="cls-1" d="M319.32,4.52c.63.34,1.25,1.05,1.94-.45C320.59,5,320,3.54,319.32,4.52Z"/><path id="_Контур_106" data-name="&lt;Контур&gt;" class="cls-1" d="M322.55,6.31c-.64-1,.18-1.91.61-1.42.28.85-.3,1.07-.61,1.42.27,1,.61-.4.89.51A10.1,10.1,0,0,1,326,2.2c0-1.5-1.56,1.06-1.65,2,0-1.25-.85-.32-.52-1.52-.88,1.25-1.63,2.8-2.87,4.79C321.44,8.1,322,7.32,322.55,6.31Z"/><path id="_Контур_107" data-name="&lt;Контур&gt;" class="cls-1" d="M325.67,4.29c-.13.34.17.72.31,1.08.31-.14.63-.92.93-.75.05-.35-.12-.72.15-1-.22-.22-.44-.26-.66-.48C326.06,3.63,326.27,5,325.67,4.29Z"/><path id="_Контур_108" data-name="&lt;Контур&gt;" class="cls-1" d="M327,6.11a.91.91,0,0,0,.61-1.42C327.14,5.14,327.25,5.64,327,6.11Z"/><path id="_Контур_109" data-name="&lt;Контур&gt;" class="cls-1" d="M327.73,3.64c-.24,1,.51.12.65.91.13-.8,0-.84.49-1.22C328.51,2.65,328.1,3.73,327.73,3.64Z"/><path id="_Контур_110" data-name="&lt;Контур&gt;" class="cls-1" d="M.68,54.36c-.17-.5.35-1-.11-1.48-.19.39-.38.16-.57.59.92.18-.38,3.74.56,1.09,1,.24,2-.08,2.93,1,.44-.89.59-.56.79.26.1-.27-.15-.57,0-.84.43-.41.13.81.56,1.09.1-1,.33-.86.91-2.46-.41-.4-.83.53-1.25,1-.33-1.2-.68-.44-1-.28-.74-2-1.86-1-2.25-1.84-.5.87.57,1.61.79,1.53C1.58,55,1.13,53.32.68,54.36Z"/><path id="_Контур_111" data-name="&lt;Контур&gt;" class="cls-1" d="M10.43,62.82a1.43,1.43,0,0,0,1.8.13c-.41-.45-.13-.85-.44-1.29C11.58,63.42,10.95,62.17,10.43,62.82Z"/><path id="_Составной_контур_" data-name="&lt;Составной контур&gt;" d="M373.83,13.65c-1-1-2.5-.76-2.72-3.44-.47,1.15-1.3.65-1.42,2,.14.23.31-.17.47-.38.21.82-.06.55-.37,1-.27-.83-.57-1.06-.88-.93a1.21,1.21,0,0,1,.16-1.46c-.29-.16-.56,0-.58.57-.68-1.55-2.3-.25-3.42.51-1.22-2-2.59.7-3.92,2.15l-.21-.45c.57-2.23,1.83-2.29,2.5-3.76-.21-.62-.45-.12-.65-.91-2,2.27-3.16,1.4-5.07,2.88-.06-.22,0-.42-.09-.64a4.22,4.22,0,0,0,2.11-2.33c-.28-.66-.61.08-.89-.51.12.9-.19,1.09-.59.57a4.57,4.57,0,0,1-.05,1.69c-.65-.52-2.14.21-1.88,1.92-.29.66-.09-1.32-.54-.68-.06-.43.46-.41.27-1.24-.45-.17-.89,1.45-.75,2-.31.29-.23-1.12-.52-1.53-.62.58-.24,1.24-.62,1.84s-.37-.69-.2-.87c-.47-.43-.38.92-.49,1.22a2.11,2.11,0,0,1-.64-1.33c.29-.77.54-.5.83-1-.66-.78-1,.73-1,1.6-.8.17-1.53.22-2.1,1.9-.57-.62.09-1.11-.17-1.7.46-.32.92-.45,1.38-.71a2.57,2.57,0,0,1,.08-2.52c-.28-.46-.56,0-.58.57,0-1-.54-.1-.64-1.33-.65,1.11-1.22,1-2.07,1.07-.15-.62.63-1.06.8-.13.12-.13.07-.27,0-.42l.24-.4c-.43-.79-.9,0-1.37.29-.2-.86.06-1.68-.14-2.55-.26.88-.26.47-.72,1.2-.41-.53-.26-1-.52-1.53-.29.33-.24.68-.37,1-.31-.45,0-.85-.41-1.31a2.88,2.88,0,0,1-2,.22c-.28-1,.28-.51.61-1.41-.32-.59-.7.67-1-.31,0,.35-.26.68-.15,1-1.63-.89-3.36,1-5,.36-.12.27.09.57.2.86-.28.52-.56,1-.82,1-.37-3.36-2.23.78-3.17.11.35-3,1.55-2.1,2.48-3.35-.47-.7-1.08.77-1.22-.75l-.72,1.19c-.27-.38-.2-.73-.31-1.09.3.05.63-.88.92-.33-.15-.95.29-.52.38-1.44-.47-1.68-1.12,2.05-1.59.27-.53,1.14-1.09,2.28-1.58,3.43a1.52,1.52,0,0,1,.05-1.68c-.34-1.1-.74-.34-1.12-.53a2,2,0,0,1-.51,1.64c.22.26.47-.44.66.49q-.59.72-1.13-.11L330,7c-.15-1.25.24-1-.53-1.11-.52-.61.28-1.1-.17-1.7-.21,2-.82,1.37-1.57,3a8.47,8.47,0,0,1-2-1c-.56,2-1.23,2.32-2,3.4-.5-.61.41-1.09.28-1.66-1,.12-2.13,2.92-2.63,4.39,1.05.55,1.43-2.24,2.12-2.75a1.34,1.34,0,0,1,.08,1.06c.29.41.76-.88.49-1.22.92,1.71,2.85-3.24,4.1-.87-.83,2.43-2.57,2.48-3.69,2.17-.77,2.88-2.37,2.58-3.82,2.8a13.28,13.28,0,0,0,.8-3.72c-.33.87-.62.44-.94,1.17-1-2.33-1.42,1.17-2.35-.86a6.83,6.83,0,0,1-1.74,1.31c.3.39-.08.7.08,1.06-.31.29-.61,0-.93.75-.5-.82.15-1.28.49-1.22-.09-1-1.41.18-1.39,1.13-.45-.11-.93.71-1.34-.56-.64-.15-1.34,2-2,1.29-.39-1.24.31-2.37.68-3.53-.82.11-1.2,1.84-2.31,1.47-.39-.84-.16-1-.65-.91-.39.76.7.33.31,1.09.34.1.67.25,1-.11.14,1.09,0,1,.65.91.11.29-.13.55-.25.82-.31.36-.57-1.17-.88-.93,0,.35-.26.68-.15,1-.39.32-.75-.14-1.13-.11-.16-.57,0-.78.25-.82.22-.2.09.36.32.66a3.32,3.32,0,0,0-.05-1.91c-1.61,3.26-3.12,3.09-4.67,4.62-.16-.3-.32-.6-.2-.87a3.36,3.36,0,0,1-2.09,1.91c-.08-1.09,1.16-1.58,1.09-2.22.3.95.59.46.12-.2a5.62,5.62,0,0,1-3.44,1.36c-.35-1.45,1.2-.88,1.21-2.42-.44,0-.57-.42-.81.56-1.47-1.17-4.19,2-5.73,2.41-.32-.59.91-1,.28-1.66a2.19,2.19,0,0,1-1.3,1.78c.33.24.66.6,1,.31.06.21,0,.42.09.64-.7.72-1.33-.84-2.06.64-.21-.37-.08-.71-.3-1.08-.56,1-1.06.25-1.61.69a1.36,1.36,0,0,1-.08-1.06c-.25-.34-.55.6-.78-.29-.24.26-.14.55,0,.84a14,14,0,0,0-5.56.52,1.25,1.25,0,0,1,.26-1.24c-.34-.13-.69.35-1,.11-.56.51.21,1.15-.28,1.66-.5-.89-1-.56-1.59.27-.31-.46,0-.85-.42-1.31-.21.47.06,1-.16,1.46-.6-1.24-.52.09-1.37.29-.3-.45,0-.85-.41-1.31a1.39,1.39,0,0,0,.08,1.07c-.72.58-2.24-.9-2.19-2.33-1.08.74.83,1.3.15,2.55-.39,0-.26-.61-.76-1.13-.54.79-1.16,0-1.41,1.55-.5,0-1.06.11-1.21-1.17l-.6,1c.39,1.15.16-.88.56.27-.33,1.55-2,.36-3,1.4.18-.84.09-1.55.62-1.84-.76-1.2-.95,1.57-1.75,1.73-.49-1.38-1-.22-1.59.27-.6-1.22-1.26-.7-1.91-.4-.14-.93.6-.3.82-1-.21-.65.34-1.23.17-1.88-.64,1.23-1.54,1.39-2.12,2.75-.18-.41-.46-.06-.89-.51-.22-1.25,1.36-.17.5-1.64.36-.83.67.29,1-.54-.32-1-1.29.66-1.22-.75-.38.73-.78.39-1.39,1.13.06-1.72-.65-.06-1.21-1.17-.72,1.21-1.38.8-2.08,1.49,0,.86.53,1.53.88.93-.09,1.46-1.07.57-1.49.49a1.91,1.91,0,0,1,.38-1.44c-.07-.69-.39-.73-.4-1.73-.07,1.89-.67.48-1.3,1.78.23,1.13.53-.13.77.71-.38.08-.78.82-1.13-.11-.1-.42.2-.17.36-.6-.16-.42-.48-.24-.32-.66-.41-.67-.18,1.36-.57.16a3.16,3.16,0,0,1-.06,2.1c-.54,0,0-.71-.41-1.31a2,2,0,0,0-.16,1.46c-.19.06-.37-.3-.57.16-.57-1,.38-1.79,0-2.75a4.75,4.75,0,0,0-.28,1.66c-.4.91-.72-1-1.14.31-.41-.53-.27-1-.52-1.53-.52.82-1,.25-1.48.07-.3,1.44-1.13,1-1.72.89-.3-.45.6-.79,0-1.26-.53,1.28-1.08.59-1.83.67-.48.45.19,1-.16,1.46-.66.19-.1-1.26-.63-1.75-.3,0-.42.25-.48.8-1.06-2.41-2.3,1.1-3.39-.32-.41,1.39-.66,1.15-1.41,2-.2,0-.33-.85-.77-.71-.1-1.07.68-.52.94-1.18-.69-.7-1.22.13-1.72.89-.56-.4-.29-.88-.63-1.75-.45.27-.71-.35-.93.76l-.43-.88c.18,1.15-1,1.54-1.47.07-.38,1.52-.69.84-1.26.51-.47.73,0,.25.2.86-.28.54-.53,0-.8.13-.42-1-.12-1,.05-1.68-.49,0-1-.32-1.42-1.62.12-.27.23-.3.34-.17-.06-.8-1.11-.46-1.57-.57,1.18.69.94,2,2.08,2.52-1.09,1.74-1.19-1.34-2-1,0,.92.84,1.91.71,2.81-.29-.83-1.07-.72-1.3-1.81-.33.88-.35,1.79-.65,2.69.15-1.5-.41-1.44-.84-2.19-.21-.58.5-1.08,0-1.68a3.16,3.16,0,0,0-.28,1.66c-.3,0-.71-.79-.46.38-.34,0-.66-.65-1-1.15,0-.65,1,0,.83-1.4-.62.71-3.37,2.38-2.83-.06-.34-.1-.7.88-1,.12-.51,2-1.69.33-2.56,2.29-.18-1.41-.89-.55-.63-1.75-.38-.35-.31,1.08-.83,1.4-.86-.17-1.71-.82-2.62.39-.07-1.18-.82-.88-.9-.09-.31-1.14-.67-.44-1-1.14.09.7.26.72.4,1.73-.44.1-.93-.77-1.09-1.37-.59-.24-.33,1.23-1.13-.1-.05.35.12.71-.14,1,.5-.24,1,.11,1.45.77a15.4,15.4,0,0,0-2.48-.23c-.06-.21,0-.42-.1-.64.39-.37,1.08.55,1.15-.74-.58-.7-1.13,1-1.91-.39-.16.3-.32.6-.46.38a1.36,1.36,0,0,0,.08,1.06c-.51.69-1-.12-1.49.49-.4-.46-.11-.85-.42-1.3-.45.5.22,1.07-.37,1-.42-.58.28-1-.31-1.08-.32.32,0,.71-.14,1-1.71-2.64-3.87-.25-5.28-1.55-.18-.44.34-.81.26-1.24-.63-.46-1.32,1.41-1.91-.39a1.39,1.39,0,0,0,.08,1.07c-.25.74-.46.2-.7.77-.28-.38,0-.71.14-1-.32-.59-.68,0-1-.3-.12.27.09.57.2.86-.25.71-.45,0-.69.36,0-.35.16-.69-.08-1.06l-.48.8c-.31-.45,0-.84-.42-1.31a8.4,8.4,0,0,1-3.29.33l.32.66c-.3-.05-.63.88-.91.34-.28-.38,0-.71.14-1-.65-.55-1.86.46-2.17.85-.16-.89-.43-1.11-.89-.51.56.86,0,.84-.26,1.24,1-.34,1.46.9,2.59.45.13-.39-.1-.17-.21-.44.25-.92.44.56.69-.36a6.68,6.68,0,0,0,.85,1.77c-1.3-1-3.13.68-4.05-.8-.08.2,0,.43-.13.62-.44.4.12-.79-.31-1.08-.73,1.67-1.38.58-2,.23-.21,1.15-.68,1-1.15.74a4.52,4.52,0,0,0,.3-2.51c.34-.24.9.13.93-.76-.44.11-.45-.09-.65-.91-.2.94-.5.71-.61,1.42-.39.3-.74-.53-1.14.31-.42-1.57-1.44-.8-2.26-.21,0-1.28-.4-1.2-1-.31a1.33,1.33,0,0,1,.14-1c-.74-.65-1.53.72-2.27.21-.21.4.27.87,0,1.26-.24.57-.42-1.11-.68-.06a1.36,1.36,0,0,1-.08-1.07c-.36-.22,0,1.17-.58.58a1.33,1.33,0,0,1-.19-1.28c-.58.58-1.59-.63-1.83.67-.31-.45,0-.85-.42-1.3,0,1.3-.59.16-.57.16-.8.12-1.09,1.78-1.94.45-.17,1.23-1.1.57-1.6.7,0-.35.16-.69-.08-1.06-.38,1.35-.9,0-1.51,1.34-.19.87.56,1.17.77.71.2.2-.54.93-.7.78-.23,1,.5.28.67.48.11.36-.21.69-.37,1-.18.1-.62-1.37-1.13-.1-.28-.52-.54-1-.3-1.51-.39-.78-.84.3-1.22-.75-.12.55,0,1.29-.49,1.22a6.13,6.13,0,0,1,2-3.4c-.37-.17-.73-.67-1.1-.95-.18.4-.24,1.26-.58.58-.12.34,0,.7-.14,1-.52.53-.28-.52-.76-1.13.06,1.77-1.94,1.87-2.15,0,0,1-.48,0-.82,1,.35.79.76-.26,1.12.53,0,.79-1,0-1.35-.13a2.34,2.34,0,0,1-.49,1.22c-.28.47-.25-.68,0-.84-.39-.35-.44,1.06-.15,1.46.27-.29.52.27.81-.56.1.43.1.86.19,1.28-.54.57-1-.77-1.58-.15-.1-.82.83-2.3.07-2.53.11,1.15-.17.57-.59,1,0-1.26.39-.53-.42-1.31-.06.81-.11,1.09-.6,1.42-.16-1.61-.86.49-1.33-1,1.37-.12,2.46-1.36,4-.27-.54-1.47,1-.57.85-2.24-.18-.42-.37-.22-.55-.69-.24,1.37-1.17.28-1.35-.55.3,1.24-.55,1.06-.17,2.3-.3-.09-.62.58-.91-.08s.91.15.14-1c.25-.92.44.56.69-.36-.21-.38-.08-.71-.31-1.08-.69,1.35-.85.24-1-.73,0,1.76-1.46.49-2.17.85-.25.78,0,.56.31,1.09-.78,1.36-2-.05-2.41,1.25-.45-.53.08-1-.07-1.48.6,0,1.21-.25,1.81.17a2.4,2.4,0,0,0,0-1.68c-.16.42-.31.21-.45,0a1.59,1.59,0,0,0,0,.85c-.61-1.32-2.32-.17-2.74,1,.32-2.11-.8-1.09-1.06-2.64-.2.35-.39.36-.57.16-.23,1.12.51.26.66.9.18.89-.49,1.42-1.09,2.64-.5-1.2.5-1.17.51-2.06-.55-.86-.45.07-1,.54a4.73,4.73,0,0,1,.07,1.48c-.27.3-.51-.7-.8.14.47.89,1-.84,1.45.76.59-.83,1.17-1.53,1.74-1.32.19.53-.52.31-.69.36-.19.62.34.76.44.34-.1,3.62-3.28.16-5,1.35.16.3.32.59.2.86.25.64.55-.6.79.29.05.6-.86,1.3-1.14.31.22,1-.77,2.27-1.16,1.16-.13-.24.69-.86.91-.34-.13-1.26.27-1.21.4-2.29-.48-.52-.33-.82-.87-1.34.82-.41,1.28.48,2.3-1.06-.46-1,.06-1-.63-1.75,0,.71.42,1.44-.28,2.09-.76,0-1.5-.54-2.26-.2a1.32,1.32,0,0,1,.19,1.28,1.88,1.88,0,0,0,1,.3,2,2,0,0,1-.71,1.2.73.73,0,0,1,0-.84c-.64-.62-.19,1.19-.93.76,0-.64.26-1.24.17-1.89-.83,1.53-2.33-.16-3.21,1.4-.15-.51.15-1-.3-1.51-.43.45-.83-.15-1.27.94a2.6,2.6,0,0,1,.42,1.3c-.54.45-1.06,0-1.61.69-.24-.86.43-2.4.94-1.18-.24-.66.2-1.25-.06-1.9-.49,1.45-1,.82-2,1.72.24.89.54-.35.79.28,0,1-.67.11-1,1-.21-.37-.08-.71-.31-1.08-.3,2.26-1.32-.17-1.95.88-.29-1.58.89-1,1-2-.11-.21-.23.08-.34.18-.49-.47.3-.82-.19-1.28-.41.61-1-.13-.82,1-.4.9-.74-.49-1.13-.1-.08-.56.14-1.35.47-.8-.06-1.46-1.48,1.07-1.56-1l-.71,1.2c.28.38.2.72.31,1.08-.45.47-.44-.33-.66-.91-.73,1.63-1.38,0-2.58-.87-.69,1.13-2.13-.71-3.17.14,0,1,.47.28.77.7-.18,1.1-1.3.76-1.83.68-.17-1.07.71.06.59-1a2.69,2.69,0,0,1-.64-1.32c-.28.41-.8,1.64-1.2,2.42-.52.27-.37-1.14-.75-1.55-.27-.16-1.15,1-1-.3-.9,1.08-1.75.69-2.62.39-.51-.68.44-1.22-.07-1.9-.66.57.17,1.28-.39,1.87s-.53-1.12-.86-1.77c-.31.4-.6-.23-.9-.08a2.22,2.22,0,0,0-.41-1.72c0,.31-.16.89-.36.6-.28.57.35.1.43.88-.32.73-.6,0-.9-.08-.25.54.41.8.55.68a9.28,9.28,0,0,1-.15,1.47c-.44,0-.43-.76-.69.36-.47-1,.13-.74.15-1.46-.46-.61-.43.46-.59,1-.54.3-1.05-.27-1.58-.14,0-.64.36-1.24.39-1.87-.5-.36-.94-2.07-1.55-1.4-.42-1.32-.51-2-1.53-2.25.29.45.68.52.65,1.33-.36.57-.69.24-1,.12-.23.4.14.86-.26,1.24.44-.06,1.25,1.16,1.36.12a2,2,0,0,1-.15,1.46c-.39.08-.25-1.21-.8.14-.5-.46.3-.81-.19-1.28.06,1.28-.55,1.18-1,.54-.3.78.13,1,.43.88-.2.39-.38.16-.58.59-.12-.5-.78-1.05-.53-1.53-.2-.13-1,1.09-.79-.28-.36-.42-.61,1.83-1.16,1.16-.11-.36.21-.69.36-1-.56-.18-1.57-1.43-1.81-.16-.17.16-1-.27-.43-.88-1,.08-2.32,1.32-2.7,3.77-.27,0-.52-.2-.8.14-.43-.74.43-1.37-.17-2.12.55-.79.54-.22.9.08a1.75,1.75,0,0,0,.28-2.08c-.11.2,0,.42.1.64-.35.36-.7.84-1,.12s.35,0,.47-.8c-.28-.9-.62.53-.89-.5-.24,2-1.46.49-2.25-.62-.38.73-.71,2.15.05,2.33-.16-1.1.3-.69.69-.36.11.38-.2.37-.34.18.17,1,1.35.37,1.91.8-1.85,1.32-4.61,0-6.82.66-.11-.29.12-.55.25-.82-.29-.33-.59-.53-.91.34-.16-1.37-.45-.22-.89-.93-.32-.52.76-.92.15-1.46-.44,1.34-.66.52-1.48.08-.36,1-.8,1.71-1.37.3-.4.94-.76.22-1.16,1.16-1.14-3-3.34-1-5.38-2.57,0,.93-.5,1.67-.69.36-.47.45-.35,1-.37,1.45-.15.08-.31.16-.45,0a3.3,3.3,0,0,1,.38-1.87c-.64-.88-.2,1.74-.92.35-.21,1.48-.39.94-1,1-.22-.51.06-1,.37-1.44-1.1,1.05-2.74-.07-3.57,2.43-.55.43-.53-.27-.9-.5-.3-.66.31-1.24-.07-1.91A2,2,0,0,0,83,9.36c-.55-.28-.42.42-.93.76-.31-1.15.44-2.52,1-2.45-.23-.34-.11-.64,0-.42C82.32,6,81.26,4.59,80,6.78c-.4-.6.55-1.08,0-1.68-.42,1.16-1.52-.28-2.27-.2-.23.33-.11.69-.36,1,0-.36.16-.69-.09-1.06-.42,0-.14.28-.47.8-.09-.29.16-.55,0-.84-.47-.91-1-.21-.93.77-.11-.29-.22-.35-.34-.24-.11-.29.12-.56.24-.82-1.06-.13-2.68-1.82-3.4-.29-1-1.24-.77.32-1.35-.54-.61,1.61-1,1.31-1.75,2.17.25.58.52.37.78.7-.36.72-.67-.43-1,.12-.11-.29.12-.55.24-.82-.72-.15-1.41-1.07-2.13-1.24-.11-.29.12-.55.25-.83-.34-.12-.67-.45-1,.13-.4,2.28-2.62-1.1-3.76.32a30.26,30.26,0,0,1,4,1.38c-.46.5-.91,0-1.36-.11-.19,1,.59.28.78.7l-.71,1.21c-.21-.37-.08-.71-.32-1.08-1,.47-.95,2.43-2.08,1.52-.09-.75.77-.83,1.05-1.39,0-.5-.29-1-.08-1.48-.23.29-.84,2.84-1.74,1.76a1.26,1.26,0,0,1,.25-1.25c-.46-.78-.92,1.74-1.62,1.13-.46-.6.34-1.1-.19-1.7-.12.13-.07.27,0,.42,0,.58-.61.05-.48,1.23-.2-.19-1-.54-.81.57-.26-.19-.54.31-.79-.28,0-.77.79-1.48.61-2.27a6.41,6.41,0,0,0-1,1c-.31-.45,0-.85-.43-1.3-.69.24-1.36-.12-2-.17-.23-.52.44-.22.59-1-.86-.71-1.1,2.18-1.94.48-.23.18-.48,1.3-.7.79-.28.57.35.1.44.88l-.35.6c-.67-.86-1.36-.08-2-1,0-1.08.92-1.14,1.25-.11.31-.49.62-.84.93-.77C53.45,4,52.59,2.37,52,3.8c-.45-.67.15-1.25-.3-1.92-.46,1.47-1.8,1.24-2.87,1.24-.25-.79.36-.22.47-.8-.48,0-.25-.73-.66-1.32-.62.58-1.21,0-1.83.69C46,.32,46,1.91,44.73,3.21c.5-.08,1-.55,1.48-.09.24-.26.14-.55,0-.84a.56.56,0,0,1,.91.08c.26.39-.36.53-.46.38.14.69,1.24,2.7,1.8,1.42A1.52,1.52,0,0,0,50.84,5c.26.63.12,1.14.56.26,1.15,1.48,2.31,1.88,3.5,1.34,0,1.45,1.24.41.87,1.76.19-.42.57-.34,1-.55-.18-.42-.38-.22-.56-.68.23-.18.46-.18.69-.37a1.32,1.32,0,0,1-.13,1c.29.7.6.23.89.92.22-.26.1-.55.24-.82.25.63.51,1.17.79.28.18.33.36.93.56.68.31.45-.6.79,0,1.26.47-1.6,2.42-.71,2.83.45.4.52.15-.64.47-.81.11-.12.22,0,.34-.19.42.53.12,1,.54,1.52.76-1.28,2.21,0,3.29.48.28-.77.54-.51.82-1-.55-1-.46.73-1,.12.29-.64.21-.46-.08-1.48.75-1.31,1.39-.52,1.58.56-.32.74-.58-1-.91-.08.51.07.72,1.3.3,1.92.72.06,1.42.72,2.14.82-.23,1.14-.12.68.43,1.3-.38.25-.76-.11-1.12-.94-.21.4.28.86,0,1.26.42-.27.82.39,1.24.32.29-.54-.13-1.13-.42-1.72.65-.24,1.27.46,1.94-.47.1-.55-.12-1.14,0-1.68.68-.26,0,1.1.53,1.52.11.41-.19.17-.35.6.64,1.5,2.15.69,2.9,2.35.93-1.27,1.82-.29,2.72-.19.29,1.11-.64.88-.73,2,.68.9.88-1.34,1,.72a3.7,3.7,0,0,0,0-2.1,2.1,2.1,0,0,1,2.37.42c.27-1.61,1-.93,1.6-.71.11.29-.12.55-.24.83s-.37-.39-.55-.68a.67.67,0,0,0-.13.62l-.24.4c.4.57.85-.64,1.23.74-.28.54-.53,0-.8.14-.16,1.12.66.59.89.92-.77,1.71.87.39,1.45,1.18,0-.66.13-1.86.61-1.85-.33,1.05.27,1.09.29,2.34.12-.27.23-.3.34-.18-.19-1.19.57-1,.73-2,.3.19,1.24,1.48,1.92.37.4.6,0,1.13,0,1.69.62.59,1.22.71,1.56,1.4l.47-.8-.43-.88c-.44,1.16-.83-.26-1.24-.32.55-.86,1,.51,1.59-.28-.07,2.57,1.21,1.2,2.1,2.5-.33-.31-.68.27-1-.3-.05,1.06.88.74,1.23.74A13.73,13.73,0,0,1,91.74,20c.62-.27.29,1.13.53,1.52.16-.42.31-.21.45,0,0-1.32.58-1.27,1.13.1-.32-1.42.18-.45.72-1.63.62,1.22-.83,1,0,2.11.22-1.54.64-1.08,1-2,.54,1-.66.94-.49,1.64.55.06.67.06,1-1,.5.95-.39.46-.26,1.25,1,1.57,1.3-.16,2.28-.64.26.52.12,1,.53,1.52.51-.93,1,0,1.48-.5a15.1,15.1,0,0,1,0,1.68c-.16.39-.3.14-.46.38-.37-.46,0-.84,0-1.26-.68.16-.91.89-1.71.48.48.38,1,1.17,1.46.76.37.63-.62,0-.25.83-.52-.45-1-.29-1.57-.56-.1.27.13.58,0,.84-.44.41-.12-.81-.54-1.1-.2.35-.39.36-.57.16-.1,2.62-1.09-.69-1.72.9-.4-.59.12-1.27-.42-1.3-.34.82.07,1.69-.28,2.51.29.65.61-.09.89.49.12-.27-.1-.57-.21-.86.39-.7.76-.1,1.13.1.06.77-.37.33-.48,1.22-.46.11-.9-.28-1.37.3-.4-.59.12-1.27-.42-1.3-.79,3-3.21.61-4.66.66-.06-.57.47-1.09.26-1.67,1.35.43,2.69,1.29,4.05,1.19.22-.74-.49-.8-.68-.06-.33-.75-.8-.59-.31-1.5a3.93,3.93,0,0,1-1.14.32c-.08-.57.34-1.09-.19-1.7-.38,1.18-.49.77-1,.54-.42-.53.12-1-.3-1.5-.79-.43-1.81.3-2.29,1.07,0-.35-.23-.72-.09-1.06.33-.56,0,1.08.45,0-.66-.88-1.36-.2-2-1l-.83,1.41a6.12,6.12,0,0,0-.64-1.75c-.49,1.39.27,1.41.41,2.15-.43.72-.8-1.52-1.24-.32-.52-.89.49-1.65-.17-2.55-.11.2,0,.43.1.64-.88.67-1.74-.08-2.6-.43-.48.87.24,1.85.64,1.74-.42.36-.89,2.34-1.28,1.36-.19-.81.47-.21.36-1s-.46.48-.67-.48c-.27.79,0,1.1-.6,1.42a1.1,1.1,0,0,1,0-1.26c-.61-.91-.59,1.65-1.15.74-.16-.64.64-1.21.16-1.88-.44.45-.32,1-.6,1.42-.15.08-.31.17-.45,0,0-.69.62-.64.49-1.65-.58,0-.43-.61-1-1.56-1-.86-2.18.13-2.95.17.67-1.47-1.8-1-2.57-1.7.07-1.12,1,.25,1.5-.93-.9-1.11-1.75,1-2.37-.42-.12.27.1.57.21.86-.32,1-.6,0-.92.77-.81-2.15-2-.28-2.45-1.9-1.05.88-1.66-.32-2.52,1.06.41.1.13.3.43.88-1.27,1.27-1.59-1.13-1.64-2.88A21.44,21.44,0,0,0,63,18.42c-.49-.29-1-.21-1.46-.76-.15-.53.49-.47.75-.89-.31,0-1.69-1-2-.69-.26-.22-.24-1.36,0-.84,0-1-.45-.05-.68-.06-.12.27.1.57.21.86-.93,0-2.33-2.64-3.6-1.56l-.55-1.1c-.24.4-.45-.34-.69.37-.94-2.32-2-.16-2.91-2.35-1,1-2,.11-3-1.31.63-.62.67-1.08,1.17-1.59-1.13,0-2.3,1.35-2.84,0,0,1.79-.82,2.57-.54,4.6-.56-.28-1.12-.88-1.68-1.19,0,1.88,2.07.85,2,3.11-.24.47-.44-.69-.67-.9-.11,1.31-.93,0-1.38,1.15a2.65,2.65,0,0,0-.42-2.14c0,1-.33,1.22-.83,1.83-.34-.84-1-1.94-1-.71-.4-.59-.17-1.3-.66-1.32-.22-.82.05-.55.36-1-.49-.22-1-.46-1.48.09-.38-.73.44-1.37,0-2.11-.21.31-.39,2-.81,1-.07.49-.37,1,.09,1.48-.65.43-.55.25-.82,1.41-.24.71-.44-1.18-.68-.47-.53.77.27.86.43,1.3-.31.16-.6-.47-.91-.07-.22-.58.49-1.09,0-1.68-.15.9-.81.34-.57-.25-.7,1.59-1.86.73-2.84-.85,0,.49-.33,1-.37,1.45.48.47.26.48.66,1.32.3-.33.07-.7-.1-1.06,1-.25,1.88,1.08,2.82,1.69-.81.69-1.58-1.06-2.39-.39a4.25,4.25,0,0,1,1.23,1.15c-.46.46-.9-.68-1.38.74-.22-.58.2-1.11-.2-1.7-.2.39-.38.16-.58.59-.29-.37,0-.71.13-1-.22-.43-.46.27-.67-.47-.13,1.2-.86.41-.94,1.61-.61-.75,0-1.4-.42-2.14-.47.62-1.51-.25-1.58-1-.72.72-.7-.61-1.37-.11-.26-.79.36-.22.47-.81-.63-.95-1.29-.07-1.93-.78A4.56,4.56,0,0,0,28,12.67c-.38-.24-1.11.11-1.16,1.18-.5-.46.29-.82-.21-1.28-.34-.28-.69.48-1-.29-.44.52-.15,1-.58,1-.37-.73.55-1.36.49-2.07.27-.61.51,1.42.79.27-.1-1-1-.93-1.48-.32-.41-.46-.12-.85-.44-1.29-.58.69-1.76,1.46-1.95.48-.2-.23-.21.34-.12.62-.42.12-.84.37-1.25-.73-.28.78-.54.22-.81,1,.5-.66,1,1.52,1.48.32.33,1.08-.16,1.46.66,2.16-.67,1.38-.85-.17-1-.29-.46,1,.45.79.43,1.72.24-.65.46-.64.68.06.31-.78.57-.22.59-1-.37-.5-.69,0-.56-1.09.27-.36.52.92.79.27.19.83-.32,1.07.32,1.5-.22-1.46.51.08.91.07.05.2,0,1-.19,1.1.36.29,1,1.29,1.42.89.41,1.84,1.13.7,1.45,2.43.59-.34.52-1.25,1.16-1.17.12.36-.2.69-.35,1,.47,1.38,1,.6,1.46,1.17.18-.54.07-.77-.22-.86.33-1,.81.06.81-1,0,.2.14,1.35.44.88.22.82-.05.55-.36,1,.6.8,1.22-.18,1.8,1.4.24-2.21.83,1.08,1.38-.74-.13,1.31.48.56.55,1.52-.42.13-.84.37-1.24-.72-.39,1.73-1.45.23-2.15-.8a3,3,0,0,1-.6,1.86c1.12-1.93,3.22,3.22,4.33-.51.72.26,1.44,0,2.15.8.18-.54.08-.77-.21-.86l.7-1.21c.23-.12.45.09.67.47-.35.65-.68-.11-1,1,.33.59.67.54,1,1.13l.47-.81a.76.76,0,0,1,.56.25c.22.51-.06,1-.37,1.45.84.44.48-2,1.39-1.16a1.36,1.36,0,0,0-.1-1.06c.24-.35.47-.53.69-.37-.47,1.81,1.28,2.45,1.87,3.31-.67.46-2.32-.94-2.28.66-.68,0-1.35-.8-2-.58-.09,1.2.82.42,1.12.93-.55.53-.54.06-.93,1.19-.25-1.85-.66-.26-.87-2.17a2.48,2.48,0,0,0-.15,2.3c-.44.35-.44-1-.66-1.31-.27.48-.53.22-.81,1-.41-.45-.12-.85-.43-1.3-.52,1-.29,0-.79-.27-.54.61-1.06,0-1.6.72-.46-.52.08-1-.09-1.48.56-.31,1.57.77,1.49-.94-.3-.15-.62.62-.92.78a2.12,2.12,0,0,0-.21-.86c-.51.89-.61,1-1,.13-.66.72.05,1.55-.6,2.27-.12.12-.23,0-.35.19-.4-.59,0-1.13,0-1.69-.29-1-.61-.13-.9-.91-.24.26-.13.55,0,.84-.69.46-1.34-1.57-2.05.26-1.23-.82-2.18,0-3.16-1.51-.39,1-.76.21-1.14.34-.15,1,0,1.24-.37,1.87a6.66,6.66,0,0,1,.89,1.76,5.14,5.14,0,0,1,.48-1.65c.5-.25,1,.53,1.49-.52.28.8-.5,1.51-.6,2.28.27.57,1.13-.11,1,1.13.75.39,1.53-1.08,2.26.6-.46.62-.91.19-1.37.74.3.21.61,0,.9.92.13-.88.24-.87.45,0,.89-1.44,1.73.9,2.61.41.45.46-.07.84-.24,1.25.29.78.6,0,.9.49a6,6,0,0,0-.76-2.38,3.61,3.61,0,0,1,.13-1c.27-.06.53.18.79.27.12.43-.27.82.21,1.28.29-.33.23-.68.36-1,.15-.16.3.3.45,0,.27.92-.25.48-.25,1.25-.35.53-.67-.79-1,.13,3.5,1.19,7,1.38,10.5,3.13.26-1.72,1.38-.73,1.58.55.25-.9-.1-1.84.16-2.73.66-.38.57,1.31,1.24.73.11.29-.12.55-.24.82.56.29,1.15-.65,1.7-.07-.71,2.23,1.33,1.37,2.21,3.13.46-.38,0-.85-.2-1.28.91.16.5.36,1.34,1,.14-.34-.29-.73-.09-1.06.23-.13.45.09.67.48a2.33,2.33,0,0,1,.48-1.23c.51-.63.33,1.13.91.07a1.26,1.26,0,0,1-.25,1.25c1.35.74,1.12,1.35,2.82.86a1.33,1.33,0,0,1-.13,1c1.08-1.15,2.11.14,3.18-.58a1.56,1.56,0,0,1,0,.85c.41.08.84-.57,1.27-1.37a.87.87,0,0,1,0,1.26c1.37-.39,2.68,2.07,4.08-.09.42.53-.11,1,.31,1.5-.23.39-.45-.34-.69.36,1.07-.26,2.42-1.41,3.74-.32.19-.91-.88-.72-.19-1.7.58.92,1,1.68,1.55,1.4.36-1.31-.47-.14-.78-.7.43-.9.84-.32,1.26-.53a9.85,9.85,0,0,1-.27,2.09c1.15-.22,2-1.71,3.3-.77.09.29-.16.55,0,.84s.37.22.55.68c.43-.77.21-.82.71-1.21a2.62,2.62,0,0,0,.42,1.3c.57-.4,1.13-.09,1.7-.06.25.56-.37.71-.46.38.41,1.33,1.39-.11,1.73-1.33.57.61,0,1.13-.26,1.67.79.07,1.62-1.61,2.4-.85.22.3-.22,1-.4.63a1.23,1.23,0,0,0,1,1.11c-.17.05-.68.23-.24.82-.23.22-.44-.52-.69.36.36.81.75,0,1.12.52-.13-.58.19-1.61.59-1,.13-.39-.18-.2-.32-.66a2.79,2.79,0,0,0,1.39-1.57c.53.61-.27,1.1.19,1.71.35-.65.92-.61.94-1.61,1,.34,2,1,2.7.66,0-.49-.1-1,.37-1.45.34,1.24-.32,1.82.63,2.16-.32.83-.61.21-.91.34,0,1.09,1.05-.09,1.46.34,0-.35-.13-.71.14-1,.35.47.61.18.87,1.34.44-.46.16-1,.6-1.43.34-.11.62,1.91,1.24.32.31.45,0,.84.42,1.3-.28.54-.53.29-.8.14,1.65,2.24,4.36.43,6.42,1.18A3.4,3.4,0,0,1,94.39,47c.41.3.84-.35,1.24.32a2,2,0,0,0,.15-1.46c1,0,2.8,2.21,3.86-.5.31,1-.4.71-.37,1.44a3.71,3.71,0,0,1,1.46.34c.12-.34,0-.7.14-1,.75-.35,1.95,2.18,2.36.42.26.52.11,1,.53,1.52.35-.22.71-1.19,1-.12.57-2.16,1.93.67,2.85-.8-.1.41.4.88.19,1.28.58-.41,1.16-1.14,1.69.36.24-.54.47-.73.7-.78a2.13,2.13,0,0,0,.2.86c.12-.66.73-.61.45,0,.37-.58,1-.38,1.58.14-.12-.92.18-1,.59-1,.11.29-.13.55-.25.82.56.38,1.13,0,1.69.36-.46,1-.58-.26-.82,1,.33.24.66.6,1,.3.11.36-.21.69-.37,1-.41,0-.79-1.46-1.24-.32.5-.23.25,1.45.76,1.12.12,1-.31,1-.71,1.21-.19-.51.1-1,.15-1.47-.43-.61-.6.44-.81,1-.38,0-.76.29-1.12-.52.83.27.65-1.29,1.27-.94.23-.75-.71-.43,0-1.26.45-.64-.12,1.3.32.66.61-.85.08-.49-.19-1.29.15-.08.31-.17.45,0-.47-.82-2,.29-2.82-.46.21,1.24-.43.21-.48,1.22a2,2,0,0,0,1.6-.7c.21,2.83-1.62,1.79-2.21,2.54-.81-1.13,0-2.11-.49-3.21-.07,1.39-.74-.44-1.15.75.35-.18,1.34.38,1,1.56-.6-1.44-.6.69-1.46-.34-.44-.67.15-1.25-.29-1.93l-.59,1c.16.3.33.59.21.86-1.08,1-2.12.46-3.19,1,.31,1,.67.3,1,.72-.65.66-1.79,1.12-2-.6.3.18.6,0,.92-.76.15-.79-.54-.31-.31-1.09-.71.16-1.35,1.79-1.81-.16-.28.84-.53.29-.8.14,0,.35-.26.68-.14,1-.81-.79-2.27.59-2.69-1.08a13.14,13.14,0,0,0-1.48.5,3.69,3.69,0,0,1,.14-1c-.42-.47-.31.78-.59,1a2.41,2.41,0,0,1,0-2.11c-.51-.41-1.15,0-1.32-1.38-.17.83.25,1.71-.28,2.51.69.69.3-1.82,1.14-.75a1.52,1.52,0,0,1-.49,1.65c-.88.32-1.69-1.8-2.57-1.27-.3-1.19.39-.66.71-1.21-.36-.64-.75,0-1.14.32a2.15,2.15,0,0,0,.21.86c-.3.22-.4-.52-.46.38-.62-.91-1.31,1.25-1.9-.8-.09,1-1,1-1.13-.09-.41,1.78-1.47,1.61-2.17.87-.22.26-.1.55-.25.82-.57-.76-1.24-.18-1.21-1.58l-.82,1.41c-.75-.77.26-1.39-.18-2.13-.51.83-1,.61-1.47.08-.08.69-.57,1.36-.72,2-.29-.87.58-1.64.06-2.53,0,2.05-1.49,1.82-2.17.87-.59.36-.54,1.64-1.16,1.17,0-.74.49-1.58-.2-1.28a2.7,2.7,0,0,1,.61-1.85c-.07-.22-.15-.13-.23,0l-.22-.44c-.37.53-.12,1.11-.49,1.65-.59.58-.48-1.11-1.09-1.78-.43.79-.82-.43-1.25.1.43,1.23.88,1,1.35.54a3.31,3.31,0,0,0,.53,1.53c-.48-.26-.44.7-1-.3-.51.38.26.87-.25,1.24-.47-1.08-1.53-.91-2.35-1.26-.15.54.65.73.89.5.12,1.66-1,1.35-1.49.93-.32-1,.79,0,.47-.8-.55-1.13-.46.71-1,.12.7-2-1.73.15-2.45-1.9-.28.85-1.13,1.27-1.74,2.17.1-1.85-1.76-.37-2,.25-.17-.29-.33-.59-.21-.86-.19.64-.65-.14-1.15.75-.33-1.57-.78-.08-1.59.29-.16-.5.14-1-.31-1.5-1.43,1-2.16,0-3.63.54-.16-.56.14-1-.32-1.08-.05,1.69-.79.64-1.12-.51.21,1.3-.54,2.16-1.16,1.59-.18-1.07.71.05.59-1-.18-.42-.37-.22-.55-.68-.18.53.1,1.06-.36,1-.13-.36.31-.68.13-1-.71-.61-1,0-.92.77-.57.32,0-1.33-.54-1.1a1.47,1.47,0,0,1-.94,1.61C54,46.8,53.87,48,53.45,47c0,.91-.59.78-.91.34,0-.5.24-.23.13-1-.2,1.31-1.94-.29-1.73,1.75-.4-.63-.85,1.22-1.25.53-.31-1,.38-.62.71-1.63-.41-.37-.83.05-1.24-.31-.23,2.64-1.75,1.26-2.18,1.72,0-.79.6-1.07.82-1.41a.73.73,0,0,1,0,.84c.49.52.36-.6.92-.77-.75-.33-.94-.06-1.55-1.81-.47.45,0,1-.14,1.46-.65-1.59-3.31-.17-4.29-.77-.15.13-.95.75-.59,1.42-.6.89-1.1-1-1.14.75-.33-.59.05-1.12,0-1.69.19-.2.37.39.55.68.37-.81-.25-1.36.48-1.65-.58-.07-.67.53-1.38,1.15a2.19,2.19,0,0,0-.21-.86c-.38.7.23.54.09,1.48-.35.37-.67-.42-1,.55a12.09,12.09,0,0,0,5.17,1.68c.5.46-.3.82.2,1.28.43,0,.31-.48.58-1,.44.88-.3,1.66-.72,2.47-1-.14-2-2.13-3.26-.9-.34,0-.66-.87-1-.72.3,1,.21.83-.46.39-.4.39,0,.84-.25,1.25-.83-1.68-1-.46-1.8-.56-.31-.45,0-.84-.43-1.3,0,.92-.33,1.51-.81,1-.31-.45.59-.8,0-1.26-.16.43-.31.21-.45,0A2.14,2.14,0,0,1,36,51a5.39,5.39,0,0,1-2.23-1.86c-.22,1.78-.74-.49-1.25.54-.22-.81.43-.23.58-1-.42,0-.83.19-1.24-.31-.23.17-.47,1.3-.69.79.13,1.12,0,1-.59,1.85.87-.18,1.21,1.19,1.92.36.41,1-.29.73.09,1.48A2.11,2.11,0,0,0,32.91,51c.27-.29.53,0,.8-.57,0,1.39.74.75,1.12.5.28.93-.49.76-.59,1.85.43.21.45-.16.69-.79.14.35.46,1.21,1.11,1.35a3.65,3.65,0,0,1,.7-1.63c.13.71,0,1.4.42,2.14.31-.6.6.11.9.07-.13.49.14,1,.09,1.48a5.42,5.42,0,0,1,3.6.71c.7-1.29,1.35.63,2-.26,1.15,2.28,2.92-1.06,3.7,1.78.24-.76.46-.21.69-.79.29.83.58.89.88,1.34-.47.48-.83-.41-1,1,.21-1.12-.27-.55-.66-.9-.29.87.14.67.43.87-.55,1-1.06.35-1.58.29-.2-.44.52-.65.68-.36C46.72,58,45.54,59,45,58.69c.25.83.53-.13.78.7-1-.35-1.44.66-2.39.86-.33-.52.76-.92.14-1.46l-.47.81c-1-.94-2.15-.31-2.83.4.67-1.13-.41-.86-1-1.13-.07.54-.36,1,.1,1.06-.8,1.54-.89-.91-1.58.3a3.33,3.33,0,0,1-.08-1.9c-.31-.34-.82,1-.81,1.41-.47.48-1.33-1.48-1.47.1-.2,0-1-.66-.77-1.11-.45,1-1.69,1.13-2.71.21.6-.43.53-.25,1-1.4-.37-.51-.74-.85-1.11-1.35-.33.23.33,1.52-.13,1-.22,1.08.51,0,.68.05.08,1.39-1.25,2.23-1.82.7-.75-.15-1.54,2.55-2.27,1.09l-.46.8c-.38-.45,0-.84,0-1.26-.45-.38-.92,1.25-1.36.32-.22-.82.44-.52.58-1-1.27.47-2.46,1.23-3.27-.46-.38,0-.75-.17-1.14.76a.88.88,0,0,1,.1,1.06c-.44-1.07-1.68.22-2.47-1,.27-.53.54-1,.8-.57-.22-.74-1.42-.85-2-1-.53,1,.39,0,.55,1.1-.39.67-.75,0-1.14.76a1.33,1.33,0,0,1-.13,1c.29.62.41.11.44.88a.66.66,0,0,0-.45.39c-.56-1.64-.73-1.22-1.44-2,.39-1,.74.66,1.13-.35-.25-.81-.52-.29-.78-1.1.23.86-.82,1.47-1.25,1.39-.11-.29.12-.55.23-.82-.29-1-.6-.12-.89-.9-.19.41.3.86.21,1.28-.79.69-1.57-.43-2.36,0,0,1.11.57-.14.9.49.07.21,0,.42.11.64-.57-.45-.73.35-1.36.75,0,1.2.57.85.79-.16.52.59-.51,1.25.21,1.28-.35.63-1.13.8-.58,1.85.33,0,.45-.47.12-1,.15-.2.3.23.45.45.43-.46.3-1,.57-1.44.67.08,1.34.49,2-.28.8,2.19,1.65.35,2.46,1-.07,1.68-1.27.52-1.37,2,1.25-.59,2,1,3.38-.59.33,1,.54,1.76,1.12.51a2.16,2.16,0,0,1-.37,2.29c.18.6.38-.07.56.25-.21-.72.52-1.37,0-2.11.77,1.15,1.58-.36,2.37,0-1,.82-1.71,1.68-1.94,1.75.32,1.56,1.66-.51,2.38-.87,0,1.1.82.85,1.23.73.1-.28-.14-.57,0-.84s.23,0,.34-.19c0,.35-.15.69.1,1.06.94.1,1.89-.7,2.83-.83.07.21,0,.42.11.63-1,.37-1.34,1.08-2.27,1.51.77,1,1.57.23,2.35.81.27-.75-.34-.27-.44-.87.2-.52.38-.39.57-.59.51.66.13,1.7.65,1.74.22-.34.11-.7.35-1-.11-.21-.23.07-.34.18-.25-.51-.17-2.17-.44-.88-.65-1.19.15-1.64.58-1.43-.57.61.64.79.2,1.7.29.41.62-1.06.91-.77A1.12,1.12,0,0,1,31,67.5c-.29.54.26,1.14,0,1.68.4.57.83-.37,1.23.31,0,.93-.46.62-.7,1.63.39,1.24.83-.36,1.23.73.21-.75-.5-.4-.65-1.32.34.05.67-.08,1,.29-.49-.9-.22-1.37-.08-2.33.11-.12.22,0,.34-.19.5.46-.29.82.21,1.28.51-1.34,3.13-.13,2.9,1.49.31-.75.69-.32.69-1.22.58.68.18,1.28.53,1.94-.56-.26-1.13.56-1.69.08a1.77,1.77,0,0,0,2.35.81c.21.44-.18.83.2,1.28.49-.61,1-1.3,1.69-.08.08-1.08.55-.9.26-2.09.32.93.76-.4,1.34.53-.31-1.56.93-.56.93-1.61.81.7-.49,1.22.08,1.91.35-.83.69-.85,1-.55a8.75,8.75,0,0,1-.14,1.46c-1.17.46-2.28-.43-3.16.59.25.83.53-.43.78.69,1.5-2.29,2.9,1.57,4.4-.27,1.39,2.23,4,.19,4.69,2.5a8.34,8.34,0,0,1,1.34.53c.26-1.59,1-.37,1.59-.71,0,.36-.16.69.09,1.06.06-1.1.86-1.07.79-.14,1.26-1.17,2.46.77,3.71.09-.35-.63.29-1,.47-1.23.2.51-.48.94-.37,1.45,1,1.12,2.11-.15,3.16-.16-.05,1.58,1.21,1.77,1.45.75.21.79.44.29.66.9.6-2.28,2.85,1.19,4.18-.7,1,2.42,2.85-1.27,3.58,1.15-.33-.26-.68,0-1,.12.23,1.18,1.39-.37,2.25.2.35.23,1.61,1.62,1.68.35.24-.47.44.69.66.9.81-.77,1.58,0,2.39-.85.92.89,2.91.8,4.37,1,37.85,8,75.94,6.89,114.08,5.69.32.52,0,1-.16,1.47-2.82-1.55-5.75,1-8.57-.38-.23.86-.37.74-.82,1-.11-.41.19-.17.36-.6-.44-.53-.93,1-1.35-.13-.35.53,0,1.13-.27,1.67-1.18-2.1-3.12-1.51-4.73-.44-1.27-.38-2.53-1.06-3.84.06a.71.71,0,0,1-.1-.64c-2,1.16-4.8-.49-6.13,1.12-.3-.59,0-.78-.43-.88-.12.27.1.57.2.86-2.52-1.47-4.6,1.13-7.21-.67-.26,1.38-1.52,0-2.15,0-1,0-1.8,1.35-2.26.21a1.6,1.6,0,0,1-2.7-.25c-.51.37.25.86-.26,1.24-.12.48-.7-.72-.43-.88-.63,1.08-1.21.06-1.83.68a.73.73,0,0,1,0-.84c-.82,1.08-1.59.28-2.39.84-.05-1.59-.06-.17-.65-.9,0,.55-.3,1-.59,1a2.41,2.41,0,0,0-.31-1.08c-.56,1.57-1.63-.65-2.73,1a1.34,1.34,0,0,1-.09-1.06c-1.33.43-4.41-.16-4.76.83-.68.2-1.32-1.24-2,.24-.61-1-1.72-1.67-2-.61-4.23-1-8.12,0-12.5-.93-.22.26-.1.55-.25.82-.33-.63-.46-.41-1-1.14-2.37,1.24-5.6-1.39-8.36.52-.21-.37-.08-.71-.31-1.08-1.06.16-2.12.68-3.16.14,0,.61.26,2.44-.75,2.89-.29-.86,0-1.34-.63-1.74-.15-.67.62-1.46.8-.57.43-1-.73-1.51-.66-.48-1.39-1.69-2.87.54-4.26-1.22-.34,1.44-1.29.91-1.91-.38-.24.26-.14.55,0,.84-1.26-.79-2.55-.33-3.81-1.18-.12.34,0,.7-.14,1-1.82-.84-4.37.49-5.71-1.56-.11.2,0,.42.1.64-2-.52-4.06.06-6.05-1.36-1.45.85-3.82-.21-5.63-.49-.44.45.07,1-.37,1.44-.15.08-.31.17-.45,0,.47-2.29-1.37-1.18-2-1.86-.23,1.13.5.25.66.91.18.91-.52.61-.69.78-.7-2.78-2.24-1.2-3.33-2.4-.44.45.07,1-.37,1.44-.15.17-.29-.3-.45,0-.11-.36.2-.69.36-1-.32-.58-.66-.59-1,.12,0,.42.36.88,0,1.26.22.44.46-.27.67.48-.39.83-.74-.37-1.14.75-.35-1.27-.74-.7-1.11-.94-.08-1.05.74.29,1-.54-.7-1.46.32-.52.59-1-1.06-1.6-1,.14-2-1-.2.41.29.87.2,1.28-.12.19-.22-.12-.33-.24-.18.54-.08.77.21.86-.59,1.14-1.14.64-1.73,1.75-.34-.46-.53-.5-.42-1.3-.49,0-1,1.68-1.49.92-.25-.44.37-.81.48-1.22-.36-.61-.69.43-.58,1-.35.62-.66-.92-1-.3-.12-.43.27-.82-.2-1.28-.54,1.57-2.27,1.82-2.26.23-.49.09-1-.69-1.47.52-.58-1.74-1.52.18-1.77-1.41-.63,2.48-2.05-1.5-3,.38-.92-.63-1.87,0-2.8-.87-.3-.62.57,0,0-.84-1.54,1.86-3-1-4.5,0,.18.42.37.22.55.68.09.29-.16.55,0,.85-.67-.25-1.32-1.32-2-1.43-.13.52.18.43.32.66.19.78-.5-.21-.69.79,0-.56-.14-.79-.43-.88-.62,2.35-1.77-1-2.71.62a1.32,1.32,0,0,1,0-1.69c-.28-.78-.6,0-.89-.49-.12.34.18.72.32,1.08-.32.87-.61.61-.92.77a1.27,1.27,0,0,1,.25-1.25c-.8.75-1.57,0-2.36,0-.12-.43.27-.82-.2-1.28-.48,2.15-2.86.46-3.62,1.39-.24-1.06-1.14-.85-.42-1.72-.48-.26-.53.31-.58,1-.47.11-.56-2.06-1.22-1.15.21.74.45,0,.66.47a.68.68,0,0,0-.12.63c-1.12-.16-2.22-1.45-3.37.16A3.89,3.89,0,0,0,34.82,80c-.35.61.1,1.27.31,1.92-.62,1.68-1.18-1.11-1.8.29-.68-.83.3-1.53-.08-2.32-.42.73-.21,1.52-.37,2.29-.44.73-.43-.84-.67-.47-.11-.36.2-.68.35-1-.39-.32-1,.25-.8,1C31,80.21,31,81.5,30.45,79.9c-.74.78-.81.45-1.57-.12-.1.55.3,1.15-.25,1.67l.55,1.1c.41.06.21-1.09.67.05.24-.26.13-.55,0-.84.69.12,2.86-.2,2.44,1.87.22.51.46-.62.68-.79a1.49,1.49,0,0,1-.36,1.87c.23.28,1.37.25.91-.77.49-.29,1,.68,1.46-.52.2.51-.48.95-.36,1.45.38.88,1.55-.67,1.22,1.15.28.52.41-.62.24-.83a1.25,1.25,0,0,1,1.22.73c.11-.34,0-.71.13-1s.52.2.79-.15a3.68,3.68,0,0,1-.13,1,2.56,2.56,0,0,1,2.92-.2c.25.62-.35,0-.46.81.32.62.68-.29,1,.71.74-1.12.71,1.87,1.45.75-.22-.22-.45-.25-.67-.47.32-1.09.59.31.91-.77.29.38,0,.71-.13,1,.19.1.38-.24.56.26.21-1.43,2.13-.43,3,0a1,1,0,0,1,0,.3,7.11,7.11,0,0,1,3.9.66c.11.36-.2.69-.35,1,.46,1.1.84-.34.8-1,.67-.19,0,1.24.64,1.74.63-.44-.43-1-.08-1.49.93.15,1.89-1.07,2.8.45.36-1.46.77-.74,1.37-1.15.4.45.12.85.42,1.3.73-.85,1.44-.56,2.15-.46.15.81-.6.48-.8.56.46.9,1.31.36,1.92-.47.42.53-.11,1,.31,1.5-.32.67-.8.08-.81,1,1.42.19,2.36-.31,3.63-1.38.62.68-.42,1.23.07,1.9,1.2,0,2.4-.19,3.57,1.14.62-1.33,1-.15,1.35.12.23-.41-.14-.86.25-1.25.85,1.47,2.92-.65,3,1.31,1.4-.12,3.34,1.3,4.39.17.69,1.25,1.43,0,2.1,1.66.51-1.16,1-.05,1.49-1.35.4.46.11.86.42,1.31,2.62.26,5.26,0,7.85,1.52.06-.44.26-.82.1-1,2.09.9,4.19,1.6,6.32.91.54-.49,1,1.1,1.55,1,.1-.27-.14-.58,0-.84.66.49,1.51,1.09,2.47.22l.64,1.32c2.31-.94,4.59,0,6.86.82.07-.21,0-.42.13-.62,4,1.24,8,.61,11.91,1.48.63-1.27,3.34.14,5.07.24.94.06,1.68-.7,2.35.42l.47-.8c.43,1.59,1.47-.46,2.23,1,1.92-1.35,4.62.65,6.89-.43l.43.88c2.93-1.28,5.77.72,8.7-.68,1.24,1.4,2.57-.6,3.81.77.78-1.18,1.49.36,2.27-.64,2.08,1,4.2.65,6.31.15,4.65.7,9.35-.65,14,0l.47-.8c.2-.2.2.37.09.64,2.49-.59,4.28-.39,6.8-1.06l.43.88c.47-.1.21-1.53.92-.76.11.42-.19.17-.35.6.3.28.8.1.8-.55,18.33.5,36.15-3.27,54.44-4.38l.36-.6c2.47.67,5-1.4,7.46-.14.44-.25.84-1.66.91-.33a1.26,1.26,0,0,1,2-.23l.47-.8c.86.1,1.72.43,2.61-.39,4.15,1.1,8.41-1.62,12.52.57l.48-.8a1.24,1.24,0,0,0,2.27-.21c.21.37.08.71.31,1.09.33-1.57.69-.58,1-.11,1.1-1.29,2.42-.93,3.87-.9a1.36,1.36,0,0,1,.08,1.07c.34.21.41-1.49,1-.53.11-.2,0-.43-.09-.64.35-.37.66.43,1-.53a.72.72,0,0,1,0,.84,2.39,2.39,0,0,1,1.84-1.09c.29,1.09-.39.55-.71,1.2a35.28,35.28,0,0,1,4.13-2.14l.53,1.11c-.13,1,.33-.5-.2-.86.64-1,1.21-.77,2.08-1.49.14.92.95.59.41,1.31.38.34.4-1.23,1.13.11.54-.84-.27-.68-.43-.88.82-1.08,1.58,0,2.41-1.24.1.29-.13.55-.25.82.22.26.47-.44.66.49-.19-1.18.41-.45.83-1.4,1.93,1.66,4.2-2.69,5.88-.28.4-1.89,1.6-1.52,2.32-1.89,0,1.34-1,.33-1.39,1.13.18.42.37.22.54.68-.66.54-1.34,1.76-2,2.13.09-2.19-1.69-.06-2,.22,1.29,1.09,3.44.41,4.68-1.45.11.36-.21.68-.37,1,.7-.25,2.15-.22,2.21-2.11.44-.39.27.84.53,1.11,1.31-1.31,2.13-1.29,3.59-2.82,1.73.06,3.46.07,5.26-2,1,.33,2.65-.63,3.34-2,2.19.92,6-4.36,8.86-1.25-.67-2.69,1.71-1.46,1.59-3.86.6.22,1.28-2.24,1.83-.66,2.45-2.31,4.82-2.44,7.13-.36a3.33,3.33,0,0,0,.52-2.06c.38-.24.75.12,1.1,1,.37-1,.69-.49,1-.53.17-1.15.49-1,.74-2-.21-.57-.46.33-.68-.06,1.52-1.44,4-1.39,5.74.77.25-1.54.9-1.87,1.63-1.53a12.57,12.57,0,0,1,5.16-5.84l.64,1.33c-.17-1.37,1-1,1.52-1.75a1.55,1.55,0,0,1,0,.84c1.64-.56,3.17-.85,4.5-2.73,1.72-.42,4-1,5.43-3.48,1.16.24,3.34-2.21,4.29-3.17a21.73,21.73,0,0,0,4.24-5.07c-.43,0-.42-.75-.64-1.33.32-.64.61-.11.93-.75-.55-.43-.8.36-1.11-.53-.58,1.45-1.5-.64-1.73.89-.28.41-.5-.86-.75-1.13a5.93,5.93,0,0,1-2.16.42,19.82,19.82,0,0,0,1.9-2.77c-2.69.49-6.36.77-9.5,3.5-.31.24-.6-.06-.89-.51a3.75,3.75,0,0,0,.08,1.06c-.34,0-.69.31-1,.53-.46-1.94-1.81,1.14-2.45,2.5-.31-.73.18-1.39.52-2.06-.32.24-.79-.36-.76-1.13.58-.89.67-.09,1.06-1.37-.24-.65-.57,1.33-.79.14-.43.38-.16.83-.49,1.22-.15.08-.31.16-.45,0,0-.7.52-1.36.52-2.06.12-.12.22,0,.34-.18-.28,1.28.7.32,1.13.11.21.37.08.71.31,1.08,1-.61,1.23-2.78,2.14-3.17.07.79-.79,1.47-1.09,2.21A1.08,1.08,0,0,0,346,47.66c1.07.76,2.22-1,3.34-2-.65-.69-1.39.94-2.08,1.48.44-2,1.81-2.59,2.53-1.44.9-1.09,1.8-2,2.64-1.22,2.77-2.76,5.41-1.83,8.16-4.06-.57-1-1.2-.33-1.75-1.86-.65.39-1.29.3-1.9-.82-.22.26-.1.55-.25.82-.44-1.44-1-.13-1.44-.78-.22-.52.07-1,.38-1.44-.57-.88-1.21.11-1.8-.18-.45-.54.25-1-.06-1.49-.87-.67-1.38.91-2.42,1.24-.27-1.17.92-2,1.33-2.61-.19,0-.37-.29-.55-.69-.11.2,0,.42.1.64-.46.51-.71-.4-.93.75-.2-.37-.08-.72-.3-1.09a2,2,0,0,1-2.27.2,1.83,1.83,0,0,0-.05,1.68c-.24.54-.48.73-.7.78a17.17,17.17,0,0,1-.37-2.57c.92-.22,2.31-1.81,2.6-3.54,1.41-.42,2.82-1,4.19-.22-.32-1.7.71-1.1,1.28-.93.14.9-.59-.08-.81.55.57,1,1.23-.85,1.84-1.09.42.59-.28,1,.3,1.09.16-1.43,1.72-1.41,2.52-1,.7-1.3,1.47-.66,2.41-1.24.11-1.43-.81-.34-1.11-.53.79-.82,2.74-2.34,4.1-.86,1-1.71,4.21.13,4.53-3.57.82.53,1.17-1.33,1.83-.66,0,.73-.46.48-.39,1.44a8.83,8.83,0,0,0,3.84-6.38C374.36,15.4,373.61,14.71,373.83,13.65ZM48.36,3.51c-.51-.26-.41.34-1.14-.09.17-.65.38-1.16.71-1.21-.22.9.46.44.35-.18A2.07,2.07,0,0,1,48.36,3.51Zm6.47,1.16c.42.11,1.44-.29,1.46.75A1.42,1.42,0,0,1,54.83,4.67ZM58,6.62c-.23-.35-1-.51-.88-1.34C57.34,4.94,58.13,5.88,58,6.62Zm6.87,3.3c.43-.69.87-1.78,1.27-.95C65.69,9.67,65.26,10.25,64.85,9.92ZM66.93,8c-.16-1.07-.45-.63-.88-1.34.78-.15,1.43-2.41,1.83-.69C67.23,6.24,67.26,7.13,66.93,8Zm1.19-2.43c.47.6.24,1.14.65,1.74-.31.49-.61.3-.92.34C68.08,7,67.82,6.23,68.12,5.55Zm0,4.85c.18-.42.89-.38.71-1.21s-1,.21-.89-.92c.42,0,.84-.25,1.23.74a.89.89,0,0,0,.09,1.06C68.88,10.59,68.5,10.69,68.13,10.41Zm.74-2.89c.3-1.1,1.11.37,1,.72Q69.37,8.32,68.87,7.52Zm5,3.17c-.48-.23-.48-1.47-1.12-.52-.06.72.66.57.31,1.5-.45,0-.71-.42-.88-1.34.63-1.14,1.85-1.57,2-.25C74,9.8,74.14,10.39,73.91,10.69ZM77.3,6.55c-.58.33-1.13-.23-1.7-.36C76.17,5.78,76.75,5.6,77.3,6.55Zm-1.58,4.72c-.22-.09-.45-.33-.66-.9q.47-.72.91.08A2,2,0,0,0,75.71,11.27Zm.88,1.34c.32-.69.6.31.9.5C77.16,14.18,76.88,13.18,76.59,12.61ZM80,14.16c0-.25.3-1.46.59-1C80.5,13.71,80.44,14.78,80,14.16Zm-1.16-4.1c.17-.91.78-.46,1.06-1.81.62.55-.47.95-.15,1.47s.62-.82.91.08C80,10.72,79.4,10.24,78.81,10.06Zm3.79,2.85c-.52-.8-.26-2.24.17-2.3A3,3,0,0,1,82.6,12.91Zm1.83,4.17c-.14-.27-.3,0-.44-.46l.59-1C84.9,16.13,84.61,16.6,84.43,17.08Zm-.23-4.87c-.15-1.34-.55-.29-1-1.14.51-.75,1,.31,1.49-.51.18.4.36.64.55.68C84.69,11.7,84.59,10.83,84.21,12.21Zm2.68,1.92c-.18-.23-.38-.13-.55-.68.51-.26.32-1,.81-.56C86.91,13.28,87.28,13.73,86.88,14.12Zm.93-1.18c-.69-1.52-2,.31-2.35-1.26C86.13,11.83,88,10.67,87.82,12.94Zm3.16.69c.14-.34,0-.7.14-1,.24.83.53-.13.78.7C91.58,13.68,91.27,13.93,91,13.63Zm5,1.69.71-1.2c.31,1.24.69-.31,1,.72A1.69,1.69,0,0,1,95.93,15.32Zm-70.2-1.57c.12-.34.07-.7.36-1,.18.46.38.26.56.68C26.33,14,26,14.54,25.73,13.76Zm3,.65c-.17-1.48-.46.08-.91-.49C27.72,12.54,29.45,13.25,28.69,14.4Zm2.93,2.33c-.36-.61.06-1.49-.55-1.52.81-1.45.9,1.15,1.58,1.38C32.29,17.53,32,15.58,31.62,16.74Zm3.82,3.67c0-1.09-.45-.43-.69.37-.39-1.23.77-2.64,1.28-1.8C36,19.77,35.69,20.32,35.43,20.4Zm-5.65,4.84c.19,1.22.35.29.78.69-.19.34.24.72.1,1.06-.55-.16-.39-.93-.91-.07l-.33-.66C29.55,25.93,29.49,25.57,29.78,25.24Zm-1.47-.32c.31.23,1-.32.67.89C28.82,25.17,28.08,26,28.31,24.92Zm.61,4.68c.75.19,1.52-.4,2.27.17A1.27,1.27,0,0,1,28.92,29.6Zm1.84-1.54c.4-1,.77-.7,1.13.09C31.52,28.23,31.13,29,30.76,28.06Zm4.2.53-.33-.66c.28-.84.54-.3.8-.15ZM51.44,15.36c.23,0,.67.95.31,1.5C51.46,16.35,51.2,15.83,51.44,15.36ZM48,11.07c-.21.4.28.87,0,1.26C47.43,12.55,47.46,10.68,48,11.07Zm-1.3,15.29c-.19,1-.4,1.62-1,1C46.41,27.43,45.94,26.13,46.69,26.36Zm-.85-9.56c.57,0,0,.89.54,1.52l-.59,1c-.12-.51-.8-.32-.55-1.1.27-.21.52.33.79.28C46.2,18,45.32,17.32,45.85,16.8Zm-7.47,4.67c-.11-.29-.33-.59-.21-.86.23.31.27-1,.68,0Zm2.06-.69c-.45-.65-1.52.65-1.58-1l.22.43a5.06,5.06,0,0,0,.15-1.88c.22.43.46-.27.68.47C39,20.27,40.71,19.63,40.44,20.78ZM41,21c.12-.28,0-.57-.21-.86.58-.46,1.12.9,1.7.35C42,21.4,41.68,21.16,41,21Zm1.41-2.42c.26.33.53.12.78.7C42.86,20.05,42.05,19.53,42.41,18.63ZM38.12,29.68c.34,0,.71-1.37,1-.55C38.81,29.75,38.45,30.58,38.12,29.68Zm1.82.14-.33-.66.35-.61c.21-.41-.28-.87,0-1.26.21,1,.46-.49.67.47C40.3,28.44,40.39,29.15,39.94,29.82Zm2.65-2.11c-.34-.19-.67-.78-1-1.14.49-.09,1-.68,1.49-.93a.89.89,0,0,0,.1,1.06Zm.67-5.64c-.33-.49-.68-.06-1-.71C42.53,20.62,43.37,21.14,43.25,22.07ZM43,17.2a1.38,1.38,0,0,1,.1,1.06c-.68-.05-.87-.43-.55-1.1C42,17.37,40.39,18,40,15.9c.55.63.41-.17.91.07a3.6,3.6,0,0,1,.37-1.45.83.83,0,0,1,.91.07A6.45,6.45,0,0,1,42,16.48c.55-1.46,1.08-1,1.61-1.13.46,1.52.91,1.32,1.67,2C44.91,18.45,43.7,17.51,43,17.2Zm2,2.69c-.27.6-.53.36-.79-.28l.47-.8C44.91,19.18,44.78,19.52,45,19.89Zm.07,8.86c-.16-1.53-.75-.13-1.23-.73C44.15,26.14,45.41,27.16,45.06,28.75Zm-.44-7c0-.56.4-1.25.7-1.21.5.46-.29.82.2,1.28C45.22,22.32,44.91,22.29,44.62,21.76Zm2.22,8.83c-.27.53-.55,1-.8.56a.72.72,0,0,0,0-.84c-.42.39-.15.83-.48,1.23-.51-.81.26-1.53.38-2.29.41.22.11,1.34.44.88s-.07-1,.14-1.47l.44.88C46.8,29.89,46.56,30.21,46.84,30.59Zm-.29-8.88c.15-.27-.09-.57,0-.85.59.86,1.21-.24,1.81.57C47.77,21.2,47.14,22.7,46.55,21.71Zm1,12.95c.5-.6,1-.3,1.47.33C48.52,35.82,48,35.74,47.56,34.65ZM50,26.42c-.25-.83-.53.13-.78-.7l.47-.81A3.88,3.88,0,0,1,50,26.42Zm.42-10.09c-.48,1.23-.9-.28-1.37.31-.32-1-.55-1.31-1.11-1.36-.19.34.24.72.09,1.06-1-1.23-.4-2.07.07-3.79.25.37.06.71.09,1.06.19-.33.37.49.56.26a2.35,2.35,0,0,1-.32-1.08c.42-.64.71.12.59-1,.27,0,.53-.18.78.69-.16.44-.46.19-.35.61a2,2,0,0,1,1.13.52c-.47.73,0,.25.21.86-.28.84-.52-.45-.8.15.36,1.19.74.76,1.11,1.36.09.38.49,1.83-.14,1.47C51.2,16.65,50.52,17.13,50.4,16.33ZM51,26.71c.43-1,.84-.34,1.25-.11C51.83,26.7,51.41,27.06,51,26.71Zm2.31,9.47c.39-.94.75.26,1.15-.75a2.38,2.38,0,0,1,.32,1.08C54.28,36.7,53.78,37.21,53.31,36.18Zm1-5.82c.36-.78,1.28,0,1.23.73C55.15,30.78,54.73,31.16,54.33,30.36Zm.66-4.8c-.15-.27-.3,0-.44-.46-.09-.94.86-1.78,1.38-1.15Zm.07-3.37c-.9,1.16-.7,3.6-1.64,2.82.67-.7,1.48-3.17.42-4,0-.77.39-.49.7-.78.18,1.27.84.44,1.34,1-.54,1.21.49,0,.66,1.32C56,22.95,55.55,22,55.06,22.19Zm6.83,15.54c.28-.78.53-.21.81-1C63.3,37.78,62.23,38.33,61.89,37.73ZM64,19.13c.55,1.11,1.14-.42,1.69.77C65.61,20.84,63.6,20.45,64,19.13ZM67.1,21.5c-.22-.61-.45-.11-.66-.9a3.91,3.91,0,0,0,.82-1.41c.35,1.09.74.65,1.1,1.36C67.94,21.29,67.55,20.05,67.1,21.5Zm1.81,16c.28-.6.54-.35.79.28C69.43,38.35,69.17,38.11,68.92,37.48ZM71,21c.43-.59.84-.21,1.25-.11C71.79,21.5,71.37,21.85,71,21Zm.84,18.84c.2-.58-.31-.1-.21-.86.51-.84,1.59-.44,1.68.78C72.82,38.52,72.3,39.85,71.81,39.83ZM76.5,22.09c-.29-.46-.61.29-.9-.5C75.85,20.93,76.65,21.48,76.5,22.09Zm-1.21-1.58c.49.42.28,1.82-.15,1.47C75.48,21.51,74.81,21,75.29,20.51Zm-.64,8.38c.28-.6.54-.35.79.28C75.16,29.77,74.9,29.53,74.65,28.9ZM74.94,26c-.12.3-.07.76-.34.18a2.29,2.29,0,0,1,.48-1.22c.58.89,1.21-.23,1.81.15C76.48,26.58,75.79,25.9,74.94,26Zm3.82,1.6c-.18-.83-.33-1.17-.79-.28a2.39,2.39,0,0,1-.31-1.08c.32-.74.61-.47.92-.76.28.92.59.71.89.92C79,26.74,79.19,26.79,78.76,27.56ZM81,23.74c.22.09.44.33.66.9C81.33,25.6,80.65,24.36,81,23.74Zm8.25.92c-.58.93-.4-.23-.89-.92C88.72,22.8,89.26,24,89.25,24.66Zm-3.49-.93c-.15-.23-.46-.14-.33-.66.69-.42,1,.42,1.45,1.18-.13.34-.07.7-.36,1-.45-.53-.15-1-.31-1.5-.61.84-.86.88-1,2-.41,0-.26-.73-.42-1.3C85.15,23.76,85.45,24,85.76,23.73Zm-.94,1.61c-.32.83-.61.2-.91.34C83.92,24.71,84.5,24.56,84.81,25.34Zm-2.6-.44c.35-.62.7-.82,1-.54C82.91,24.4,82.54,25.72,82.22,24.9Zm.54,16.51c.59-.91,1.15-.67,1.71-.48A1.22,1.22,0,0,1,82.75,41.41Zm2.88-12.2a2.4,2.4,0,0,1-.32-1.08c-.41,1.18-1.36.53-1.34-.54.43.92.92-.76,1.34.54q.6-1.15,1.13.1C86,29.21,85.86,28,85.63,29.21Zm-.05-2.75c.14-2,1.51-1,2.27-.23A1.76,1.76,0,0,1,85.58,26.46Zm2.71.66c-.11-.29-.33-.59-.21-.86.25.65.56-1.33.8-.14Zm.41,1.72c.76-1.24,1.52.76,1.2,2C89.57,30,89.65,29.56,88.7,28.84Zm1,15.7a1.33,1.33,0,0,1-.2-1.28c.48.34,1-.85,1.46.34C90.53,44.39,90.12,44,89.69,44.53Zm22.25,5.76c.51.62-.15,1.86-.48,1.22C111.79,51.13,111.53,50.68,111.95,50.3ZM44.4,47c-.2-.57.54-1.31.69-.79C45.09,46.57,44.68,48,44.4,47ZM16.75,60.72c-.32-1.37-.68.67-1-.7.39-1.11,1.35-.64,1.35.09C16.86,59.83,17,60.43,16.75,60.72ZM32,66.52c.5-1.07.84,0,.9.07C32.59,66.64,32.28,67.31,32,66.52Zm13.4-6.11c.32-.59,1.21-1,1.13.09C46.15,60.43,45.76,61.11,45.4,60.41Zm1.78,14.07c.39-.82.76-.29,1.12.09C48.25,75.39,47.54,75.34,47.18,74.48Zm9.07-25.83c-.34-.15-1.28.08-1.23-.74C55.36,47.92,56.29,47.6,56.24,48.66ZM46.09,47l.44.88c-.23.52-.47.7-.69.36C46.36,47.84,45.58,47.36,46.09,47Zm-.32,5c-.18-1,.65-.95.26-1.66.23-.35.46-.53.68-.37C46.2,50.63,46.51,52.67,45.77,52Zm4,1.18c-.41-1.75-.41.16-.65-1.32-.57.27-1.75,1.11-1.92.05.1.15.71,0,.46-.38-.38.22-.76.06-1.12-.52.32-.73.61-.17.9.5.36-.6,1-.24,1-1.39.72,1,1.63-1,2,1,.08-1.26.86-1.17,1.25-.53C50.7,50.81,50.87,52.31,49.82,53.19Zm.4,20.91c.44.59.91-.22,1.34,1C51.17,75.55,50.21,75.12,50.22,74.1Zm4.55-19.66c-.3-.09-.41-.32-.44-.87-.81,1-1.57-.61-2.38.43-.35-.54.07-1.85-.55-.68-.38-.65-.37-2.34.26-1.66a.73.73,0,0,0,0,.84c.12-2.38,1.43-1.54,2.19-2.14l.54,1.1c.45-.07.93-1.27,1.36-.31-.23,1.31-1.27,1.48-1.83,1.11.11.31-.06.36-.23.4.37.1.74,1,1.11.93.59-1.16,1.17-2,1.71-.91-.91-.1-.69.86-1,1.39C55.46,53,55,53.64,54.77,54.44Zm1.15,22.46c.43-.84.83.09,1.23.31C56.72,77.85,56.32,77.43,55.92,76.89Zm1.94-24.1q-.42-1.37-.9-.08l-.33-.65c.58-.7,1.13-.21,1.7-.07Zm2.37.41c-.39.61-.76.38-1.12-.52C59.49,52.22,59.85,52.95,60.22,53.2ZM59.41,77c0-.86.68-1,1-.55C60.4,77.48,59.76,77.15,59.41,77Zm3.18-23.36c-.43-.85-.9-.43-1.35-.11A2.45,2.45,0,0,1,61,55.58a3.09,3.09,0,0,1-1-1.14c.35-.68.68-.09,1-1-.17-.86-1-.47-1.1-1.36.19.19.37.19.57-.16L61,53.05c.78-.95,1,0,1.82-.69C62.6,52.77,63,53.22,62.59,53.61Zm1.47-.09c-.48-.52-.44.84-1,.13C63.33,52.8,64.18,52.36,64.06,53.52ZM66.37,78c.33.24.69-.54,1,.3C67.09,79.68,65.91,77.71,66.37,78Zm.17-24.25c.53-.11,1,.31,1.57.56C67.62,55.14,66.27,55.29,66.54,53.72Zm1.68.78a2.09,2.09,0,0,1,1-.54C69,54.8,68.67,55,68.22,54.5Zm1.24-5.38c.33-.69,1.22-1,1.13.1C70.23,48.46,69.82,49.92,69.46,49.12Zm1,6.41c-.22-.44-.46.27-.67-.48l.35-.61C70.42,55,70.7,54.76,70.45,55.54Zm-.19-1.71c.19-.26.39-.82.58-.58a.37.37,0,0,0,0,.42c.2-.36.38-.34.57-.16C71,54.15,70.63,54.31,70.27,53.83Zm.91,26c.23-1.37,1.25-.37,1.8.15C72.37,80.55,71.79,79.54,71.18,79.86Zm4.49-30c.8-.65,1.59-.38,2.37.41A5.69,5.69,0,0,1,75.67,49.87Zm3.22,7.87c.33-.53.06-.77.47-.8C79.86,57.63,79.21,58.75,78.88,57.74Zm4.2-6c-.35-.19-.44-1.3-1-1.14.32-1,.61,0,.92-.77A1.49,1.49,0,0,1,83.08,51.78ZM91.35,51c.46-.48.92-.44,1.36.11C92.25,51.61,91.8,51.57,91.35,51ZM94.2,59.9,94,59.46c-.08.11-.16.2-.23,0,.21-1,.79-1.56,1.27-.95C94.69,59.4,94.21,59,94.2,59.9Zm27.44-30.48c-.32.21-1.14.55-.78-.7C121,29.73,121.84,28.23,121.64,29.42Zm-.06-15.62a2.32,2.32,0,0,1-.48,1.23c-.28-1-.6-.13-.88-.93l.24-.4C120.77,14.55,121,13.55,121.58,13.8Zm-2.64-3.19c.6.3,1.22-.58,1.8.58-.6.15-.44,1.54-.95,1.6-.6-.5.06-1.94-.41-1.73-.18.48.09,1-.38,1.44A3.32,3.32,0,0,1,118.94,10.61Zm1.06,3c-.4.81-.77.69-1.14.32C119.24,13.79,119.63,13.13,120,13.66Zm-.34,13.48c-.35.42-.69.62-1,.54.22-.31-.91-.22-.42-1.3A7.38,7.38,0,0,0,119.66,27.13Zm-1-6.42c-.46.27-.91.1-1.37.3C117.37,20.44,118.68,19.67,118.69,20.72Zm-.82-7.88c-.19.33.23.72.09,1.06-.29-.46-.61.29-.89-.5C117.33,12.87,117.61,12.39,117.86,12.84Zm-2.6-.45c.55.61,1.13.18,1.68.78-.69.44-1.36-.16-2-.18Zm-.57.16a2,2,0,0,0-.25.83c-.26-.44-1.11-.28-1-1.14C113.86,12.88,114.3,11.61,114.7,12.56ZM114.18,15c0,.56-.52,1.59-.82,1C113.63,15.8,113.93,14.58,114.18,15Zm-4-3.73c.58.92,1-1.06,1.39-1.14.46,1.12-.24.92-.5,2.07-.2-.87-.46.06-.69.36A1.33,1.33,0,0,1,110.19,11.32Zm-2.35,12.87c.33.27.69-.33,1,.3C108.57,24.64,107.71,25.34,107.84,24.19Zm-1-6.42c-.28.59-.55.79-.8.14C106.34,17.32,106.61,17.13,106.86,17.77Zm-2.07,5.94c.33.37.68-.08,1,.3C105.52,24.57,104.66,24.81,104.79,23.71Zm-1.12-.52c-.22-.26-.46.44-.67-.48C103.2,21.62,103.89,22.65,103.67,23.18Zm-5.6-7.46c.38-.31.79-1.45,1.15-.75C98.83,15.64,98.43,16.49,98.07,15.73Zm1.14-.32a1.71,1.71,0,0,1,1.69.36C100.36,16.14,99.36,16.61,99.21,15.41Zm1.86,7.34-.47.8-.33-.66C100.56,22,100.82,22.6,101.08,22.75Zm-.61,1.84a7.41,7.41,0,0,0,.18,1.7c-.28.6-.53.06-.78-.28C100.18,25.66,100.17,24.24,100.47,24.59Zm-.73,2c.32.93,1.28-.16,1.23.74C100.57,27.45,99.39,28.31,99.74,26.64Zm.92-.76c0-.49-.09-1,.38-1.44C101.6,25.07,101.06,26.53,100.66,25.87ZM101,16c.32-.74.62-.55.92-.34C101.91,16.27,101.33,16.7,101,16Zm1.8,9.87c-.39-.6-.09-1.14.27-1.67.5,1.22,1.05.28,1.56,1-.32.83.07,1.57-.61,1.84-.53-.61-.1-1.13-.18-1.7C103.5,25.54,103.17,25.23,102.81,25.85Zm.2,1.28c.61-1,.49.75,1.11.94C103.73,28.4,103,28,103,27.14Zm1,2c.29.51.43-.61.47-.8l.43.88C104.63,29.94,103.82,30.15,104,29.12Zm2.84,4.47-.32-.66c.28-.58.55-.78.8-.14Zm4-5.55c.2-.16.38-.13.56.26-.84,1-1.21-1.66-1.65-2l-.59,1a1.84,1.84,0,0,0-2.58-.86,3.79,3.79,0,0,1-.73,2c0-1.64-.43.53-.89-.5a10.21,10.21,0,0,0,1.77-3c.69,1.93,2,0,2.95-.16-.11.41-.74.78-.48,1.22.43-.57.84-.3,1.27-.94-.15-.23-.46-.14-.33-.66.4.75,1.44-.55,1.45.76-.54-.61-1.43.93-1,2,.09-1.52,1.56-.54,1.58.14C111.76,27.23,110.55,26.51,110.8,28Zm.5-2.07c0-.47.51-1,.82-1-.22.65.51.22.66.9C112.27,26.6,111.79,26.17,111.3,26Zm1.8-13.14c-.34-.3-1.28.06-1.22-1.16.49-.57,1-1.67,1.72-.9-.28.77-.53.21-.82,1C113.07,12.28,113.35,12.06,113.1,12.84Zm.29,15.64c.21-.4-.27-.87,0-1.26.3.11.6,0,.9.08C113.94,28,113.92,28.8,113.39,28.48Zm-.16-2.54c.6-.61.9.34,1.26-.52.14.36.44.74.31,1.08C114.29,26.06,113.73,27.24,113.23,25.93Zm2.52,3.39c.18.4.36.64.55.68l-.24.4c.06.14.11.29,0,.42-.6-1-.18.9-.48,1.22-.26-.33-.53.17-.78-.7A10.9,10.9,0,0,0,115.75,29.32Zm2.41,21.32c.28.53.56.31.31,1.08-.5,0-.27-.92-.75-1.54-.51,1-1-.64-1.48.5.3.21.6,0,.88.92-.24.58-.45,0-.7.79-.4-.35.13-1.64-.42-1.31-.34.46.33,1-.15,1.47-.23.12-.45-.1-.67-.48,0-.63.52-1.22.39-1.86-.27.11-.52-.42-.77-.7a6.62,6.62,0,0,1,4.73.84C119,51.85,118.64,49.52,118.16,50.64Zm1.31-20.77c-.78-.3-.82-.93-1.14.32-.43,0-.52-.75-.42-1.3-.82.93-2.2.37-2.57-1.28a1.72,1.72,0,0,0,2.72-.18,2.78,2.78,0,0,0,.18,1.71c.06-.91.1-1,.59-1,.25.37.05.71.08,1.06.26-1.12.26-.34.69-.36-.31-.9.4-1,.69-.36C120.29,29.19,119.81,28.94,119.47,29.86Zm.68,22.64c-.55-.64.27-2.08.6-1.42C120.64,52,120.07,51.18,120.15,52.5Zm.9.08-.32-.66c.43-.65.87-1.62,1.27-.94C122,51.91,121.41,51.58,121.05,52.58ZM123,30.81c-.1-1.79-.47-.47-1.1-1.36.44-.79.77-.77.62-2.27.7,2.39,2.07.56,3.13,1.55-.71.56-1.83.46-2.73.6C123,29.83,123.3,30.34,123,30.81Zm4.78-.84a2.13,2.13,0,0,0-.37,1l-.21-.44a1.35,1.35,0,0,0-.63-1.75C127.19,27.89,127.29,28.94,127.74,30Zm-1.4,1.56c.58,1,1.2.22,1.79,1-.67.92-1.89.27-2.14-.4C126.18,32.42,126.31,31.85,126.34,31.53Zm-.54,3.32c.44.56,1.52-.5,1.56,1C126.9,35.73,125.85,36,125.8,34.86Zm1.35,17.85c.35-.82.6-1.51-.07-1.9.39-.41.76-.18,1.12.52C127.84,52.06,127.78,53.66,127.15,52.71Zm1.39-23.3c.58,1,1.23-.89,1.81.16C129.82,29.49,128.3,31.37,128.54,29.41Zm4.21-14c.29.55.62-.62.89.5C133.39,16.57,132.59,16.3,132.75,15.44Zm0,18.15c0-.63.6-1.06.91-.34C133.34,33.64,133,33.88,132.74,33.59Zm-1.26-3.91c.69,1.14,2,0,2.34,1.27C133.14,30.42,131.38,31.87,131.48,29.68Zm1.23-12.55c.38-.19.78-.85,1.14-.32C133.44,17.9,133.08,17.21,132.71,17.13Zm4.47,15.39c.64,1.19.77-1.53,1.48-.5-.63.67-.33.49-.6,1.42C137.72,33.47,136.81,33.66,137.18,32.51Zm-3.23-15.07c.88-.94.29-4.54,1.34-3.47a4.1,4.1,0,0,0-.39,1.87c.28-.41.53.13.78.7C135.09,17.07,134.49,18.29,133.95,17.45Zm1.53,2.25c-.28.59-.55.78-.8.14.37-.34,0-1.8.6-1.42C135.08,18.82,135.57,19.28,135.47,19.7Zm-1.1,33.66a2.44,2.44,0,0,0,.73-2c.21.69.43.72.68.06C136.19,52.7,135,54.13,134.37,53.36Zm1.73-35.93c.28-.58.55-.78.8-.14C136.62,17.88,136.35,18.07,136.1,17.43Zm.62,19.47c0-.67.6-.81.91-.34C137.32,37.3,137,37.11,136.72,36.9Zm-.28-2.35c.33-.39.06-.84.48-1.22.59,1.84,1.27.43,1.89,1.22C138.42,35.83,137.18,34.65,136.44,34.56Zm3.53-.73c0-.77.71-1.65,1-.54C140.64,34.11,140.3,34.13,140,33.82ZM144.3,37c.25.34.54-.6.78.28C144.86,38.15,144.11,37.75,144.3,37Zm1.18-2c-.47-.46-.08-.85-.19-1.29l-.59,1c-.53-1.26,0-1.84-.85-2.19.54-.15,1.54-.37,1.68.79.42-.67,1.17.55,1.27-.94l.43.88c-.31.77-.57.2-.59,1C146,33.63,145.67,33.59,145.49,35Zm1.24.32c.14-.34,0-.7.14-1,.74-.08.48,1.57,1-.11C148.48,35.43,147.08,36.21,146.72,35.28Zm2-.23c-.18-.33-.39.33-.56-.26.44-1.37.65-.5,1-2C149.7,33.58,149.12,34.3,148.77,35ZM150.84,38c.36-.71.7-.7,1-.12C151.51,38.22,151.16,38.7,150.84,38ZM161,14.84a1.55,1.55,0,0,1-1.71.47C159.84,14.75,160.42,14.09,161,14.84ZM158.17,18q-.58.72-1.13-.11C157.44,16.93,157.8,17.46,158.17,18ZM157,36c.47.59.45-.86,1-1C158.67,36.35,156.9,37.77,157,36Zm5.48-18.49c-.63-.78-3.1,2.92-2.49-.23-.46-.05-1.52.8-1.57-.56a.94.94,0,0,1,1.81.16c.34-1.62.54,0,.9.08a3.82,3.82,0,0,1,.52-2.49c.53,1-.72,1.77-.19,2.73.13-.34.07-.7.37-1C162,16.19,162.7,17,162.48,17.51Zm.85-2.24c-.55-.7-.79-.51-1,.54-.32-1.23.3-1.27.72-1.62C163.17,14.55,163.46,14.93,163.34,15.27Zm1-3.29a1.32,1.32,0,0,1,.19,1.28c-.14-.23-.28-.67-.44-.46s-.24.39-.35.18Zm.78,4.72c.24.83.54-.42.77.7C165.55,17.84,164.75,17.53,165.11,16.7Zm5.05,1.52c-.6-.24-1.21,0-1.79-.59.45-.43.62-1,.82-1-.08.41.49.51.55.69.15-.34,0-.7.14-1C170.47,16.17,170.64,17.34,170.16,18.22Zm1.93,0a.37.37,0,0,0,0-.42c.35-.32.69-.44,1,.3C172.75,18.76,172.42,18.57,172.09,18.19Zm4.11-1.31c.17.46.37.27.55.69-.32.35-.82.58-.83,1.4a15.89,15.89,0,0,1-.37-3c.48.46,1.59-.26,1.68.79C176.89,16.43,176.54,16.91,176.2,16.88Zm2.63-.81a.72.72,0,0,0,.1.64c.16-.22.31-.41.45,0-.61.18-1.22.46-1.81-.17C178.21,16.41,178.35,16,178.82,16.07ZM178.15,20a.79.79,0,0,0-.44-.46c.27-.75-.41-1.59.18-2.31A3.74,3.74,0,0,1,178.15,20Zm.26-1.24c.38-.53.12-1.11.5-1.64.44.4.9.08,1.34.55-.14.34.1.71.08,1.06C179.67,19.58,179,19.35,178.41,18.77Zm3-1.41c-.14-.23-.28-.66-.44-.46.1.29-.07.55-.25.82l-.32-.66a2.43,2.43,0,0,0,.72-1.62c.23.37.1.71.31,1.08.12-.2.05-.42.13-.62C182,16.44,181.73,16.9,181.39,17.36Zm1.21,1.17c.39-.49.75.11,1.13.11C183.33,19.65,182.6,19.78,182.61,18.53Zm2.64-1.23c.06.22.21.44.1.64a2.15,2.15,0,0,1-.2-.86c.34-.13.7-.61,1-.12C185.83,17.94,185.55,17.14,185.25,17.3Zm1.33,1c.33-.53,1.21-.49,1.12.53C187.33,18.31,186.93,19.07,186.58,18.26Zm1.41,2c-.18-.27-.38,0-.56-.27.15-.26-.08-.57,0-.84.11.13.22.09.34-.18A1.33,1.33,0,0,1,188,20.3Zm.24-.4c.63-.88,1.2.11,1.82-.26C189.42,20.62,188.82,20.45,188.23,19.89Zm.72-1.62c.52-.89,1-1.52,1.5-.91C190.19,18.81,189.49,18.55,189,18.27ZM192,21.52a1.32,1.32,0,0,0,1.17-1.16c.11.36,0,.71.31,1.08C193,22.18,192.49,22.55,192,21.52ZM59.93,90.3c.43-1.08.84-.73,1.24-.11C61.09,91.13,60.32,91.05,59.93,90.3Zm11.75,2.89c.27-.28.56-1.51.8-.56C72.64,93.29,71.86,94.09,71.68,93.19Zm5.1-6.73c.32-.74.61-.55.91-.34C77.38,86.6,77.07,87.11,76.79,86.46Zm4.93,1.27c0-.81.5-1.1.79-.14C82.24,87.88,82,88.37,81.72,87.73Zm4.45,2.49A4.17,4.17,0,0,0,84.41,88c.49-.72,1.16-1.56,1.95-1.31.08.5-.6.93-.15,1.46.62-.58.34-1.24.6-1.85.18.46.37.26.55.68C87,88.52,86.54,88.84,86.17,90.22Zm3.41-1.39c-.65.53-1.28.17-1.91-.38.33-.84.39-.28.71-1.63.18.29.36.89.55.68s-.08-.57,0-.84c.4.41.84-.67,1.22.74C89.81,88.33,89,87.47,89.58,88.83Zm3.5-.33c.32-.73.62-.71.9.07C93.66,89.31,93.38,88.59,93.08,88.51Zm5.15,1.3c.48-.5,1.37-.82,1.46.34C99.2,90.37,98.7,90.63,98.23,89.8ZM109,89.7c.28.34.56-.17.55.68C109.18,91.23,108.63,90.32,109,89.7Zm37.37,3.37a.78.78,0,0,0-.44-.46c0-.56.41-1.25.71-1.2C147,92,146.68,92.54,146.32,93.07Zm6.47-1.31c.32-.31,1.22-.89,1.13.1C153.55,91.5,153.14,92.74,152.79,91.76Zm31.29-.7c-.28-.54-.69.23-.7.78a2.37,2.37,0,0,1-.31-1.08C183.36,90.35,184.22,90,184.08,91.06Zm2.1,1.67a5.35,5.35,0,0,1-.27-2.35c-.38,1-1,1.31-1,.12.62-.36,1.83-1,2,.6C186.11,90.41,186.53,92.15,186.18,92.73Zm2.21-2.12c-.3-.21-.61.37-.9-.09C187.45,89.21,188.83,89.62,188.39,90.62Zm7.53-2.67c.48.58,1.61-1.21,1.68.37C197.08,88.15,196,89.57,195.92,87.95ZM199.6,18c.23.37.14-.46.35-.18-.28.57.35.11.43.88C200.15,19.36,199.41,18.61,199.6,18Zm1.59,71.07c-.24-.87-.52-.37-.77-.7.39-.59.78-1,1.14-.32C201.44,88.4,201.49,88.75,201.19,89.08Zm2.35.85-.43-.88C203.49,88.1,204.08,89.33,203.54,89.93ZM209,88.76c.25-.53,0-1.06-.32-.67a2.74,2.74,0,0,1,0,1.27c-.21-.44-.46.26-.66-.49.58-.58,0-1.27.62-1.84.25.33.52.12.77.7C209.19,88,209.44,89.23,209,88.76Zm1.47-.07c-.25-.61-.14-2.12.38-1.44C210.67,87.72,210.78,88.22,210.47,88.68Zm.57-.16c.28-.58.55-.78.8-.14C211.55,89,211.28,89.17,211,88.52Zm3,.49c-.32-.58-.68,0-1-.3.67-1.31-.3-.85,0-1.68.5.85,1.06-.27,1.58.15A2.42,2.42,0,0,0,214.07,89Zm.11-70.28c.3.21.62-.53.89.51C214.82,19.87,214,19.59,214.18,18.73Zm26.87,2.12c-.18-.75-.94-.61-.75-1.55C240.6,20.29,241.43,19.57,241.06,20.86Zm5,.47-.32-.66c.65-.42.54-.24.83-1.4.29.35.6.14.88.93A1.82,1.82,0,0,1,246,21.33Zm4.21-.66c-.46-1.07-1.17.66-1-1.15C249.51,20,250.37,19.55,250.23,20.67Zm11.31.24c-.38-.46,0-.84-.19-1.29.36-.57.69-.24,1-.11C262.36,20.24,261.88,20,261.54,20.91Zm2.16-.43c-.54-.46-.44,1-.91.33C262.69,20.33,263.89,19.09,263.7,20.48Zm11.69-1.2c.44-.78.85-.64,1.25-.09C276.21,19.9,275.82,18.92,275.4,19.28Zm16.33,68.5c-.14-.23-.28-.67-.44-.47-.17.43,0,1.95-.5,1.64-.07-.5.22-1-.07-1.49.61-.15.59-1.92,1.19-2A3,3,0,0,1,291.73,87.78Zm1.13.11c-.36-.94-.25-1-.76-1.13.11-.58.33-2.07.84-1.4C291.85,86.77,294,85.86,292.86,87.89Zm1.93-.45c-.29-.46-.63.82-.9-.08.35-1.05.41-.9.74-2A6.86,6.86,0,0,1,294.79,87.44Zm.37-1c.12-.27,0-.57-.2-.86.24-.47.46-.45.68.06C295.5,86.13,295.39,86.49,295.16,86.42Zm.56-69.2c.38-1.09,1.31-1.17,1.25-.09C296.58,16.43,296.12,17.74,295.72,17.22Zm1.38-.71c.59-.79,1.16-.78,1.69.38C298.22,16.76,297.64,17.23,297.1,16.51Zm2,.2-.32-.66c.29-.84.54-.29.8-.14Zm19.76-2.3c.49-1.08.94-.92,1.4-1.13C320.18,14.09,319.32,14.89,318.9,14.4Zm9.2-4.6c.74.09,1-1.32.3-2.51.2-.36.4-.57.58-.57.55,1-.43,1.93.36,3C328.93,9.86,328.48,10.8,328.1,9.81ZM334.84,54c-.55.51-1.34.39-2.19,1.27-.11-.29-.32-.6-.2-.87a8.85,8.85,0,0,1,2.68-2.48A2.21,2.21,0,0,1,334.84,54Zm3.53-.71c-.76.15-1.54.83-2.28.62.7-.78,1.39-1.13,2.1-1.91A2.18,2.18,0,0,1,338.37,53.25ZM350,51.43c.32.59-.07,1.12-.05,1.68-.25-.34-.53.17-.77-.71C349.42,51.93,349.68,52.19,350,51.43Zm-10.69,1.91-.42-.88c.69-.41,1.53-3.14,2.79-2.26C340.64,51.24,339.78,51.6,339.27,53.34Zm2.63-39.86c-.24-.64-.55.6-.78-.29C341.35,12.28,342.1,12.68,341.91,13.48Zm1.45.77c.56,0,1.17-1.23,1.71-.47C344.48,14.4,343.89,15,343.35,14.25Zm3.86-4.06c.28.7.39.71.45,0,.49.74-.54,1.53-.7.78A2,2,0,0,0,347.22,10.19Zm.09,4.23c-.31.39-.63.79-.9-.09C346.72,13.85,347,13.89,347.31,14.43Zm-1,20.8c-.28,0-.45-.75-.41-1.3.31.28.56-1.19.73-1.62.47.46.07.85.18,1.28.12-.1.23,0,.33.24C346.57,34,346.09,33.79,346.3,35.23Zm1.47-.07c0,.62-.52,1.25-.81.55C347.37,35.11,347.29,34.24,347.77,35.16ZM349.92,14c-.74-1.61-1.62,1.19-2.39.4-.38-.94.45-.45.27-1.24-.37.47-1,.51-1-.31.72-.46.8-.67,1.42-2,.23.94.51.45.8-.13a8.09,8.09,0,0,1,.61,2.17c.61-.78.22-1.67.08-2.52C350.62,11,350.49,13,349.92,14Zm16.31,6.67c0-.57.63-1.81.94-1.17C367.16,20.32,366.57,20.78,366.24,20.72Z"/><path id="_Контур_112" data-name="&lt;Контур&gt;" class="cls-1" d="M101.5,9.91c-.15.4.29.22.1.65,1.29-1.92,2.5-.26,3.77-1.15a3.9,3.9,0,0,0-3.16-.7c-.12.27.1.57.2.86C102.11,9.61,101.8,10.12,101.5,9.91Z"/><path id="_Контур_113" data-name="&lt;Контур&gt;" class="cls-1" d="M24,80c.37.57.75-.38,1.13-.33C24.8,79.58,24.43,79.18,24,80Z"/><path id="_Контур_114" data-name="&lt;Контур&gt;" class="cls-1" d="M44.32,76.57c-.29.33-.23.68-.36,1,.18.24.38-.32.57-.58a2.14,2.14,0,0,0,.21.86C45,77.08,44.61,77,44.32,76.57Z"/><path id="_Контур_115" data-name="&lt;Контур&gt;" class="cls-1" d="M27.8,44.27c-.47.22.71.2.66,1.32a4.57,4.57,0,0,0,.13-1.47C28.11,43.45,28.29,45,27.8,44.27Z"/><path id="_Контур_116" data-name="&lt;Контур&gt;" class="cls-1" d="M35.06,57.49a1.09,1.09,0,0,0,0,1.26c0-.55.28-.74.57-.58C35.86,57.62,35.19,57.81,35.06,57.49Z"/><path id="_Контур_117" data-name="&lt;Контур&gt;" class="cls-1" d="M33.79,52.33c0-.35.15-.69-.1-1.06a2.33,2.33,0,0,0-.47,1.23c.22.39.46-.52.68.05C34,52.28,33.85,52.22,33.79,52.33Z"/><path id="_Контур_118" data-name="&lt;Контур&gt;" class="cls-1" d="M49.6,83.33c.39,1,.29-.51.47-.81.33-.47,0,.66.43.88.62-1.19,1.22-.85,1.81-.28.11-.41.13-.83.25-1.24a1.61,1.61,0,0,1-2.36,0C49.93,82.84,49.62,82.61,49.6,83.33Z"/><path id="_Контур_119" data-name="&lt;Контур&gt;" class="cls-1" d="M32.74,47.18c1.38-.2,2.29.19,3.63-1-.16-.42-.48-.22-.33-.66-.49-.43-.3.31-.8.57.1-1.06-1.7-.33-1.23-1.15C33.74,44.15,33,46.16,32.74,47.18Z"/><path id="_Контур_120" data-name="&lt;Контур&gt;" class="cls-1" d="M55.42,90.77c.33.85,1.63.83,2.35.41C57,91.1,56.21,90.85,55.42,90.77Z"/><path id="_Контур_121" data-name="&lt;Контур&gt;" class="cls-1" d="M17.89,10.84c0,.77-.39.34-.71,1.22.74.47.71-.28,1-.56C18.35,11.11,18,11.3,17.89,10.84Z"/><path id="_Контур_122" data-name="&lt;Контур&gt;" class="cls-1" d="M35.68,47.41c.42-.21.82.36,1.25-.54C36.53,45.87,36.09,47.24,35.68,47.41Z"/><path id="_Контур_123" data-name="&lt;Контур&gt;" class="cls-1" d="M54.18,79.49c-.32.33,0,.71-.13,1,.26.4.53-.09.79-.15C55.05,79.77,54.32,80.65,54.18,79.49Z"/><path id="_Контур_124" data-name="&lt;Контур&gt;" class="cls-1" d="M29.47,22.9c.11-.2,0-.42-.1-.64.24-.58.45,0,.69-.79-.45-.33-.9-.78-1.37.32C29.13,22.29,29.29,21.74,29.47,22.9Z"/><path id="_Контур_125" data-name="&lt;Контур&gt;" class="cls-1" d="M42,36.1c.59-.53.5.49,1.12.51A14.72,14.72,0,0,1,43.59,35C43.08,35.49,42.14,35.32,42,36.1Z"/><path id="_Контур_126" data-name="&lt;Контур&gt;" class="cls-1" d="M66.81,83.7c-.19-.79.6-.31.48-1.22-.25-.64-.54.61-.78-.28.09.88-.53,1.25-.05,2.53.31-.4.61-.64.91-.35C67.61,83.84,66.94,84,66.81,83.7Z"/><path id="_Контур_127" data-name="&lt;Контур&gt;" class="cls-1" d="M68.82,84.72c.51.73,1.07-.82,1.56.56.38-.76-.3-.58-.09-1.06C69.8,84.41,69.32,84.25,68.82,84.72Z"/><path id="_Контур_128" data-name="&lt;Контур&gt;" class="cls-1" d="M71.21,83.87c-.21-.37-.08-.71-.31-1.08-.65.5-1.28.26-1.91-.38.08,1.77,1.19.46,1.65,2,.4-1.05.76-.33,1.12.52.67-.27.68-.78,1.27-1.37-.22-.22-.45-.26-.67-.48-.32.32,0,.71-.14,1-.12.12-.23,0-.34.18-.12-.44.28-.82-.2-1.29C71.38,83.11,71.25,83.32,71.21,83.87Z"/><path id="_Контур_129" data-name="&lt;Контур&gt;" class="cls-1" d="M41.13.81c-.11.27,0,.33.11.22.17.29.33.59.21.86.19.24.38-.32.58-.58C41.73,1,41.43,1,41.13.81Z"/><path id="_Контур_130" data-name="&lt;Контур&gt;" class="cls-1" d="M52,7.39c-.2.53,1.46,1.74,2,.59-.16-.2-.9.51-.67-.48C53,7,52.48,8.53,52,7.39Z"/><path id="_Контур_131" data-name="&lt;Контур&gt;" class="cls-1" d="M57.77,11c.47.42.66,2,1.34,1-.1-1.68-1.25-.36-1.09-2.2C57.51,10.16,58.29,10.65,57.77,11Z"/><path id="_Контур_132" data-name="&lt;Контур&gt;" class="cls-1" d="M79.41,44.28c-.25.83.42.36.55.68.22-.29.12-.9.35-.6.12-.13.07-.28,0-.42l-.22-.44c.12.32-.58,1.51-.35.6C79.54,43.83,79.64,44.65,79.41,44.28Z"/><path id="_Контур_133" data-name="&lt;Контур&gt;" class="cls-1" d="M70.55,14c0,.78,1,.63,1.34,1A3.62,3.62,0,0,0,73,17.57a25,25,0,0,0-.49-3.62c-.12,2.12-.71-.38-1.47-.34C71,14.14,70.84,14.33,70.55,14Z"/><path id="_Контур_134" data-name="&lt;Контур&gt;" class="cls-1" d="M74.2,18.31c.14.88,1.27.59,1.79,1,.36-.74-.78-.43-.42-1.3C75.36,18.26,74.7,19,74.2,18.31Z"/><path id="_Контур_135" data-name="&lt;Контур&gt;" class="cls-1" d="M73.14,14.84c-.47.5,0,.75.22.44a1.36,1.36,0,0,1,.09,1.06c.18.22.38,0,.56.26-.2-.38-.33-1.79.35-.6.13-.34-.17-.72-.32-1.08C73.73,15.41,73.43,15.38,73.14,14.84Z"/><path id="_Контур_136" data-name="&lt;Контур&gt;" class="cls-1" d="M78.89,16.39c-.19-.21-.38,0-.56-.26-.44.46.07,1-.37,1.45C78.33,17.53,78.34,17,78.89,16.39Z"/><path id="_Контур_137" data-name="&lt;Контур&gt;" class="cls-1" d="M84.08,7.55c-.05.77-.16.24-.47.8.42.53-.27,1,.31,1.5l.35-.6c-.2-.57-.39-1.2.25-.83C84.79,7.87,84.17,8.33,84.08,7.55Z"/><path id="_Контур_138" data-name="&lt;Контур&gt;" class="cls-1" d="M92.12,23c-.29-.28-.07.55.11.22A2,2,0,0,1,92,24.48c.36.28.87-1.17.49-1.65C92.35,23.1,92.23,23.14,92.12,23Z"/><path id="_Контур_139" data-name="&lt;Контур&gt;" class="cls-1" d="M104.6,50.27c.15.22.18-.08.12-.2.35-.67.65,1.14,1-.12-.35-1.09-.75-.33-1.12-.52C104.52,49.71,104.76,50,104.6,50.27Z"/><path id="_Контур_140" data-name="&lt;Контур&gt;" class="cls-1" d="M96.24,7.12c-.43-.91-.89-.9-1.35-.54.5,1.22,1,.91,1.54,1.83.27-1.47,1-.59,1.62-1.12C97.93,7.35,96.39,5.94,96.24,7.12Z"/><path id="_Контур_141" data-name="&lt;Контур&gt;" class="cls-1" d="M97.67,8.73c.6.21,1.23-.79,1.81.16.16-2.36,1.77.68,2.62-.4,0-.35-.23-.72-.09-1.06-.5.15-1,1.18-1.47-.34-.74.76-1.44.09-2.15,0-.13.34.17.72.32,1.08C98.36,8.55,98,7.76,97.67,8.73Z"/><path id="_Контур_142" data-name="&lt;Контур&gt;" class="cls-1" d="M96.54,3.77A1.9,1.9,0,0,0,99.8,5.12C98.75,4.88,97.19,5.74,96.54,3.77Z"/><path id="_Контур_143" data-name="&lt;Контур&gt;" class="cls-1" d="M105,6.84a3.74,3.74,0,0,0,1.35.54C106.33,6.52,105.36,6.65,105,6.84Z"/><path id="_Контур_144" data-name="&lt;Контур&gt;" class="cls-1" d="M111.06,8.22c.7.91,2.39,1.1,3.49.95-.45-1.23-1,.08-1.1-1.37-.12,1.52-.92-.32-1.38.72-.41-.62.36-1.46-.3-1.5C112,8.15,111.63,8.37,111.06,8.22Z"/><path id="_Контур_145" data-name="&lt;Контур&gt;" class="cls-1" d="M110.89,6.1c0,1.15,1,.27,1.35.54.26-.77-.43-.3-.54-1.1C111.28,6.39,111.39,6.63,110.89,6.1Z"/><path id="_Контур_146" data-name="&lt;Контур&gt;" class="cls-1" d="M114.78,9.19a2.78,2.78,0,0,0,2.36.84C116.83,7.4,115.53,8.82,114.78,9.19Z"/><path id="_Контур_147" data-name="&lt;Контур&gt;" class="cls-1" d="M127,12c.33.22.67,0,1.25-.1l-.32-.66C127.55,12.18,127.27,11.22,127,12Z"/><path id="_Контур_148" data-name="&lt;Контур&gt;" class="cls-1" d="M133.48,9.38l-.71,1.2c.57.37.61-1.33,1.26-.52C134.27,9.54,133.6,9.71,133.48,9.38Z"/><path id="_Контур_149" data-name="&lt;Контур&gt;" class="cls-1" d="M140,10.82c.15,2,.7-1,1.22,1.16a2,2,0,0,1,.25-.83C141,10.17,140.49,11,140,10.82Z"/><path id="_Контур_150" data-name="&lt;Контур&gt;" class="cls-1" d="M150.76,11.16c-.29-.28-.07.55.11.22.19.52-.1,1-.15,1.47.37.12.78-.84,1.13.1.51-2,1.09-.66,1.72-.9s-.26-.87.26-1.24c-.65.52-1.27-.43-1.94.46-.21-.37-.08-.71-.31-1.09C151.57,10.86,151.07,11.22,150.76,11.16Z"/><path id="_Контур_151" data-name="&lt;Контур&gt;" class="cls-1" d="M169.16,13.49c.58,1,1.24-1.06,1.81.17.13-.34-.17-.72-.31-1.08C170.13,13.82,169.68,12.24,169.16,13.49Z"/><path id="_Контур_152" data-name="&lt;Контур&gt;" class="cls-1" d="M181.06,13.11c0,.8,1.42,1,1.46.35C182,13.27,181.53,13.71,181.06,13.11Z"/><path id="_Контур_153" data-name="&lt;Контур&gt;" class="cls-1" d="M192.24,18.37a13.76,13.76,0,0,0,.27-1.66c-.29-.3-.6-.05-.92.33.21.74.45,0,.68.07C192.47,17.55,191.54,17.5,192.24,18.37Z"/><path id="_Контур_154" data-name="&lt;Контур&gt;" class="cls-1" d="M235.87,16.35c-.1,1.13.81.36,1.1.95.12-.13.07-.27,0-.42l-.21-.44C236.46,17,236.17,16.32,235.87,16.35Z"/><path id="_Контур_155" data-name="&lt;Контур&gt;" class="cls-1" d="M274,93.88c.63.22,1.28-.06,1.91.39.3-1.23,1.12-.56,1.71-.47.08-.2,0-.42.13-.62a.36.36,0,0,1,0-.42C276.52,93.55,275.3,93,274,93.88Z"/><path id="_Контур_156" data-name="&lt;Контур&gt;" class="cls-1" d="M301.94,10c.61-.5-.11-1.13.51-1.64-.11-.14-.23,0-.33-.24l-.24.4C302.46,9.08,301.36,9.46,301.94,10Z"/><path id="_Контур_157" data-name="&lt;Контур&gt;" class="cls-1" d="M307,11.56c.6,1.26,0-1.63.6-1,.23-.74-.49-.81-.68-.07A.89.89,0,0,1,307,11.56Z"/></g></g></g></g></g></svg>