<svg xmlns="http://www.w3.org/2000/svg" viewBox="0 0 21.55 2.48"><defs><style>.cls-1{fill:#270000;fill-rule:evenodd;}</style></defs><title>brush-col2</title><g id="Слой_2" data-name="Слой 2"><g id="Layer_1" data-name="Layer 1"><path class="cls-1" d="M17.07.2h.1a.18.18,0,0,0,.11,0h.32s.06,0,0,0h-.17l-.06,0h-.28l-.75.07h-.05a.45.45,0,0,0-.14,0h-.32l-.52,0-.21,0h-.32c-.09,0-.1,0-.08,0h.09s0,0,0,0h-.16s-.13,0-.08,0h0s.08,0,0,0h-.12c-.18,0-.26,0-.19-.08l-.13,0h-.06l-.07,0H14l-.3,0c-.06,0-.08,0-.08,0s0,0,0,0l0,0s-.14,0-.15.07h0a.4.4,0,0,0-.15,0h0L13.2.2h-.12s-.08,0-.09,0h0a.42.42,0,0,0-.15,0h0l-.32,0h-1c-.08,0-.14,0-.15,0h0a.47.47,0,0,0-.24,0H11a0,0,0,0,1,0,0h-.09s0,0,0,0H11l-.32,0H10.4c-.08,0-.14,0-.23,0l.09,0h.34s.11,0,.09,0a.61.61,0,0,0-.13,0h-.2a.44.44,0,0,0-.18,0H9.76a.79.79,0,0,0-.2,0H8.42A2.65,2.65,0,0,0,8,.49a4.61,4.61,0,0,1-.54,0,.57.57,0,0,0-.19,0H5.6s0,0,0,0H5.45a2.3,2.3,0,0,0-.27,0H4.93a1.52,1.52,0,0,1-.25,0H2a1.77,1.77,0,0,0-.44,0H1.54l-.29,0H1.08a.86.86,0,0,0,.2,0H1.4a3.57,3.57,0,0,0,.38,0h1l.54,0s0,0,0,0h.29a.92.92,0,0,0,.2,0,0,0,0,0,0,0,0s0,0,.08,0,0,0,0,0h-1s-.08,0-.08,0H2.17a1.27,1.27,0,0,0-.26,0H1.53l-.29,0H.84s0,0,0,0l.1,0S.83.49.82.5h.1l0,0H.52a.51.51,0,0,0-.17,0s0,0,0,0,0,0-.09,0H0a1.38,1.38,0,0,0,.23,0l.22,0H.68c.06,0,0,0,0,0H1s0,0,0,0H1s-.06,0,0,0h.68c.12,0,.12,0,0,0h.29l.18,0h0s0,0,0,0h.17l.15,0H2.9l.26,0h0l.38,0h.6c.12,0,.26,0,.38,0h.09l.22,0H5c.05,0,0,0,0,0H3.88a1,1,0,0,0,.2,0h.23l.22,0,.14,0s.09,0,.08,0H2.19C2,1,1.81,1,1.64,1h-1A.54.54,0,0,0,.45,1c-.05,0-.08,0-.09,0h0s-.06,0-.06,0h0s-.1,0-.09,0h0L0,1.1s0,0,0,0l.06,0H.21s0,0,.05,0h0l0,0h0s0,0,0,0,0,.06.11.11h0a1.07,1.07,0,0,0,.17,0H.74a.77.77,0,0,0,.2,0H2.39a3.82,3.82,0,0,1-.57,0H1.26s0,0,.06,0-.29,0-.41,0H.47a1.88,1.88,0,0,0-.42,0,.46.46,0,0,0,.15,0H.27s0,0,0,0l.28,0H.44s0,0,0,0H.14s0,0,0,0h0l.29,0,.35,0,.27,0,.24,0h.06a.64.64,0,0,1,.23,0h0a.84.84,0,0,0-.21,0h0a1,1,0,0,0,.2,0h.25l.58,0a.38.38,0,0,1,.13,0H2.44a.37.37,0,0,0-.12,0l.13,0,.74,0h.06l.52,0,.16,0,.42.06.27,0,.44,0h.27c.21,0,.43,0,.65,0h.51l.65,0h.24l.51,0h.67l.19,0,.93,0h.27c.29,0,.6,0,.88,0h.06a5.09,5.09,0,0,0,.57,0h.63a4.28,4.28,0,0,0,.5,0h1.8l.2,0h.06c.05,0,.08,0,.08,0h.21c.05,0,.08,0,.09,0h.09l.06,0h.06a.14.14,0,0,0,.09,0h0s.09,0,.09,0h0l.09,0h0c.07,0,.07,0,.08,0s.15-.1.1-.16h0c-.06,0,0,0,0,0a1.18,1.18,0,0,1,.24-.06h-.08a.84.84,0,0,1-.23-.06c-.06,0-.05,0,0,0l.11,0h0l.06,0h.14l.06,0H16c.05,0,.06,0,.06,0V1.45s0,0,0,0h.12c.12,0,.11,0,.13,0s0,0,0,0H16.1s0,0,0,0,0,0,0,0h-.23s0,0-.07,0,0,0,0,0h.44a.26.26,0,0,0,.12,0h.2l.15,0h1.87c.05,0,.12,0,.09,0s0,0,.05,0H19l.77,0h1.12a.8.8,0,0,0,.19,0H19.4a.83.83,0,0,0-.2,0H17.94l-1,0H16.6c-.23,0-.45,0-.65,0h-.36s0,0,0,0h.32L16,1h1.9l.82,0h.94c.1,0,.12,0,.11,0s0,0,0,0,0,0,.07,0H20l.73,0h.44s0,0,.05,0h.32s0,0,0,0a.06.06,0,0,1,0,0h-.61s-.11,0-.12,0,0,0,0,0H19.36a.93.93,0,0,0-.26,0h-.27s0,0-.06,0l-.1,0h-.84a1.28,1.28,0,0,0-.2,0h-.23c-.05,0,0,0,0,0h.71c.05,0,.13,0,.13,0h.26c.07,0,.19,0,.26,0h-.17c.08,0,.07,0,0,0a.14.14,0,0,0-.09,0h-.17l-.15,0h-.46s-.06,0,0,0l.07,0h0l.29,0h.09l.06,0h.06s.09,0,0-.06.07,0,0-.06l0,0,0,0s-.13,0-.15-.07h0a.53.53,0,0,1-.16,0l-.09,0h0s0,0,0,0-.1,0-.1,0l-.06,0h-.53Zm3.6.8Zm-5.14.69h0ZM1.45.49ZM19.36.78h0Zm.93,0h0ZM12.93,2.44Zm-7-.2H6ZM7.2.5h0ZM13.64.16h0Zm3.78,1Zm-17,0h0ZM4.46.41h0ZM10.28.5Zm8.17.36h0ZM17,1.15h0Zm.06,0h0S17,1.13,17,1.13Zm-2.2.46Zm-.8.72h0Zm-1.17.13h0Zm-2.62,0h0ZM11.48.45h0Zm2.61-.3Zm0,.08h0Zm0,0h0Zm3.4,0h0Zm0,0h0Zm.26,0h0ZM15.73.94h0Zm-.2.28h0ZM2.2,1.67h0ZM13.06.35h0ZM14.6,1.79h0ZM2.23,1.67Zm2.83-.4s0,0,0,0h0Zm.06-.14h0ZM5.37,1h0Zm0-.05h0s0,0,0,0ZM13.74.37Zm.79,0Zm.32.12Zm2.35.4Zm-10,.27Zm0,0h0s0,0,0,0ZM2.06.66h0s0,0,0,0h0S2.07.66,2.06.66Zm7.78,0h0Zm2.81,0Zm2.49.51h0ZM16.62.36h0Zm.46.07h0ZM16.57.8h0ZM15,.8Zm-1.14.89h0Zm.51.2h0ZM13.66,2ZM2.4,1.37h0ZM5.56,1ZM4.6.64ZM15.49.46h0ZM15,.41h0Zm-1.27,1.3Zm-1.08.48h0ZM3.75.76h0Zm-.49,0h0ZM5.75.55h0Zm2,.09h0ZM8,.63H8ZM9,.61Zm3.33,1Zm-5.4.23Zm-2.1-1Zm.29,1.14h0ZM6.57.64h0Zm6.06.13h0Zm.43.47h0Zm-1.71.67h0Zm-.17.17h0ZM9.09.7h0Zm.49,0h0Zm2.65.1h0Zm-.79.95h0ZM6.89,1h0ZM5.62.75h0ZM8.74,1.81Zm1.42-.14h0Zm-.8-.06Zm.66.12h0Zm-.24-.11Zm-1.48,0h0Zm0,.06ZM9,1.78H9Zm.9-.21h0Zm.25-.05h0Zm.11,0Zm-.43-.2Zm2.56-.28h0ZM8.35,1Zm2.37.13h0Zm-.44,0h0Zm-.08,0h0Zm.36,0h0ZM8.78,1h0Zm1.55.07Zm-2-.1h0ZM8.63,1h0ZM8.84,1h0Zm-.5,0h0Zm3.27.29Zm.48,0h0ZM11,1h0Zm-1.56.1h0Zm.82.13Zm1.85,0h0Zm-1-.22h0Zm.1,0ZM11.06,1h0Zm.65.07h0ZM9.39.91h0Zm-.13,0h0ZM9.08,1h0Zm.52.27h0Zm3-.17ZM9.95.87h0ZM9.72.92h0Zm-.46,0h0ZM7.32.82h0Zm4,.32Zm.06,0h0ZM6.8.84h0Zm.08,0ZM7.44,1ZM9,1.16H9Zm.27,0h0Zm3.59-.06Zm-5.18,0Zm4,.32h0Zm1.12-.08h0ZM13,1.24Zm-.33-.1h0ZM12.85,1h0ZM12.55,1h0ZM7.27.72h0ZM6.39.83h0Zm2.12.34Zm.21,0Zm.74.17h0Zm.82.1h0Zm.59.11h0Zm-2.63.07h0Zm.1,0h0Zm2.72.25Zm.11-.32h0ZM13,1.12ZM12.61.88h0ZM9,1.71H9ZM9.6,2h0Zm-.33,0h0Zm.51.09ZM6.15,2h0ZM6.08,2h0Zm1.3,0h0s0,0,0,0Zm1.5.08h0ZM7.88,2h0ZM6.49,2Zm.15,0h0Zm.23,0Zm-.35,0h0Zm.63,0h0ZM9,2.12H9ZM6.71,1.89ZM6.12,2s0,0,0,0h0s0,0,0,0Zm2.14.12h0ZM9.17,2Zm-1,0h0Zm-2-.09h0ZM5.58,2h0Zm0,0h0Zm.41,0h0Zm2,.09H8Zm.9.07s0,0,0,0h0Zm1.07,0h0a.48.48,0,0,0,.17,0H9.93ZM11.26,2h0Zm-.1-.41Zm2.16-.3h0ZM10.18.79h0Zm-.09,0h0ZM5.43.62Zm3.83.86h0Zm-.56,0h0ZM5.06,2h0Zm.63,0h0Zm2.9.13h0ZM11,2.08h0Zm.41,0s0,0,0,0S11.43,2.07,11.44,2.07Zm0,0h0Zm0,0h0Zm.35-.2h0ZM10.77,1.7h0Zm1.81,0s0,0,0,0h0Zm1,.08h0Zm-.12,0h0Zm-.31-.5h0ZM12.39.77h0ZM6.61.61h0Zm-.25,0h0ZM5.25.8h0Zm.28,0h0Zm2.1.28h0Zm.38,0H8Zm.76.1h0Zm1,.17ZM7.43,1.5s0,0,0,0h0Zm1.17.37ZM6,1.84ZM4.6,1.9h0Zm4.92.35s0,0,0,0S9.53,2.27,9.52,2.26Zm1.25-.14h0Zm.93,0h0s0,0,0,0h0ZM9.17.62h0ZM5.25.86Zm.6.09ZM6,1H6Zm1.43.15h0Zm1.06.36h0Zm-1,.25ZM6.29,1.9h0Zm-1.42,0h0Zm2,.29h0Zm3.18,0Zm.48,0h0s0,0,0,0Zm1.57-.41h0Zm2.42.06h0Zm.52-.6h0ZM13.78.62h0Zm.89.17h0ZM14,.71s0,0,0,0h0S14,.72,14,.71Zm.15,0ZM14,.61h0Zm.17.05h0Zm-.52.06Zm-.11,0h0Zm1.62,0h0ZM13.6.7Zm2.92.06h0ZM14.78.66h0ZM12.51.48h0Zm-.63.29h0ZM8.48.62ZM5.07.69h0Zm-.69,0h0ZM3.11.73h0ZM5.16.81h0Zm.07,0Zm0,0h0ZM5,1.37H5Zm2.27.28h0Zm-1.62.12Zm-.9.1h0Zm3.18.36h0Zm1.31.06h0Zm1.41,0h0Zm.55-.08Zm.86-.16h0Zm1.84,0h0Zm-.2-.4ZM14,1.26Zm.18-.2h0Zm.18,0h0ZM14.26.94h0ZM16.42.75h0Zm-.62,0h0s0,0,0,0ZM14.94.56h0ZM14.73.48h0Zm.42,0Zm1.1.08h0Zm-1-.12Zm-1,.06ZM12.8.5h0ZM8.32.57h0Zm-6,.07h0Zm1,.13Zm.28,0h0ZM5.31.91h0ZM6.41,1h0Zm-3.47.3h0Zm3.79.46h0ZM6,1.76H6ZM4.84,1.71h0Zm0,0h0Zm-1.48,0h0Zm2.47.42h0Zm5.34.25h0Zm-.91-.17h0Zm1.87,0h0Zm.24-.07h0Zm.34,0h0ZM14.28,2h0Zm-.09-.23ZM15,1.5h0Zm.75-.71h0Zm1-.29h0S16.8.5,16.8.49Zm-3.45,0ZM4.8.53h0ZM4.57.62h0ZM3,.67H3ZM4.06.79h0ZM6.16,1h0Zm1.42.29h0Zm0,0h0Zm-3.28.12h0Zm.82.7h0Zm2.85.12h0Zm3.45.15h0ZM14,2.18h0Zm.79-.25h0Zm.38-.67h0Zm0-.1ZM14.61,1h0Zm.75-.1h0ZM16.26.8h0Zm.28-.26Zm0,0h0Zm.24,0Zm0-.21h0ZM15.58.38h0ZM14.38.45h0ZM13.3.44h0Zm0,0h0Zm-1.41,0h0ZM7.21.54ZM5.64.51h0ZM4.08.57ZM3.39.8h0s0,0,0,0Zm3.78.35Zm.46.12h0ZM5.28,1.18h0Zm-.71.12h0ZM4,1.27s0,0,0,0H4S4,1.28,4,1.27Zm.06.19Zm2.52.29Zm-3.91,0h0ZM6,2.18H6Zm2.2.1h0ZM10,2.36h0Zm2.25,0h0Zm.91-.12h0Zm2.12-.39h0Zm.13,0h0Zm-.84-.21h0Zm.56-.13h0Zm-.57-.14h0ZM17.21.89h0ZM17.1.78h0ZM16.58.7ZM17.76.33h0S17.75.33,17.76.33ZM17,.28h0Zm-.76.1h0ZM14.31.31h0Zm-.5.1h0ZM10,.59h0ZM8.14.53Zm-.66,0h0Zm-.76,0ZM4.37.51Zm-1,.06ZM1.63.57h0ZM2,.67H2ZM5.29,1ZM5.67,1h0Zm1.58.11h0Zm-3.6.35h0ZM4,1.73Zm-2.71,0h0Zm3.39.39h0Zm1.25.1h0Zm.63,0h0Zm7,.12h0Zm.26-.13h0ZM15,1.76h0Zm-.19,0Zm-.39-.21h0Zm.16,0h0Zm.66-.06h0Zm-.18-.1h0Zm-.25,0h0Zm.14,0h0ZM14.66,1h0ZM16,.57l-.06,0,.06,0Zm.43,0Zm.87-.07h0ZM16,.36h0Zm-.34,0ZM13.5.37h0Zm-.18,0h0ZM10.47.52h0s0,0,0,0h0S10.49.52,10.47.52ZM8,.53H8ZM4.34.5Zm0,0ZM1.9.63h0ZM3.83.84h0ZM5.28,1h0Zm-.72.15h0Zm-.22,0h0Zm-.92.06h0S3.41,1.17,3.42,1.18Zm-2.49,0h0Zm11,1.3Zm2.9-.37h0Zm.23-1h0ZM16.38.64h0Zm1-.07h0Zm.06,0h0Zm.35-.34h0Zm-1,.06h0S16.76.27,16.76.27ZM13.9.21Zm-.07.11h0ZM12.45.38h0ZM6.95.52ZM3.47.54h0ZM1.92.51h0ZM4,.83H4Zm4.88,1.5h0Zm5-.06h0Zm.8,0h0Zm0-.17h0ZM17,1.15h0Zm-1.78-.1h0ZM18.37.9h0Zm-.09,0h0ZM17.85.26h0Zm-3,.06h0Zm0,0,.07,0h0l-.07,0Zm-2.65,0ZM11.14.49h0Zm-.5,0h0ZM1.78.62h0Zm2.8.47h0Zm-1.19,0h0Zm-.46,0h0l.05,0H3ZM14.62,2.27Zm.75-.13h0Zm-.31,0h0Zm.65-.71h0Zm0-.08h0Zm0-.1h0ZM19.21.88h0Zm.35-.07ZM17.14.74h0Zm.22-.05h0Zm-.65,0h0ZM18,.57ZM18.2.31h0Zm-1-.07Zm-.78,0Zm-1.3.06Zm-.38,0h0Zm-2.26,0h0Zm-.2,0h0Zm-7,.09ZM5,.42H5ZM2.36.5h0ZM4.17.88h0ZM2.5,1.53Zm-.59,0h0Zm-1.15,0h0Zm.83.26Zm10,.62h0Zm1.83,0h0Zm1.21-.14Zm.91-.66h0ZM16,1.36h0Zm.51-.17h0s0,0,0,0Zm.32,0h0ZM16,1ZM18.65.88Zm.43,0h0Zm1.24-.1Zm-1.51,0h0ZM17.16.23h0Zm-.09,0h0Zm-4.7.13h0Zm-1,0Zm-.26,0h0l0,0ZM11,.4h0Zm-.27.07h0Zm-.26,0h0ZM10.25.43Zm-.08,0ZM5.53.43h0ZM2,.36ZM3.91.43h0ZM3.59.49h0Zm-.67,0ZM4.17.88h0ZM1.4,1.57Zm-1.11,0h0Zm.53.09h0Zm-.21,0h0Zm13.87.59h0Zm2-1.11h0Zm.09,0ZM15.61,1ZM17.89.61h0Z"/></g></g></svg>