<svg xmlns="http://www.w3.org/2000/svg" viewBox="0 0 20.08 2.51"><defs><style>.cls-1{fill:#d80079;fill-rule:evenodd;}</style></defs><title>Ресурс 1</title><g id="Слой_2" data-name="Слой 2"><g id="Layer_1" data-name="Layer 1"><path class="cls-1" d="M20,1.3h-.09s0-.06-.05-.09h0s0,0-.09,0h-.09l-.23-.06h0a.46.46,0,0,0-.16,0c-.18,0-.39,0-.57,0h-.08a.45.45,0,0,0-.15,0h0a1,1,0,0,0-.19,0H18.2s-.13,0-.09,0,.07-.11,0-.16,0-.05.11-.07L18,.85a.68.68,0,0,0-.32-.07h0s-.11,0-.09-.05,0,0-.11,0c-.3,0-.6,0-.9,0h-.18a1.26,1.26,0,0,1-.41,0,.49.49,0,0,0-.17,0h0a.88.88,0,0,0-.15,0s-.09,0-.1-.05h.05a.57.57,0,0,0,.2,0,.9.9,0,0,1,.18,0c.16,0,.29,0,.43-.06s.23-.07.13-.1-.1-.07-.16-.11,0,0,0,0h0s0-.07-.1-.1,0,0,0,0h0s0,0-.13-.06,0,0,0,0h0l-.06,0h-.08l-.46,0h-.17a.38.38,0,0,1-.15,0c-.17,0-.35,0-.5,0a.69.69,0,0,0-.22,0h0a2.82,2.82,0,0,0-.33,0h0c-.06,0-.13,0-.18,0h-.36l-.6,0h0c-.17,0-.33,0-.51,0h-.18a1.85,1.85,0,0,0-.33,0c-.15,0-.33,0-.49,0s-.15,0-.23,0-.07,0-.17,0h-.33s0,0,0,0h-.26s-.09,0-.11,0,.09,0,.1,0a.47.47,0,0,0-.29,0H10s-.05,0-.12,0-.08,0-.07,0H9.63c-.06,0-.14,0-.12,0s0,0-.08,0a.44.44,0,0,0-.15,0c.06,0,.14,0,.12,0H9.12C9,.33,9,.33,9,.28s.1,0,.2-.06a1.37,1.37,0,0,1,.28,0,.39.39,0,0,0,.18,0h.26c.22,0,.44,0,.64,0h.73l.41,0h0a.43.43,0,0,0,.13,0h0a1,1,0,0,0,.23,0h.18a1.3,1.3,0,0,0-.38,0H11.8a3.72,3.72,0,0,0-.77,0h-.4a3.74,3.74,0,0,0-.61,0,1.74,1.74,0,0,1-.29,0c-.08,0-.17,0-.13,0s-.05,0-.09,0H9.18a2,2,0,0,0-.6,0h-.1a.6.6,0,0,0-.17,0H7.8a1.55,1.55,0,0,0-.27,0H7.29s0,0-.06,0H7.18s-.08,0-.07,0l0,0s0,0,.09,0h0l.09.07s0,0,.09,0h0l0,0H7.32c-.05,0-.08,0-.08,0s.05,0,.09,0a.13.13,0,0,1,.09,0s-.05,0-.08,0S7.09.5,7,.52H7a.75.75,0,0,0-.18,0h0a1.11,1.11,0,0,0-.24,0h0a1,1,0,0,0-.22,0h0A2.79,2.79,0,0,0,6,.56c-.1,0-.28,0-.41,0a3.25,3.25,0,0,0-.4,0H4.39l-.57,0a1.17,1.17,0,0,0-.27,0H3.43a1.48,1.48,0,0,0-.28,0h0A.41.41,0,0,0,3,.56H2.73a.39.39,0,0,0-.17,0h0s.06,0,.08,0h0l.14,0h0c.06,0,0,0-.08,0H2.56a1.11,1.11,0,0,0-.19,0,1.63,1.63,0,0,0-.5,0H1.78s-.13,0-.18,0H1.06a.42.42,0,0,0,.17,0,.48.48,0,0,0,.14,0h0s0,0,0,0h.32a.37.37,0,0,0,.13,0L2,.73H2l.14,0h0a1.76,1.76,0,0,0,.37.06h.08a1.49,1.49,0,0,0,.37,0h.31A3.63,3.63,0,0,0,3.77,1L4.3,1c.06,0,.1,0,.12,0s0,0-.09,0-.05,0,0,0,.08,0,.1,0H3.75c-.08,0,0,0,.05,0h0l.13,0H3.45a.4.4,0,0,0-.14,0,.43.43,0,0,1-.18,0c-.06,0-.11,0-.12,0h.33a3.7,3.7,0,0,0,.41,0H3.8s-.07,0-.1,0h0a4.78,4.78,0,0,0-.5,0h0a1.17,1.17,0,0,0-.22,0H3a1.23,1.23,0,0,0-.52,0,1.58,1.58,0,0,1-.32,0H2a2,2,0,0,0,.55.06h0l.22,0h0a5.1,5.1,0,0,0,.56.06h.23s0,0,0,0h0a.87.87,0,0,1-.25,0,1.16,1.16,0,0,1-.21,0H1.69a.94.94,0,0,0-.21,0H1.6a.64.64,0,0,0,.17,0h.38a4,4,0,0,0,.52,0h.13l1.12.06h0s0,0-.1,0H3.51a1.87,1.87,0,0,0,.29,0H3.51a.33.33,0,0,0-.14,0H3c-.09,0-.19,0-.28,0h0a.44.44,0,0,0-.16,0H1.78c-.25,0-.51,0-.76,0-.08,0,0,0,0,0s0,0,0,0H0a.52.52,0,0,0,.18,0H.46a3,3,0,0,0,.38,0H.91a3.53,3.53,0,0,0,.46,0h0a1.85,1.85,0,0,0,.33,0h0a2.23,2.23,0,0,0,.32,0h.13a1.22,1.22,0,0,0,.23,0h0a1.17,1.17,0,0,0,.25,0h.17l.46,0h0l.46,0h0a.31.31,0,0,0,.13,0H4s0,0,0,0a.26.26,0,0,0-.24,0c-.08,0,0,0,0,0h0A.21.21,0,0,0,4,2h.14a.62.62,0,0,0,.23,0h0a.63.63,0,0,0,.23,0h0a.31.31,0,0,0,.14,0h.16s.08,0,0,0H4.66l-.05,0H4.52v.06H5c.08,0,.11,0,0,0l-.22,0s0,0,0,0H5s0,0,0,0H5s0,0,0,0H5l.16,0a6.29,6.29,0,0,0,.68.09h0l.19,0h.41a3,3,0,0,0,.41,0h0a1.11,1.11,0,0,0,.26,0l.4,0c.3,0,.61,0,.91,0s.82,0,1.24,0H10a2.3,2.3,0,0,0,.41,0h.37a1,1,0,0,1,.38,0h.15c.2,0,.39,0,.59,0a5.48,5.48,0,0,0,.94-.07h.25c.2,0,.41,0,.61,0h.06s0,0,0,0,0,0,.05,0a.51.51,0,0,1,.21,0s.11,0,.13,0a1.54,1.54,0,0,1,.24,0h0a5.12,5.12,0,0,0,.73,0h0a1.45,1.45,0,0,0,.46,0h0a.58.58,0,0,0,.22,0h0a.81.81,0,0,0,.23,0h0a3.47,3.47,0,0,0,.51-.07h0a.92.92,0,0,0,.27,0h0a.31.31,0,0,0,.13,0h0a.65.65,0,0,0,.23,0h0a.56.56,0,0,0,.19,0h.27l.09,0h.37a2.17,2.17,0,0,0,.37,0h.33c.07,0,.11,0,.13,0h.36s.09,0,.09,0l-.08,0h-.23c-.09,0,0,0,0,0h0s.14,0,.13,0,0,0,0-.07,0-.08.15-.11a1.75,1.75,0,0,1,.36,0h.13a.25.25,0,0,0,.16,0S20.1,1.33,20,1.3ZM11.59.12h0ZM1.41,1.63h0Zm.47,0h0Zm.45,0h0ZM7.27.18s0,0,0,0h0ZM2.14.71Zm.73,0h0ZM7.8.21Zm9.86.65h0Zm1.13.88ZM5.3,2.19h0ZM5.5.65h0l0,0,0,0h0Zm.89.16.07,0H6.38S6.36.83,6.39.82Zm10.45,0h0s0,0,0,0Zm.27,0h0ZM13.31,2.3h0Zm-5.79,0h0ZM4.23,1.75Zm-.57-1ZM15.33,2Zm-2.82.2h0ZM6.08,1.78h0l.24-.05h0A.6.6,0,0,0,6.08,1.78ZM7,.66H7ZM13.45.37h0Zm3.82,1.38h0Zm-2.52.16h0ZM7.57.84h0ZM13,.35s0,0,0,0h0Zm2,.49h0Zm0,0h0Zm1.75.26h0Zm1.09.23h0ZM10,2.14h0Zm-3.12-.3h0ZM8.76.68h0Zm6.46.55s0,0,0,0S15.25,1.23,15.22,1.23Zm1.11.09ZM9.53,2h0ZM6.75,1.73h0ZM12.84.94Zm-.05.47h0Zm-.21-.05h0Zm.09,0h0Zm-.32.07h0Zm.07.08Zm.33-.17.07,0Zm.41,0Zm0,0h0ZM12.23,1h0Zm-4.73.3h0Zm.39-.07h0S7.87,1.26,7.89,1.26Zm.15,0H8Zm-.27.28h0Zm.52-.1h0Zm.65-.14h0Zm.3.13ZM9,1.73s0,0,0,0H9Zm.17.05h0Zm.52-.57Zm-.14,0h0Zm.18,0ZM11.05.91h0Zm-.24.16s0,0,0,0h0Zm.06,0s0,0,0,0h0Zm-.13.17h0ZM11.06,1h0Zm-1.16.26h0ZM8.85,1.1Zm-.42.26h0Zm.51.43h0Zm3.27-.32h0Zm0-.56h0ZM9.19,1h0Zm-1.1.54Zm.37-.14h0Zm1.1.31h0S9.56,1.66,9.55,1.66Zm.41.1h0ZM13.65,1Zm0,.08h0ZM10.35.94Zm-.1,0h0ZM9.67.81s0,0,0,0,0,0,.06,0Zm-.9.25h0Zm-2.64.51h0Zm.53,0h0Zm3.1.22h0S9.76,1.83,9.76,1.82ZM13.21.68h0Zm-.39.2h0ZM12.16.47h0ZM11.27.41Zm-1,.11h0Zm.06.29h0Zm-.31,0s0,0,0,0a.14.14,0,0,0,.08.05ZM9,.7H9Zm-.18,0ZM6,1.57H6ZM9.21,2h0ZM16,2h0Zm1.08-.23h0Zm.11-.11h0Zm.26-.09s0,0,0,0h0Zm-.15-.06h0ZM15.91.91h0Zm-.6.12h0a.28.28,0,0,0-.13,0h.16Zm-.3.11s0,0,0,0S15,1.14,15,1.15Zm-.78-.2,0,0ZM13.39.59h0S13.4.59,13.39.59ZM10.44.5h0Zm-.18,0,0,0ZM8.8.72h0a1.28,1.28,0,0,1-.2,0A.67.67,0,0,0,8.8.72ZM8.35.87h0ZM7.94.64h0Zm-2.19.72h0Zm.78.47h0Zm.62.26h0Zm3,0,0,0S10.1,2.1,10.11,2.09Zm4.12-.83h0s0,0,0,0Zm0,.15h0Zm2.05.42s0,0,0,0h0Zm1.31-.38h0ZM13.9.75h0Zm0-.13h0ZM13.24.33ZM9.89.49h0ZM7.39.83h0c.06,0,.07,0,.14,0h0c-.07,0-.15,0-.16,0s0,0,0,0h0a.27.27,0,0,0,.13,0h0l-.14,0h0l0,0h0Zm0,0h0Zm-1.23.24Zm0-.07ZM5.66,1Zm-1.41.23h0Zm1.41.18h0Zm2.87.91h0s0,0,0,0Zm.84-.21h0Zm.72.05h0Zm.32-.12s0,0,0,0h0Zm.13-.15h0Zm.27,0h0ZM12.9,2h0Zm.54,0h0Zm.54-.3s0,0,0,0h0Zm4.43-.1.05,0-.07,0Zm.18,0h0Zm-2-.67h0ZM15.88.79s0,0,0,0h0Zm-.54,0h0ZM15.05.64ZM13.64.5h0ZM13,.28Zm-1.14,0h0Zm-.05,0h0ZM9.13.48s0,0,0,0h0ZM6.84.92h0ZM5.11,1Zm.05,0h0Zm-.94.59h0Zm.68.27h0Zm.46,0h0Zm.8,0ZM8,2.17H8Zm-.1.15h0s0,0,0,0Zm1.34,0h0Zm1.67-.37,0,0h0Zm7.91-.74ZM18,1.26h0ZM16.29.83h0ZM15.07.24h0ZM13.69.39l.2,0ZM6.85.82h0Zm-.28,0h0ZM5.39.66h0ZM3.65.74h0Zm0,.79h0Zm3.49.81h0l0,0Zm.3-.1h0Zm.41-.16h0Zm0,.25s.09,0,.07,0l-.08,0Zm3.19,0h0s0,0,0,0Zm.74,0s0,0,0,0h0Zm1.67-.08h0Zm2.21-.12h0Zm.29,0h0Zm1.15-.29h0s0,0,.05,0h0Zm1.63-.16h0ZM17.38.91h0ZM12.57.21h0ZM9.55.4Zm-6,.33h0Zm.64.2h0Zm1.21.13h0Zm-1.61.33H3.67l.06,0Zm0,.15h0Zm-.21.2h0Zm2.06.47s0,0,0,0h0Zm1,.06s0,0,0,0l0,0Zm.16,0-.05,0Zm3.63,0h0Zm8.39-.62ZM19,1.57s0,0,0,0h0S19,1.58,19,1.57Zm.12-.41h0Zm.45.1h0Zm-.24-.11h0Zm.13.19h0Zm-.27-.24h0ZM18,1.13h0Zm-3-1a0,0,0,0,0,0,0h0S15,.07,15,.08ZM8.35.35l-.1,0h0s0,0,0,0h0s0,0,.09,0h0ZM3.75.63Zm-.5,0s0,0,0,0h0S3.25.6,3.25.61ZM2.56.69h0ZM2.14.74h0S2.15.75,2.14.74Zm.38,0s0,0,0,0h0ZM4,1.2H4Zm-1.14.15h0Zm.73.06h0Zm2.73.74h0ZM18,1.84Zm.55,0h0Zm.64-.28h0Zm.77-.2h0Zm-.73-.23h0ZM16.32.74s0,0,0,0h0Zm-.18,0h0ZM15.59.6a.6.6,0,0,0,.28-.08h0Zm.77-.18h0s0,0,0,0h0s0,0,0,0h0s0,0,0,0Zm-8-.24h0ZM2.93.62A.11.11,0,0,0,3,.58s0,0,0,0ZM3.2.69h0A.84.84,0,0,0,3,.67Zm.91.41h0Zm-.74,0h0Zm.5.12h0Zm-3.18.4h0Zm3.23.15h0ZM4.48,2s0,0,0,0h0Zm7.79.42.16,0-.12,0Zm.36,0h0Z"/></g></g></svg>