<svg xmlns="http://www.w3.org/2000/svg" viewBox="0 0 334.32 370.73"><defs><style>.cls-1{fill:#3dc0cd;}.cls-2{fill:#445164;}.cls-3{fill:#313c3b;}.cls-4{fill:#ffb91d;}.cls-5{fill:#f73906;}.cls-6{fill:#db6a2a;}.cls-7{fill:#b2440d;}.cls-8{fill:#cc2605;}.cls-9{fill:#ea3207;}.cls-10{fill:#4591cf;}.cls-11{fill:#d1311a;}.cls-12{fill:#4a4c50;}.cls-13{fill:#475150;}.cls-14{fill:#8f9b9a;}</style></defs><title>instr</title><g id="Слой_2" data-name="Слой 2"><g id="_9" data-name="9"><path class="cls-1" d="M63.79,118.67l-36.91.44L8.81,151.3,27.65,183l26.17-.31,51.11,86.12,16-9.49L69.81,173.23l12.81-22.82Zm-.4,32-8.65,15.41-17.67.21-9-15.2,8.65-15.41,17.67-.21Z"/><polygon class="cls-2" points="290.78 144.5 297.62 150.78 259.89 195.09 249.84 185.86 290.78 144.5"/><path class="cls-1" d="M216,254.2l53.19-63.47-15.78-14.49-58.73,58.4a13.25,13.25,0,0,0,.38,19.15l1.82,1.67A13.25,13.25,0,0,0,216,254.2ZM203,246.9a5.43,5.43,0,1,1,7.68-.33A5.44,5.44,0,0,1,203,246.9Z"/><path class="cls-3" d="M332.56,125.24l-1.07-1-17.1,18.62-13.13-2.93-4-12.83,17.1-18.62-1.07-1a28.64,28.64,0,1,0,19.29,17.72Z"/><polygon class="cls-2" points="217.87 195.23 208.69 196.64 197.7 139.49 211.2 137.42 217.87 195.23"/><path class="cls-1" d="M179,68.26l16.28,81.2,21.17-3.25-8.85-82.34a13.24,13.24,0,0,0-15.18-11.67l-2.44.37A13.25,13.25,0,0,0,179,68.26Zm13.79-5.53a5.43,5.43,0,1,1-4.54,6.2A5.44,5.44,0,0,1,192.82,62.74Z"/><path class="cls-3" d="M206.78,239.88l1.44-.22-3.84-25,10.49-8.41,12.54,4.88,3.84,25,1.43-.22a28.64,28.64,0,1,0-25.89,4Z"/><polygon class="cls-2" points="158.54 39.14 168.37 39.14 170.68 100.68 156.24 100.68 158.54 39.14"/><path class="cls-4" d="M152.12,90.64h22.67l4,87.55a14,14,0,0,1-14,14.65h-2.61a14,14,0,0,1-14-14.65Z"/><path class="cls-3" d="M177.32,0V26.93H149.6V0a30.31,30.31,0,1,0,27.72,0Z"/><rect class="cls-5" x="240.55" y="108.41" width="15.67" height="24.58" transform="translate(53.85 316.7) rotate(-71.13)"/><path class="cls-6" d="M213.83,222l32.07-93.85,8.66,3C245.17,198.11,224.15,225.72,213.83,222Z"/><path class="cls-7" d="M237.16,125.14l8.75,3L213.83,222C203.54,218.24,203.92,183.28,237.16,125.14Z"/><path class="cls-5" d="M248.05,121.67l15.12-44.25,44.24,15.12A46.76,46.76,0,0,1,248.05,121.67Z"/><path class="cls-8" d="M218.93,62.3l44.25,15.12-15.12,44.25A46.76,46.76,0,0,1,218.93,62.3Z"/><path class="cls-5" d="M307.41,92.54s8.15-4,13.76-17.58L270,57.47l-6.82,20Z"/><path class="cls-8" d="M218.93,62.31s-4-8.15-.12-22.32L270,57.47l-6.82,20Z"/><polygon class="cls-2" points="65.48 235.92 57.28 238.51 27.92 152.28 39.98 148.47 65.48 235.92"/><path class="cls-9" d="M46.06,155.78l-18.92,6L.75,89.74A12.27,12.27,0,0,1,8.57,73.82l2.18-.69A12.27,12.27,0,0,1,26.3,81.67Z"/><path class="cls-10" d="M131.22,176.76a8,8,0,0,1-11-2.43L74.41,102.42a7.94,7.94,0,0,1,2.43-11l23.67-15.09a8,8,0,0,1,11,2.43l45.84,71.92a8,8,0,0,1-2.43,11Z"/><polygon class="cls-10" points="106.63 163.27 75.45 198.69 63.4 179.78 110.21 132.99 126.44 158.45 113.91 174.69 106.63 163.27"/><rect class="cls-11" x="44.5" y="66.66" width="85.28" height="37.61" transform="translate(-32.28 60.23) rotate(-32.51)"/><polygon class="cls-5" points="77.19 48.78 58.08 60.96 47.77 88.26 106.29 50.96 77.19 48.78"/><polygon class="cls-12" points="58.5 51.27 58.08 60.96 77.19 48.78 68.23 45.07 58.5 51.27"/><polygon class="cls-12" points="55 24.31 55.42 14.63 36.31 26.8 45.27 30.51 55 24.31"/><rect class="cls-12" x="47.76" y="3.25" width="5.01" height="48.73" transform="translate(-6.97 31.35) rotate(-32.51)"/><path class="cls-12" d="M35.07,21.07a1.35,1.35,0,0,1-1.87-.41l-5.47-8.58a1.35,1.35,0,0,1,.41-1.87L43.82.21a1.35,1.35,0,0,1,1.87.41l5.47,8.58a1.35,1.35,0,0,1-.41,1.87Z"/><polygon class="cls-10" points="86.6 138.34 101.39 128.91 98.26 124 78.56 136.56 91.11 156.26 96.03 153.13 86.6 138.34"/><polygon class="cls-11" points="84.47 212.84 75.45 198.69 106.63 163.27 113.91 174.69 84.47 212.84"/><path class="cls-13" d="M37.55,203.08V358.2a12.53,12.53,0,0,0,12.53,12.53H271.34a12.53,12.53,0,0,0,12.53-12.53V203.08Z"/><rect class="cls-3" x="38.59" y="240.57" width="246.32" height="22.49"/><path class="cls-14" d="M190.39,339.37l-35.61-32.52-1.69,1.69-37.39-35.77-3.82,3.82L147.64,314,146,315.67l32.52,35.61a7.72,7.72,0,0,0,11.15.25l1-1A7.71,7.71,0,0,0,190.39,339.37Z"/><polygon class="cls-14" points="188.3 289.31 192.13 293.14 169.08 317.98 163.46 312.36 188.3 289.31"/><path class="cls-14" d="M165.77,306.85l8.82,8.82-32.51,35.61a7.72,7.72,0,0,1-11.15.25l-1-1a7.71,7.71,0,0,1,.25-11.15Z"/><path class="cls-14" d="M210.84,281.39l-10.48,10.48-10.79-10.79,10.48-10.48a16.68,16.68,0,1,0,10.79,10.79Z"/><rect class="cls-3" x="104.63" y="155.54" width="19.69" height="32.91"/><rect class="cls-3" x="199.19" y="155.54" width="19.69" height="32.91"/><rect class="cls-13" x="15.94" y="182.72" width="291.63" height="60.07" rx="5.02" ry="5.02"/><rect class="cls-3" x="97.35" y="125.74" width="128.81" height="30.37"/><rect class="cls-4" x="74.67" y="179.73" width="33" height="67.1"/><rect class="cls-4" x="215.83" y="179.73" width="33" height="67.1"/><path class="cls-13" d="M122.42,146.81c0,6.56-9.84,6.48-9.84,0V136c0-6.53,9.84-6.5,9.84,0Z"/><path class="cls-13" d="M144.55,146.81c0,6.56-9.84,6.48-9.84,0V136c0-6.53,9.84-6.5,9.84,0Z"/><path class="cls-13" d="M166.67,146.81c0,6.56-9.84,6.48-9.84,0V136c0-6.53,9.84-6.5,9.84,0Z"/><path class="cls-13" d="M188.8,146.81c0,6.56-9.84,6.48-9.84,0V136c0-6.53,9.84-6.5,9.84,0Z"/><path class="cls-13" d="M210.93,146.81c0,6.56-9.84,6.48-9.84,0V136c0-6.53,9.84-6.5,9.84,0Z"/><path class="cls-13" d="M193.08,336.42,157.47,303.9l-2.82-2.58L153,302.94l-34.57-33.07-2.83-2.7-2.77,2.77L109,273.77l-2.77,2.77,2.7,2.83L142,313.92l-1.62,1.62,2.58,2.82L175.52,354a11.72,11.72,0,0,0,16.93.38l1-1a11.71,11.71,0,0,0-.38-16.93Zm-3.46,15.12a7.72,7.72,0,0,1-11.15-.25L146,315.67l1.68-1.68-35.77-37.39,3.82-3.82,37.39,35.77,1.69-1.69,35.61,32.52a7.71,7.71,0,0,1,.25,11.15Z"/></g></g></svg>