<svg xmlns="http://www.w3.org/2000/svg" viewBox="0 0 62.22 62.22"><defs><style>.cls-1{fill:#49c5b6;}</style></defs><title>logo</title><g id="Слой_2" data-name="Слой 2"><g id="Слой_1-2" data-name="Слой 1"><path class="cls-1" d="M31.1,0A31.11,31.11,0,1,0,62.22,31.11,31.11,31.11,0,0,0,31.1,0ZM29.29,48.34a1.55,1.55,0,0,1-1.55,1.55H20a1.55,1.55,0,0,1-1.55-1.55h0V40.58A1.55,1.55,0,0,1,20,39h7.76a1.55,1.55,0,0,1,1.55,1.55h0Zm0-14.45a1.55,1.55,0,0,1-1.55,1.55H20a1.55,1.55,0,0,1-1.56-1.54h0V26.08A1.55,1.55,0,0,1,20,24.53h7.76a1.55,1.55,0,0,1,1.55,1.55h0Zm14.5,14.45a1.55,1.55,0,0,1-1.55,1.55H34.47a1.55,1.55,0,0,1-1.55-1.55h0V40.58A1.55,1.55,0,0,1,34.47,39h7.76a1.55,1.55,0,0,1,1.56,1.54h0Zm0-14.45a1.55,1.55,0,0,1-1.55,1.55H34.47a1.55,1.55,0,0,1-1.56-1.54h0V26.08a1.55,1.55,0,0,1,1.55-1.55h7.76a1.55,1.55,0,0,1,1.57,1.53v7.83Zm14.49-6.46a1,1,0,0,1-.57-.17L31.1,9.47,4.5,27.21a1,1,0,1,1-1.13-1.7L30.54,7.4a1,1,0,0,1,1.13,0L58.84,25.51a1,1,0,0,1-.57,1.87Z"/></g></g></svg>