<svg xmlns="http://www.w3.org/2000/svg" viewBox="0 0 121.11 121.06"><defs><style>.cls-1{fill:#fff;}</style></defs><title>step6_1</title><g id="Слой_2" data-name="Слой 2"><g id="Слой_1-2" data-name="Слой 1"><path class="cls-1" d="M105.49,19.72c-5.06-5.06-25.81-9.44-26.69-9.63a1,1,0,0,0-1.17,1.17c.18.88,4.56,21.63,9.63,26.69a13.94,13.94,0,0,0,9.8,4.11,12.91,12.91,0,0,0,3-.36,1,1,0,0,0-.46-1.93,11.76,11.76,0,0,1-11-3.22C84.69,32.64,81,17.26,79.85,12.36c4.9,1.11,20.28,4.84,24.19,8.75a11.76,11.76,0,0,1,3.22,11,1,1,0,0,0,1.93.46A13.77,13.77,0,0,0,105.49,19.72Z"/><path class="cls-1" d="M111.57,39.83,101.75,30a1,1,0,1,0-1.4,1.4l9.82,9.82a1,1,0,0,0,1.4-1.4Z"/><path class="cls-1" d="M108.76,42.64l-9.82-9.82a1,1,0,0,0-1.4,1.4L107.36,44a1,1,0,0,0,1.4-1.4Z"/><path class="cls-1" d="M113,38.43a1,1,0,0,0-1.4,0L106,44a1,1,0,1,0,1.4,1.4L113,39.83A1,1,0,0,0,113,38.43Z"/><path class="cls-1" d="M120,56.67,107.37,44a1,1,0,0,0-1.4,1.4L118.6,58.07a1,1,0,1,0,1.4-1.4Z"/><path class="cls-1" d="M101.75,30a3,3,0,1,0-4.21,4.21,1,1,0,0,0,1.4-1.4,1,1,0,0,1,1.4-1.4,1,1,0,1,0,1.4-1.4Z"/><path class="cls-1" d="M40.74,79.37H1.05a1,1,0,0,0-1,1v39.69a1,1,0,0,0,1,1H40.74a1,1,0,0,0,1-1V80.36A1,1,0,0,0,40.74,79.37Zm-1,39.69H2V81.36H39.7Z"/><path class="cls-1" d="M7.71,83.63a1,1,0,0,0-1.4,0l-2,2A1,1,0,1,0,5.71,87l2-2A1,1,0,0,0,7.71,83.63Z"/><path class="cls-1" d="M13.66,83.63a1,1,0,0,0-1.4,0L4.32,91.57A1,1,0,1,0,5.72,93L13.66,85A1,1,0,0,0,13.66,83.63Z"/><path class="cls-1" d="M120.11,79.37H80.42a1,1,0,0,0-1,1v39.69a1,1,0,0,0,1,1h39.69a1,1,0,0,0,1-1V80.36A1,1,0,0,0,120.11,79.37Zm-1,39.69H81.41V81.36h37.7Z"/><path class="cls-1" d="M87.08,83.63a1,1,0,0,0-1.4,0l-2,2a1,1,0,1,0,1.4,1.4l2-2A1,1,0,0,0,87.08,83.63Z"/><path class="cls-1" d="M93,83.63a1,1,0,0,0-1.4,0l-7.94,7.94a1,1,0,0,0,1.4,1.4L93,85A1,1,0,0,0,93,83.63Z"/><path class="cls-1" d="M80.43,39.68H40.74a1,1,0,0,0-1,1V80.37a1,1,0,0,0,1,1H80.43a1,1,0,0,0,1-1V40.68A1,1,0,0,0,80.43,39.68Zm-1,39.69H41.73V41.67h37.7Z"/><path class="cls-1" d="M47.39,43.94a1,1,0,0,0-1.4,0l-2,2a1,1,0,1,0,1.4,1.4l2-2A1,1,0,0,0,47.39,43.94Z"/><path class="cls-1" d="M53.35,43.94a1,1,0,0,0-1.4,0l-7.95,8a1,1,0,1,0,1.4,1.4l7.94-7.94A1,1,0,0,0,53.35,43.94Z"/><path class="cls-1" d="M40.74,0H1A1,1,0,0,0,0,1V40.69a1,1,0,0,0,1,1H40.69a1,1,0,0,0,1-1V1A1,1,0,0,0,40.74,0Zm-1,39.69H2V2H39.7Z"/><path class="cls-1" d="M7.7,4.26a1,1,0,0,0-1.4,0l-2,2a1,1,0,1,0,1.4,1.4l2-2A1,1,0,0,0,7.7,4.26Z"/><path class="cls-1" d="M13.66,4.26a1,1,0,0,0-1.4,0L4.32,12.2a1,1,0,1,0,1.4,1.4l7.94-7.94A1,1,0,0,0,13.66,4.26Z"/><path class="cls-1" d="M80.43,79.37H40.74a1,1,0,0,0-1,1v39.69a1,1,0,0,0,1,1H80.43a1,1,0,0,0,1-1V80.36A1,1,0,0,0,80.43,79.37Zm-1,39.69H41.73V81.36h37.7Z"/><path class="cls-1" d="M70.87,101.27c-2.81-1.13-5.21-1-7.11.25-4.13,2.79-4.17,10.28-4.17,10.6a1,1,0,0,0,2,0c0-.07,0-6.76,3.3-9,1.33-.9,3.1-.91,5.26,0a1,1,0,0,0,.74-1.84Z"/><path class="cls-1" d="M57.4,101.52c-1.9-1.29-4.29-1.37-7.11-.25a1,1,0,1,0,.74,1.84c2.16-.86,3.93-.85,5.26,0,3.26,2.2,3.3,8.89,3.3,9a1,1,0,0,0,2,0C61.58,111.79,61.53,104.31,57.4,101.52Z"/><path class="cls-1" d="M59,93.74a4.93,4.93,0,0,0-4.65-.43A1,1,0,0,0,55,95.19a3,3,0,0,1,2.86.16c1.45,1,1.78,3.86,1.78,4.86a1,1,0,0,0,1,1h0a1,1,0,0,0,1-1C61.57,100,61.55,95.6,59,93.74Z"/><path class="cls-1" d="M66.85,93.31a4.92,4.92,0,0,0-4.65.43c-2.58,1.85-2.6,6.27-2.6,6.46a1,1,0,0,0,2,0c0-1,.32-3.8,1.78-4.85a3,3,0,0,1,2.87-.16,1,1,0,0,0,.63-1.88Z"/><path class="cls-1" d="M52.65,107.15a3,3,0,1,0,3,3h0A3,3,0,0,0,52.65,107.15Zm0,4a1,1,0,1,1,1-1,1,1,0,0,1-1,1Z"/><path class="cls-1" d="M68.52,107.15a3,3,0,1,0,3,3h0A3,3,0,0,0,68.52,107.15Zm0,4a1,1,0,1,1,1-1,1,1,0,0,1-1,1Z"/><path class="cls-1" d="M60.58,87.31a1,1,0,0,0-1,1v4a1,1,0,0,0,2,0v-4A1,1,0,0,0,60.58,87.31Z"/><path class="cls-1" d="M47.39,83.63a1,1,0,0,0-1.4,0l-2,2a1,1,0,1,0,1.4,1.4l2-2A1,1,0,0,0,47.39,83.63Z"/><path class="cls-1" d="M53.35,83.63a1,1,0,0,0-1.4,0L44,91.57a1,1,0,1,0,1.4,1.4L53.35,85A1,1,0,0,0,53.35,83.63Z"/><path class="cls-1" d="M40.74,39.68H1.05a1,1,0,0,0-1,1V80.37a1,1,0,0,0,1,1H40.74a1,1,0,0,0,1-1V40.68A1,1,0,0,0,40.74,39.68Zm-1,39.69H2V41.67H39.7Z"/><path class="cls-1" d="M31.19,61.58c-2.81-1.13-5.21-1-7.11.25-4.13,2.79-4.17,10.28-4.17,10.6a1,1,0,0,0,2,0c0-.07,0-6.76,3.3-9,1.33-.9,3.1-.91,5.26,0a1,1,0,1,0,.74-1.84Z"/><path class="cls-1" d="M17.71,61.83c-1.9-1.29-4.29-1.37-7.11-.25a1,1,0,1,0,.74,1.84c2.16-.86,3.93-.85,5.26,0,3.26,2.2,3.3,8.89,3.3,9a1,1,0,0,0,2,0C21.89,72.11,21.84,64.62,17.71,61.83Z"/><path class="cls-1" d="M19.28,54.06a4.93,4.93,0,0,0-4.65-.43,1,1,0,0,0,.63,1.88,3,3,0,0,1,2.86.16c1.45,1,1.78,3.86,1.78,4.86a1,1,0,0,0,1,1h0a1,1,0,0,0,1-1C21.89,60.33,21.86,55.89,19.28,54.06Z"/><path class="cls-1" d="M27.16,53.62a4.92,4.92,0,0,0-4.65.43c-2.58,1.85-2.6,6.27-2.6,6.46a1,1,0,0,0,2,0c0-1,.32-3.8,1.78-4.85a3,3,0,0,1,2.87-.16,1,1,0,0,0,.63-1.88Z"/><path class="cls-1" d="M13,67.46a3,3,0,1,0,3,3A3,3,0,0,0,13,67.46Zm0,4a1,1,0,1,1,1-1,1,1,0,0,1-1,1Z"/><path class="cls-1" d="M28.83,67.46a3,3,0,1,0,3,3A3,3,0,0,0,28.83,67.46Zm0,4a1,1,0,1,1,1-1,1,1,0,0,1-1,1Z"/><path class="cls-1" d="M20.9,47.62a1,1,0,0,0-1,1v4a1,1,0,0,0,2,0v-4A1,1,0,0,0,20.9,47.62Z"/><path class="cls-1" d="M7.71,43.94a1,1,0,0,0-1.4,0l-2,2a1,1,0,1,0,1.4,1.4l2-2A1,1,0,0,0,7.71,43.94Z"/><path class="cls-1" d="M13.66,43.94a1,1,0,0,0-1.4,0L4.32,51.88a1,1,0,1,0,1.4,1.4l7.94-7.94A1,1,0,0,0,13.66,43.94Z"/><path class="cls-1" d="M76.46,4H44.71a1,1,0,1,0,0,2H76.46a1,1,0,0,0,0-2Z"/><path class="cls-1" d="M72.49,9.89H44.71a1,1,0,0,0,0,2H72.49a1,1,0,0,0,0-2Z"/><path class="cls-1" d="M74.47,15.89H44.71a1,1,0,0,0,0,2H74.47a1,1,0,0,0,0-2Z"/><path class="cls-1" d="M76.46,21.83H44.71a1,1,0,0,0,0,2H76.46a1,1,0,0,0,0-2Z"/><path class="cls-1" d="M76.46,27.78H44.71a1,1,0,0,0,0,2H76.46a1,1,0,0,0,0-2Z"/><path class="cls-1" d="M76.46,33.73H44.71a1,1,0,0,0,0,2H76.46a1,1,0,0,0,0-2Z"/></g></g></svg>