<svg xmlns="http://www.w3.org/2000/svg" viewBox="0 0 115.67 79.67"><defs><style>.cls-1{fill:#fff;}</style></defs><title>step1</title><g id="Слой_2" data-name="Слой 2"><g id="Слой_1-2" data-name="Слой 1"><path class="cls-1" d="M75.11,7.26,70.82,1.33,66.74,4.16,55.5,0,38.66,44.7,21.82,0,20.9.34V.27H0v77.3H20.93V56.72l8.59,23,9.17-3.39,9.17,3.39L66.23,30.89l32.3,45.59,17.14-11.91L75.11,7.35Zm-7-2,1.43-1L71,6.34l-1-.39ZM18.7,76H1.61V72.24H10.2V70.09H1.61V66.33H10.2V64.18H1.61V60.89H10.2V58.74H1.61V55H10.2V52.89H1.61V49.67H10.2V47.52H1.61V43.76H10.2V41.61H1.61V38.39H10.2V36.24H1.61V32.48H10.2V30.33H1.61V27.11H10.2V25H1.61V21.2H10.2V19H1.61V15.89H10.2v-2.2H1.61V9.89H10.2V7.79H1.61V2.42H18.79V76Zm10-3.2,8.38-3.45-.72-1.74L28,71l-1.32-3.53,8.2-3.38-.72-1.74-8.14,3.36-1.32-3.53,8-3.31L32,57.17l-8,3.28L22.9,56.89l7.84-3.23L30,51.92l-7.79,3.21-1.3-3.5h0l7.65-3.16-.72-1.74-6.94,2.86V46l5.46-2.25L25.66,42l-4.74,2V40.64l3.31-1.37-.72-1.74L20.92,38.6V3.22L37.47,47.56h0l8.91,23.87L30.52,77.35Zm17.44,4.58-5.27-2,6.52-2.44.45-.17Zm2.08-5.58L40.84,52l4.67,1.83.69-1.75-6.09-2.48-.77-2.07.74-2,7.65,3,.68-1.75-7.67-3,1.32-3.52,7.73,3,.68-1.75-7.76-3L44,35l7.81,3.06.68-1.75-7.84-3.07L46,29.74l7.9,3.09.68-1.75L46.64,28,48,24.46l8,3.13.68-1.75-8-3.14,1.31-3.52L58,22.34l.68-1.75-8.09-3.17,1.32-3.53,8.15,3.19.68-1.75-8.18-3.2L53.9,8.61l8.21,3.18L62.79,10,54.53,6.81,56.06,2.7l8.14,3h0l7.72,2.88-7.7,20.64h0Zm63.41-7.49L97.77,74,95.15,70.3l7.44-5.5-1.12-1.52-7.4,5.47-2.16-3.08,7.33-5.42-1.12-1.51-7.29,5.39L88.67,61l7.22-5.33-1.12-1.51-7.18,5.3-2.16-3.08,7.1-5.25-1.12-1.52-6.93,5.23-2.16-3.08,7-5.17L88.2,45.13l-7,5.14-2.09-3.12L86,42.07l-1.12-1.52L78,45.61l-2.16-3.08,6.76-5L81.51,36l-6.73,5-2.19-3.13L79.24,33l-1.13-1.49L71.5,36.37l-2.16-3.08,6.54-4.84-1.11-1.56-6.5,4.81-1.95-2.77.24-.65,6-4.41-1.12-1.51L67.8,25,73.53,9.69Z"/></g></g></svg>