<svg xmlns="http://www.w3.org/2000/svg" viewBox="0 0 146.59 98.98"><defs><style>.cls-1{fill:#fff;}</style></defs><title>step7_2</title><g id="Слой_2" data-name="Слой 2"><g id="Слой_1-2" data-name="Слой 1"><path class="cls-1" d="M47.07,45a1.51,1.51,0,0,0,2.13,2.13,2.76,2.76,0,0,1,3.89,0A1.51,1.51,0,0,0,55.22,45,5.77,5.77,0,0,0,47.07,45Z"/><path class="cls-1" d="M51.14,59.81a22.07,22.07,0,0,1-31.18,0,1.51,1.51,0,0,0-2.13,2.13,25.09,25.09,0,0,0,35.44,0,1.51,1.51,0,0,0-2.13-2.13Z"/><path class="cls-1" d="M71.1,47.9a8.37,8.37,0,0,0-6.85-8.22V14.44a9.73,9.73,0,0,0-13-9.18L41.79,2.05a37.53,37.53,0,0,0-22.12-.73C10.24,3.92,4.83,9.43,4,17.25A11.44,11.44,0,0,0,2.28,20.5l-.73,2.17a2.62,2.62,0,0,0,4.3,2.72,5.26,5.26,0,0,1,1-.74v15a8.35,8.35,0,0,0,.47,16.5,28.93,28.93,0,0,0,7.91,15.2,28.34,28.34,0,0,0,20.32,8.54h0A28.71,28.71,0,0,0,63.82,56.15,8.37,8.37,0,0,0,71.1,47.9ZM58.24,8.9a6.61,6.61,0,0,1,3,5.6V34.21A9.79,9.79,0,0,1,53,24.55L52.85,8a6.6,6.6,0,0,1,5.38.9ZM4.88,22.38l.29-.87a8.44,8.44,0,0,1,11.56-5,11.52,11.52,0,0,0,13.41-2.79l.37-.42a1.51,1.51,0,0,0-2.26-2l-.37.42A8.49,8.49,0,0,1,18,13.83a11.46,11.46,0,0,0-9.34-.15l-.8.38c1.75-4.67,6-8,12.66-9.8a34.53,34.53,0,0,1,20.35.68l9,3L50,15.72a26.61,26.61,0,0,1-36,6.51,8.16,8.16,0,0,0-9.12.14ZM3,47.91a5.35,5.35,0,0,1,3.83-5.12V51q0,1.06.07,2.1A5.35,5.35,0,0,1,3,47.9ZM53.72,69.4a25.52,25.52,0,0,1-18.16,7.52h0a25.35,25.35,0,0,1-18.17-7.64A26,26,0,0,1,9.88,51V24a5.21,5.21,0,0,1,2.46.84A29.63,29.63,0,0,0,50,20.43v4.09A12.8,12.8,0,0,0,61.25,37.21v14a25.51,25.51,0,0,1-7.54,18.18ZM64.2,53.05c0-.6.06-1.21.06-1.81V42.79a5.34,5.34,0,0,1-.06,10.26Z"/><path class="cls-1" d="M117.31,79.61a7.38,7.38,0,0,1-10.42,0,1.51,1.51,0,0,0-2.13,2.13,10.4,10.4,0,0,0,14.69,0,1.51,1.51,0,1,0-2-2.28l-.15.15Z"/><path class="cls-1" d="M146.19,94.56c-3.53-3.91-3.68-13.86-3.26-24.17a7.89,7.89,0,0,0,.54-11c.51-10.51.79-17.53-2.55-24a27.07,27.07,0,0,0-10.94-11,35.79,35.79,0,0,0-19.16-4.74,20.59,20.59,0,0,0-15.2,7.58,14.58,14.58,0,0,0-11.75,7.08c-.21.35-.4.72-.59,1.08-3.33,6.49-3.06,13.52-2.55,24a7.89,7.89,0,0,0,.54,11c.42,10.3.27,20.26-3.26,24.17A1.51,1.51,0,0,0,78.6,97a31.79,31.79,0,0,0,11.29,2,35.9,35.9,0,0,0,9.32-1.26,36.29,36.29,0,0,0,8.5-3.45,27,27,0,0,0,8.79,0,36.29,36.29,0,0,0,8.5,3.45A35.43,35.43,0,0,0,134.27,99a32.09,32.09,0,0,0,11.34-2,1.51,1.51,0,0,0,.59-2.42ZM139,67.74V60a4.9,4.9,0,0,1,0,9.33C139,68.78,139,68.26,139,67.74ZM86,36.74c.16-.32.34-.63.52-.94a11.59,11.59,0,0,1,9.9-5.6h0a1.51,1.51,0,0,0,1.16-.59,17.62,17.62,0,0,1,13.36-7A32.79,32.79,0,0,1,128.46,27a24.12,24.12,0,0,1,9.76,9.76c2.67,5.19,2.75,10.84,2.31,20.55A7.86,7.86,0,0,0,139,56.8V55.27a1.51,1.51,0,0,0-3,0v3.42c-20.75.22-32-9.77-35-12.9a1.51,1.51,0,0,0-2.48.47c-2.19,5.32-6,8.11-12,8.77a1.51,1.51,0,0,0-1.34,1.5v.28a7.84,7.84,0,0,0-1.52.46c-.45-9.65-.37-15.3,2.3-20.5Zm-.74,32.53a4.9,4.9,0,0,1,0-9.33v7.77a10.59,10.59,0,0,0,0,1.59ZM81.55,94.76c2.69-4.59,3.15-12.21,2.81-22.61a7.84,7.84,0,0,0,1.24.27,27,27,0,0,0,17.64,20.7c-4.37,1.92-12.61,4.4-21.7,1.67Zm30.56-3.14A23.94,23.94,0,0,1,88.2,67.71V57.88c5.65-.93,9.67-3.71,12.22-8.46A44.3,44.3,0,0,0,111,56.5a55.69,55.69,0,0,0,25,5.25v6a23.94,23.94,0,0,1-23.94,23.9Zm13.78,3.22A35.65,35.65,0,0,1,121,93.13a27,27,0,0,0,17.65-20.7,7.84,7.84,0,0,0,1.24-.27c-.34,10.4.12,18,2.81,22.61a30.23,30.23,0,0,1-16.8.1Z"/><path class="cls-1" d="M94.1,63.27a1.51,1.51,0,0,0,2.13,2.13,2.48,2.48,0,0,1,3.5,0,1.51,1.51,0,0,0,2.13-2.13A5.49,5.49,0,0,0,94.1,63.27Z"/><path class="cls-1" d="M130.11,65.44a1.51,1.51,0,0,0,0-2.13,5.5,5.5,0,0,0-7.76,0,1.51,1.51,0,0,0,2,2.28l.15-.15a2.48,2.48,0,0,1,3.5,0A1.51,1.51,0,0,0,130.11,65.44Z"/></g></g></svg>