<svg xmlns="http://www.w3.org/2000/svg" viewBox="0 0 93.22 128.66"><defs><style>.cls-1{fill:#fff;}</style></defs><title>step5_1</title><g id="Слой_2" data-name="Слой 2"><g id="Слой_1-2" data-name="Слой 1"><path class="cls-1" d="M66,17.53H57.2a.55.55,0,0,0-.55.55h0V33H55a.55.55,0,0,0,0,1.1h1.65v9.38a.55.55,0,1,0,1.1,0h0V34.07H66a8.27,8.27,0,1,0,0-16.55Zm5.07,13.34A7.15,7.15,0,0,1,66,33H57.78V18.63h8.28a7.17,7.17,0,0,1,5.06,12.24Z"/><path class="cls-1" d="M67.12,36.28H55a.55.55,0,0,0,0,1.1H67.12a.55.55,0,0,0,0-1.1Z"/><path class="cls-1" d="M86.45,0H23.72l-.27.07h0l-.24.11h0L23,.33h0l-.21.18h0L.51,22.77h0L.33,23h0a2.08,2.08,0,0,0-.15.23h0a2.11,2.11,0,0,0-.11.24h0a2.06,2.06,0,0,0-.07.27H0A2.15,2.15,0,0,0,0,24v98.14a6.55,6.55,0,0,0,6.54,6.54H86.68a6.55,6.55,0,0,0,6.54-6.54V6.54A6.55,6.55,0,0,0,86.67,0ZM22,7.13V19.9a2.37,2.37,0,0,1-2.37,2.37H6.89ZM88.78,122.3a2.37,2.37,0,0,1-2.37,2.37H6.27A2.37,2.37,0,0,1,3.9,122.3V26.4H19.62a6.55,6.55,0,0,0,6.54-6.54V4.17H86.4a2.37,2.37,0,0,1,2.37,2.37Z"/><path class="cls-1" d="M24.67,59.83H78.1a2.09,2.09,0,1,0,.29-4.17H24.67a2.09,2.09,0,1,0-.29,4.17Z"/><path class="cls-1" d="M19.67,71H73.1a2.09,2.09,0,1,0,.29-4.17H19.67A2.09,2.09,0,1,0,19.38,71Z"/><path class="cls-1" d="M19.67,82.09H46.38a2.09,2.09,0,1,0,.29-4.17h-27a2.09,2.09,0,1,0-.29,4.17Z"/><path class="cls-1" d="M48.47,91.13A2.09,2.09,0,0,0,46.38,89H19.67a2.09,2.09,0,1,0-.29,4.17h27A2.09,2.09,0,0,0,48.47,91.13Z"/><path class="cls-1" d="M77.2,89.18a2.09,2.09,0,0,0-2.84.79l-4.29,7.6-.59-.45a2.09,2.09,0,0,0-3.14.73l-2.17,4.39-.7-.8a4.31,4.31,0,0,0-7.32,1.42l-2.39,6.89-5.7-7.2a2.09,2.09,0,0,0-2.94-.33l-.06.05-6,5.28a2.09,2.09,0,1,0,2.58,3.28l.16-.13,4.4-3.84,5.44,6.87a3.2,3.2,0,0,0,5.53-.94l3-8.57a.14.14,0,0,1,.19,0l0,0,2.75,3.16a2.09,2.09,0,0,0,3.44-.45L69,102l.48.37a2.09,2.09,0,0,0,3.09-.63l5.48-9.69a2.09,2.09,0,0,0-.8-2.85Z"/></g></g></svg>