<svg xmlns="http://www.w3.org/2000/svg" viewBox="0 0 1712.37 377.46"><defs><style>.cls-1,.cls-10,.cls-11,.cls-12,.cls-16,.cls-4,.cls-5,.cls-6,.cls-8,.cls-9{isolation:isolate;font-family:ArialMT, Arial;}.cls-1,.cls-10,.cls-11,.cls-12,.cls-4,.cls-5,.cls-6,.cls-8,.cls-9{font-size:24px;}.cls-1,.cls-10,.cls-11,.cls-12,.cls-14,.cls-16,.cls-4,.cls-5,.cls-6,.cls-8,.cls-9{fill:#fff;}.cls-2{letter-spacing:-0.01em;}.cls-3{letter-spacing:-0.02em;}.cls-4{letter-spacing:-0.01em;}.cls-5{letter-spacing:-0.03em;}.cls-6{letter-spacing:0.01em;}.cls-7{letter-spacing:-0.03em;}.cls-8{letter-spacing:-0.07em;}.cls-9{letter-spacing:-0.09em;}.cls-10{letter-spacing:-0.04em;}.cls-11{letter-spacing:-0.02em;}.cls-12{letter-spacing:-0.06em;}.cls-13{letter-spacing:-0.04em;}.cls-15{fill:none;stroke:#fff;stroke-linecap:round;stroke-linejoin:round;stroke-width:5px;}.cls-16{font-size:22.4px;}</style></defs><title>steps</title><g id="Слой_2" data-name="Слой 2"><g id="Слой_1-2" data-name="Слой 1"><text class="cls-1" transform="translate(34.85 340.87)">ВЫ<tspan class="cls-2" x="37.25" y="0">З</tspan><tspan x="51.48" y="0">ОВ</tspan></text><text class="cls-1" transform="translate(0 369.67)">ЗАМЕРЩИКА</text><text class="cls-1" transform="translate(441.55 339.91)"><tspan class="cls-3">С</tspan><tspan x="16.8" y="0">О</tspan></text><text class="cls-4" transform="translate(473.67 339.91)">С</text><text class="cls-5" transform="translate(488.95 339.91)">Т</text><text class="cls-1" transform="translate(502.94 339.91)">О<tspan class="cls-2" x="18.67" y="0">В</tspan><tspan x="34.41" y="0">ЛЕНИЕ</tspan></text><text class="cls-1" transform="translate(484.45 368.71)"><tspan class="cls-2">С</tspan><tspan x="17.06" y="0">М</tspan></text><text class="cls-6" transform="translate(521.02 368.71)">Е</text><text class="cls-1" transform="translate(534.9 368.71)">ТЫ</text><text class="cls-1" transform="translate(232.3 157.43)">ЗАКЛ<tspan class="cls-7" x="60.23" y="0">Ю</tspan><tspan x="83.68" y="0">ЧЕНИЕ</tspan></text><text class="cls-4" transform="translate(251.17 186.23)">Д</text><text class="cls-1" transform="translate(268.93 186.23)">О</text><text class="cls-5" transform="translate(285.43 186.23)">Г</text><text class="cls-1" transform="translate(298 186.23)">О<tspan class="cls-7" x="18.67" y="0">В</tspan><tspan x="33.88" y="0">О</tspan></text><text class="cls-8" transform="translate(345.94 186.23)">Р</text><text class="cls-1" transform="translate(359.46 186.23)">А</text><text class="cls-1" transform="translate(719.7 157.43)">ВЫ<tspan class="cls-3" x="37.25" y="0">Е</tspan><tspan x="52.73" y="0">ЗД БРИ</tspan></text><text class="cls-9" transform="translate(854.64 157.43)">Г</text><text class="cls-6" transform="translate(865.72 157.43)">А</text><text class="cls-1" transform="translate(881.59 157.43)">ДЫ</text><text class="cls-6" transform="translate(724.65 186.23)">Н</text><text class="cls-1" transform="translate(741.97 186.23)">А <tspan class="cls-7" x="22.68" y="0">В</tspan><tspan x="37.89" y="0">АШ О</tspan><tspan class="cls-7" x="101.23" y="0">Б</tspan><tspan x="116.18" y="0">ЪЕК</tspan></text><text class="cls-10" transform="translate(901.59 186.23)">Т</text><text class="cls-1" transform="translate(1226.97 157.43)">ВЫП</text><text class="cls-11" transform="translate(1279.79 157.43)">О</text><text class="cls-1" transform="translate(1295.92 157.43)">ЛНЕНИЕ</text><text class="cls-8" transform="translate(1272.07 186.23)">Р</text><text class="cls-1" transform="translate(1285.59 186.23)">АБ</text><text class="cls-4" transform="translate(1316.38 186.23)">О</text><text class="cls-10" transform="translate(1332.56 186.23)">Т</text><text class="cls-1" transform="translate(946 339.91)">П</text><text class="cls-11" transform="translate(963.12 339.91)">О</text><text class="cls-1" transform="translate(979.23 339.91)">ДПИ<tspan class="cls-3" x="50.75" y="0">С</tspan><tspan x="67.56" y="0">АНИЕ АК</tspan></text><text class="cls-12" transform="translate(1147.67 339.91)">Т</text><text class="cls-1" transform="translate(1161.06 339.91)">А</text><text class="cls-1" transform="translate(971.3 368.71)">ПРИЕ</text><text class="cls-6" transform="translate(1034.31 368.71)">М</text><text class="cls-1" transform="translate(1055.48 368.71)">А</text><text class="cls-8" transform="translate(1077.07 368.71)">Р</text><text class="cls-1" transform="translate(1090.6 368.71)">АБ</text><text class="cls-4" transform="translate(1121.38 368.71)">О</text><text class="cls-10" transform="translate(1137.57 368.71)">Т</text><text class="cls-1" transform="translate(1463.63 339.91)">ПЕРЕ<tspan class="cls-3" x="65.27" y="0">Е</tspan><tspan x="80.75" y="0">ЗД В</tspan></text><text class="cls-1" transform="translate(1413.32 368.71)">У</text><text class="cls-4" transform="translate(1428.4 368.71)">Ю</text><text class="cls-1" transform="translate(1449.51 368.71)">ТНУЮ К<tspan class="cls-7" x="92.13" y="0">В</tspan><tspan x="107.34" y="0">А</tspan><tspan class="cls-13" x="123.35" y="0">Р</tspan><tspan x="138.28" y="0">ТИ</tspan><tspan class="cls-3" x="170.19" y="0">Р</tspan><tspan x="185.67" y="0">У</tspan></text><path class="cls-14" d="M109.67,224.26l-4.29-5.93-4.08,2.83L90.06,217,73.22,261.7,56.38,217l-.92.34v-.07H34.56v77.3H55.49V273.72l8.59,23,9.17-3.39,9.17,3.39,18.37-48.83,32.3,45.59,17.14-11.91-40.56-57.22Zm-7-2,1.43-1,1.46,2.08-1-.39ZM53.26,293H36.17v-3.76h8.59v-2.15H36.17v-3.76h8.59v-2.15H36.17v-3.29h8.59v-2.15H36.17V272h8.59v-2.09H36.17v-3.22h8.59v-2.15H36.17v-3.76h8.59v-2.15H36.17v-3.22h8.59v-2.15H36.17v-3.76h8.59v-2.15H36.17v-3.22h8.59V242H36.17V238.2h8.59V236H36.17v-3.16h8.59v-2.2H36.17v-3.8h8.59v-2.1H36.17v-5.37H53.35V293Zm10-3.2,8.38-3.45-.72-1.74L62.6,288l-1.32-3.53,8.2-3.38-.72-1.74-8.14,3.36-1.32-3.53,8-3.31-.72-1.74-8,3.28-1.12-3.56,7.84-3.23-.72-1.74-7.79,3.21-1.3-3.5h0l7.65-3.16-.72-1.74-6.94,2.86V263l5.46-2.25L60.22,259l-4.74,2v-3.39l3.31-1.37-.72-1.74-2.59,1.07V220.22L72,264.56h0l8.91,23.87-15.86,5.92Zm17.41,4.58-5.27-2,6.52-2.44.45-.17Zm2.08-5.58L75.37,269l4.7,1.86.69-1.75-6.09-2.51-.77-2.07.74-2,7.65,3,.68-1.75-7.67-3,1.32-3.52,7.73,3,.68-1.75-7.76-3L78.58,252l7.81,3.06.68-1.75-7.84-3.07,1.31-3.52,7.9,3.09.68-1.75L81.2,245l1.32-3.52,8,3.13.68-1.75-8-3.14,1.31-3.52,8.07,3.16.68-1.75-8.09-3.17,1.32-3.53,8.15,3.19.68-1.75-8.18-3.2,1.32-3.52,8.21,3.18.68-1.75-8.26-3.23,1.53-4.11,8.14,3h0l7.72,2.88-7.7,20.64h0Zm63.41-7.49L132.3,291l-2.63-3.73,7.44-5.5L136,280.28l-7.4,5.47-2.16-3.08,7.33-5.42-1.09-1.51-7.29,5.39L123.22,278l7.22-5.33-1.12-1.51-7.18,5.3L120,273.43l7.1-5.25L126,266.66,119,271.89l-2.16-3.08,7-5.17-1.12-1.51-7,5.14-2.09-3.12,6.88-5.08-1.12-1.52-6.84,5.06-2.16-3.08,6.76-5L116.07,253l-6.73,5-2.19-3.13L113.8,250l-1.13-1.49-6.61,4.89-2.16-3.08,6.54-4.84-1.11-1.56-6.5,4.81-1.95-2.81.24-.65,6-4.41L106,239.32,102.36,242l5.73-15.36Z"/><path class="cls-14" d="M363.36,44.64h0l-3-2.31a1.94,1.94,0,0,0-2.72.36h0l-3.22,4.2-.15-.11a2.36,2.36,0,0,0-3.31.44h0L314.78,94.39h0l-.07.12-.06.09a1.57,1.57,0,0,0-.1.23l-4.73,13.62h0a1.87,1.87,0,0,0,2.81,2.16h0l11.93-8.1.19-.15.07-.08.09-.1h0l32.57-42.45,1,.74L345.14,77.89a1.57,1.57,0,0,0,2.48,1.91h0l13.75-17.91a2.46,2.46,0,0,0-.45-3.45h0l-1.5-1.15,1.71-2.24a2.36,2.36,0,0,0-.44-3.31h0l-.15-.11,3.21-4.18a1.94,1.94,0,0,0-.33-2.72ZM314,105.89l2.77-8,4.22,3.24ZM323.38,99l-5.17-4L353,49.71l5.17,4ZM358,49.67l-1.13-.86,2.48-3.24,1.13.86Z"/><path class="cls-14" d="M338.57,57.27H277a1.61,1.61,0,0,0-.06,3.22h61.73a1.61,1.61,0,0,0-.06-3.22Z"/><path class="cls-14" d="M323.61,73.38H277a1.61,1.61,0,0,0-.06,3.22h46.73a1.61,1.61,0,0,0-.06-3.22Z"/><path class="cls-14" d="M305.17,105.6H277a1.61,1.61,0,0,0-.06,3.22h28.18a1.61,1.61,0,0,0,.06-3.22Z"/><path class="cls-14" d="M338.83,105.6H324.6a1.61,1.61,0,0,0,0,3.22h14.23a1.61,1.61,0,1,0,0-3.22Z"/><path class="cls-14" d="M348.48,46.57a1.6,1.6,0,0,0,2-1.52V34.33a1.56,1.56,0,0,0,0-.2h0a1.54,1.54,0,0,0,0-.2h0a1.57,1.57,0,0,0-.08-.18h0l-.11-.17h0l-.14-.16-25-25L325,8.28h0l-.17-.11h0l-.18-.08H269.15a3.25,3.25,0,0,0-3.25,3.25V114.59a3.25,3.25,0,0,0,3.25,3.25h79.68a1.69,1.69,0,0,0,1.69-1.69h0V82.8a.86.86,0,0,0-.31-.66,1.68,1.68,0,0,0-2.91,1.06v31.52a.12.12,0,0,1-.12.12H269a.12.12,0,0,1-.12-.12V11.22a.12.12,0,0,1,.12-.12h53.36V32.71A3.31,3.31,0,0,0,325.65,36h21.61v9A1.61,1.61,0,0,0,348.48,46.57Zm-23-13.78a.18.18,0,0,1-.18-.18V13.24h0l19.54,19.54Z"/><path class="cls-14" d="M304.3,30.25,291.21,18a1.56,1.56,0,0,0-2.14,0L276,30.25a1.56,1.56,0,1,0,2.14,2.28l12-11.29,12,11.29a1.57,1.57,0,1,0,2.14-2.28Z"/><path class="cls-14" d="M300,32.19l-8-7.53a2.59,2.59,0,0,0-3.54,0l-8,7.53a2.59,2.59,0,0,0-.82,1.89v11a2.59,2.59,0,0,0,2.59,2.59h16a2.59,2.59,0,0,0,2.59-2.59v-11A2.59,2.59,0,0,0,300,32.19ZM291.41,44.6H289V39.23h2.36Zm3,0V38.15A2.14,2.14,0,0,0,292.27,36H288a2.14,2.14,0,0,0-2.14,2.14h0V44.6H282.6V34.43l7.52-7,7.52,7V44.6Z"/><path class="cls-14" d="M310,89.49H292a1.61,1.61,0,0,0,0,3.22h18a1.61,1.61,0,1,0,0-3.22H310Z"/><path class="cls-14" d="M282.67,89.49h-5.59a1.61,1.61,0,0,0,0,3.22h5.59a1.61,1.61,0,1,0,0-3.22Z"/><path class="cls-15" d="M207.8,339.89s85.72-18.28,93.66-118"/><path class="cls-14" d="M315.73,246.44a1.7,1.7,0,0,1-2.3-.71h0l-12.1-23-15.75,20.7a1.7,1.7,0,1,1-2.71-2.06l17.36-22.82a1.7,1.7,0,0,1,2.86.24l13.34,25.39a1.71,1.71,0,0,1-.71,2.3Z"/><path class="cls-15" d="M714.11,339.89s85.72-18.28,93.66-118"/><path class="cls-14" d="M822,246.44a1.7,1.7,0,0,1-2.3-.71h0l-12.1-23-15.75,20.7a1.7,1.7,0,1,1-2.71-2.06h0l17.36-22.82a1.7,1.7,0,0,1,2.86.24l13.34,25.39a1.71,1.71,0,0,1-.71,2.3Z"/><path class="cls-15" d="M1222.3,342.89s85.72-18.28,93.66-118"/><path class="cls-14" d="M1330.23,249.44a1.7,1.7,0,0,1-2.3-.71h0l-12.1-23-15.75,20.7a1.7,1.7,0,1,1-2.71-2.06h0l17.36-22.82a1.7,1.7,0,0,1,2.86.24l13.34,25.39a1.71,1.71,0,0,1-.71,2.3Z"/><path class="cls-15" d="M436.3,39.78S522,58.06,530,157.78"/><path class="cls-14" d="M511.67,136a1.7,1.7,0,0,1,2.38.33L529.8,157l12.1-23a1.7,1.7,0,1,1,3,1.58l-13.3,25.32a1.7,1.7,0,0,1-2.86.24l-17.37-22.79a1.71,1.71,0,0,1,.32-2.39Z"/><path class="cls-15" d="M988.12,39.78s85.72,18.28,93.66,118"/><path class="cls-14" d="M1063.52,136a1.7,1.7,0,0,1,2.38.33l15.77,20.7,12.1-23a1.7,1.7,0,1,1,3,1.58l-13.35,25.32a1.7,1.7,0,0,1-2.86.24l-17.36-22.82a1.71,1.71,0,0,1,.32-2.39Z"/><path class="cls-15" d="M1451.06,39.78s85.72,18.28,93.66,118"/><path class="cls-14" d="M1526.47,136a1.7,1.7,0,0,1,2.38.33L1544.6,157l12.1-23a1.7,1.7,0,1,1,3,1.58l-13.34,25.32a1.7,1.7,0,0,1-2.86.24l-17.36-22.82a1.71,1.71,0,0,1,.32-2.39Z"/><circle class="cls-15" cx="189.14" cy="346.16" r="18.2"/><text class="cls-16" transform="translate(182.94 353.17)">1</text><circle class="cls-15" cx="415.14" cy="39.16" r="18.2"/><text class="cls-16" transform="translate(408.94 47.17)">2</text><circle class="cls-15" cx="696.14" cy="338.16" r="18.2"/><text class="cls-16" transform="translate(689.94 346.17)">3</text><circle class="cls-15" cx="968.81" cy="39.49" r="18.2"/><text class="cls-16" transform="translate(960.6 47.5)">4</text><circle class="cls-15" cx="1204.47" cy="344.49" r="18.2"/><text class="cls-16" transform="translate(1197.27 352.5)">5</text><circle class="cls-15" cx="1691.67" cy="351.83" r="18.2"/><text class="cls-16" transform="translate(1685.46 360.84)">7</text><circle class="cls-15" cx="1432.14" cy="39.49" r="18.2"/><text class="cls-16" transform="translate(1424.94 46.5)">6</text><path class="cls-14" d="M842.25,73.27a.86.86,0,0,0-1.2.21h0c-6.26,8.91-15.2,15.13-21.75,15.13s-15.49-6.22-21.75-15.13a.86.86,0,0,0-1.41,1c6.56,9.34,16.08,15.86,23.16,15.86s16.6-6.52,23.16-15.86a.86.86,0,0,0-.2-1.2h0Z"/><path class="cls-14" d="M861.78,95.55a135.72,135.72,0,0,1-17.1-7.43.86.86,0,0,0-.83,1.51,137.52,137.52,0,0,0,17.33,7.54c6.62,2.47,9.77,4.79,9.77,11.24v9.48H767.67v-9.47c0-6.46,3.15-8.77,9.77-11.24a138.08,138.08,0,0,0,17.33-7.54.86.86,0,1,0-.84-1.51,136,136,0,0,1-17.1,7.43c-7.06,2.64-10.89,5.47-10.89,12.86v10.33a.86.86,0,0,0,.86.86h105a.86.86,0,0,0,.86-.86V108.41C872.67,101,868.84,98.19,861.78,95.55Z"/><path class="cls-14" d="M819.35,98.89h0a.85.85,0,0,0-.85.85h0a.87.87,0,1,0,.88-.86h0Z"/><path class="cls-14" d="M819.35,105.83h0a.85.85,0,0,0-.85.85h0a.87.87,0,1,0,.88-.86h0Z"/><path class="cls-14" d="M819.35,112.71h0a.85.85,0,0,0-.85.85h0a.87.87,0,1,0,.88-.86h0Z"/><path class="cls-14" d="M840.82,81.72a.86.86,0,0,0-.86.86V86a.86.86,0,0,0,1.72,0h0V82.59a.86.86,0,0,0-.85-.87h0Z"/><path class="cls-14" d="M841.32,85.33a.86.86,0,0,0-1.2.2h0l-8.61,12a.86.86,0,0,0,1.4,1l8.61-12a.86.86,0,0,0-.2-1.2Z"/><path class="cls-14" d="M832.6,97.31l-10.33-5.17a.86.86,0,1,0-.77,1.54l10.33,5.21a.88.88,0,0,0,.39.09.86.86,0,0,0,.39-1.63Z"/><path class="cls-14" d="M797.78,81.72a.86.86,0,0,0-.86.86V86a.86.86,0,0,0,1.72,0h0V82.59a.86.86,0,0,0-.85-.87h0Z"/><path class="cls-14" d="M807.09,97.58l-8.61-12a.86.86,0,1,0-1.4,1h0l8.59,12a.86.86,0,1,0,1.4-1h0Z"/><path class="cls-14" d="M817.49,92.53a.86.86,0,0,0-1.15-.38h0L806,97.32a.86.86,0,0,0,.38,1.63.88.88,0,0,0,.39-.09l10.33-5.17a.86.86,0,0,0,.39-1.15Z"/><path class="cls-14" d="M821.88,95.5a.86.86,0,0,0-.86.86v22.38a.86.86,0,0,0,1.72,0h0V96.36a.86.86,0,0,0-.86-.86Z"/><path class="cls-14" d="M816.67,95.5a.86.86,0,0,0-.86.86v22.38a.86.86,0,0,0,1.72,0h0V96.36a.86.86,0,0,0-.86-.86Z"/><path class="cls-14" d="M805.46,114.77,788.31,97.63a.86.86,0,0,0-1.22,1.22L804.24,116a.86.86,0,0,0,1.22-1.22h0Z"/><path class="cls-14" d="M783.54,114.76l-11-11a.86.86,0,0,0-1.22,1.22l11,11a.86.86,0,1,0,1.22-1.22Z"/><path class="cls-14" d="M808.91,100.83a.86.86,0,0,0-1.22,0h0l-13.94,13.93A.86.86,0,1,0,795,116l13.94-13.93a.86.86,0,0,0,0-1.22Z"/><path class="cls-14" d="M795.48,92.34a.86.86,0,0,0-1.22,0h0l-22.42,22.42a.86.86,0,0,0,1.22,1.22h0l22.42-22.42a.86.86,0,0,0,0-1.22Z"/><path class="cls-14" d="M852.11,97.63a.86.86,0,0,0-1.22,0h0l-17.15,17.14A.86.86,0,1,0,835,116h0l17.15-17.1a.86.86,0,0,0,0-1.22h0Z"/><path class="cls-14" d="M867.87,103.78a.86.86,0,0,0-1.22,0h0l-11,11a.86.86,0,1,0,1.22,1.22h0l11-11a.86.86,0,0,0,0-1.22Z"/><path class="cls-14" d="M845.46,114.76l-13.94-13.93a.86.86,0,1,0-1.22,1.22L844.24,116a.86.86,0,1,0,1.22-1.22Z"/><path class="cls-14" d="M867.37,114.76,844.95,92.34a.86.86,0,0,0-1.22,1.22L866.15,116a.86.86,0,1,0,1.22-1.22Z"/><path class="cls-14" d="M818.07,59.89a5.22,5.22,0,0,0-3.8-1.48c-2.12,0-4.56.92-7.64,2.08-2.14.81-4.56,1.72-7.3,2.47a8.1,8.1,0,0,1-2.12.31c-5.77,0-6-8.37-6-8.73a.86.86,0,0,0-1.57-.47c-3.14,4.63-2.32,8.38-1.08,10.72,2.89,5.45,10.92,8.7,17,8.7h0a14.53,14.53,0,0,0,3.6-.42c6-1.57,10-4.34,10.85-7.59C820.35,64.17,820.31,62.08,818.07,59.89Zm.26,5.17c-.67,2.55-4.35,5-9.61,6.36a12.66,12.66,0,0,1-3.17.37c-5.59,0-12.92-2.91-15.5-7.79a7.54,7.54,0,0,1-.26-6.64c.72,3.53,2.79,7.64,7.42,7.64a9.8,9.8,0,0,0,2.58-.38c2.82-.78,5.28-1.7,7.45-2.52,4.64-1.75,7.74-2.8,9.64-1q2,2,1.45,4Z"/><path class="cls-14" d="M849,54.12a.86.86,0,0,0-1.57.47c0,.36-.26,8.73-6,8.73A8.1,8.1,0,0,1,839.3,63c-2.74-.75-5.16-1.67-7.3-2.47-3.08-1.16-5.52-2.08-7.64-2.08a5.22,5.22,0,0,0-3.8,1.48c-2.24,2.16-2.28,4.24-1.93,5.61.85,3.25,4.81,6,10.85,7.59a14.51,14.51,0,0,0,3.6.42c6.1,0,14.14-3.26,17-8.7C851.32,62.51,852.14,58.75,849,54.12ZM848.56,64c-3.12,5.88-13.19,8.84-18.68,7.41-5.26-1.37-8.94-3.8-9.61-6.36-.35-1.34.14-2.66,1.45-3.93a3.54,3.54,0,0,1,2.61-1c1.81,0,4.12.87,7,2,2.17.82,4.63,1.75,7.45,2.52a9.78,9.78,0,0,0,2.58.38c4.64,0,6.7-4.12,7.43-7.64a7.54,7.54,0,0,1-.23,6.62Z"/><path class="cls-14" d="M829,11.06a33.06,33.06,0,0,0-19.45,0,.86.86,0,0,0,.51,1.64,31.32,31.32,0,0,1,18.43,0,.86.86,0,0,0,.51-1.64Z"/><path class="cls-14" d="M809.83,11a.86.86,0,0,0-.86.86V24.05a.86.86,0,0,0,1.72,0V11.89A.86.86,0,0,0,809.83,11Z"/><path class="cls-14" d="M828.77,11a.86.86,0,0,0-.86.86V24a.86.86,0,0,0,1.72,0h0V11.89a.86.86,0,0,0-.85-.87h0Z"/><path class="cls-14" d="M852.87,43.89H785.73a.86.86,0,0,0,0,1.72h67.14a.86.86,0,0,0,0-1.72Z"/><path class="cls-14" d="M852.87,47.29H785.73a.86.86,0,0,0,0,1.72h67.14a.86.86,0,0,0,0-1.72Z"/><path class="cls-14" d="M852.87,43.89a.86.86,0,0,0-.86.86v3.44a.86.86,0,0,0,1.72,0V44.75A.86.86,0,0,0,852.87,43.89Z"/><path class="cls-14" d="M785.73,43.89a.86.86,0,0,0-.86.86v3.44a.86.86,0,0,0,1.72,0V44.75A.86.86,0,0,0,785.73,43.89Z"/><path class="cls-14" d="M832.59,15.89a.86.86,0,1,0-.74,1.56,29.36,29.36,0,0,1,16.61,23.94.86.86,0,0,0,.86.79h.07a.86.86,0,0,0,.79-.92h0A31.08,31.08,0,0,0,832.59,15.89Z"/><path class="cls-14" d="M807.16,16.25a.86.86,0,0,0-1.14-.41h0a31.09,31.09,0,0,0-17.6,25.35.86.86,0,0,0,.78.93h.08a.86.86,0,0,0,.86-.79,29.37,29.37,0,0,1,16.62-23.94A.86.86,0,0,0,807.16,16.25Z"/><path class="cls-14" d="M1360.16,19.72c-5.06-5.06-25.81-9.44-26.69-9.63a1,1,0,0,0-1.17,1.17c.18.88,4.56,21.63,9.63,26.69a13.94,13.94,0,0,0,9.8,4.11,12.91,12.91,0,0,0,3-.36,1,1,0,0,0-.46-1.93,11.76,11.76,0,0,1-11-3.22c-3.91-3.91-7.64-19.29-8.75-24.19,4.9,1.11,20.28,4.84,24.19,8.75a11.76,11.76,0,0,1,3.22,11,1,1,0,0,0,1.93.46A13.77,13.77,0,0,0,1360.16,19.72Z"/><path class="cls-14" d="M1366.24,39.83,1356.42,30a1,1,0,1,0-1.4,1.4l9.82,9.82a1,1,0,0,0,1.4-1.4Z"/><path class="cls-14" d="M1363.43,42.64l-9.82-9.82a1,1,0,0,0-1.4,1.4L1362,44a1,1,0,0,0,1.4-1.4Z"/><path class="cls-14" d="M1367.67,38.43a1,1,0,0,0-1.4,0L1360.65,44a1,1,0,1,0,1.4,1.4l5.62-5.61A1,1,0,0,0,1367.67,38.43Z"/><path class="cls-14" d="M1380.27,51.06l-12.6-12.63a1,1,0,0,0-1.4,1.4l12.63,12.63a1,1,0,0,0,1.4-1.4Z"/><path class="cls-14" d="M1374.67,56.67,1362,44a1,1,0,0,0-1.4,1.4l12.63,12.63a1,1,0,1,0,1.4-1.4Z"/><path class="cls-14" d="M1380.27,51.06a1,1,0,1,0-1.4,1.4,3,3,0,1,1-4.21,4.21,1,1,0,0,0-1.4,1.4,5,5,0,1,0,7-7Z"/><path class="cls-14" d="M1356.42,30a3,3,0,1,0-4.21,4.21,1,1,0,0,0,1.4-1.4,1,1,0,0,1,1.4-1.4,1,1,0,1,0,1.4-1.4Z"/><path class="cls-14" d="M1295.41,79.37h-39.69a1,1,0,0,0-1,1v39.69a1,1,0,0,0,1,1h39.69a1,1,0,0,0,1-1V80.36A1,1,0,0,0,1295.41,79.37Zm-1,39.69h-37.74V81.36h37.7Z"/><path class="cls-14" d="M1262.38,83.63a1,1,0,0,0-1.4,0l-2,2a1,1,0,1,0,1.4,1.4l2-2A1,1,0,0,0,1262.38,83.63Z"/><path class="cls-14" d="M1268.33,83.63a1,1,0,0,0-1.4,0L1259,91.57a1,1,0,1,0,1.4,1.4l7.94-7.94A1,1,0,0,0,1268.33,83.63Z"/><path class="cls-14" d="M1374.78,79.37h-39.69a1,1,0,0,0-1,1v39.69a1,1,0,0,0,1,1h39.69a1,1,0,0,0,1-1V80.36A1,1,0,0,0,1374.78,79.37Zm-1,39.69h-37.7V81.36h37.7Z"/><path class="cls-14" d="M1341.75,83.63a1,1,0,0,0-1.4,0l-2,2a1,1,0,1,0,1.4,1.4l2-2A1,1,0,0,0,1341.75,83.63Z"/><path class="cls-14" d="M1347.67,83.63a1,1,0,0,0-1.4,0l-7.94,7.94a1,1,0,0,0,1.4,1.4l7.94-7.94A1,1,0,0,0,1347.67,83.63Z"/><path class="cls-14" d="M1335.1,39.68h-39.69a1,1,0,0,0-1,1V80.37a1,1,0,0,0,1,1h39.69a1,1,0,0,0,1-1V40.68A1,1,0,0,0,1335.1,39.68Zm-1,39.69h-37.7V41.67h37.7Z"/><path class="cls-14" d="M1302.06,43.89a1,1,0,0,0-1.4,0l-2,2a1,1,0,1,0,1.4,1.4l2-2A1,1,0,0,0,1302.06,43.89Z"/><path class="cls-14" d="M1308,43.89a1,1,0,0,0-1.4,0l-7.95,8a1,1,0,1,0,1.4,1.4l7.94-7.94a1,1,0,0,0,.06-1.41Z"/><path class="cls-14" d="M1295.41,0h-39.74a1,1,0,0,0-1,1V40.69a1,1,0,0,0,1,1h39.69a1,1,0,0,0,1-1V1A1,1,0,0,0,1295.41,0Zm-1,39.69h-37.74V2h37.7Z"/><path class="cls-14" d="M1262.37,4.26a1,1,0,0,0-1.4,0l-2,2a1,1,0,1,0,1.4,1.4l2-2A1,1,0,0,0,1262.37,4.26Z"/><path class="cls-14" d="M1268.33,4.26a1,1,0,0,0-1.4,0L1259,12.2a1,1,0,1,0,1.4,1.4l7.94-7.94A1,1,0,0,0,1268.33,4.26Z"/><path class="cls-14" d="M1335.1,79.37h-39.69a1,1,0,0,0-1,1v39.69a1,1,0,0,0,1,1h39.69a1,1,0,0,0,1-1V80.36A1,1,0,0,0,1335.1,79.37Zm-1,39.69h-37.7V81.36h37.7Z"/><path class="cls-14" d="M1325.54,101.27c-2.81-1.13-5.21-1-7.11.25-4.13,2.79-4.17,10.28-4.17,10.6a1,1,0,0,0,2,0c0-.07,0-6.76,3.3-9,1.33-.9,3.1-.91,5.26,0a1,1,0,0,0,.74-1.84Z"/><path class="cls-14" d="M1312.07,101.52c-1.9-1.29-4.29-1.37-7.11-.25a1,1,0,1,0,.74,1.84c2.16-.86,3.93-.85,5.26,0,3.26,2.2,3.3,8.89,3.3,9a1,1,0,1,0,2,0C1316.25,111.79,1316.2,104.31,1312.07,101.52Z"/><path class="cls-14" d="M1313.67,93.74a4.93,4.93,0,0,0-4.65-.43,1,1,0,0,0,.63,1.88,3,3,0,0,1,2.86.16c1.45,1,1.78,3.86,1.78,4.86a1,1,0,0,0,1,1h0a1,1,0,0,0,1-1C1316.24,100,1316.22,95.6,1313.67,93.74Z"/><path class="cls-14" d="M1321.52,93.31a4.92,4.92,0,0,0-4.65.43c-2.58,1.85-2.6,6.27-2.6,6.46a1,1,0,0,0,2,0c0-1,.32-3.8,1.78-4.85a3,3,0,0,1,2.87-.16,1,1,0,0,0,.63-1.88Z"/><path class="cls-14" d="M1307.32,107.15a3,3,0,1,0,3,3h0A3,3,0,0,0,1307.32,107.15Zm0,4a1,1,0,1,1,1-1A1,1,0,0,1,1307.32,111.15Z"/><path class="cls-14" d="M1323.19,107.15a3,3,0,1,0,3,3h0A3,3,0,0,0,1323.19,107.15Zm0,4a1,1,0,1,1,1-1A1,1,0,0,1,1323.19,111.15Z"/><path class="cls-14" d="M1315.25,87.31a1,1,0,0,0-1,1v4a1,1,0,0,0,2,0v-4A1,1,0,0,0,1315.25,87.31Z"/><path class="cls-14" d="M1302.06,83.63a1,1,0,0,0-1.4,0l-2,2a1,1,0,1,0,1.4,1.4l2-2A1,1,0,0,0,1302.06,83.63Z"/><path class="cls-14" d="M1308,83.63a1,1,0,0,0-1.4,0l-7.94,7.94a1,1,0,1,0,1.4,1.4L1308,85A1,1,0,0,0,1308,83.63Z"/><path class="cls-14" d="M1295.41,39.68h-39.69a1,1,0,0,0-1,1V80.37a1,1,0,0,0,1,1h39.69a1,1,0,0,0,1-1V40.68A1,1,0,0,0,1295.41,39.68Zm-1,39.69h-37.74V41.67h37.7Z"/><path class="cls-14" d="M1285.86,61.58c-2.81-1.13-5.21-1-7.11.25-4.13,2.79-4.17,10.28-4.17,10.6a1,1,0,0,0,2,0c0-.07,0-6.76,3.3-9,1.33-.9,3.1-.91,5.26,0a1,1,0,1,0,.74-1.84Z"/><path class="cls-14" d="M1272.38,61.83c-1.9-1.29-4.29-1.37-7.11-.25a1,1,0,1,0,.74,1.84c2.16-.86,3.93-.85,5.26,0,3.26,2.2,3.3,8.89,3.3,9a1,1,0,0,0,2,0C1276.56,72.11,1276.51,64.62,1272.38,61.83Z"/><path class="cls-14" d="M1273.95,54.06a4.93,4.93,0,0,0-4.65-.43,1,1,0,0,0,.63,1.88,3,3,0,0,1,2.86.16c1.45,1,1.78,3.86,1.78,4.86a1,1,0,0,0,1,1h0a1,1,0,0,0,1-1C1276.56,60.33,1276.53,55.89,1273.95,54.06Z"/><path class="cls-14" d="M1281.83,53.62a4.92,4.92,0,0,0-4.65.43c-2.58,1.85-2.6,6.27-2.6,6.46a1,1,0,0,0,2,0c0-1,.32-3.8,1.78-4.85a3,3,0,0,1,2.87-.16,1,1,0,0,0,.63-1.88Z"/><path class="cls-14" d="M1267.67,67.46a3,3,0,1,0,3,3A3,3,0,0,0,1267.67,67.46Zm0,4a1,1,0,1,1,1-1A1,1,0,0,1,1267.67,71.46Z"/><path class="cls-14" d="M1283.5,67.46a3,3,0,1,0,3,3A3,3,0,0,0,1283.5,67.46Zm0,4a1,1,0,1,1,1-1A1,1,0,0,1,1283.5,71.46Z"/><path class="cls-14" d="M1275.57,47.62a1,1,0,0,0-1,1v4a1,1,0,1,0,2,0v-4A1,1,0,0,0,1275.57,47.62Z"/><path class="cls-14" d="M1262.38,43.89a1,1,0,0,0-1.4,0l-2,2a1,1,0,1,0,1.4,1.4l2-2A1,1,0,0,0,1262.38,43.89Z"/><path class="cls-14" d="M1268.33,43.89a1,1,0,0,0-1.4,0L1259,51.83a1,1,0,1,0,1.4,1.4l7.94-7.94A1,1,0,0,0,1268.33,43.89Z"/><path class="cls-14" d="M1331.13,4h-31.75a1,1,0,1,0,0,2h31.75a1,1,0,0,0,0-2Z"/><path class="cls-14" d="M1327.16,9.89h-27.78a1,1,0,0,0,0,2h27.78a1,1,0,0,0,0-2Z"/><path class="cls-14" d="M1329.14,15.89h-29.76a1,1,0,1,0,0,2h29.76a1,1,0,0,0,0-2Z"/><path class="cls-14" d="M1331.13,21.83h-31.75a1,1,0,0,0,0,2h31.75a1,1,0,0,0,0-2Z"/><path class="cls-14" d="M1331.13,27.78h-31.75a1,1,0,0,0,0,2h31.75a1,1,0,0,0,0-2Z"/><path class="cls-14" d="M1331.13,33.73h-31.75a1,1,0,0,0,0,2h31.75a1,1,0,0,0,0-2Z"/><path class="cls-14" d="M1093.34,176.49h-62.73l-.27.07h0l-.24.11h0l-.23.15h0l-.21.18h0l-22.26,22.26h0l-.18.21h0a2.08,2.08,0,0,0-.15.23h0a2.11,2.11,0,0,0-.11.24h0a2.06,2.06,0,0,0-.07.27h0a2.15,2.15,0,0,0,0,.26v98.14a6.55,6.55,0,0,0,6.54,6.54h80.14a6.55,6.55,0,0,0,6.54-6.54V183a6.55,6.55,0,0,0-6.56-6.54h-.21Zm-64.42,7.13v12.77a2.37,2.37,0,0,1-2.37,2.37h-12.77Zm66.75,115.17a2.37,2.37,0,0,1-2.37,2.37h-80.14a2.37,2.37,0,0,1-2.37-2.37v-95.9h15.72a6.55,6.55,0,0,0,6.54-6.54V180.66h60.24a2.37,2.37,0,0,1,2.37,2.37Z"/><path class="cls-14" d="M1031.56,236.32H1085a2.09,2.09,0,0,0,.29-4.17h-53.72a2.09,2.09,0,0,0-.29,4.17h.29Z"/><path class="cls-14" d="M1026.56,247.45H1080a2.09,2.09,0,0,0,.29-4.17h-53.72a2.09,2.09,0,0,0-.29,4.17h.29Z"/><path class="cls-14" d="M1026.56,258.58h26.71a2.09,2.09,0,0,0,.29-4.17h-27a2.09,2.09,0,0,0-.29,4.17Z"/><path class="cls-14" d="M1055.36,267.62a2.09,2.09,0,0,0-2.09-2.09h-26.71a2.09,2.09,0,0,0-.29,4.17h27A2.09,2.09,0,0,0,1055.36,267.62Z"/><path class="cls-14" d="M1084.09,265.67a2.09,2.09,0,0,0-2.84.79l-4.29,7.6-.59-.45a2.09,2.09,0,0,0-3.14.73l-2.17,4.39-.7-.8a4.31,4.31,0,0,0-7.32,1.42l-2.39,6.89L1055,279a2.09,2.09,0,0,0-2.94-.33h0l-.06,0-6,5.28a2.09,2.09,0,0,0,2.39,3.43l.19-.15.16-.13,4.4-3.84,5.44,6.87a3.2,3.2,0,0,0,5.53-.94l3-8.57a.14.14,0,0,1,.19,0h0l2.75,3.16a2.09,2.09,0,0,0,3.44-.45l2.43-4.91.48.37a2.09,2.09,0,0,0,3.09-.63l5.48-9.69a2.09,2.09,0,0,0-.79-2.85h0Z"/><path class="cls-14" d="M1471.23,251.73a2.74,2.74,0,0,1,1.95.81,1.52,1.52,0,0,0,2.28-2l-.15-.15a5.77,5.77,0,0,0-8.15,0,1.51,1.51,0,0,0,2.13,2.13A2.73,2.73,0,0,1,1471.23,251.73Z"/><path class="cls-14" d="M1498.35,250.4a1.51,1.51,0,0,0,2.13,2.13,2.76,2.76,0,0,1,3.89,0,1.51,1.51,0,0,0,2.13-2.13A5.77,5.77,0,0,0,1498.35,250.4Z"/><path class="cls-14" d="M1502.42,265.26a22.07,22.07,0,0,1-31.18,0,1.51,1.51,0,0,0-2.13,2.13,25.09,25.09,0,0,0,35.44,0,1.51,1.51,0,0,0-2.13-2.13Z"/><path class="cls-14" d="M1522.38,253.35a8.37,8.37,0,0,0-6.85-8.22V219.89a9.73,9.73,0,0,0-13-9.18l-9.46-3.21a37.53,37.53,0,0,0-22.12-.73c-9.43,2.6-14.84,8.11-15.67,15.93a11.44,11.44,0,0,0-1.72,3.25l-.73,2.17a2.62,2.62,0,0,0,4.3,2.72,5.26,5.26,0,0,1,1-.74v15a8.35,8.35,0,0,0,.47,16.5,28.93,28.93,0,0,0,7.91,15.2,28.34,28.34,0,0,0,20.32,8.54h0a28.71,28.71,0,0,0,28.27-23.74A8.37,8.37,0,0,0,1522.38,253.35Zm-12.86-39a6.61,6.61,0,0,1,3,5.6v19.71a9.79,9.79,0,0,1-8.27-9.66l-.12-16.56a6.6,6.6,0,0,1,5.38.9Zm-53.36,13.48.29-.87a8.44,8.44,0,0,1,11.56-5,11.52,11.52,0,0,0,13.41-2.79l.37-.42a1.51,1.51,0,0,0-2.26-2l-.37.42a8.49,8.49,0,0,1-9.88,2.06,11.46,11.46,0,0,0-9.34-.15l-.8.38c1.75-4.67,6-8,12.66-9.8a34.53,34.53,0,0,1,20.35.68l9,3,.12,7.78a26.61,26.61,0,0,1-36,6.51,8.16,8.16,0,0,0-9.12.14Zm-1.85,25.53a5.35,5.35,0,0,1,3.83-5.12v8.17q0,1.06.07,2.1a5.35,5.35,0,0,1-3.91-5.16ZM1505,274.89a25.52,25.52,0,0,1-18.16,7.52h0a25.35,25.35,0,0,1-18.17-7.64,26,26,0,0,1-7.51-18.33v-27a5.21,5.21,0,0,1,2.46.84,29.63,29.63,0,0,0,37.63-4.36V230a12.8,12.8,0,0,0,11.28,12.69v14a25.51,25.51,0,0,1-7.54,18.18Zm10.48-16.35c0-.6.06-1.21.06-1.81v-8.45a5.34,5.34,0,0,1-.06,10.26Z"/><path class="cls-14" d="M1568.59,285.06a7.38,7.38,0,0,1-10.42,0,1.51,1.51,0,0,0-2.13,2.13,10.4,10.4,0,0,0,14.69,0,1.52,1.52,0,1,0-2-2.28l-.15.15Z"/><path class="cls-14" d="M1597.47,300c-3.53-3.91-3.68-13.86-3.26-24.17a7.89,7.89,0,0,0,.54-11c.51-10.51.79-17.53-2.55-24a27.07,27.07,0,0,0-10.94-11,35.79,35.79,0,0,0-19.16-4.74,20.59,20.59,0,0,0-15.2,7.58,14.58,14.58,0,0,0-11.75,7.08c-.21.35-.4.72-.59,1.08-3.33,6.49-3.06,13.52-2.55,24a7.89,7.89,0,0,0,.54,11c.42,10.3.27,20.26-3.26,24.17a1.51,1.51,0,0,0,.59,2.42,31.79,31.79,0,0,0,11.29,2,35.9,35.9,0,0,0,9.32-1.26,36.29,36.29,0,0,0,8.5-3.45,27,27,0,0,0,8.79,0,36.29,36.29,0,0,0,8.5,3.45,35.43,35.43,0,0,0,9.27,1.26,32.09,32.09,0,0,0,11.34-2,1.51,1.51,0,0,0,.59-2.42Zm-7.16-26.82v-7.77a4.9,4.9,0,0,1,0,9.33C1590.29,274.23,1590.31,273.71,1590.31,273.19Zm-53.06-31c.16-.32.34-.63.52-.94a11.59,11.59,0,0,1,9.9-5.6h0a1.51,1.51,0,0,0,1.16-.59,17.62,17.62,0,0,1,13.36-7,32.79,32.79,0,0,1,17.55,4.34,24.12,24.12,0,0,1,9.76,9.76c2.67,5.19,2.75,10.84,2.31,20.55a7.86,7.86,0,0,0-1.52-.46v-1.53a1.51,1.51,0,0,0-3,0v3.42c-20.75.22-32-9.77-35-12.9a1.51,1.51,0,0,0-2.48.47c-2.19,5.32-6,8.11-12,8.77a1.51,1.51,0,0,0-1.34,1.5v.28a7.84,7.84,0,0,0-1.52.46c-.45-9.65-.37-15.3,2.3-20.5Zm-.74,32.53a4.9,4.9,0,0,1,0-9.33v7.77a10.6,10.6,0,0,0,0,1.59Zm-3.68,25.49c2.69-4.59,3.15-12.21,2.81-22.61a7.84,7.84,0,0,0,1.24.27,27,27,0,0,0,17.64,20.7c-4.37,1.92-12.61,4.4-21.7,1.67Zm30.56-3.14a23.94,23.94,0,0,1-23.91-23.91v-9.83c5.65-.93,9.67-3.71,12.22-8.46a44.3,44.3,0,0,0,10.62,7.08,55.69,55.69,0,0,0,25,5.25v6a23.94,23.94,0,0,1-23.94,23.9Zm13.78,3.22a35.65,35.65,0,0,1-4.91-1.71,27,27,0,0,0,17.65-20.7,7.84,7.84,0,0,0,1.24-.27c-.34,10.4.12,18,2.81,22.61a30.23,30.23,0,0,1-16.8.1Z"/><path class="cls-14" d="M1545.38,268.72a1.51,1.51,0,0,0,2.13,2.13,2.48,2.48,0,0,1,3.5,0,1.51,1.51,0,0,0,2.13-2.13A5.49,5.49,0,0,0,1545.38,268.72Z"/><path class="cls-14" d="M1581.39,270.89a1.51,1.51,0,0,0,0-2.13,5.5,5.5,0,0,0-7.76,0,1.52,1.52,0,1,0,2,2.28l.15-.15a2.48,2.48,0,0,1,3.5,0A1.51,1.51,0,0,0,1581.39,270.89Z"/><path class="cls-14" d="M1067.17,224.25a1.5,1.5,0,0,1-1.5-1.5V212.16h-1.91a1.5,1.5,0,0,1,0-3h1.91V192a1.5,1.5,0,0,1,1.5-1.5h10.5a10.85,10.85,0,0,1,0,21.69h-9v10.58a1.5,1.5,0,0,1-1.49,1.51Zm1.5-15.08h9a7.85,7.85,0,0,0,0-15.69h-9Z"/><path class="cls-14" d="M1079.46,216.18h-15.71a1.5,1.5,0,0,1,0-3h15.71a1.5,1.5,0,0,1,0,3Z"/><path class="cls-14" d="M617.89,272.52H545a8,8,0,0,1-7.75-8.24v-33h-3.51a5.52,5.52,0,0,1-3.51-9.79l12.42-9.63a1.5,1.5,0,0,1,1.84,2.37l-12.39,9.63a2.52,2.52,0,0,0,1.64,4.44h5a1.5,1.5,0,0,1,1.5,1.41l0,.9v33.62a5,5,0,0,0,4.71,5.28h72.92a5,5,0,0,0,4.75-5.24V229.89a1.5,1.5,0,0,1,1.41-1.59h5.16a2.52,2.52,0,0,0,1.6-4.47l-47.7-39.27a2.53,2.53,0,0,0-3.21,0l-20.27,17.21a1.5,1.5,0,1,1-1.94-2.29h0L578,182.25a5.54,5.54,0,0,1,7,0l47.64,39.27a5.52,5.52,0,0,1-3.51,9.79h-3.49v32.93a8,8,0,0,1-7.71,8.28Z"/><path class="cls-14" d="M543.67,214.55a1.5,1.5,0,0,1-1.5-1.5V194.22a6.59,6.59,0,0,1,6.58-6.58h4.63a6.59,6.59,0,0,1,6.58,6.58v6.57a1.5,1.5,0,0,1-3,0v-6.57a3.59,3.59,0,0,0-3.58-3.58h-4.71a3.59,3.59,0,0,0-3.58,3.58V213A1.5,1.5,0,0,1,543.67,214.55Z"/><path class="cls-14" d="M574.39,239.47h-9.87a4.82,4.82,0,0,1-4.81-4.81v-9.87a4.82,4.82,0,0,1,4.81-4.81h9.88a4.82,4.82,0,0,1,4.81,4.81v9.88A4.82,4.82,0,0,1,574.39,239.47ZM564.52,223a1.81,1.81,0,0,0-1.85,1.77s0,0,0,.05v9.88a1.81,1.81,0,0,0,1.81,1.81h9.88a1.81,1.81,0,0,0,1.81-1.81v-9.88a1.81,1.81,0,0,0-1.81-1.81Z"/><path class="cls-14" d="M598.39,239.47h-9.87a4.82,4.82,0,0,1-4.81-4.81v-9.87a4.82,4.82,0,0,1,4.81-4.81h9.88a4.82,4.82,0,0,1,4.81,4.81v9.88A4.82,4.82,0,0,1,598.39,239.47ZM588.52,223a1.81,1.81,0,0,0-1.85,1.77s0,0,0,.05v9.88a1.81,1.81,0,0,0,1.81,1.81h9.88a1.81,1.81,0,0,0,1.81-1.81v-9.88a1.81,1.81,0,0,0-1.81-1.81Z"/><path class="cls-14" d="M574.39,262.31h-9.87a4.82,4.82,0,0,1-4.85-4.79v-9.9a4.82,4.82,0,0,1,4.81-4.81h9.88a4.82,4.82,0,0,1,4.81,4.81v9.88A4.82,4.82,0,0,1,574.39,262.31Zm-9.87-16.5a1.81,1.81,0,0,0-1.81,1.81v9.88a1.81,1.81,0,0,0,1.81,1.81h9.88a1.81,1.81,0,0,0,1.81-1.81v-9.87a1.81,1.81,0,0,0-1.81-1.81Z"/><path class="cls-14" d="M598.39,262.31h-9.87a4.82,4.82,0,0,1-4.85-4.79v-9.9a4.82,4.82,0,0,1,4.81-4.81h9.88a4.82,4.82,0,0,1,4.81,4.81v9.88A4.82,4.82,0,0,1,598.39,262.31Zm-9.87-16.5a1.81,1.81,0,0,0-1.81,1.81v9.88a1.81,1.81,0,0,0,1.81,1.81h9.88a1.81,1.81,0,0,0,1.81-1.81v-9.87a1.81,1.81,0,0,0-1.81-1.81Z"/><path class="cls-14" d="M441.84,271.89a1.5,1.5,0,0,1-1.5-1.5V249.81h-4.73a1.5,1.5,0,0,1,0-3h4.73V214.14a1.5,1.5,0,0,1,1.5-1.5H461.1a18.52,18.52,0,0,1,18.5,18.5v.17a18.52,18.52,0,0,1-18.5,18.5H443.33v20.58A1.5,1.5,0,0,1,441.84,271.89Zm1.5-25.08h17.75a15.52,15.52,0,0,0,15.5-15.5v-.17a15.52,15.52,0,0,0-15.5-15.5H443.33Z"/><path class="cls-14" d="M464.3,257.14H435.59a1.5,1.5,0,0,1,0-3H464.3a1.5,1.5,0,0,1,0,3Z"/><path class="cls-14" d="M544.1,304.2H509.86a5.73,5.73,0,0,1-4.37-9.44l17.12-20.16h0a5.73,5.73,0,0,1,8.73,0l17.12,20.16a5.73,5.73,0,0,1-4.37,9.44Zm-19.2-27.65-17.12,20.16a2.73,2.73,0,0,0,2.08,4.5H544.1a2.73,2.73,0,0,0,2.08-4.5l-17.12-20.16a2.73,2.73,0,0,0-4.16,0Z"/><path class="cls-14" d="M630.6,272.89H423.35a1.5,1.5,0,0,1,0-3H630.6a1.5,1.5,0,0,1,0,3Z"/></g></g></svg>