<svg xmlns="http://www.w3.org/2000/svg" viewBox="0 0 106.72 110.01"><defs><style>.cls-1{fill:#fff;}</style></defs><title>step4_1</title><g id="Слой_2" data-name="Слой 2"><g id="Слой_1-2" data-name="Слой 1"><path class="cls-1" d="M76.31,63.67a.86.86,0,0,0-1.2.21h0C68.85,72.79,59.91,79,53.36,79S37.87,72.79,31.61,63.88a.86.86,0,0,0-1.41,1c6.56,9.34,16.08,15.86,23.16,15.86S70,74.22,76.52,64.88a.86.86,0,0,0-.2-1.2Z"/><path class="cls-1" d="M95.84,86a135.72,135.72,0,0,1-17.1-7.43A.86.86,0,0,0,77.91,80a137.52,137.52,0,0,0,17.33,7.54C101.86,90,105,92.36,105,98.81v9.48H1.73V98.82c0-6.46,3.15-8.77,9.77-11.24A138.08,138.08,0,0,0,28.83,80,.86.86,0,1,0,28,78.53,136,136,0,0,1,10.89,86C3.83,88.6,0,91.43,0,98.82v10.33a.86.86,0,0,0,.86.86h105a.86.86,0,0,0,.86-.86V98.81C106.73,91.42,102.9,88.59,95.84,86Z"/><path class="cls-1" d="M53.41,89.34h0a.85.85,0,0,0-.85.85h0a.87.87,0,1,0,.88-.86h0Z"/><path class="cls-1" d="M53.41,96.23h0a.85.85,0,0,0-.85.85h0a.87.87,0,1,0,.88-.86h0Z"/><path class="cls-1" d="M53.41,103.11h0a.85.85,0,0,0-.85.85h0a.87.87,0,1,0,.88-.86h0Z"/><path class="cls-1" d="M74.88,72.12A.86.86,0,0,0,74,73v3.44a.86.86,0,0,0,1.72,0h0V73a.86.86,0,0,0-.85-.87Z"/><path class="cls-1" d="M75.38,75.73a.86.86,0,0,0-1.2.2h0L65.57,88A.86.86,0,1,0,67,89l8.61-12a.86.86,0,0,0-.2-1.2Z"/><path class="cls-1" d="M66.66,87.71,56.33,82.54a.86.86,0,1,0-.77,1.54l10.33,5.21a.88.88,0,0,0,.39.09.86.86,0,0,0,.39-1.63Z"/><path class="cls-1" d="M31.84,72.12A.86.86,0,0,0,31,73v3.44a.86.86,0,0,0,1.72,0h0V73a.86.86,0,0,0-.85-.87Z"/><path class="cls-1" d="M41.15,88l-8.61-12a.86.86,0,0,0-1.4,1h0l8.59,12a.86.86,0,1,0,1.4-1h0Z"/><path class="cls-1" d="M51.55,82.93a.86.86,0,0,0-1.15-.38h0L40.06,87.72a.86.86,0,0,0,.38,1.63.88.88,0,0,0,.39-.09l10.33-5.17a.86.86,0,0,0,.39-1.15Z"/><path class="cls-1" d="M55.94,85.9a.86.86,0,0,0-.86.86v22.38a.86.86,0,0,0,1.72,0h0V86.76a.86.86,0,0,0-.86-.86Z"/><path class="cls-1" d="M50.73,85.9a.86.86,0,0,0-.86.86v22.38a.86.86,0,0,0,1.72,0h0V86.76a.86.86,0,0,0-.86-.86Z"/><path class="cls-1" d="M39.52,105.17,22.37,88a.86.86,0,1,0-1.22,1.22L38.3,106.39a.86.86,0,0,0,1.22-1.22h0Z"/><path class="cls-1" d="M17.6,105.16l-11-11a.86.86,0,0,0-1.22,1.22l11,11a.86.86,0,1,0,1.22-1.22Z"/><path class="cls-1" d="M43,91.23a.86.86,0,0,0-1.22,0h0L27.81,105.16A.86.86,0,1,0,29,106.38L43,92.45a.86.86,0,0,0,0-1.22Z"/><path class="cls-1" d="M29.54,82.74a.86.86,0,0,0-1.22,0h0L5.9,105.16a.86.86,0,1,0,1.22,1.22h0L29.54,84a.86.86,0,0,0,0-1.22Z"/><path class="cls-1" d="M86.17,88A.86.86,0,0,0,85,88h0L67.8,105.17A.86.86,0,0,0,69,106.39h0l17.15-17.1a.86.86,0,0,0,0-1.22Z"/><path class="cls-1" d="M101.93,94.18a.86.86,0,0,0-1.22,0h0l-11,11a.86.86,0,0,0,1.22,1.22h0l11-11a.86.86,0,0,0,0-1.22Z"/><path class="cls-1" d="M79.52,105.16,65.58,91.23a.86.86,0,0,0-1.22,1.22L78.3,106.38a.86.86,0,1,0,1.22-1.22Z"/><path class="cls-1" d="M101.43,105.16,79,82.74A.86.86,0,1,0,77.79,84l22.42,22.42a.86.86,0,1,0,1.22-1.22Z"/><path class="cls-1" d="M52.13,50.29a5.22,5.22,0,0,0-3.8-1.48c-2.12,0-4.56.92-7.64,2.08-2.14.81-4.56,1.72-7.3,2.47a8.1,8.1,0,0,1-2.12.31c-5.77,0-6-8.37-6-8.73a.86.86,0,0,0-1.57-.47c-3.14,4.63-2.32,8.38-1.08,10.72,2.89,5.45,10.92,8.7,17,8.7h0a14.53,14.53,0,0,0,3.6-.42c6-1.57,10-4.34,10.85-7.59C54.41,54.57,54.37,52.48,52.13,50.29Zm.26,5.17c-.67,2.55-4.35,5-9.61,6.36a12.66,12.66,0,0,1-3.17.37c-5.59,0-12.92-2.91-15.5-7.79a7.54,7.54,0,0,1-.26-6.64c.72,3.53,2.79,7.64,7.42,7.64A9.8,9.8,0,0,0,33.85,55c2.82-.78,5.28-1.7,7.45-2.52,4.64-1.75,7.74-2.8,9.64-1q2,2,1.45,4Z"/><path class="cls-1" d="M83.06,44.52a.86.86,0,0,0-1.57.47c0,.36-.26,8.73-6,8.73a8.1,8.1,0,0,1-2.13-.31c-2.74-.75-5.16-1.67-7.3-2.47-3.08-1.16-5.52-2.08-7.64-2.08a5.22,5.22,0,0,0-3.8,1.48c-2.24,2.16-2.28,4.24-1.93,5.61.85,3.25,4.81,6,10.85,7.59a14.51,14.51,0,0,0,3.6.42c6.1,0,14.14-3.26,17-8.7C85.38,52.91,86.2,49.15,83.06,44.52Zm-.44,9.92c-3.12,5.88-13.19,8.84-18.68,7.41-5.26-1.37-8.94-3.8-9.61-6.36-.35-1.34.14-2.66,1.45-3.93a3.54,3.54,0,0,1,2.61-1c1.81,0,4.12.87,7,2,2.17.82,4.63,1.75,7.45,2.52a9.78,9.78,0,0,0,2.58.38c4.64,0,6.7-4.12,7.43-7.64a7.54,7.54,0,0,1-.23,6.62Z"/><path class="cls-1" d="M63.08,1.46a33.06,33.06,0,0,0-19.45,0,.86.86,0,0,0,.51,1.64,31.32,31.32,0,0,1,18.43,0,.86.86,0,0,0,.51-1.64Z"/><path class="cls-1" d="M43.89,1.43a.86.86,0,0,0-.86.86V14.45a.86.86,0,0,0,1.72,0V2.29A.86.86,0,0,0,43.89,1.43Z"/><path class="cls-1" d="M62.83,1.42a.86.86,0,0,0-.86.86V14.44a.86.86,0,0,0,1.72,0h0V2.29a.86.86,0,0,0-.85-.87Z"/><path class="cls-1" d="M86.93,34.29H19.79a.86.86,0,0,0,0,1.72H86.93a.86.86,0,0,0,0-1.72Z"/><path class="cls-1" d="M86.93,37.69H19.79a.86.86,0,0,0,0,1.72H86.93a.86.86,0,0,0,0-1.72Z"/><path class="cls-1" d="M86.93,34.29a.86.86,0,0,0-.86.86v3.44a.86.86,0,0,0,1.72,0V35.15A.86.86,0,0,0,86.93,34.29Z"/><path class="cls-1" d="M19.79,34.29a.86.86,0,0,0-.86.86v3.44a.86.86,0,0,0,1.72,0V35.15A.86.86,0,0,0,19.79,34.29Z"/><path class="cls-1" d="M66.65,6.29a.86.86,0,1,0-.74,1.56A29.36,29.36,0,0,1,82.52,31.79a.86.86,0,0,0,.86.79h.07a.86.86,0,0,0,.79-.92h0A31.08,31.08,0,0,0,66.65,6.29Z"/><path class="cls-1" d="M41.22,6.65a.86.86,0,0,0-1.14-.41h0a31.09,31.09,0,0,0-17.6,25.35.86.86,0,0,0,.78.93h.08a.86.86,0,0,0,.86-.79A29.37,29.37,0,0,1,40.81,7.79.86.86,0,0,0,41.22,6.65Z"/></g></g></svg>