<svg xmlns="http://www.w3.org/2000/svg" viewBox="0 0 555.6 2881.39"><defs><style>.cls-1{fill:none;stroke:#fff;stroke-linecap:round;stroke-linejoin:round;stroke-width:5px;}.cls-10,.cls-11,.cls-12,.cls-13,.cls-15,.cls-16,.cls-18,.cls-19,.cls-2,.cls-20,.cls-3,.cls-4,.cls-8,.cls-9{fill:#fff;}.cls-10,.cls-11,.cls-12,.cls-13,.cls-15,.cls-16,.cls-18,.cls-19,.cls-20,.cls-3,.cls-4,.cls-8,.cls-9{isolation:isolate;font-family:ArialMT, Arial;}.cls-3{font-size:35.92px;}.cls-10,.cls-11,.cls-12,.cls-13,.cls-15,.cls-16,.cls-18,.cls-19,.cls-20,.cls-4,.cls-8,.cls-9{font-size:36.35px;}.cls-5{letter-spacing:-0.01em;}.cls-6{letter-spacing:0em;}.cls-7{letter-spacing:-0.03em;}.cls-8{letter-spacing:-0.01em;}.cls-9{letter-spacing:-0.03em;}.cls-10{letter-spacing:-0.07em;}.cls-11,.cls-14{letter-spacing:-0.02em;}.cls-12{letter-spacing:-0.01em;}.cls-13{letter-spacing:0.01em;}.cls-15{letter-spacing:-0.09em;}.cls-16{letter-spacing:0.01em;}.cls-17{letter-spacing:-0.03em;}.cls-18{letter-spacing:-0.04em;}.cls-19{letter-spacing:-0.02em;}.cls-20{letter-spacing:-0.06em;}.cls-21{letter-spacing:-0.02em;}.cls-22{letter-spacing:-0.04em;}.cls-23{letter-spacing:0em;}</style></defs><title>steps-mob</title><g id="Слой_2" data-name="Слой 2"><g id="Слой_1-2" data-name="Слой 1"><path class="cls-1" d="M46.07,913.9c-93.49-130.34-7.43-241.45-7.43-241.45"/><path class="cls-2" d="M45.85,868.26a2.74,2.74,0,0,1,2.87,2.6L51,916.75a2.73,2.73,0,0,1-3.75,2.67L4.79,902.18a2.73,2.73,0,1,1,2-5l38.62,15.64-2.1-41.71a2.73,2.73,0,0,1,2.57-2.87Z"/><circle class="cls-1" cx="56.05" cy="648.6" r="29.18" transform="translate(-508.94 325.15) rotate(-55.27)"/><path class="cls-1" d="M46.07,1722.85c-93.49-130.34-7.44-241.45-7.44-241.45"/><path class="cls-2" d="M45.85,1677.21a2.74,2.74,0,0,1,2.87,2.6L51,1725.7a2.73,2.73,0,0,1-3.75,2.67l-42.5-17.26a2.73,2.73,0,1,1,2-5l38.62,15.64-2.1-41.64a2.73,2.73,0,0,1,2.57-2.87Z"/><circle class="cls-1" cx="56.06" cy="1457.53" r="29.18" transform="translate(-1173.74 673.24) rotate(-55.27)"/><path class="cls-1" d="M46.07,2531.8c-93.49-130.34-7.44-241.45-7.44-241.45"/><path class="cls-2" d="M45.85,2486.11a2.74,2.74,0,0,1,2.87,2.6L51,2534.6a2.73,2.73,0,0,1-3.75,2.67l-42.5-17.16a2.73,2.73,0,1,1,2-5l38.62,15.64-2.14-41.65a2.73,2.73,0,0,1,2.57-2.87Z"/><circle class="cls-1" cx="56.07" cy="2266.47" r="29.18" transform="translate(-1838.56 1021.32) rotate(-55.27)"/><text class="cls-3" transform="translate(45.07 661.15)">2</text><text class="cls-3" transform="translate(45.07 1470.31)">4</text><text class="cls-3" transform="translate(46.07 2279.5)">6</text><path class="cls-1" d="M537.72,268.36S591.94,398,467.79,499.58"/><path class="cls-2" d="M479.86,455.55A2.73,2.73,0,0,1,481.6,459l-12.88,39.66,41.36-5.07a2.73,2.73,0,1,1,.66,5.4l-45.52,5.6a2.73,2.73,0,0,1-2.93-3.55l14.16-43.71a2.74,2.74,0,0,1,3.44-1.76Z"/><circle class="cls-1" cx="523.92" cy="237.91" r="29.18" transform="translate(-42.2 340.86) rotate(-34.73)"/><path class="cls-1" d="M537.72,1079.32s54.22,129.66-69.93,231.22"/><path class="cls-2" d="M479.86,1266.5a2.73,2.73,0,0,1,1.74,3.44l-12.88,39.66,41.36-5.07a2.73,2.73,0,1,1,.66,5.4l-45.52,5.6a2.73,2.73,0,0,1-2.93-3.55l14.16-43.71a2.74,2.74,0,0,1,3.44-1.76Z"/><circle class="cls-1" cx="523.89" cy="1048.87" r="29.18" transform="translate(-504.22 485.33) rotate(-34.73)"/><path class="cls-1" d="M537.72,1890.27s54.22,129.66-69.93,231.22"/><path class="cls-2" d="M479.86,2077.45a2.73,2.73,0,0,1,1.74,3.44l-12.88,39.67,41.36-5.07a2.73,2.73,0,1,1,.66,5.4l-45.52,5.6a2.73,2.73,0,0,1-2.93-3.55l14.16-43.71a2.74,2.74,0,0,1,3.44-1.76Z"/><circle class="cls-1" cx="523.88" cy="1859.84" r="29.18" transform="translate(-966.24 629.8) rotate(-34.73)"/><text class="cls-3" transform="translate(513.17 251.15)">1</text><text class="cls-3" transform="translate(513.17 1873.23)">5</text><text class="cls-3" transform="translate(514.01 1062.04)">3</text><text class="cls-4" transform="translate(214.12 225.66)">ВЫ<tspan class="cls-5" x="56.42" y="0">З</tspan><tspan class="cls-6" x="77.97" y="0">ОВ</tspan></text><text class="cls-4" transform="translate(161.33 269.28)">ЗАМЕРЩИКА</text><path class="cls-2" d="M309.48,11,303,2,296.8,6.3,279.8,0,254.29,67.71,228.72,0l-1.39.52V.42H195.72V117.51h31.7V85.93l13,34.76,13.89-5.14,13.89,5.14L296,46.8,345,115.86l26-18L309.48,11.11Zm-10.6-3,2.17-1.51,2.21,3.15-1.51-.59ZM224,115.11H198.15v-5.7h13v-3.26h-13v-5.7h13V97.19h-13v-5h13V88.93h-13v-5.7h13V80.11h-13V75.23h13V72h-13v-5.7h13V63h-13V58.13h13V54.91h-13v-5.7h13V46h-13V41.11h13V37.85h-13V32.11h13V28.85h-13V24.11h13V20.78h-13V15h13V11.81h-13V3.68h26V115.11Zm15.15-4.85,12.69-5.15-1.09-2.64-12.6,5.2-2-5.35,12.42-5.21-1.09-2.64-12.33,5.09-2-5.35,12.12-5-1.09-2.64-12.12,5-1.7-5.39,11.88-4.89-1.09-2.64-11.8,4.86-2-5.3h0L239,73.42l-1.09-2.64L227.4,75.11V69.7l8.32-3.39-1.09-2.64-7.18,3V61.53l5-2.08-1.09-2.64-3.92,1.62V4.89l25.07,67.16h0L266,108.21l-24,9Zm26.42,6.94-8-3,9.88-3.7.68-.26Zm3.15-8.45L257.58,78.8l7.07,2.77,1-2.65-9.22-3.76L255.26,72l1.12-3L268,73.56l1-2.65-11.62-4.54,2-5.33,11.71,4.54,1-2.65-11.75-4.54,2-5.33,11.83,4.64,1-2.65L263.26,50.4l2-5.33,12,4.68,1-2.65-12-4.7,2-5.33,12.12,4.74,1-2.65L269.26,34.4l2-5.33,12.22,4.79,1-2.65-12.25-4.8,2-5.35,12.49,4.82,1-2.65-12.39-4.85,2-5.33,12.44,4.82,1-2.65-12.51-4.89,2.32-6.23,12.33,4.54h0L304.6,13,292.94,44.26h0ZM364.81,97.4l-21,14.72-4-5.65,11.27-8.33-1.7-2.3-11.18,8.27-3.27-4.67L346,91.23l-1.7-2.29-11,8.16-3.27-4.67L341,84.36l-1.7-2.29-10.88,8-3.27-4.67,10.75-8-1.7-2.3-10.48,8-3.27-4.67,10.6-7.83-1.7-2.29-10.63,7.79-3.17-4.73L326,63.69l-1.7-2.3-10.36,7.72-3.27-4.67,10.24-7.57-1.7-2.29L309,62.11l-3.32-4.74,10.06-7.42L314,47.69,304,55.1l-3.29-4.66,9.91-7.33L309,40.75,299.1,48l-3-4.2.36-1,9.09-6.68-1.7-2.29-5.51,4.07L307,14.67Z"/><text class="cls-4" transform="translate(153.29 633.18)">ЗАКЛ<tspan class="cls-7" x="91.23" y="0">Ю</tspan><tspan x="126.75" y="0">ЧЕНИЕ</tspan></text><text class="cls-8" transform="translate(181.87 676.81)">Д</text><text class="cls-4" transform="translate(208.77 676.81)">О</text><text class="cls-9" transform="translate(233.77 676.81)">Г</text><text class="cls-4" transform="translate(252.81 676.81)">О<tspan class="cls-7" x="28.27" y="0">В</tspan><tspan class="cls-6" x="51.31" y="0">О</tspan></text><text class="cls-10" transform="translate(325.42 676.81)">Р</text><text class="cls-4" transform="translate(345.9 676.81)">А</text><path class="cls-2" d="M349,440.11h0l-4.54-3.5a2.94,2.94,0,0,0-4.12.55h0l-4.88,6.36-.23-.17a3.57,3.57,0,0,0-5,.66h0l-54.8,71.45h0l-.11.18-.09.14a2.38,2.38,0,0,0-.15.35l-7.16,20.63h0a2.83,2.83,0,0,0,4.26,3.27h0l18.07-12.27.29-.23.11-.12.14-.15h0L340.12,463l1.51,1.12-20.21,26.34a2.37,2.37,0,0,0,3.76,2.89h0L346,466.17a3.73,3.73,0,0,0-.68-5.23h0l-2.27-1.74,2.59-3.39a3.57,3.57,0,0,0-.66-5h0l-.23-.17,4.86-6.33a2.94,2.94,0,0,0-.5-4.13h0Zm-74.75,92.78,4.2-12.12,6.39,4.91Zm14.19-10.41-7.83-6.06,52.65-68.63,7.83,6.06Zm52.47-74.75-1.71-1.3,3.76-4.91,1.71,1.3Z"/><path class="cls-2" d="M311.44,459.29H218.17a2.44,2.44,0,0,0-.09,4.88h93.51a2.44,2.44,0,0,0-.09-4.88h-.06Z"/><path class="cls-2" d="M288.77,483.69h-70.6a2.44,2.44,0,0,0-.09,4.88h70.78a2.44,2.44,0,0,0-.09-4.88Z"/><path class="cls-2" d="M260.84,532.5H218.17a2.44,2.44,0,0,0-.09,4.88h42.64a2.44,2.44,0,0,0,.09-4.88Z"/><path class="cls-2" d="M311.83,532.5H290.27a2.44,2.44,0,0,0,0,4.88h21.55a2.44,2.44,0,0,0,0-4.88Z"/><path class="cls-2" d="M326.45,443.11a2.42,2.42,0,0,0,3-2.3V424.54a2.37,2.37,0,0,0,0-.3h0a2.33,2.33,0,0,0-.08-.3h0a2.38,2.38,0,0,0-.12-.27h0l-.17-.26h0l-.21-.24L291,385.3l-.24-.21h0l-.26-.17h0l-.27-.12h0l-.29-.08H206.21a4.92,4.92,0,0,0-4.92,4.92h0V546.11a4.92,4.92,0,0,0,4.92,4.92h120.7a2.56,2.56,0,0,0,2.56-2.56h0V498a1.3,1.3,0,0,0-.47-1,2.54,2.54,0,0,0-4.41,1.61v47.74a.18.18,0,0,1-.18.18H206a.18.18,0,0,1-.18-.18V389.53a.18.18,0,0,1,.18-.18h80.83v32.76a5,5,0,0,0,5,5h32.73v13.63A2.44,2.44,0,0,0,326.45,443.11Zm-34.84-20.9a.27.27,0,0,1-.27-.27h0V392.59h0l29.6,29.6Z"/><path class="cls-2" d="M259.52,418.36l-19.8-18.62a2.36,2.36,0,0,0-3.24,0l-19.83,18.62A2.37,2.37,0,0,0,219.7,422l.19-.18,18.18-17.1,18.18,17.1a2.38,2.38,0,1,0,3.24-3.45Z"/><path class="cls-2" d="M253.07,421.3,241,409.89a3.92,3.92,0,0,0-5.36,0L223.47,421.3a3.92,3.92,0,0,0-1.24,2.86v16.59a3.92,3.92,0,0,0,3.92,3.92h24.24a3.92,3.92,0,0,0,3.92-3.92V424.11A3.92,3.92,0,0,0,253.07,421.3ZM240,440.11h-3.58V432H240Zm4.54,0v-9.77a3.24,3.24,0,0,0-3.24-3.24h-6.53a3.24,3.24,0,0,0-3.24,3.24h0v9.77h-4.88V424.69l11.4-10.58,11.39,10.6v15.4Z"/><path class="cls-2" d="M268.14,508.11H241a2.44,2.44,0,0,0,0,4.88h27.27a2.44,2.44,0,1,0,0-4.88h-.1Z"/><path class="cls-2" d="M226.72,508.11h-8.47a2.44,2.44,0,0,0,0,4.88h8.47a2.44,2.44,0,1,0,0-4.88Z"/><text class="cls-11" transform="translate(145.99 1040.71)">С<tspan class="cls-6" x="25.45" y="0">О</tspan></text><text class="cls-12" transform="translate(194.65 1040.71)">С</text><text class="cls-9" transform="translate(217.79 1040.71)">Т</text><text class="cls-4" transform="translate(238.99 1040.71)">О<tspan class="cls-5" x="28.27" y="0">В</tspan><tspan x="52.11" y="0">ЛЕНИЕ</tspan></text><text class="cls-4" transform="translate(210.98 1084.34)"><tspan class="cls-5">С</tspan><tspan x="25.84" y="0">М</tspan></text><text class="cls-13" transform="translate(266.37 1084.34)">Е</text><text class="cls-4" transform="translate(287.4 1084.34)">ТЫ</text><path class="cls-2" d="M423.27,843.3l-69.33-57.12a9.45,9.45,0,0,0-12,0l-25.75,20.93v-12a6.2,6.2,0,0,0-6.2-6.06H298.17a6.2,6.2,0,0,0-6.2,6.2h0v32l-19.45,16.1A9.44,9.44,0,0,0,278.58,860h4.14V905.3a13.63,13.63,0,0,0,13.63,13.63H400.66a13.63,13.63,0,0,0,13.63-13.63h0V860h3a9.44,9.44,0,0,0,6.06-16.66Zm.29,9.54a6.56,6.56,0,0,1-6.3,4.44h-4.54a1.38,1.38,0,0,0-1.38,1.38h0v46.67a10.83,10.83,0,0,1-10.82,10.78H296.28a10.83,10.83,0,0,1-10.82-10.82V858.65a1.38,1.38,0,0,0-1.38-1.38h-5.47a6.7,6.7,0,0,1-4.26-11.86l20-16.51h0l.11-.11.08-.09v-.59a1.38,1.38,0,0,0,0-.15h0V795.25a3.44,3.44,0,0,1,3.44-3.44h11.79a3.41,3.41,0,0,1,3.44,3.27V810h0a1.38,1.38,0,0,0,0,.15v.5l.08.12h0l.11.11.11.09H315l.12-.08h0l28-22.73a6.7,6.7,0,0,1,8.51,0l69.33,57.12a6.56,6.56,0,0,1,2.67,7.59Z"/><path class="cls-2" d="M333.16,840.76H328.9a13.18,13.18,0,0,0-13.18,13.18h0v4.26a13.18,13.18,0,0,0,13.18,13.18h4.26a13.18,13.18,0,0,0,13.18-13.18h0v-4.26A13.18,13.18,0,0,0,333.16,840.76Zm-.38,28h-3.5a10.82,10.82,0,0,1-10.82-10.82h0v-3.5a10.82,10.82,0,0,1,10.82-10.82h3.5a10.82,10.82,0,0,1,10.82,10.82h0v3.5a10.82,10.82,0,0,1-10.82,10.82Z"/><path class="cls-2" d="M369.59,840.76h-4.27a13.18,13.18,0,0,0-13.18,13.18h0v4.26a13.18,13.18,0,0,0,13.18,13.18h4.26a13.18,13.18,0,0,0,13.14-13.19h0v-4.26A13.18,13.18,0,0,0,369.59,840.76Zm-.38,28h-3.49a10.82,10.82,0,0,1-10.82-10.82h0v-3.5a10.82,10.82,0,0,1,10.82-10.82h3.5A10.82,10.82,0,0,1,380,854.39h0v3.5a10.82,10.82,0,0,1-10.82,10.82h0Z"/><path class="cls-2" d="M369.59,874.76h-4.27a13.18,13.18,0,0,0-13.18,13.18h0v4.26a13.18,13.18,0,0,0,13.18,13.18h4.26a13.18,13.18,0,0,0,13.14-13.18h0v-4.26A13.18,13.18,0,0,0,369.59,874.76Zm-.38,27.89h-3.49a10.82,10.82,0,0,1-10.82-10.82h0v-3.44a10.82,10.82,0,0,1,10.82-10.81h3.5A10.82,10.82,0,0,1,380,888.4h0v3.5a10.82,10.82,0,0,1-10.82,10.8Z"/><path class="cls-2" d="M333.16,874.76H328.9a13.18,13.18,0,0,0-13.18,13.18h0v4.26a13.18,13.18,0,0,0,13.18,13.18h4.26a13.18,13.18,0,0,0,13.18-13.18h0v-4.26A13.18,13.18,0,0,0,333.16,874.76Zm-.38,27.89h-3.5a10.82,10.82,0,0,1-10.82-10.82h0v-3.44a10.82,10.82,0,0,1,10.82-10.82h3.5a10.82,10.82,0,0,1,10.82,10.82h0v3.5a10.82,10.82,0,0,1-10.82,10.8Z"/><path class="cls-2" d="M176.85,829.32H147.19a1.85,1.85,0,0,0-1.85,1.85v50h-5.56a1.86,1.86,0,0,0,0,3.71h5.56V916.4a1.86,1.86,0,1,0,3.71,0h0V884.88h27.81a27.81,27.81,0,0,0,0-55.62Zm17,44.85a24,24,0,0,1-17,7.06H149V833h27.84a24.1,24.1,0,0,1,17,41.14Z"/><path class="cls-2" d="M180.56,892.3H139.77a1.86,1.86,0,0,0,0,3.71h40.79a1.86,1.86,0,1,0,.27-3.71Z"/><rect class="cls-2" x="119.06" y="916.01" width="313.36" height="2.76" rx="1.18" ry="1.18"/><path class="cls-2" d="M290.52,966.77H230.43a7.57,7.57,0,0,1-5.82-12.62l30-35.13a7.57,7.57,0,0,1,11.62,0l30.06,35.09a7.57,7.57,0,0,1-5.82,12.62Zm-33.76-46-30,35.17a4.89,4.89,0,0,0,3.73,8.07h60.07a4.89,4.89,0,0,0,3.73-8.07l-30-35.13a4.89,4.89,0,0,0-7.44,0Z"/><text class="cls-4" transform="translate(123.74 1448.23)">ВЫ<tspan class="cls-14" x="56.42" y="0">Е</tspan><tspan x="79.87" y="0">ЗД БРИ</tspan></text><text class="cls-15" transform="translate(328.14 1448.23)">Г</text><text class="cls-13" transform="translate(344.93 1448.23)">А</text><text class="cls-4" transform="translate(368.97 1448.23)">ДЫ</text><text class="cls-16" transform="translate(131.24 1491.86)">Н</text><text class="cls-4" transform="translate(157.48 1491.86)">А <tspan class="cls-17" x="34.34" y="0">В</tspan><tspan x="57.38" y="0">АШ О</tspan><tspan class="cls-17" x="153.32" y="0">Б</tspan><tspan x="175.96" y="0">ЪЕК</tspan></text><text class="cls-18" transform="translate(399.26 1491.86)">Т</text><path class="cls-2" d="M310.51,1296a1.3,1.3,0,0,0-1.81.3h0c-9.48,13.5-23,22.92-33,22.92s-23.46-9.42-33-22.92a1.31,1.31,0,0,0-2.14,1.51c9.94,14.15,24.36,24,35.08,24s25.14-9.88,35.08-24a1.3,1.3,0,0,0-.29-1.81h0Z"/><path class="cls-2" d="M340.09,1329.8a205.58,205.58,0,0,1-25.9-11.25,1.31,1.31,0,0,0-1.26,2.29,208.29,208.29,0,0,0,26.25,11.42c10,3.74,14.8,7.26,14.8,17v14.36H197.54v-14.34c0-9.79,4.77-13.28,14.8-17a209.16,209.16,0,0,0,26.25-11.42,1.31,1.31,0,1,0-1.2-2.33l-.07,0a206,206,0,0,1-25.9,11.25c-10.69,4-16.5,8.29-16.5,19.48v15.65a1.3,1.3,0,0,0,1.3,1.3h159a1.3,1.3,0,0,0,1.3-1.3h0v-15.66C356.59,1338.11,350.78,1333.8,340.09,1329.8Z"/><path class="cls-2" d="M275.82,1334.94h0a1.29,1.29,0,0,0-1.29,1.29h0a1.32,1.32,0,1,0,1.34-1.3h0Z"/><path class="cls-2" d="M275.82,1345.37h0a1.29,1.29,0,0,0-1.29,1.29h0a1.32,1.32,0,1,0,1.34-1.3h0Z"/><path class="cls-2" d="M275.82,1355.8h0a1.29,1.29,0,0,0-1.29,1.29h0a1.32,1.32,0,1,0,1.34-1.3h0Z"/><path class="cls-2" d="M308.34,1308.85a1.3,1.3,0,0,0-1.3,1.3h0v5.21a1.3,1.3,0,0,0,2.61,0v-5.21a1.3,1.3,0,0,0-1.28-1.32h0Z"/><path class="cls-2" d="M309.1,1314.32a1.3,1.3,0,0,0-1.81.29h0l-13,18.25a1.3,1.3,0,1,0,2.12,1.51h0l13-18.25a1.3,1.3,0,0,0-.29-1.81h0Z"/><path class="cls-2" d="M295.89,1332.47l-15.65-7.83a1.3,1.3,0,1,0-1.17,2.33l15.65,7.89a1.33,1.33,0,0,0,.59.14,1.3,1.3,0,0,0,.59-2.47Z"/><path class="cls-2" d="M243.15,1308.85a1.3,1.3,0,0,0-1.3,1.3h0v5.21a1.3,1.3,0,0,0,2.61,0v-5.21a1.3,1.3,0,0,0-1.28-1.32h0Z"/><path class="cls-2" d="M257.25,1332.88l-13-18.25a1.3,1.3,0,1,0-2.12,1.51h0l13,18.25a1.3,1.3,0,1,0,2.12-1.51Z"/><path class="cls-2" d="M273,1325.23a1.3,1.3,0,0,0-1.74-.58h0l-15.65,7.83a1.3,1.3,0,0,0,.58,2.47,1.33,1.33,0,0,0,.59-.14l15.65-7.83a1.3,1.3,0,0,0,.6-1.74h0Z"/><path class="cls-2" d="M279.65,1329.73a1.3,1.3,0,0,0-1.3,1.3h0v33.9a1.3,1.3,0,0,0,2.61,0V1331a1.3,1.3,0,0,0-1.3-1.3h0Z"/><path class="cls-2" d="M271.72,1329.73a1.3,1.3,0,0,0-1.3,1.3h0v33.9a1.3,1.3,0,0,0,2.61,0V1331a1.3,1.3,0,0,0-1.3-1.3h0Z"/><path class="cls-2" d="M254.78,1358.92l-26-26a1.31,1.31,0,0,0-1.95,1.75l.1.1,26,26a1.31,1.31,0,0,0,1.85-1.85Z"/><path class="cls-2" d="M221.58,1358.9l-16.66-16.66a1.31,1.31,0,0,0-1.85,1.85l16.65,16.66a1.31,1.31,0,0,0,1.85-1.85Z"/><path class="cls-2" d="M260,1337.8a1.3,1.3,0,0,0-1.84,0h0L237,1358.9a1.31,1.31,0,0,0,1.85,1.85l21.12-21.1a1.3,1.3,0,0,0,0-1.84h0Z"/><path class="cls-2" d="M239.66,1324.94a1.3,1.3,0,0,0-1.84,0h0l-34,34a1.31,1.31,0,0,0,1.85,1.85h0l34-34a1.3,1.3,0,0,0,0-1.84h0Z"/><path class="cls-2" d="M325.44,1332.95a1.3,1.3,0,0,0-1.84,0h0l-26,26a1.31,1.31,0,0,0,1.85,1.85h0l26-25.9a1.3,1.3,0,0,0,.07-1.84h0Z"/><path class="cls-2" d="M349.31,1342.27a1.3,1.3,0,0,0-1.84,0h0l-16.66,16.66a1.31,1.31,0,0,0,1.85,1.85h0l16.65-16.67a1.3,1.3,0,0,0,0-1.84Z"/><path class="cls-2" d="M315.37,1358.9l-21.12-21.1a1.31,1.31,0,0,0-1.95,1.75l.1.1,21.12,21.1a1.31,1.31,0,0,0,1.95-1.75Z"/><path class="cls-2" d="M348.56,1358.9l-34-34a1.31,1.31,0,0,0-1.85,1.85l34,34a1.31,1.31,0,0,0,1.85-1.85Z"/><path class="cls-2" d="M273.88,1275.79a7.91,7.91,0,0,0-5.76-2.24c-3.21,0-6.91,1.39-11.57,3.15-3.24,1.23-6.91,2.61-11.06,3.74a12.27,12.27,0,0,1-3.21.47c-8.74,0-9.09-12.68-9.09-13.22a1.3,1.3,0,0,0-2.38-.71c-4.76,7-3.51,12.69-1.64,16.24,4.38,8.26,16.54,13.18,25.75,13.18h0a22,22,0,0,0,5.45-.64c9.09-2.38,15.15-6.57,16.44-11.5C277.33,1282.27,277.27,1279.11,273.88,1275.79Zm.39,7.83c-1,3.86-6.59,7.57-14.56,9.63a19.18,19.18,0,0,1-4.8.56c-8.47,0-19.57-4.41-23.48-11.8a11.42,11.42,0,0,1-.39-10.06c1.09,5.35,4.23,11.57,11.24,11.57a14.85,14.85,0,0,0,3.91-.58c4.27-1.18,8-2.58,11.28-3.82,7-2.65,11.72-4.24,14.6-1.51q3,3,2.2,6.06Z"/><path class="cls-2" d="M320.72,1267a1.3,1.3,0,0,0-2.38.71c0,.55-.39,13.22-9.09,13.22a12.27,12.27,0,0,1-3.23-.47c-4.15-1.14-7.82-2.53-11.06-3.74-4.67-1.76-8.36-3.15-11.57-3.15a7.91,7.91,0,0,0-5.76,2.24c-3.39,3.27-3.45,6.42-2.92,8.5,1.29,4.92,7.29,9.09,16.44,11.5a22,22,0,0,0,5.45.64c9.24,0,21.42-4.94,25.75-13.18C324.25,1279.76,325.49,1274.06,320.72,1267Zm-.67,15c-4.73,8.91-20,13.39-28.3,11.22-8-2.08-13.54-5.76-14.56-9.63-.53-2,.21-4,2.2-6a5.36,5.36,0,0,1,4-1.51c2.74,0,6.24,1.32,10.6,3,3.29,1.24,7,2.65,11.28,3.82a14.81,14.81,0,0,0,3.91.58c7,0,10.15-6.24,11.25-11.57a11.42,11.42,0,0,1-.35,10Z"/><path class="cls-2" d="M290.47,1201.82a50.08,50.08,0,0,0-29.46,0,1.3,1.3,0,0,0,.77,2.48,47.44,47.44,0,0,1,27.92,0,1.3,1.3,0,0,0,.77-2.48Z"/><path class="cls-2" d="M261.4,1201.78a1.3,1.3,0,0,0-1.3,1.3h0v18.42a1.3,1.3,0,0,0,2.61,0v-18.39a1.3,1.3,0,0,0-1.27-1.33Z"/><path class="cls-2" d="M290.09,1201.76a1.3,1.3,0,0,0-1.3,1.3h0v18.42a1.3,1.3,0,1,0,2.61,0h0v-18.37a1.3,1.3,0,0,0-1.28-1.32h0Z"/><path class="cls-2" d="M326.59,1251.55H224.89a1.3,1.3,0,1,0,0,2.61h101.7a1.3,1.3,0,1,0,0-2.61Z"/><path class="cls-2" d="M326.59,1256.7H224.89a1.3,1.3,0,0,0,0,2.61h101.7a1.3,1.3,0,0,0,0-2.61Z"/><path class="cls-2" d="M326.59,1251.55a1.3,1.3,0,0,0-1.3,1.3h0v5.26a1.3,1.3,0,1,0,2.61,0h0v-5.21a1.3,1.3,0,0,0-1.25-1.35Z"/><path class="cls-2" d="M224.89,1251.55a1.3,1.3,0,0,0-1.3,1.3h0v5.26a1.3,1.3,0,1,0,2.61,0h0v-5.21a1.3,1.3,0,0,0-1.25-1.35Z"/><path class="cls-2" d="M295.87,1209.11a1.31,1.31,0,1,0-1.3,2.27l.18.09a44.47,44.47,0,0,1,25.16,36.26,1.3,1.3,0,0,0,1.3,1.2h.11a1.3,1.3,0,0,0,1.2-1.39h0A47.08,47.08,0,0,0,295.87,1209.11Z"/><path class="cls-2" d="M257.35,1209.68a1.3,1.3,0,0,0-1.73-.63h0a47.09,47.09,0,0,0-26.66,38.4,1.3,1.3,0,0,0,1.18,1.41h.12a1.3,1.3,0,0,0,1.3-1.2,44.49,44.49,0,0,1,25.16-36.25,1.3,1.3,0,0,0,.63-1.73Z"/><text class="cls-4" transform="translate(151.12 2263.28)">ВЫП</text><text class="cls-19" transform="translate(231.13 2263.28)">О</text><text class="cls-4" transform="translate(255.57 2263.28)">ЛНЕНИЕ</text><text class="cls-10" transform="translate(219.44 2306.91)">Р</text><text class="cls-4" transform="translate(239.92 2306.91)">АБ</text><text class="cls-12" transform="translate(286.56 2306.91)">О</text><text class="cls-18" transform="translate(311.07 2306.91)">Т</text><path class="cls-2" d="M338.9,2036.11c-7.66-7.66-39.1-14.3-40.43-14.59a1.51,1.51,0,0,0-1.77,1.77c.27,1.33,6.91,32.76,14.59,40.43a21.12,21.12,0,0,0,14.84,6.23,19.55,19.55,0,0,0,4.54-.55,1.51,1.51,0,0,0-.7-2.92,17.81,17.81,0,0,1-16.66-4.88c-5.92-5.92-11.57-29.22-13.25-36.64,7.42,1.68,30.72,7.33,36.64,13.25a17.81,17.81,0,0,1,4.88,16.66,1.51,1.51,0,0,0,2.92.7A20.86,20.86,0,0,0,338.9,2036.11Z"/><path class="cls-2" d="M348.11,2066.62l-14.87-14.87a1.51,1.51,0,1,0-2.12,2.12L346,2068.74a1.51,1.51,0,0,0,2.12-2.12Z"/><path class="cls-2" d="M343.85,2070.88,329,2056a1.51,1.51,0,0,0-2.12,2.12L341.72,2073a1.51,1.51,0,0,0,2.12-2.12Z"/><path class="cls-2" d="M350.28,2064.5a1.51,1.51,0,0,0-2.12,0l-8.51,8.5a1.51,1.51,0,1,0,2.07,2.11l8.51-8.5A1.51,1.51,0,0,0,350.28,2064.5Z"/><path class="cls-2" d="M369.36,2083.63l-19.09-19.13a1.51,1.51,0,0,0-2.12,2.12l19.13,19.13a1.51,1.51,0,0,0,2.12-2.12Z"/><path class="cls-2" d="M360.88,2092.11,341.72,2073a1.51,1.51,0,0,0-2.12,2.12l19.12,19.13a1.51,1.51,0,1,0,2.12-2.12Z"/><path class="cls-2" d="M369.36,2083.63a1.51,1.51,0,1,0-2.12,2.12,4.51,4.51,0,0,1-6.38,6.38,1.51,1.51,0,0,0-2.12,2.12,7.57,7.57,0,1,0,10.6-10.6Z"/><path class="cls-2" d="M333.24,2051.75a4.54,4.54,0,1,0-6.38,6.38A1.51,1.51,0,0,0,329,2056a1.51,1.51,0,0,1,2.12-2.12,1.51,1.51,0,1,0,2.12-2.12Z"/><path class="cls-2" d="M240.82,2126.51h-60.1a1.51,1.51,0,0,0-1.51,1.51h0v60.09a1.51,1.51,0,0,0,1.51,1.51h60.1a1.51,1.51,0,0,0,1.51-1.51h0V2128A1.51,1.51,0,0,0,240.82,2126.51Zm-1.51,60.12H182.14v-57.11h57.11Z"/><path class="cls-2" d="M190.79,2133a1.51,1.51,0,0,0-2.12,0l-3,3a1.51,1.51,0,1,0,2,2.14l3-3a1.51,1.51,0,0,0,.08-2.13Z"/><path class="cls-2" d="M199.8,2133a1.51,1.51,0,0,0-2.12,0l-12,12a1.51,1.51,0,1,0,2.12,2.12l12-12A1.51,1.51,0,0,0,199.8,2133Z"/><path class="cls-2" d="M361.05,2126.51H300.93a1.51,1.51,0,0,0-1.51,1.51h0v60.09a1.51,1.51,0,0,0,1.51,1.51h60.12a1.51,1.51,0,0,0,1.51-1.51h0V2128A1.51,1.51,0,0,0,361.05,2126.51Zm-1.51,60.12H302.43v-57.11h57.11Z"/><path class="cls-2" d="M311,2133a1.51,1.51,0,0,0-2.12,0l-3,3a1.51,1.51,0,1,0,2.12,2.12l3-3A1.51,1.51,0,0,0,311,2133Z"/><path class="cls-2" d="M320,2133a1.51,1.51,0,0,0-2.12,0l-12,12a1.51,1.51,0,0,0,2.12,2.12l12-12A1.51,1.51,0,0,0,320,2133Z"/><path class="cls-2" d="M300.94,2066.39H240.82a1.51,1.51,0,0,0-1.51,1.51h0V2128a1.51,1.51,0,0,0,1.51,1.51h60.12a1.51,1.51,0,0,0,1.51-1.51h0v-60.11a1.51,1.51,0,0,0-1.5-1.52Zm-1.51,60.12H242.32v-57.1h57.11Z"/><path class="cls-2" d="M250.89,2072.85a1.51,1.51,0,0,0-2.12,0l-3,3a1.51,1.51,0,1,0,2.12,2.12l3-3A1.51,1.51,0,0,0,250.89,2072.85Z"/><path class="cls-2" d="M259.92,2072.85a1.51,1.51,0,0,0-2.12,0l-12,12a1.51,1.51,0,1,0,2.12,2.12l12-12A1.51,1.51,0,0,0,259.92,2072.85Z"/><path class="cls-2" d="M240.82,2006.29h-60.2a1.51,1.51,0,0,0-1.51,1.51h0v60.12a1.51,1.51,0,0,0,1.51,1.51h60.1a1.51,1.51,0,0,0,1.51-1.51h0v-60.14A1.51,1.51,0,0,0,240.82,2006.29Zm-1.51,60.12H182.14V2009.3h57.11Z"/><path class="cls-2" d="M190.77,2012.74a1.51,1.51,0,0,0-2.12,0l-3,3a1.51,1.51,0,1,0,2.12,2.12l3-3A1.51,1.51,0,0,0,190.77,2012.74Z"/><path class="cls-2" d="M199.8,2012.74a1.51,1.51,0,0,0-2.12,0l-12,12a1.51,1.51,0,1,0,2.12,2.12l12-12A1.51,1.51,0,0,0,199.8,2012.74Z"/><path class="cls-2" d="M300.94,2126.51H240.82a1.51,1.51,0,0,0-1.51,1.51h0v60.09a1.51,1.51,0,0,0,1.51,1.51h60.12a1.51,1.51,0,0,0,1.51-1.51h0V2128A1.51,1.51,0,0,0,300.94,2126.51Zm-1.51,60.12H242.32v-57.11h57.11Z"/><path class="cls-2" d="M286.46,2159.69c-4.26-1.71-7.89-1.51-10.77.38-6.26,4.23-6.32,15.57-6.32,16.06a1.51,1.51,0,0,0,3,0c0-.11,0-10.24,5-13.63,2-1.36,4.7-1.38,8,0a1.51,1.51,0,0,0,1.12-2.79Z"/><path class="cls-2" d="M266.06,2160.11c-2.88-2-6.5-2.08-10.77-.38a1.51,1.51,0,1,0,.85,2.9l.27-.11c3.27-1.3,6-1.29,8,0,4.94,3.33,5,13.47,5,13.63a1.51,1.51,0,0,0,3,0C272.39,2175.62,272.31,2164.29,266.06,2160.11Z"/><path class="cls-2" d="M268.48,2148.28a7.47,7.47,0,0,0-7-.65,1.51,1.51,0,0,0,1,2.85h0a4.54,4.54,0,0,1,4.33.24c2.2,1.51,2.7,5.85,2.7,7.36a1.51,1.51,0,0,0,1.51,1.51h0a1.51,1.51,0,0,0,1.51-1.51h0C272.37,2157.79,272.34,2151.11,268.48,2148.28Z"/><path class="cls-2" d="M280.37,2147.63a7.45,7.45,0,0,0-7,.65c-3.91,2.8-3.94,9.5-3.94,9.79a1.51,1.51,0,0,0,3,0c0-1.51.48-5.76,2.7-7.35a4.54,4.54,0,0,1,4.35-.24,1.51,1.51,0,0,0,1-2.85Z"/><path class="cls-2" d="M258.86,2168.59a4.54,4.54,0,1,0,4.54,4.54h0a4.54,4.54,0,0,0-4.54-4.54Zm0,6.06a1.51,1.51,0,1,1,1.51-1.51,1.51,1.51,0,0,1-1.51,1.51Z"/><path class="cls-2" d="M282.9,2168.59a4.54,4.54,0,1,0,4.54,4.54h0a4.54,4.54,0,0,0-4.54-4.54Zm0,6.06a1.51,1.51,0,1,1,1.51-1.51,1.51,1.51,0,0,1-1.51,1.51Z"/><path class="cls-2" d="M270.87,2138.54a1.51,1.51,0,0,0-1.51,1.51h0v6.06a1.51,1.51,0,0,0,3,0V2140A1.51,1.51,0,0,0,270.87,2138.54Z"/><path class="cls-2" d="M250.89,2133a1.51,1.51,0,0,0-2.12,0l-3,3a1.51,1.51,0,1,0,2.12,2.12l3-3A1.51,1.51,0,0,0,250.89,2133Z"/><path class="cls-2" d="M259.92,2133a1.51,1.51,0,0,0-2.12,0l-12,12a1.51,1.51,0,1,0,2.12,2.12l12-12A1.51,1.51,0,0,0,259.92,2133Z"/><path class="cls-2" d="M240.82,2066.39h-60.1a1.51,1.51,0,0,0-1.51,1.51h0V2128a1.51,1.51,0,0,0,1.51,1.51h60.1a1.51,1.51,0,0,0,1.51-1.51h0v-60.11a1.51,1.51,0,0,0-1.5-1.52Zm-1.51,60.12H182.14v-57.1h57.11Z"/><path class="cls-2" d="M226.35,2099.57c-4.26-1.71-7.89-1.51-10.77.38-6.26,4.23-6.32,15.57-6.32,16.06a1.51,1.51,0,0,0,3,0c0-.11,0-10.24,5-13.63,2-1.36,4.7-1.38,8,0a1.51,1.51,0,0,0,1.39-2.68l-.27-.11Z"/><path class="cls-2" d="M205.94,2100c-2.88-2-6.5-2.08-10.77-.38a1.51,1.51,0,1,0,.85,2.9l.27-.11c3.27-1.3,6-1.29,8,0,4.94,3.33,5,13.47,5,13.63a1.51,1.51,0,1,0,3,0C212.27,2115.52,212.19,2104.17,205.94,2100Z"/><path class="cls-2" d="M208.31,2088.18a7.47,7.47,0,0,0-7-.65,1.51,1.51,0,1,0,1,2.85h0a4.54,4.54,0,0,1,4.33.24c2.2,1.51,2.7,5.85,2.7,7.36a1.51,1.51,0,0,0,1.51,1.51h0a1.51,1.51,0,0,0,1.51-1.51h0C212.27,2097.67,212.22,2091,208.31,2088.18Z"/><path class="cls-2" d="M220.25,2087.51a7.45,7.45,0,0,0-7,.65c-3.91,2.8-3.94,9.5-3.94,9.79a1.51,1.51,0,0,0,3,0c0-1.51.48-5.76,2.7-7.35a4.62,4.62,0,0,1,4.35-.24,1.51,1.51,0,1,0,1-2.85Z"/><path class="cls-2" d="M198.8,2108.47a4.54,4.54,0,1,0,4.54,4.54,4.54,4.54,0,0,0-4.54-4.54Zm0,6.06a1.51,1.51,0,1,1,1.51-1.51,1.51,1.51,0,0,1-1.51,1.51Z"/><path class="cls-2" d="M222.78,2108.47a4.54,4.54,0,1,0,4.54,4.54,4.54,4.54,0,0,0-4.54-4.54Zm0,6.06a1.51,1.51,0,1,1,1.51-1.51,1.51,1.51,0,0,1-1.51,1.51Z"/><path class="cls-2" d="M210.72,2078.42a1.51,1.51,0,0,0-1.51,1.51h0V2086a1.51,1.51,0,1,0,3,0v-6.06A1.51,1.51,0,0,0,210.72,2078.42Z"/><path class="cls-2" d="M190.79,2072.85a1.51,1.51,0,0,0-2.12,0l-3,3a1.51,1.51,0,1,0,2.12,2.12l3-3A1.51,1.51,0,0,0,190.79,2072.85Z"/><path class="cls-2" d="M199.8,2072.85a1.51,1.51,0,0,0-2.12,0l-12,12a1.51,1.51,0,1,0,2.12,2.12l12-12A1.51,1.51,0,0,0,199.8,2072.85Z"/><path class="cls-2" d="M294.93,2012.3h-48.1a1.51,1.51,0,0,0,0,3h48.09a1.51,1.51,0,0,0,0-3Z"/><path class="cls-2" d="M288.91,2021.27H246.83a1.51,1.51,0,1,0,0,3h42.08a1.51,1.51,0,1,0,0-3Z"/><path class="cls-2" d="M291.91,2030.36H246.83a1.51,1.51,0,0,0,0,3h45.08a1.51,1.51,0,0,0,0-3Z"/><path class="cls-2" d="M294.93,2039.36h-48.1a1.51,1.51,0,0,0,0,3h48.09a1.51,1.51,0,0,0,0-3Z"/><path class="cls-2" d="M294.93,2048.37h-48.1a1.51,1.51,0,0,0,0,3h48.09a1.51,1.51,0,0,0,0-3Z"/><path class="cls-2" d="M294.93,2057.38h-48.1a1.51,1.51,0,0,0,0,3h48.09a1.51,1.51,0,0,0,0-3Z"/><text class="cls-4" transform="translate(101 1855.76)">П</text><text class="cls-19" transform="translate(126.94 1855.76)">О</text><text class="cls-4" transform="translate(151.34 1855.76)">ДПИ<tspan class="cls-14" x="76.87" y="0">С</tspan><tspan x="102.32" y="0">АНИЕ АК</tspan></text><text class="cls-20" transform="translate(406.48 1855.76)">Т</text><text class="cls-4" transform="translate(426.77 1855.76)">А</text><text class="cls-4" transform="translate(139.33 1899.38)">ПРИЕ</text><text class="cls-13" transform="translate(234.77 1899.38)">М</text><text class="cls-4" transform="translate(266.84 1899.38)">А</text><text class="cls-10" transform="translate(299.54 1899.38)">Р</text><text class="cls-4" transform="translate(320.04 1899.38)">АБ</text><text class="cls-12" transform="translate(366.66 1899.38)">О</text><text class="cls-18" transform="translate(391.18 1899.38)">Т</text><path class="cls-2" d="M305.15,1619.56H291.79a.83.83,0,0,0-.83.83h0v22.55h-2.5a.84.84,0,1,0,0,1.67H291v14.21a.84.84,0,0,0,1.67,0h0v-14.21h12.53a12.53,12.53,0,0,0,0-25.07Zm7.68,20.21a10.83,10.83,0,0,1-7.68,3.18H292.67v-21.72h12.54a10.86,10.86,0,0,1,7.66,18.54Z"/><path class="cls-2" d="M306.81,1648H288.44a.84.84,0,0,0,0,1.67h18.37a.84.84,0,0,0,0-1.67Z"/><path class="cls-2" d="M336.09,1593h-95l-.41.11h0l-.36.17h0l-.35.23h0l-.32.27h0l-33.72,33.72h0a3.19,3.19,0,0,0-.27.32h0a3.16,3.16,0,0,0-.23.35h0a3.2,3.2,0,0,0-.17.36h0a3.12,3.12,0,0,0-.11.41h0a3.25,3.25,0,0,0,0,.39V1778a9.92,9.92,0,0,0,9.91,9.91H336.44a9.92,9.92,0,0,0,9.91-9.91V1602.92a9.92,9.92,0,0,0-9.93-9.91h-.33Zm-97.58,10.8v19.3a3.59,3.59,0,0,1-3.59,3.59H215.58Zm101.11,174.45a3.59,3.59,0,0,1-3.59,3.59H214.64a3.59,3.59,0,0,1-3.59-3.59V1633h23.81a9.92,9.92,0,0,0,9.86-9.89v-23.77H336a3.59,3.59,0,0,1,3.59,3.59Z"/><path class="cls-2" d="M242.51,1683.64h80.93a3.17,3.17,0,1,0,0-6.32H242.51a3.17,3.17,0,1,0,0,6.32Z"/><path class="cls-2" d="M234.94,1700.5h80.93a3.17,3.17,0,1,0,0-6.32H234.94a3.17,3.17,0,1,0,0,6.32Z"/><path class="cls-2" d="M234.94,1717.36H275.4a3.17,3.17,0,1,0,0-6.32H234.94a3.17,3.17,0,1,0,0,6.32Z"/><path class="cls-2" d="M278.56,1731a3.17,3.17,0,0,0-3.17-3.17H234.94a3.17,3.17,0,1,0,0,6.32H275.4A3.17,3.17,0,0,0,278.56,1731Z"/><path class="cls-2" d="M322.08,1728.11a3.17,3.17,0,0,0-4.3,1.2l-6.5,11.51-.89-.68a3.17,3.17,0,0,0-4.76,1.11l-3.29,6.65-1.06-1.21a6.53,6.53,0,0,0-11.09,2.15l-3.62,10.44-8.63-10.91a3.17,3.17,0,0,0-4.45-.5l-.1.08-9.09,8a3.18,3.18,0,0,0,3.92,5l.23-.2,6.66-5.82,8.24,10.41a4.85,4.85,0,0,0,8.38-1.42l4.54-13a.21.21,0,0,1,.36,0l4.17,4.79A3.17,3.17,0,0,0,306,1755l3.68-7.44.73.56a3.17,3.17,0,0,0,4.68-1l8.3-14.68a3.17,3.17,0,0,0-1.21-4.31Z"/><text class="cls-4" transform="translate(175.55 2670.81)">ПЕРЕ<tspan class="cls-21" x="98.86" y="0">Е</tspan><tspan x="122.31" y="0">ЗД В</tspan></text><text class="cls-4" transform="translate(99.34 2714.43)">У</text><text class="cls-8" transform="translate(122.18 2714.43)">Ю</text><text class="cls-4" transform="translate(154.16 2714.43)">ТНУЮ К<tspan class="cls-7" x="139.54" y="0">В</tspan><tspan x="162.58" y="0">А</tspan><tspan class="cls-22" x="186.83" y="0">Р</tspan><tspan x="209.44" y="0">ТИ</tspan><tspan class="cls-14" x="257.77" y="0">Р</tspan><tspan class="cls-23" x="281.22" y="0">У</tspan></text><path class="cls-2" d="M194.94,2506.7a4.15,4.15,0,0,1,3,1.23,2.29,2.29,0,1,0,3.23-3.23,8.74,8.74,0,0,0-12.35,0,2.29,2.29,0,0,0,3.23,3.23A4.14,4.14,0,0,1,194.94,2506.7Z"/><path class="cls-2" d="M236,2504.68a2.29,2.29,0,0,0,3.23,3.23,4.18,4.18,0,0,1,5.89,0,2.29,2.29,0,0,0,3.23-3.23A8.74,8.74,0,0,0,236,2504.68Z"/><path class="cls-2" d="M242.19,2527.19a33.43,33.43,0,0,1-47.23,0,2.29,2.29,0,0,0-3.23,3.23,38,38,0,0,0,53.68,0,2.29,2.29,0,0,0-3.23-3.23Z"/><path class="cls-2" d="M272.42,2509.11A12.68,12.68,0,0,0,262,2496.66v-38.23a14.74,14.74,0,0,0-19.69-13.91L228,2439.66a56.85,56.85,0,0,0-33.51-1.11c-14.28,3.94-22.48,12.28-23.74,24.13a17.32,17.32,0,0,0-2.61,4.92l-1.11,3.29a4,4,0,0,0,6.51,4.12,8,8,0,0,1,1.51-1.12v22.72a12.65,12.65,0,0,0,.71,25,43.82,43.82,0,0,0,12,23,42.93,42.93,0,0,0,30.78,12.94h0a43.49,43.49,0,0,0,42.82-36A12.68,12.68,0,0,0,272.42,2509.11Zm-19.48-59a10,10,0,0,1,4.54,8.48v29.86A14.83,14.83,0,0,1,245,2473.82l-.18-25.08a10,10,0,0,1,8.15,1.36Zm-80.83,20.42.44-1.32a12.78,12.78,0,0,1,17.51-7.5,17.45,17.45,0,0,0,20.31-4.23l.56-.64a2.29,2.29,0,0,0-3.42-3l-.56.64a12.86,12.86,0,0,1-15,3.12,17.36,17.36,0,0,0-14.15-.23c-.41.18-.82.38-1.21.58,2.65-7.07,9.09-12.12,19.18-14.84a52.3,52.3,0,0,1,30.83,1l13.63,4.54.18,11.78a40.31,40.31,0,0,1-54.53,9.86,12.36,12.36,0,0,0-13.81.21Zm-2.8,38.67a8.1,8.1,0,0,1,5.8-7.76v12.38q0,1.61.11,3.18a8.1,8.1,0,0,1-5.92-7.82Zm76.78,32.55a38.66,38.66,0,0,1-27.5,11.36h0a38.4,38.4,0,0,1-27.52-11.57,39.38,39.38,0,0,1-11.35-27.77v-40.9a7.89,7.89,0,0,1,3.73,1.27,44.88,44.88,0,0,0,57-6.6v6.2A19.39,19.39,0,0,0,257.54,2493v21.21a38.64,38.64,0,0,1-11.42,27.54ZM262,2517c0-.91.09-1.83.09-2.74v-12.8A8.09,8.09,0,0,1,262,2517Z"/><path class="cls-2" d="M342.42,2557.19a11.18,11.18,0,0,1-15.78,0,2.29,2.29,0,0,0-3.23,3.23,15.75,15.75,0,0,0,22.25,0,2.29,2.29,0,1,0-3.23-3.23Z"/><path class="cls-2" d="M386.16,2579.83c-5.35-5.92-5.57-21-4.94-36.61a12,12,0,0,0,.82-16.66c.77-15.92,1.2-26.55-3.86-36.35a41,41,0,0,0-16.57-16.66,54.21,54.21,0,0,0-29-7.18,31.19,31.19,0,0,0-23,11.48,22.08,22.08,0,0,0-17.8,10.72c-.32.53-.61,1.09-.89,1.64-5,9.83-4.64,20.48-3.86,36.35a12,12,0,0,0,.82,16.66c.64,15.6.41,30.69-4.94,36.61a2.29,2.29,0,0,0,.89,3.67,48.15,48.15,0,0,0,17.1,3,54.38,54.38,0,0,0,14.12-1.91,55,55,0,0,0,12.88-5.23,40.9,40.9,0,0,0,13.31,0,55,55,0,0,0,12.88,5.23,53.67,53.67,0,0,0,14,1.91,48.61,48.61,0,0,0,17.18-3,2.29,2.29,0,0,0,.89-3.67Zm-10.84-40.62v-11.77a7.42,7.42,0,0,1,0,14.13C375.29,2540.78,375.32,2540,375.32,2539.21Zm-80.37-47a13.73,13.73,0,0,1,.79-1.42,17.56,17.56,0,0,1,15-8.48h0a2.29,2.29,0,0,0,1.76-.89,26.69,26.69,0,0,1,20.24-10.6,49.67,49.67,0,0,1,26.58,6.57,36.54,36.54,0,0,1,14.78,14.78c4,7.86,4.17,16.42,3.5,31.13a11.9,11.9,0,0,0-2.3-.7v-2.32a2.29,2.29,0,0,0-4.54,0v5.18c-31.43.33-48.47-14.8-53-19.54a2.29,2.29,0,0,0-3.76.71c-3.32,8.06-9.09,12.28-18.18,13.28a2.29,2.29,0,0,0-2,2.27v.42a11.86,11.86,0,0,0-2.3.7c-.68-14.62-.56-23.18,3.48-31.05Zm-1.12,49.27a7.42,7.42,0,0,1,0-14.13v11.77a16,16,0,0,0,0,2.41Zm-5.58,38.63c4.07-7,4.77-18.5,4.26-34.25a11.89,11.89,0,0,0,1.88.41,40.9,40.9,0,0,0,26.72,31.36c-6.62,2.91-19.1,6.66-32.87,2.53Zm46.29-4.76a36.26,36.26,0,0,1-36.22-36.22v-14.89c8.56-1.41,14.65-5.62,18.51-12.81a67.1,67.1,0,0,0,16.09,10.72,84.36,84.36,0,0,0,37.87,8v9.09a36.26,36.26,0,0,1-36.26,36.2Zm20.87,4.88a54,54,0,0,1-7.44-2.59,40.9,40.9,0,0,0,26.75-31.33,11.89,11.89,0,0,0,1.88-.41c-.51,15.75.18,27.27,4.26,34.25a45.79,45.79,0,0,1-25.45.15Z"/><path class="cls-2" d="M307.26,2532.43a2.29,2.29,0,0,0,3.23,3.23,3.76,3.76,0,0,1,5.3,0,2.29,2.29,0,0,0,3.23-3.23A8.32,8.32,0,0,0,307.26,2532.43Z"/><path class="cls-2" d="M361.81,2535.72a2.29,2.29,0,0,0,0-3.23,8.33,8.33,0,0,0-11.75,0,2.29,2.29,0,1,0,3.23,3.23,3.76,3.76,0,0,1,5.3,0A2.29,2.29,0,0,0,361.81,2535.72Z"/><text class="cls-3" transform="translate(266.52 2787.25)">7</text><circle class="cls-1" cx="275.68" cy="2772.38" r="29.18" transform="translate(-1530.34 650.97) rotate(-34.73)"/><line class="cls-1" x1="275.74" y1="2801.52" x2="275.74" y2="2876.34"/><path class="cls-2" d="M255.58,2847.63a2.1,2.1,0,0,1,2.9.65h0l17.26,27.1,17.26-27.1a2.1,2.1,0,1,1,3.55,2.24v0l-19,29.88a2.1,2.1,0,0,1-3.54,0l-19-29.88a2.11,2.11,0,0,1,.64-2.9Z"/></g></g></svg>