<svg xmlns="http://www.w3.org/2000/svg" viewBox="0 0 206.87 120.64"><defs><style>.cls-1{fill:#fff;}</style></defs><title>step3_1</title><g id="Слой_2" data-name="Слой 2"><g id="Слой_1-2" data-name="Слой 1"><path class="cls-1" d="M200.83,39.13,155.06,1.42a6.24,6.24,0,0,0-7.92,0l-17,13.8V7.31a4.09,4.09,0,0,0-4.09-4h-7.81a4.09,4.09,0,0,0-4.09,4.09h0V28.5L101.31,39.13a6.23,6.23,0,0,0,4,11H108V80a9,9,0,0,0,9,9H185.9a9,9,0,0,0,9-9V50.13h2a6.23,6.23,0,0,0,4-11Zm.19,6.3a4.33,4.33,0,0,1-4.16,2.93h-3a.91.91,0,0,0-.91.91V80.08a7.15,7.15,0,0,1-7.14,7.14H117a7.15,7.15,0,0,1-7.14-7.14V49.26a.91.91,0,0,0-.91-.91h-3.61a4.42,4.42,0,0,1-2.81-7.83l13.17-10.9h0l.07-.07,0-.06v-.41a.91.91,0,0,0,0-.1h0V7.41a2.27,2.27,0,0,1,2.27-2.27h7.81a2.25,2.25,0,0,1,2.27,2.16v9.82h0a.91.91,0,0,0,0,.1v.33l0,.08h0l.07.07.07.06h1l.08,0h0l18.44-15a4.42,4.42,0,0,1,5.62,0l45.77,37.71a4.33,4.33,0,0,1,1.76,5Z"/><path class="cls-1" d="M141.34,37.45h-2.81a8.7,8.7,0,0,0-8.7,8.7h0V49a8.7,8.7,0,0,0,8.7,8.7h2.81A8.7,8.7,0,0,0,150,49h0V46.15a8.7,8.7,0,0,0-8.7-8.7Zm-.25,18.45h-2.31a7.14,7.14,0,0,1-7.14-7.14h0V46.45a7.14,7.14,0,0,1,7.14-7.14h2.31a7.14,7.14,0,0,1,7.14,7.14h0v2.31a7.14,7.14,0,0,1-7.14,7.14Z"/><path class="cls-1" d="M165.39,37.45h-2.82a8.7,8.7,0,0,0-8.7,8.7h0V49a8.7,8.7,0,0,0,8.7,8.7h2.81a8.7,8.7,0,0,0,8.7-8.7h0V46.15A8.7,8.7,0,0,0,165.39,37.45Zm-.25,18.45h-2.31a7.14,7.14,0,0,1-7.14-7.14h0V46.45a7.14,7.14,0,0,1,7.14-7.14h2.31a7.14,7.14,0,0,1,7.14,7.14h0v2.31a7.14,7.14,0,0,1-7.14,7.14Z"/><path class="cls-1" d="M165.39,59.9h-2.82a8.7,8.7,0,0,0-8.7,8.7h0v2.81a8.7,8.7,0,0,0,8.7,8.7h2.81a8.7,8.7,0,0,0,8.7-8.7h0V68.6A8.7,8.7,0,0,0,165.39,59.9Zm-.25,18.41h-2.31a7.14,7.14,0,0,1-7.14-7.14h0V68.9a7.14,7.14,0,0,1,7.14-7.14h2.31a7.14,7.14,0,0,1,7.14,7.14h0v2.31a7.14,7.14,0,0,1-7.14,7.13Z"/><path class="cls-1" d="M141.34,59.9h-2.81a8.7,8.7,0,0,0-8.7,8.7h0v2.81a8.7,8.7,0,0,0,8.7,8.7h2.81a8.7,8.7,0,0,0,8.7-8.7h0V68.6a8.7,8.7,0,0,0-8.7-8.7Zm-.25,18.41h-2.31a7.14,7.14,0,0,1-7.14-7.14h0V68.9a7.14,7.14,0,0,1,7.14-7.14h2.31a7.14,7.14,0,0,1,7.14,7.14h0v2.31a7.14,7.14,0,0,1-7.14,7.13Z"/><path class="cls-1" d="M38.15,29.9H18.57a1.22,1.22,0,0,0-1.22,1.22v33H13.68a1.23,1.23,0,0,0,0,2.45h3.67V87.38a1.23,1.23,0,1,0,2.45,0h0V66.58H38.16a18.36,18.36,0,0,0,0-36.72ZM49.4,59.51a15.86,15.86,0,0,1-11.25,4.66H19.79V32.31H38.17A15.91,15.91,0,0,1,49.4,59.47Z"/><path class="cls-1" d="M40.6,71.48H13.67a1.23,1.23,0,0,0,0,2.45H40.6a1.23,1.23,0,1,0,0-2.45Z"/><rect class="cls-1" y="87.13" width="206.87" height="1.82" rx="0.78" ry="0.78"/><path class="cls-1" d="M113.19,120.64H73.52a5,5,0,0,1-3.84-8.33L89.52,89.12a5,5,0,0,1,7.67,0L117,112.31a5,5,0,0,1-3.84,8.33ZM90.9,90.3,71.06,113.49a3.23,3.23,0,0,0,2.46,5.33h39.67a3.23,3.23,0,0,0,2.46-5.33L95.81,90.3a3.23,3.23,0,0,0-4.91,0Z"/></g></g></svg>