<svg xmlns="http://www.w3.org/2000/svg" viewBox="0 0 98.31 109.8"><defs><style>.cls-1{fill:#fff;}</style></defs><title>step2_1</title><g id="Слой_2" data-name="Слой 2"><g id="Слой_1-2" data-name="Слой 1"><path class="cls-1" d="M97.51,36.6h0l-3-2.31a1.94,1.94,0,0,0-2.72.36h0l-3.22,4.2-.15-.11a2.36,2.36,0,0,0-3.31.44h0L48.93,86.35h0l-.07.12-.06.09a1.57,1.57,0,0,0-.1.23L44,100.41h0a1.87,1.87,0,0,0,2.81,2.16h0l11.93-8.1.19-.15.07-.08.09-.1h0L91.63,51.69l1,.74L79.29,69.82a1.57,1.57,0,0,0,2.48,1.91h0L95.52,53.81a2.46,2.46,0,0,0-.45-3.45h0l-1.5-1.15L95.28,47a2.36,2.36,0,0,0-.44-3.31h0l-.15-.11,3.21-4.18a1.94,1.94,0,0,0-.33-2.72ZM48.16,97.85l2.77-8,4.22,3.24ZM57.53,91l-5.17-4L87.12,41.67l5.17,4ZM92.17,41.63,91,40.77l2.48-3.24,1.13.86Z"/><path class="cls-1" d="M72.72,49.23H11.15a1.61,1.61,0,0,0-.06,3.22H72.82a1.61,1.61,0,0,0-.06-3.22Z"/><path class="cls-1" d="M57.76,65.34H11.15a1.61,1.61,0,0,0-.06,3.22H57.82a1.61,1.61,0,0,0-.06-3.22Z"/><path class="cls-1" d="M39.32,97.56H11.15a1.61,1.61,0,0,0-.06,3.22H39.27a1.61,1.61,0,0,0,.06-3.22Z"/><path class="cls-1" d="M73,97.56H58.75a1.61,1.61,0,0,0,0,3.22H73a1.61,1.61,0,1,0,0-3.22Z"/><path class="cls-1" d="M82.63,38.53a1.6,1.6,0,0,0,2-1.52V26.29a1.56,1.56,0,0,0,0-.2h0a1.54,1.54,0,0,0,0-.2h0a1.57,1.57,0,0,0-.08-.18h0l-.11-.17h0l-.14-.16-25-25L59.09.24h0L58.92.13h0L58.74,0h0l-.19,0H3.25A3.25,3.25,0,0,0,0,3.25v103.3a3.25,3.25,0,0,0,3.25,3.25H82.93a1.69,1.69,0,0,0,1.69-1.69h0V74.76a.86.86,0,0,0-.31-.66,1.68,1.68,0,0,0-2.91,1.06v31.52a.12.12,0,0,1-.12.12H3.13a.12.12,0,0,1-.12-.12V3.18a.12.12,0,0,1,.12-.12H56.49V24.67A3.31,3.31,0,0,0,59.8,28H81.41v9A1.61,1.61,0,0,0,82.63,38.53Zm-23-13.78a.18.18,0,0,1-.18-.18V5.2h0L79,24.74Z"/><path class="cls-1" d="M38.45,22.21,25.36,9.92a1.56,1.56,0,0,0-2.14,0L10.13,22.21a1.56,1.56,0,1,0,2.14,2.28l12-11.29,12,11.29a1.57,1.57,0,1,0,2.14-2.28Z"/><path class="cls-1" d="M34.19,24.15l-8-7.53a2.59,2.59,0,0,0-3.54,0l-8,7.53A2.59,2.59,0,0,0,13.83,26V37a2.59,2.59,0,0,0,2.59,2.59h16A2.59,2.59,0,0,0,35,37V26A2.59,2.59,0,0,0,34.19,24.15ZM25.56,36.56H23.2V31.19h2.36Zm3,0V30.11A2.14,2.14,0,0,0,26.42,28H22.11A2.14,2.14,0,0,0,20,30.11h0v6.45H16.75V26.39l7.52-7,7.52,7V36.56Z"/><path class="cls-1" d="M44.14,81.45H26.2a1.61,1.61,0,0,0,0,3.22h18a1.61,1.61,0,1,0,0-3.22h-.06Z"/><path class="cls-1" d="M16.82,81.45H11.23a1.61,1.61,0,0,0,0,3.22h5.59a1.61,1.61,0,1,0,0-3.22Z"/></g></g></svg>